%TF.GenerationSoftware,KiCad,Pcbnew,(5.1.6)-1*%
%TF.CreationDate,2021-04-07T17:49:54+02:00*%
%TF.ProjectId,atmega_isp,61746d65-6761-45f6-9973-702e6b696361,rev?*%
%TF.SameCoordinates,Original*%
%TF.FileFunction,Soldermask,Top*%
%TF.FilePolarity,Negative*%
%FSLAX46Y46*%
G04 Gerber Fmt 4.6, Leading zero omitted, Abs format (unit mm)*
G04 Created by KiCad (PCBNEW (5.1.6)-1) date 2021-04-07 17:49:54*
%MOMM*%
%LPD*%
G01*
G04 APERTURE LIST*
%ADD10C,8.700000*%
%ADD11C,1.000000*%
%ADD12R,2.700000X2.700000*%
%ADD13C,2.700000*%
%ADD14R,1.800000X1.800000*%
%ADD15O,1.800000X1.800000*%
%ADD16R,1.650000X1.400000*%
%ADD17R,1.700000X0.650000*%
%ADD18R,0.650000X1.700000*%
%ADD19R,1.900000X2.200000*%
G04 APERTURE END LIST*
D10*
%TO.C,H4*%
X168910000Y-134620000D03*
D11*
X172135000Y-134620000D03*
X171190419Y-136900419D03*
X168910000Y-137845000D03*
X166629581Y-136900419D03*
X165685000Y-134620000D03*
X166629581Y-132339581D03*
X168910000Y-131395000D03*
X171190419Y-132339581D03*
%TD*%
%TO.C,C1*%
G36*
G01*
X153045000Y-135098262D02*
X153045000Y-134141738D01*
G75*
G02*
X153316738Y-133870000I271738J0D01*
G01*
X154023262Y-133870000D01*
G75*
G02*
X154295000Y-134141738I0J-271738D01*
G01*
X154295000Y-135098262D01*
G75*
G02*
X154023262Y-135370000I-271738J0D01*
G01*
X153316738Y-135370000D01*
G75*
G02*
X153045000Y-135098262I0J271738D01*
G01*
G37*
G36*
G01*
X155095000Y-135098262D02*
X155095000Y-134141738D01*
G75*
G02*
X155366738Y-133870000I271738J0D01*
G01*
X156073262Y-133870000D01*
G75*
G02*
X156345000Y-134141738I0J-271738D01*
G01*
X156345000Y-135098262D01*
G75*
G02*
X156073262Y-135370000I-271738J0D01*
G01*
X155366738Y-135370000D01*
G75*
G02*
X155095000Y-135098262I0J271738D01*
G01*
G37*
%TD*%
%TO.C,C2*%
G36*
G01*
X136045000Y-98776262D02*
X136045000Y-97819738D01*
G75*
G02*
X136316738Y-97548000I271738J0D01*
G01*
X137023262Y-97548000D01*
G75*
G02*
X137295000Y-97819738I0J-271738D01*
G01*
X137295000Y-98776262D01*
G75*
G02*
X137023262Y-99048000I-271738J0D01*
G01*
X136316738Y-99048000D01*
G75*
G02*
X136045000Y-98776262I0J271738D01*
G01*
G37*
G36*
G01*
X133995000Y-98776262D02*
X133995000Y-97819738D01*
G75*
G02*
X134266738Y-97548000I271738J0D01*
G01*
X134973262Y-97548000D01*
G75*
G02*
X135245000Y-97819738I0J-271738D01*
G01*
X135245000Y-98776262D01*
G75*
G02*
X134973262Y-99048000I-271738J0D01*
G01*
X134266738Y-99048000D01*
G75*
G02*
X133995000Y-98776262I0J271738D01*
G01*
G37*
%TD*%
%TO.C,C3*%
G36*
G01*
X154656262Y-96383000D02*
X153699738Y-96383000D01*
G75*
G02*
X153428000Y-96111262I0J271738D01*
G01*
X153428000Y-95404738D01*
G75*
G02*
X153699738Y-95133000I271738J0D01*
G01*
X154656262Y-95133000D01*
G75*
G02*
X154928000Y-95404738I0J-271738D01*
G01*
X154928000Y-96111262D01*
G75*
G02*
X154656262Y-96383000I-271738J0D01*
G01*
G37*
G36*
G01*
X154656262Y-94333000D02*
X153699738Y-94333000D01*
G75*
G02*
X153428000Y-94061262I0J271738D01*
G01*
X153428000Y-93354738D01*
G75*
G02*
X153699738Y-93083000I271738J0D01*
G01*
X154656262Y-93083000D01*
G75*
G02*
X154928000Y-93354738I0J-271738D01*
G01*
X154928000Y-94061262D01*
G75*
G02*
X154656262Y-94333000I-271738J0D01*
G01*
G37*
%TD*%
%TO.C,C4*%
G36*
G01*
X138275000Y-94517738D02*
X138275000Y-95474262D01*
G75*
G02*
X138003262Y-95746000I-271738J0D01*
G01*
X137296738Y-95746000D01*
G75*
G02*
X137025000Y-95474262I0J271738D01*
G01*
X137025000Y-94517738D01*
G75*
G02*
X137296738Y-94246000I271738J0D01*
G01*
X138003262Y-94246000D01*
G75*
G02*
X138275000Y-94517738I0J-271738D01*
G01*
G37*
G36*
G01*
X140325000Y-94517738D02*
X140325000Y-95474262D01*
G75*
G02*
X140053262Y-95746000I-271738J0D01*
G01*
X139346738Y-95746000D01*
G75*
G02*
X139075000Y-95474262I0J271738D01*
G01*
X139075000Y-94517738D01*
G75*
G02*
X139346738Y-94246000I271738J0D01*
G01*
X140053262Y-94246000D01*
G75*
G02*
X140325000Y-94517738I0J-271738D01*
G01*
G37*
%TD*%
%TO.C,C5*%
G36*
G01*
X137295000Y-105693738D02*
X137295000Y-106650262D01*
G75*
G02*
X137023262Y-106922000I-271738J0D01*
G01*
X136316738Y-106922000D01*
G75*
G02*
X136045000Y-106650262I0J271738D01*
G01*
X136045000Y-105693738D01*
G75*
G02*
X136316738Y-105422000I271738J0D01*
G01*
X137023262Y-105422000D01*
G75*
G02*
X137295000Y-105693738I0J-271738D01*
G01*
G37*
G36*
G01*
X135245000Y-105693738D02*
X135245000Y-106650262D01*
G75*
G02*
X134973262Y-106922000I-271738J0D01*
G01*
X134266738Y-106922000D01*
G75*
G02*
X133995000Y-106650262I0J271738D01*
G01*
X133995000Y-105693738D01*
G75*
G02*
X134266738Y-105422000I271738J0D01*
G01*
X134973262Y-105422000D01*
G75*
G02*
X135245000Y-105693738I0J-271738D01*
G01*
G37*
%TD*%
%TO.C,C6*%
G36*
G01*
X153894262Y-101481000D02*
X152937738Y-101481000D01*
G75*
G02*
X152666000Y-101209262I0J271738D01*
G01*
X152666000Y-100502738D01*
G75*
G02*
X152937738Y-100231000I271738J0D01*
G01*
X153894262Y-100231000D01*
G75*
G02*
X154166000Y-100502738I0J-271738D01*
G01*
X154166000Y-101209262D01*
G75*
G02*
X153894262Y-101481000I-271738J0D01*
G01*
G37*
G36*
G01*
X153894262Y-99431000D02*
X152937738Y-99431000D01*
G75*
G02*
X152666000Y-99159262I0J271738D01*
G01*
X152666000Y-98452738D01*
G75*
G02*
X152937738Y-98181000I271738J0D01*
G01*
X153894262Y-98181000D01*
G75*
G02*
X154166000Y-98452738I0J-271738D01*
G01*
X154166000Y-99159262D01*
G75*
G02*
X153894262Y-99431000I-271738J0D01*
G01*
G37*
%TD*%
%TO.C,C7*%
G36*
G01*
X138967738Y-114691000D02*
X139924262Y-114691000D01*
G75*
G02*
X140196000Y-114962738I0J-271738D01*
G01*
X140196000Y-115669262D01*
G75*
G02*
X139924262Y-115941000I-271738J0D01*
G01*
X138967738Y-115941000D01*
G75*
G02*
X138696000Y-115669262I0J271738D01*
G01*
X138696000Y-114962738D01*
G75*
G02*
X138967738Y-114691000I271738J0D01*
G01*
G37*
G36*
G01*
X138967738Y-112641000D02*
X139924262Y-112641000D01*
G75*
G02*
X140196000Y-112912738I0J-271738D01*
G01*
X140196000Y-113619262D01*
G75*
G02*
X139924262Y-113891000I-271738J0D01*
G01*
X138967738Y-113891000D01*
G75*
G02*
X138696000Y-113619262I0J271738D01*
G01*
X138696000Y-112912738D01*
G75*
G02*
X138967738Y-112641000I271738J0D01*
G01*
G37*
%TD*%
%TO.C,D1*%
G36*
G01*
X147222500Y-127430769D02*
X147222500Y-126569231D01*
G75*
G02*
X147491731Y-126300000I269231J0D01*
G01*
X148378269Y-126300000D01*
G75*
G02*
X148647500Y-126569231I0J-269231D01*
G01*
X148647500Y-127430769D01*
G75*
G02*
X148378269Y-127700000I-269231J0D01*
G01*
X147491731Y-127700000D01*
G75*
G02*
X147222500Y-127430769I0J269231D01*
G01*
G37*
G36*
G01*
X149147500Y-127430769D02*
X149147500Y-126569231D01*
G75*
G02*
X149416731Y-126300000I269231J0D01*
G01*
X150303269Y-126300000D01*
G75*
G02*
X150572500Y-126569231I0J-269231D01*
G01*
X150572500Y-127430769D01*
G75*
G02*
X150303269Y-127700000I-269231J0D01*
G01*
X149416731Y-127700000D01*
G75*
G02*
X149147500Y-127430769I0J269231D01*
G01*
G37*
%TD*%
%TO.C,H1*%
X171190419Y-75189581D03*
X168910000Y-74245000D03*
X166629581Y-75189581D03*
X165685000Y-77470000D03*
X166629581Y-79750419D03*
X168910000Y-80695000D03*
X171190419Y-79750419D03*
X172135000Y-77470000D03*
D10*
X168910000Y-77470000D03*
%TD*%
%TO.C,H2*%
X123190000Y-134620000D03*
D11*
X126415000Y-134620000D03*
X125470419Y-136900419D03*
X123190000Y-137845000D03*
X120909581Y-136900419D03*
X119965000Y-134620000D03*
X120909581Y-132339581D03*
X123190000Y-131395000D03*
X125470419Y-132339581D03*
%TD*%
%TO.C,H3*%
X125470419Y-75189581D03*
X123190000Y-74245000D03*
X120909581Y-75189581D03*
X119965000Y-77470000D03*
X120909581Y-79750419D03*
X123190000Y-80695000D03*
X125470419Y-79750419D03*
X126415000Y-77470000D03*
D10*
X123190000Y-77470000D03*
%TD*%
D12*
%TO.C,J1*%
X143510000Y-134620000D03*
D13*
X148590000Y-134620000D03*
%TD*%
D14*
%TO.C,J2*%
X171450000Y-105410000D03*
D15*
X171450000Y-102870000D03*
X171450000Y-100330000D03*
X171450000Y-97790000D03*
X171450000Y-95250000D03*
X171450000Y-92710000D03*
X171450000Y-90170000D03*
X171450000Y-87630000D03*
%TD*%
D14*
%TO.C,J4*%
X148590000Y-82550000D03*
D15*
X151130000Y-82550000D03*
%TD*%
%TO.C,J5*%
X132080000Y-119380000D03*
D14*
X129540000Y-119380000D03*
%TD*%
D15*
%TO.C,J6*%
X120650000Y-105410000D03*
X120650000Y-102870000D03*
X120650000Y-100330000D03*
X120650000Y-97790000D03*
X120650000Y-95250000D03*
X120650000Y-92710000D03*
X120650000Y-90170000D03*
D14*
X120650000Y-87630000D03*
%TD*%
%TO.C,J7*%
X120650000Y-111760000D03*
D15*
X120650000Y-114300000D03*
X120650000Y-116840000D03*
X120650000Y-119380000D03*
X120650000Y-121920000D03*
X120650000Y-124460000D03*
%TD*%
D14*
%TO.C,J8*%
X171450000Y-124460000D03*
D15*
X171450000Y-121920000D03*
X171450000Y-119380000D03*
X171450000Y-116840000D03*
X171450000Y-114300000D03*
X171450000Y-111760000D03*
%TD*%
D14*
%TO.C,J9*%
X158750000Y-74930000D03*
D15*
X158750000Y-77470000D03*
X156210000Y-74930000D03*
X156210000Y-77470000D03*
X153670000Y-74930000D03*
X153670000Y-77470000D03*
X151130000Y-74930000D03*
X151130000Y-77470000D03*
%TD*%
%TO.C,L1*%
G36*
G01*
X158631000Y-98327738D02*
X158631000Y-99284262D01*
G75*
G02*
X158359262Y-99556000I-271738J0D01*
G01*
X157652738Y-99556000D01*
G75*
G02*
X157381000Y-99284262I0J271738D01*
G01*
X157381000Y-98327738D01*
G75*
G02*
X157652738Y-98056000I271738J0D01*
G01*
X158359262Y-98056000D01*
G75*
G02*
X158631000Y-98327738I0J-271738D01*
G01*
G37*
G36*
G01*
X156581000Y-98327738D02*
X156581000Y-99284262D01*
G75*
G02*
X156309262Y-99556000I-271738J0D01*
G01*
X155602738Y-99556000D01*
G75*
G02*
X155331000Y-99284262I0J271738D01*
G01*
X155331000Y-98327738D01*
G75*
G02*
X155602738Y-98056000I271738J0D01*
G01*
X156309262Y-98056000D01*
G75*
G02*
X156581000Y-98327738I0J-271738D01*
G01*
G37*
%TD*%
%TO.C,R1*%
G36*
G01*
X147945000Y-107471738D02*
X147945000Y-108428262D01*
G75*
G02*
X147673262Y-108700000I-271738J0D01*
G01*
X146966738Y-108700000D01*
G75*
G02*
X146695000Y-108428262I0J271738D01*
G01*
X146695000Y-107471738D01*
G75*
G02*
X146966738Y-107200000I271738J0D01*
G01*
X147673262Y-107200000D01*
G75*
G02*
X147945000Y-107471738I0J-271738D01*
G01*
G37*
G36*
G01*
X145895000Y-107471738D02*
X145895000Y-108428262D01*
G75*
G02*
X145623262Y-108700000I-271738J0D01*
G01*
X144916738Y-108700000D01*
G75*
G02*
X144645000Y-108428262I0J271738D01*
G01*
X144645000Y-107471738D01*
G75*
G02*
X144916738Y-107200000I271738J0D01*
G01*
X145623262Y-107200000D01*
G75*
G02*
X145895000Y-107471738I0J-271738D01*
G01*
G37*
%TD*%
%TO.C,R2*%
G36*
G01*
X142865000Y-126521738D02*
X142865000Y-127478262D01*
G75*
G02*
X142593262Y-127750000I-271738J0D01*
G01*
X141886738Y-127750000D01*
G75*
G02*
X141615000Y-127478262I0J271738D01*
G01*
X141615000Y-126521738D01*
G75*
G02*
X141886738Y-126250000I271738J0D01*
G01*
X142593262Y-126250000D01*
G75*
G02*
X142865000Y-126521738I0J-271738D01*
G01*
G37*
G36*
G01*
X144915000Y-126521738D02*
X144915000Y-127478262D01*
G75*
G02*
X144643262Y-127750000I-271738J0D01*
G01*
X143936738Y-127750000D01*
G75*
G02*
X143665000Y-127478262I0J271738D01*
G01*
X143665000Y-126521738D01*
G75*
G02*
X143936738Y-126250000I271738J0D01*
G01*
X144643262Y-126250000D01*
G75*
G02*
X144915000Y-126521738I0J-271738D01*
G01*
G37*
%TD*%
D16*
%TO.C,SW1*%
X142075000Y-115280000D03*
X142075000Y-110780000D03*
X150025000Y-110780000D03*
X150025000Y-115280000D03*
%TD*%
D17*
%TO.C,U1*%
X141800000Y-92450000D03*
X141800000Y-93250000D03*
X141800000Y-94050000D03*
X141800000Y-94850000D03*
X141800000Y-95650000D03*
X141800000Y-96450000D03*
X141800000Y-97250000D03*
X141800000Y-98050000D03*
D18*
X143250000Y-99500000D03*
X144050000Y-99500000D03*
X144850000Y-99500000D03*
X145650000Y-99500000D03*
X146450000Y-99500000D03*
X147250000Y-99500000D03*
X148050000Y-99500000D03*
X148850000Y-99500000D03*
D17*
X150300000Y-98050000D03*
X150300000Y-97250000D03*
X150300000Y-96450000D03*
X150300000Y-95650000D03*
X150300000Y-94850000D03*
X150300000Y-94050000D03*
X150300000Y-93250000D03*
X150300000Y-92450000D03*
D18*
X148850000Y-91000000D03*
X148050000Y-91000000D03*
X147250000Y-91000000D03*
X146450000Y-91000000D03*
X145650000Y-91000000D03*
X144850000Y-91000000D03*
X144050000Y-91000000D03*
X143250000Y-91000000D03*
%TD*%
D19*
%TO.C,Y1*%
X134366000Y-100732000D03*
X134366000Y-103632000D03*
X136666000Y-103632000D03*
X136666000Y-100732000D03*
%TD*%
D14*
%TO.C,J3*%
X143510000Y-77470000D03*
D15*
X143510000Y-74930000D03*
X140970000Y-77470000D03*
X140970000Y-74930000D03*
X138430000Y-77470000D03*
X138430000Y-74930000D03*
X135890000Y-77470000D03*
X135890000Y-74930000D03*
X133350000Y-77470000D03*
X133350000Y-74930000D03*
%TD*%
M02*
