M48
; DRILL file {KiCad (5.1.6)-1} date 04/07/21 17:49:52
; FORMAT={-:-/ absolute / inch / decimal}
; #@! TF.CreationDate,2021-04-07T17:49:52+02:00
; #@! TF.GenerationSoftware,Kicad,Pcbnew,(5.1.6)-1
FMAT,2
INCH
T1C0.0157
T2C0.0236
T3C0.0394
T4C0.0512
T5C0.1693
%
G90
G05
T1
X4.7Y-3.2
X4.7Y-3.3
X4.7Y-5.0
X4.7Y-5.1
X4.8Y-3.3
X4.8Y-5.0
X4.8Y-5.1
X4.9Y-3.3
X4.9Y-3.4
X4.9Y-3.7
X4.9Y-3.8
X4.9Y-3.9
X4.9Y-4.0
X4.9Y-4.3
X4.9Y-4.4
X4.9Y-4.5
X4.9Y-4.6
X4.9Y-4.8
X4.9Y-4.9
X4.9Y-5.0
X4.9Y-5.1
X5.0Y-2.9
X5.0Y-3.2
X5.0Y-3.3
X5.0Y-3.4
X5.0Y-3.7
X5.0Y-3.8
X5.0Y-3.9
X5.0Y-4.0
X5.0Y-4.1
X5.0Y-4.4
X5.0Y-4.5
X5.0Y-4.6
X5.0Y-4.8
X5.0Y-4.9
X5.0Y-5.0
X5.0Y-5.1
X5.1Y-2.9
X5.1Y-3.0
X5.1Y-3.1
X5.1Y-3.2
X5.1Y-3.3
X5.1Y-3.4
X5.1Y-3.7
X5.1Y-3.8
X5.1Y-3.9
X5.1Y-4.0
X5.1Y-4.1
X5.1Y-4.2
X5.1Y-4.4
X5.1Y-4.5
X5.1Y-4.6
X5.1Y-4.8
X5.1Y-4.9
X5.1Y-5.0
X5.1Y-5.1
X5.1Y-5.2
X5.1Y-5.3
X5.1Y-5.4
X5.2Y-3.2
X5.2Y-3.3
X5.2Y-3.4
X5.2Y-3.7
X5.2Y-3.8
X5.2Y-3.9
X5.2Y-4.0
X5.2Y-4.1
X5.2Y-4.2
X5.2Y-4.4
X5.2Y-4.5
X5.2Y-4.9
X5.2Y-5.0
X5.2Y-5.1
X5.2Y-5.2
X5.2Y-5.3
X5.2Y-5.4
X5.29Y-4.08
X5.3Y-3.4
X5.3Y-3.7
X5.3Y-4.4
X5.3Y-4.5
X5.3Y-4.9
X5.3Y-5.0
X5.3Y-5.1
X5.3Y-5.2
X5.3Y-5.3
X5.3Y-5.4
X5.38Y-3.96
X5.4Y-4.9
X5.4Y-5.0
X5.4Y-5.1
X5.4Y-5.2
X5.4Y-5.3
X5.4Y-5.4
X5.5Y-3.2
X5.5Y-3.9
X5.5Y-4.0
X5.5Y-4.9
X5.5Y-5.0
X5.5Y-5.1
X5.5Y-5.2
X5.5Y-5.3
X5.5Y-5.4
X5.5935Y-4.3614
X5.6Y-3.2
X5.6Y-4.9
X5.6Y-5.1
X5.6Y-5.2
X5.6Y-5.4
X5.64Y-3.81
X5.65Y-3.7
X5.65Y-3.7
X5.7Y-3.2
X5.7Y-3.46
X5.7Y-4.5
X5.7Y-4.9
X5.7Y-5.1
X5.7Y-5.2
X5.7Y-5.4
X5.8Y-2.9
X5.8Y-3.7
X5.8Y-3.8
X5.8Y-4.25
X5.848Y-3.862
X5.85Y-4.06
X5.9Y-5.0
X5.9173Y-3.8973
X6.0Y-3.4
X6.0Y-4.1
X6.0Y-4.5
X6.0Y-4.9
X6.0Y-5.0
X6.0Y-5.1
X6.0Y-5.2
X6.0Y-5.4
X6.05Y-5.3
X6.07Y-3.6893
X6.07Y-3.8536
X6.1Y-4.9
X6.1Y-5.0
X6.1Y-5.1
X6.1Y-5.2
X6.1Y-5.4
X6.2Y-4.9
X6.2Y-5.0
X6.2Y-5.1
X6.2Y-5.2
X6.2Y-5.3
X6.2Y-5.4
X6.22Y-3.89
X6.3Y-4.9
X6.3Y-5.0
X6.3Y-5.1
X6.3Y-5.2
X6.3Y-5.3
X6.3Y-5.4
X6.4Y-2.9
X6.4Y-3.0
X6.4Y-3.1
X6.4Y-3.2
X6.4Y-3.3
X6.4Y-3.4
X6.4Y-3.8
X6.4Y-3.9
X6.4Y-4.0
X6.4Y-4.1
X6.4Y-4.2
X6.4Y-4.3
X6.4Y-4.6
X6.4Y-4.7
X6.4Y-4.8
X6.4Y-4.9
X6.4Y-5.0
X6.4Y-5.1
X6.4Y-5.2
X6.4Y-5.3
X6.4Y-5.4
X6.42Y-3.64
X6.42Y-3.68
X6.5Y-3.2
X6.5Y-3.3
X6.5Y-3.4
X6.5Y-3.8
X6.5Y-3.9
X6.5Y-4.0
X6.5Y-4.1
X6.5Y-4.2
X6.5Y-4.3
X6.5Y-4.6
X6.5Y-4.7
X6.5Y-4.8
X6.5Y-4.9
X6.5Y-5.0
X6.5Y-5.1
X6.6Y-3.3
X6.6Y-3.4
X6.6Y-4.0
X6.6Y-4.1
X6.6Y-4.2
X6.6Y-4.3
X6.6Y-4.8
X6.6Y-4.9
X6.6Y-5.0
X6.6Y-5.1
X6.7Y-3.3
X6.7Y-5.0
X6.7Y-5.1
X6.8Y-3.2
X6.8Y-3.3
X6.8Y-5.0
X6.8Y-5.1
T2
X6.523Y-5.3
X6.5602Y-5.2102
X6.5602Y-5.3898
X6.65Y-5.173
X6.65Y-5.427
X6.7398Y-5.2102
X6.7398Y-5.3898
X6.777Y-5.3
X4.723Y-3.05
X4.7602Y-2.9602
X4.7602Y-3.1398
X4.85Y-2.923
X4.85Y-3.177
X4.9398Y-2.9602
X4.9398Y-3.1398
X4.977Y-3.05
X4.723Y-5.3
X4.7602Y-5.2102
X4.7602Y-5.3898
X4.85Y-5.173
X4.85Y-5.427
X4.9398Y-5.2102
X4.9398Y-5.3898
X4.977Y-5.3
X6.523Y-3.05
X6.5602Y-2.9602
X6.5602Y-3.1398
X6.65Y-2.923
X6.65Y-3.177
X6.7398Y-2.9602
X6.7398Y-3.1398
X6.777Y-3.05
T3
X4.75Y-3.45
X4.75Y-3.55
X4.75Y-3.65
X4.75Y-3.75
X4.75Y-3.85
X4.75Y-3.95
X4.75Y-4.05
X4.75Y-4.15
X5.85Y-3.25
X5.95Y-3.25
X5.25Y-2.95
X5.25Y-3.05
X5.35Y-2.95
X5.35Y-3.05
X5.45Y-2.95
X5.45Y-3.05
X5.55Y-2.95
X5.55Y-3.05
X5.65Y-2.95
X5.65Y-3.05
X5.1Y-4.7
X5.2Y-4.7
X4.75Y-4.4
X4.75Y-4.5
X4.75Y-4.6
X4.75Y-4.7
X4.75Y-4.8
X4.75Y-4.9
X6.75Y-4.4
X6.75Y-4.5
X6.75Y-4.6
X6.75Y-4.7
X6.75Y-4.8
X6.75Y-4.9
X5.95Y-2.95
X5.95Y-3.05
X6.05Y-2.95
X6.05Y-3.05
X6.15Y-2.95
X6.15Y-3.05
X6.25Y-2.95
X6.25Y-3.05
X6.75Y-3.45
X6.75Y-3.55
X6.75Y-3.65
X6.75Y-3.75
X6.75Y-3.85
X6.75Y-3.95
X6.75Y-4.05
X6.75Y-4.15
T4
X5.65Y-5.3
X5.85Y-5.3
T5
X6.65Y-5.3
X4.85Y-3.05
X4.85Y-5.3
X6.65Y-3.05
T0
M30
