%TF.GenerationSoftware,KiCad,Pcbnew,(5.1.6)-1*%
%TF.CreationDate,2021-04-07T17:49:54+02:00*%
%TF.ProjectId,atmega_isp,61746d65-6761-45f6-9973-702e6b696361,rev?*%
%TF.SameCoordinates,Original*%
%TF.FileFunction,Copper,L1,Top*%
%TF.FilePolarity,Positive*%
%FSLAX46Y46*%
G04 Gerber Fmt 4.6, Leading zero omitted, Abs format (unit mm)*
G04 Created by KiCad (PCBNEW (5.1.6)-1) date 2021-04-07 17:49:54*
%MOMM*%
%LPD*%
G01*
G04 APERTURE LIST*
%TA.AperFunction,ComponentPad*%
%ADD10C,8.600000*%
%TD*%
%TA.AperFunction,ComponentPad*%
%ADD11C,0.900000*%
%TD*%
%TA.AperFunction,ComponentPad*%
%ADD12R,2.600000X2.600000*%
%TD*%
%TA.AperFunction,ComponentPad*%
%ADD13C,2.600000*%
%TD*%
%TA.AperFunction,ComponentPad*%
%ADD14R,1.700000X1.700000*%
%TD*%
%TA.AperFunction,ComponentPad*%
%ADD15O,1.700000X1.700000*%
%TD*%
%TA.AperFunction,SMDPad,CuDef*%
%ADD16R,1.550000X1.300000*%
%TD*%
%TA.AperFunction,SMDPad,CuDef*%
%ADD17R,1.600000X0.550000*%
%TD*%
%TA.AperFunction,SMDPad,CuDef*%
%ADD18R,0.550000X1.600000*%
%TD*%
%TA.AperFunction,SMDPad,CuDef*%
%ADD19R,1.800000X2.100000*%
%TD*%
%TA.AperFunction,ViaPad*%
%ADD20C,0.800000*%
%TD*%
%TA.AperFunction,Conductor*%
%ADD21C,0.508000*%
%TD*%
%TA.AperFunction,Conductor*%
%ADD22C,0.635000*%
%TD*%
%TA.AperFunction,Conductor*%
%ADD23C,0.254000*%
%TD*%
G04 APERTURE END LIST*
D10*
%TO.P,H4,1*%
%TO.N,GND*%
X168910000Y-134620000D03*
D11*
X172135000Y-134620000D03*
X171190419Y-136900419D03*
X168910000Y-137845000D03*
X166629581Y-136900419D03*
X165685000Y-134620000D03*
X166629581Y-132339581D03*
X168910000Y-131395000D03*
X171190419Y-132339581D03*
%TD*%
%TO.P,C1,1*%
%TO.N,+5V*%
%TA.AperFunction,SMDPad,CuDef*%
G36*
G01*
X153095000Y-135070001D02*
X153095000Y-134169999D01*
G75*
G02*
X153344999Y-133920000I249999J0D01*
G01*
X153995001Y-133920000D01*
G75*
G02*
X154245000Y-134169999I0J-249999D01*
G01*
X154245000Y-135070001D01*
G75*
G02*
X153995001Y-135320000I-249999J0D01*
G01*
X153344999Y-135320000D01*
G75*
G02*
X153095000Y-135070001I0J249999D01*
G01*
G37*
%TD.AperFunction*%
%TO.P,C1,2*%
%TO.N,GND*%
%TA.AperFunction,SMDPad,CuDef*%
G36*
G01*
X155145000Y-135070001D02*
X155145000Y-134169999D01*
G75*
G02*
X155394999Y-133920000I249999J0D01*
G01*
X156045001Y-133920000D01*
G75*
G02*
X156295000Y-134169999I0J-249999D01*
G01*
X156295000Y-135070001D01*
G75*
G02*
X156045001Y-135320000I-249999J0D01*
G01*
X155394999Y-135320000D01*
G75*
G02*
X155145000Y-135070001I0J249999D01*
G01*
G37*
%TD.AperFunction*%
%TD*%
%TO.P,C2,2*%
%TO.N,GND*%
%TA.AperFunction,SMDPad,CuDef*%
G36*
G01*
X136095000Y-98748001D02*
X136095000Y-97847999D01*
G75*
G02*
X136344999Y-97598000I249999J0D01*
G01*
X136995001Y-97598000D01*
G75*
G02*
X137245000Y-97847999I0J-249999D01*
G01*
X137245000Y-98748001D01*
G75*
G02*
X136995001Y-98998000I-249999J0D01*
G01*
X136344999Y-98998000D01*
G75*
G02*
X136095000Y-98748001I0J249999D01*
G01*
G37*
%TD.AperFunction*%
%TO.P,C2,1*%
%TO.N,XTAL1*%
%TA.AperFunction,SMDPad,CuDef*%
G36*
G01*
X134045000Y-98748001D02*
X134045000Y-97847999D01*
G75*
G02*
X134294999Y-97598000I249999J0D01*
G01*
X134945001Y-97598000D01*
G75*
G02*
X135195000Y-97847999I0J-249999D01*
G01*
X135195000Y-98748001D01*
G75*
G02*
X134945001Y-98998000I-249999J0D01*
G01*
X134294999Y-98998000D01*
G75*
G02*
X134045000Y-98748001I0J249999D01*
G01*
G37*
%TD.AperFunction*%
%TD*%
%TO.P,C3,1*%
%TO.N,Net-(C3-Pad1)*%
%TA.AperFunction,SMDPad,CuDef*%
G36*
G01*
X154628001Y-96333000D02*
X153727999Y-96333000D01*
G75*
G02*
X153478000Y-96083001I0J249999D01*
G01*
X153478000Y-95432999D01*
G75*
G02*
X153727999Y-95183000I249999J0D01*
G01*
X154628001Y-95183000D01*
G75*
G02*
X154878000Y-95432999I0J-249999D01*
G01*
X154878000Y-96083001D01*
G75*
G02*
X154628001Y-96333000I-249999J0D01*
G01*
G37*
%TD.AperFunction*%
%TO.P,C3,2*%
%TO.N,GND*%
%TA.AperFunction,SMDPad,CuDef*%
G36*
G01*
X154628001Y-94283000D02*
X153727999Y-94283000D01*
G75*
G02*
X153478000Y-94033001I0J249999D01*
G01*
X153478000Y-93382999D01*
G75*
G02*
X153727999Y-93133000I249999J0D01*
G01*
X154628001Y-93133000D01*
G75*
G02*
X154878000Y-93382999I0J-249999D01*
G01*
X154878000Y-94033001D01*
G75*
G02*
X154628001Y-94283000I-249999J0D01*
G01*
G37*
%TD.AperFunction*%
%TD*%
%TO.P,C4,2*%
%TO.N,GND*%
%TA.AperFunction,SMDPad,CuDef*%
G36*
G01*
X138225000Y-94545999D02*
X138225000Y-95446001D01*
G75*
G02*
X137975001Y-95696000I-249999J0D01*
G01*
X137324999Y-95696000D01*
G75*
G02*
X137075000Y-95446001I0J249999D01*
G01*
X137075000Y-94545999D01*
G75*
G02*
X137324999Y-94296000I249999J0D01*
G01*
X137975001Y-94296000D01*
G75*
G02*
X138225000Y-94545999I0J-249999D01*
G01*
G37*
%TD.AperFunction*%
%TO.P,C4,1*%
%TO.N,+5V*%
%TA.AperFunction,SMDPad,CuDef*%
G36*
G01*
X140275000Y-94545999D02*
X140275000Y-95446001D01*
G75*
G02*
X140025001Y-95696000I-249999J0D01*
G01*
X139374999Y-95696000D01*
G75*
G02*
X139125000Y-95446001I0J249999D01*
G01*
X139125000Y-94545999D01*
G75*
G02*
X139374999Y-94296000I249999J0D01*
G01*
X140025001Y-94296000D01*
G75*
G02*
X140275000Y-94545999I0J-249999D01*
G01*
G37*
%TD.AperFunction*%
%TD*%
%TO.P,C5,1*%
%TO.N,XTAL2*%
%TA.AperFunction,SMDPad,CuDef*%
G36*
G01*
X137245000Y-105721999D02*
X137245000Y-106622001D01*
G75*
G02*
X136995001Y-106872000I-249999J0D01*
G01*
X136344999Y-106872000D01*
G75*
G02*
X136095000Y-106622001I0J249999D01*
G01*
X136095000Y-105721999D01*
G75*
G02*
X136344999Y-105472000I249999J0D01*
G01*
X136995001Y-105472000D01*
G75*
G02*
X137245000Y-105721999I0J-249999D01*
G01*
G37*
%TD.AperFunction*%
%TO.P,C5,2*%
%TO.N,GND*%
%TA.AperFunction,SMDPad,CuDef*%
G36*
G01*
X135195000Y-105721999D02*
X135195000Y-106622001D01*
G75*
G02*
X134945001Y-106872000I-249999J0D01*
G01*
X134294999Y-106872000D01*
G75*
G02*
X134045000Y-106622001I0J249999D01*
G01*
X134045000Y-105721999D01*
G75*
G02*
X134294999Y-105472000I249999J0D01*
G01*
X134945001Y-105472000D01*
G75*
G02*
X135195000Y-105721999I0J-249999D01*
G01*
G37*
%TD.AperFunction*%
%TD*%
%TO.P,C6,1*%
%TO.N,GND*%
%TA.AperFunction,SMDPad,CuDef*%
G36*
G01*
X153866001Y-101431000D02*
X152965999Y-101431000D01*
G75*
G02*
X152716000Y-101181001I0J249999D01*
G01*
X152716000Y-100530999D01*
G75*
G02*
X152965999Y-100281000I249999J0D01*
G01*
X153866001Y-100281000D01*
G75*
G02*
X154116000Y-100530999I0J-249999D01*
G01*
X154116000Y-101181001D01*
G75*
G02*
X153866001Y-101431000I-249999J0D01*
G01*
G37*
%TD.AperFunction*%
%TO.P,C6,2*%
%TO.N,+5VA*%
%TA.AperFunction,SMDPad,CuDef*%
G36*
G01*
X153866001Y-99381000D02*
X152965999Y-99381000D01*
G75*
G02*
X152716000Y-99131001I0J249999D01*
G01*
X152716000Y-98480999D01*
G75*
G02*
X152965999Y-98231000I249999J0D01*
G01*
X153866001Y-98231000D01*
G75*
G02*
X154116000Y-98480999I0J-249999D01*
G01*
X154116000Y-99131001D01*
G75*
G02*
X153866001Y-99381000I-249999J0D01*
G01*
G37*
%TD.AperFunction*%
%TD*%
%TO.P,C7,2*%
%TO.N,GND*%
%TA.AperFunction,SMDPad,CuDef*%
G36*
G01*
X138995999Y-114741000D02*
X139896001Y-114741000D01*
G75*
G02*
X140146000Y-114990999I0J-249999D01*
G01*
X140146000Y-115641001D01*
G75*
G02*
X139896001Y-115891000I-249999J0D01*
G01*
X138995999Y-115891000D01*
G75*
G02*
X138746000Y-115641001I0J249999D01*
G01*
X138746000Y-114990999D01*
G75*
G02*
X138995999Y-114741000I249999J0D01*
G01*
G37*
%TD.AperFunction*%
%TO.P,C7,1*%
%TO.N,~RST*%
%TA.AperFunction,SMDPad,CuDef*%
G36*
G01*
X138995999Y-112691000D02*
X139896001Y-112691000D01*
G75*
G02*
X140146000Y-112940999I0J-249999D01*
G01*
X140146000Y-113591001D01*
G75*
G02*
X139896001Y-113841000I-249999J0D01*
G01*
X138995999Y-113841000D01*
G75*
G02*
X138746000Y-113591001I0J249999D01*
G01*
X138746000Y-112940999D01*
G75*
G02*
X138995999Y-112691000I249999J0D01*
G01*
G37*
%TD.AperFunction*%
%TD*%
%TO.P,D1,1*%
%TO.N,Net-(D1-Pad1)*%
%TA.AperFunction,SMDPad,CuDef*%
G36*
G01*
X147272500Y-127400000D02*
X147272500Y-126600000D01*
G75*
G02*
X147522500Y-126350000I250000J0D01*
G01*
X148347500Y-126350000D01*
G75*
G02*
X148597500Y-126600000I0J-250000D01*
G01*
X148597500Y-127400000D01*
G75*
G02*
X148347500Y-127650000I-250000J0D01*
G01*
X147522500Y-127650000D01*
G75*
G02*
X147272500Y-127400000I0J250000D01*
G01*
G37*
%TD.AperFunction*%
%TO.P,D1,2*%
%TO.N,+5V*%
%TA.AperFunction,SMDPad,CuDef*%
G36*
G01*
X149197500Y-127400000D02*
X149197500Y-126600000D01*
G75*
G02*
X149447500Y-126350000I250000J0D01*
G01*
X150272500Y-126350000D01*
G75*
G02*
X150522500Y-126600000I0J-250000D01*
G01*
X150522500Y-127400000D01*
G75*
G02*
X150272500Y-127650000I-250000J0D01*
G01*
X149447500Y-127650000D01*
G75*
G02*
X149197500Y-127400000I0J250000D01*
G01*
G37*
%TD.AperFunction*%
%TD*%
%TO.P,H1,1*%
%TO.N,GND*%
X171190419Y-75189581D03*
X168910000Y-74245000D03*
X166629581Y-75189581D03*
X165685000Y-77470000D03*
X166629581Y-79750419D03*
X168910000Y-80695000D03*
X171190419Y-79750419D03*
X172135000Y-77470000D03*
D10*
X168910000Y-77470000D03*
%TD*%
%TO.P,H2,1*%
%TO.N,GND*%
X123190000Y-134620000D03*
D11*
X126415000Y-134620000D03*
X125470419Y-136900419D03*
X123190000Y-137845000D03*
X120909581Y-136900419D03*
X119965000Y-134620000D03*
X120909581Y-132339581D03*
X123190000Y-131395000D03*
X125470419Y-132339581D03*
%TD*%
%TO.P,H3,1*%
%TO.N,GND*%
X125470419Y-75189581D03*
X123190000Y-74245000D03*
X120909581Y-75189581D03*
X119965000Y-77470000D03*
X120909581Y-79750419D03*
X123190000Y-80695000D03*
X125470419Y-79750419D03*
X126415000Y-77470000D03*
D10*
X123190000Y-77470000D03*
%TD*%
D12*
%TO.P,J1,1*%
%TO.N,GND*%
X143510000Y-134620000D03*
D13*
%TO.P,J1,2*%
%TO.N,+5V*%
X148590000Y-134620000D03*
%TD*%
D14*
%TO.P,J2,1*%
%TO.N,PC0*%
X171450000Y-105410000D03*
D15*
%TO.P,J2,2*%
%TO.N,PC1*%
X171450000Y-102870000D03*
%TO.P,J2,3*%
%TO.N,PC2*%
X171450000Y-100330000D03*
%TO.P,J2,4*%
%TO.N,PC3*%
X171450000Y-97790000D03*
%TO.P,J2,5*%
%TO.N,PC4*%
X171450000Y-95250000D03*
%TO.P,J2,6*%
%TO.N,PC5*%
X171450000Y-92710000D03*
%TO.P,J2,7*%
%TO.N,ADC6*%
X171450000Y-90170000D03*
%TO.P,J2,8*%
%TO.N,ADC7*%
X171450000Y-87630000D03*
%TD*%
D14*
%TO.P,J4,1*%
%TO.N,Net-(J3-Pad2)*%
X148590000Y-82550000D03*
D15*
%TO.P,J4,2*%
%TO.N,+5V*%
X151130000Y-82550000D03*
%TD*%
%TO.P,J5,2*%
%TO.N,+5V*%
X132080000Y-119380000D03*
D14*
%TO.P,J5,1*%
%TO.N,Net-(J5-Pad1)*%
X129540000Y-119380000D03*
%TD*%
D15*
%TO.P,J6,8*%
%TO.N,PD7*%
X120650000Y-105410000D03*
%TO.P,J6,7*%
%TO.N,PD6*%
X120650000Y-102870000D03*
%TO.P,J6,6*%
%TO.N,PD5*%
X120650000Y-100330000D03*
%TO.P,J6,5*%
%TO.N,PD4*%
X120650000Y-97790000D03*
%TO.P,J6,4*%
%TO.N,PD3*%
X120650000Y-95250000D03*
%TO.P,J6,3*%
%TO.N,PD2*%
X120650000Y-92710000D03*
%TO.P,J6,2*%
%TO.N,PD1*%
X120650000Y-90170000D03*
D14*
%TO.P,J6,1*%
%TO.N,PD0*%
X120650000Y-87630000D03*
%TD*%
%TO.P,J7,1*%
%TO.N,Net-(J7-Pad1)*%
X120650000Y-111760000D03*
D15*
%TO.P,J7,2*%
%TO.N,PD0*%
X120650000Y-114300000D03*
%TO.P,J7,3*%
%TO.N,PD1*%
X120650000Y-116840000D03*
%TO.P,J7,4*%
%TO.N,Net-(J5-Pad1)*%
X120650000Y-119380000D03*
%TO.P,J7,5*%
%TO.N,Net-(J7-Pad5)*%
X120650000Y-121920000D03*
%TO.P,J7,6*%
%TO.N,GND*%
X120650000Y-124460000D03*
%TD*%
D14*
%TO.P,J8,1*%
%TO.N,PB0*%
X171450000Y-124460000D03*
D15*
%TO.P,J8,2*%
%TO.N,PB1*%
X171450000Y-121920000D03*
%TO.P,J8,3*%
%TO.N,PB2*%
X171450000Y-119380000D03*
%TO.P,J8,4*%
%TO.N,PB3*%
X171450000Y-116840000D03*
%TO.P,J8,5*%
%TO.N,PB4*%
X171450000Y-114300000D03*
%TO.P,J8,6*%
%TO.N,PB5*%
X171450000Y-111760000D03*
%TD*%
D14*
%TO.P,J9,1*%
%TO.N,GND*%
X158750000Y-74930000D03*
D15*
%TO.P,J9,2*%
%TO.N,+5V*%
X158750000Y-77470000D03*
%TO.P,J9,3*%
%TO.N,GND*%
X156210000Y-74930000D03*
%TO.P,J9,4*%
%TO.N,+5V*%
X156210000Y-77470000D03*
%TO.P,J9,5*%
%TO.N,GND*%
X153670000Y-74930000D03*
%TO.P,J9,6*%
%TO.N,+5V*%
X153670000Y-77470000D03*
%TO.P,J9,7*%
%TO.N,GND*%
X151130000Y-74930000D03*
%TO.P,J9,8*%
%TO.N,+5VA*%
X151130000Y-77470000D03*
%TD*%
%TO.P,L1,1*%
%TO.N,+5V*%
%TA.AperFunction,SMDPad,CuDef*%
G36*
G01*
X158581000Y-98355999D02*
X158581000Y-99256001D01*
G75*
G02*
X158331001Y-99506000I-249999J0D01*
G01*
X157680999Y-99506000D01*
G75*
G02*
X157431000Y-99256001I0J249999D01*
G01*
X157431000Y-98355999D01*
G75*
G02*
X157680999Y-98106000I249999J0D01*
G01*
X158331001Y-98106000D01*
G75*
G02*
X158581000Y-98355999I0J-249999D01*
G01*
G37*
%TD.AperFunction*%
%TO.P,L1,2*%
%TO.N,+5VA*%
%TA.AperFunction,SMDPad,CuDef*%
G36*
G01*
X156531000Y-98355999D02*
X156531000Y-99256001D01*
G75*
G02*
X156281001Y-99506000I-249999J0D01*
G01*
X155630999Y-99506000D01*
G75*
G02*
X155381000Y-99256001I0J249999D01*
G01*
X155381000Y-98355999D01*
G75*
G02*
X155630999Y-98106000I249999J0D01*
G01*
X156281001Y-98106000D01*
G75*
G02*
X156531000Y-98355999I0J-249999D01*
G01*
G37*
%TD.AperFunction*%
%TD*%
%TO.P,R1,1*%
%TO.N,+5V*%
%TA.AperFunction,SMDPad,CuDef*%
G36*
G01*
X147895000Y-107499999D02*
X147895000Y-108400001D01*
G75*
G02*
X147645001Y-108650000I-249999J0D01*
G01*
X146994999Y-108650000D01*
G75*
G02*
X146745000Y-108400001I0J249999D01*
G01*
X146745000Y-107499999D01*
G75*
G02*
X146994999Y-107250000I249999J0D01*
G01*
X147645001Y-107250000D01*
G75*
G02*
X147895000Y-107499999I0J-249999D01*
G01*
G37*
%TD.AperFunction*%
%TO.P,R1,2*%
%TO.N,~RST*%
%TA.AperFunction,SMDPad,CuDef*%
G36*
G01*
X145845000Y-107499999D02*
X145845000Y-108400001D01*
G75*
G02*
X145595001Y-108650000I-249999J0D01*
G01*
X144944999Y-108650000D01*
G75*
G02*
X144695000Y-108400001I0J249999D01*
G01*
X144695000Y-107499999D01*
G75*
G02*
X144944999Y-107250000I249999J0D01*
G01*
X145595001Y-107250000D01*
G75*
G02*
X145845000Y-107499999I0J-249999D01*
G01*
G37*
%TD.AperFunction*%
%TD*%
%TO.P,R2,2*%
%TO.N,GND*%
%TA.AperFunction,SMDPad,CuDef*%
G36*
G01*
X142815000Y-126549999D02*
X142815000Y-127450001D01*
G75*
G02*
X142565001Y-127700000I-249999J0D01*
G01*
X141914999Y-127700000D01*
G75*
G02*
X141665000Y-127450001I0J249999D01*
G01*
X141665000Y-126549999D01*
G75*
G02*
X141914999Y-126300000I249999J0D01*
G01*
X142565001Y-126300000D01*
G75*
G02*
X142815000Y-126549999I0J-249999D01*
G01*
G37*
%TD.AperFunction*%
%TO.P,R2,1*%
%TO.N,Net-(D1-Pad1)*%
%TA.AperFunction,SMDPad,CuDef*%
G36*
G01*
X144865000Y-126549999D02*
X144865000Y-127450001D01*
G75*
G02*
X144615001Y-127700000I-249999J0D01*
G01*
X143964999Y-127700000D01*
G75*
G02*
X143715000Y-127450001I0J249999D01*
G01*
X143715000Y-126549999D01*
G75*
G02*
X143964999Y-126300000I249999J0D01*
G01*
X144615001Y-126300000D01*
G75*
G02*
X144865000Y-126549999I0J-249999D01*
G01*
G37*
%TD.AperFunction*%
%TD*%
D16*
%TO.P,SW1,2*%
%TO.N,GND*%
X142075000Y-115280000D03*
%TO.P,SW1,1*%
%TO.N,~RST*%
X142075000Y-110780000D03*
X150025000Y-110780000D03*
%TO.P,SW1,2*%
%TO.N,GND*%
X150025000Y-115280000D03*
%TD*%
D17*
%TO.P,U1,1*%
%TO.N,PD3*%
X141800000Y-92450000D03*
%TO.P,U1,2*%
%TO.N,PD4*%
X141800000Y-93250000D03*
%TO.P,U1,3*%
%TO.N,GND*%
X141800000Y-94050000D03*
%TO.P,U1,4*%
%TO.N,+5V*%
X141800000Y-94850000D03*
%TO.P,U1,5*%
%TO.N,GND*%
X141800000Y-95650000D03*
%TO.P,U1,6*%
%TO.N,+5V*%
X141800000Y-96450000D03*
%TO.P,U1,7*%
%TO.N,XTAL1*%
X141800000Y-97250000D03*
%TO.P,U1,8*%
%TO.N,XTAL2*%
X141800000Y-98050000D03*
D18*
%TO.P,U1,9*%
%TO.N,PD5*%
X143250000Y-99500000D03*
%TO.P,U1,10*%
%TO.N,PD6*%
X144050000Y-99500000D03*
%TO.P,U1,11*%
%TO.N,PD7*%
X144850000Y-99500000D03*
%TO.P,U1,12*%
%TO.N,PB0*%
X145650000Y-99500000D03*
%TO.P,U1,13*%
%TO.N,PB1*%
X146450000Y-99500000D03*
%TO.P,U1,14*%
%TO.N,PB2*%
X147250000Y-99500000D03*
%TO.P,U1,15*%
%TO.N,PB3*%
X148050000Y-99500000D03*
%TO.P,U1,16*%
%TO.N,PB4*%
X148850000Y-99500000D03*
D17*
%TO.P,U1,17*%
%TO.N,PB5*%
X150300000Y-98050000D03*
%TO.P,U1,18*%
%TO.N,+5VA*%
X150300000Y-97250000D03*
%TO.P,U1,19*%
%TO.N,ADC6*%
X150300000Y-96450000D03*
%TO.P,U1,20*%
%TO.N,Net-(C3-Pad1)*%
X150300000Y-95650000D03*
%TO.P,U1,21*%
%TO.N,GND*%
X150300000Y-94850000D03*
%TO.P,U1,22*%
%TO.N,ADC7*%
X150300000Y-94050000D03*
%TO.P,U1,23*%
%TO.N,PC0*%
X150300000Y-93250000D03*
%TO.P,U1,24*%
%TO.N,PC1*%
X150300000Y-92450000D03*
D18*
%TO.P,U1,25*%
%TO.N,PC2*%
X148850000Y-91000000D03*
%TO.P,U1,26*%
%TO.N,PC3*%
X148050000Y-91000000D03*
%TO.P,U1,27*%
%TO.N,PC4*%
X147250000Y-91000000D03*
%TO.P,U1,28*%
%TO.N,PC5*%
X146450000Y-91000000D03*
%TO.P,U1,29*%
%TO.N,~RST*%
X145650000Y-91000000D03*
%TO.P,U1,30*%
%TO.N,PD0*%
X144850000Y-91000000D03*
%TO.P,U1,31*%
%TO.N,PD1*%
X144050000Y-91000000D03*
%TO.P,U1,32*%
%TO.N,PD2*%
X143250000Y-91000000D03*
%TD*%
D19*
%TO.P,Y1,1*%
%TO.N,XTAL1*%
X134366000Y-100732000D03*
%TO.P,Y1,2*%
%TO.N,GND*%
X134366000Y-103632000D03*
%TO.P,Y1,3*%
%TO.N,XTAL2*%
X136666000Y-103632000D03*
%TO.P,Y1,4*%
%TO.N,GND*%
X136666000Y-100732000D03*
%TD*%
D14*
%TO.P,J3,1*%
%TO.N,PB3*%
X143510000Y-77470000D03*
D15*
%TO.P,J3,2*%
%TO.N,Net-(J3-Pad2)*%
X143510000Y-74930000D03*
%TO.P,J3,3*%
%TO.N,Net-(J3-Pad3)*%
X140970000Y-77470000D03*
%TO.P,J3,4*%
%TO.N,GND*%
X140970000Y-74930000D03*
%TO.P,J3,5*%
%TO.N,~RST*%
X138430000Y-77470000D03*
%TO.P,J3,6*%
%TO.N,GND*%
X138430000Y-74930000D03*
%TO.P,J3,7*%
%TO.N,PB5*%
X135890000Y-77470000D03*
%TO.P,J3,8*%
%TO.N,GND*%
X135890000Y-74930000D03*
%TO.P,J3,9*%
%TO.N,PB4*%
X133350000Y-77470000D03*
%TO.P,J3,10*%
%TO.N,GND*%
X133350000Y-74930000D03*
%TD*%
D20*
%TO.N,+5V*%
X157988000Y-98806000D03*
X149860000Y-127000000D03*
X153670000Y-134620000D03*
X147320000Y-107950000D03*
X143256000Y-96774000D03*
%TO.N,GND*%
X170180000Y-129540000D03*
X167640000Y-129540000D03*
X134366000Y-103632000D03*
X136652000Y-100584000D03*
X143510000Y-93980000D03*
X143510000Y-93980000D03*
X154178000Y-93708000D03*
X129540000Y-73660000D03*
X129540000Y-76200000D03*
X129540000Y-78740000D03*
X129540000Y-81280000D03*
X129540000Y-83820000D03*
X129540000Y-86360000D03*
X127000000Y-86360000D03*
X124460000Y-86360000D03*
X124460000Y-83820000D03*
X127000000Y-83820000D03*
X127000000Y-81280000D03*
X132080000Y-81280000D03*
X132080000Y-83820000D03*
X132080000Y-86360000D03*
X134620000Y-86360000D03*
X139700000Y-81280000D03*
X142240000Y-81280000D03*
X144780000Y-81280000D03*
X147320000Y-73660000D03*
X162560000Y-73660000D03*
X162560000Y-76200000D03*
X162560000Y-78740000D03*
X162560000Y-81280000D03*
X162560000Y-83820000D03*
X162560000Y-86360000D03*
X165100000Y-86360000D03*
X165100000Y-83820000D03*
X165100000Y-81280000D03*
X167640000Y-83820000D03*
X167640000Y-86360000D03*
X170180000Y-83820000D03*
X172720000Y-83820000D03*
X172720000Y-81280000D03*
X152400000Y-86360000D03*
X162560000Y-96520000D03*
X165100000Y-96520000D03*
X165100000Y-99060000D03*
X162560000Y-99060000D03*
X162560000Y-101600000D03*
X165100000Y-101600000D03*
X167640000Y-101600000D03*
X167640000Y-104140000D03*
X167640000Y-106680000D03*
X167640000Y-109220000D03*
X165100000Y-109220000D03*
X162560000Y-109220000D03*
X162560000Y-106680000D03*
X165100000Y-106680000D03*
X165100000Y-104140000D03*
X162560000Y-104140000D03*
X162560000Y-116840000D03*
X162560000Y-119380000D03*
X162560000Y-121920000D03*
X165100000Y-121920000D03*
X165100000Y-119380000D03*
X165100000Y-116840000D03*
X167640000Y-121920000D03*
X167640000Y-124460000D03*
X165100000Y-124460000D03*
X162560000Y-124460000D03*
X160020000Y-124460000D03*
X157480000Y-124460000D03*
X154940000Y-124460000D03*
X152400000Y-124460000D03*
X152400000Y-127000000D03*
X154940000Y-127000000D03*
X154940000Y-129540000D03*
X157480000Y-129540000D03*
X157480000Y-127000000D03*
X152400000Y-129540000D03*
X152400000Y-132080000D03*
X154940000Y-132080000D03*
X157480000Y-132080000D03*
X160020000Y-132080000D03*
X162560000Y-132080000D03*
X162560000Y-129540000D03*
X160020000Y-129540000D03*
X160020000Y-127000000D03*
X162560000Y-127000000D03*
X165100000Y-127000000D03*
X167640000Y-127000000D03*
X170180000Y-127000000D03*
X172720000Y-127000000D03*
X172720000Y-129540000D03*
X162560000Y-134620000D03*
X162560000Y-137160000D03*
X160020000Y-137160000D03*
X160020000Y-134620000D03*
X157480000Y-134620000D03*
X157480000Y-137160000D03*
X154940000Y-137160000D03*
X152400000Y-137160000D03*
X144780000Y-137160000D03*
X142240000Y-137160000D03*
X139700000Y-137160000D03*
X137160000Y-137160000D03*
X134620000Y-137160000D03*
X129540000Y-137160000D03*
X132080000Y-137160000D03*
X129540000Y-134620000D03*
X132080000Y-134620000D03*
X134620000Y-134620000D03*
X137160000Y-134620000D03*
X139700000Y-134620000D03*
X139700000Y-132080000D03*
X142240000Y-132080000D03*
X144780000Y-132080000D03*
X144780000Y-129540000D03*
X142240000Y-129540000D03*
X139700000Y-129540000D03*
X137160000Y-132080000D03*
X137160000Y-129540000D03*
X134620000Y-129540000D03*
X134620000Y-132080000D03*
X132080000Y-132080000D03*
X132080000Y-129540000D03*
X129540000Y-129540000D03*
X129540000Y-132080000D03*
X127000000Y-129540000D03*
X127000000Y-127000000D03*
X124460000Y-127000000D03*
X129540000Y-127000000D03*
X132080000Y-127000000D03*
X134620000Y-127000000D03*
X137160000Y-127000000D03*
X139700000Y-127000000D03*
X139700000Y-124460000D03*
X142240000Y-124460000D03*
X144780000Y-124460000D03*
X134620000Y-124460000D03*
X137160000Y-124460000D03*
X132080000Y-124460000D03*
X129540000Y-124460000D03*
X127000000Y-124460000D03*
X124460000Y-124460000D03*
X129540000Y-121920000D03*
X127000000Y-121920000D03*
X124460000Y-121920000D03*
X124460000Y-116840000D03*
X127000000Y-116840000D03*
X129540000Y-116840000D03*
X129540000Y-114300000D03*
X127000000Y-114300000D03*
X124460000Y-114300000D03*
X124460000Y-111760000D03*
X127000000Y-111760000D03*
X129540000Y-111760000D03*
X132080000Y-111760000D03*
X134620000Y-111760000D03*
X134620000Y-114300000D03*
X132080000Y-114300000D03*
X144780000Y-114300000D03*
X152400000Y-114300000D03*
X152400000Y-104140000D03*
X124460000Y-109220000D03*
X124460000Y-101600000D03*
X124460000Y-99060000D03*
X124460000Y-96520000D03*
X124460000Y-93980000D03*
X127000000Y-93980000D03*
X127000000Y-96520000D03*
X127000000Y-99060000D03*
X127000000Y-101600000D03*
X127000000Y-104140000D03*
X129540000Y-104140000D03*
X129540000Y-106680000D03*
X132080000Y-106680000D03*
X129540000Y-101600000D03*
X129540000Y-99060000D03*
X129540000Y-96520000D03*
X129540000Y-93980000D03*
X132080000Y-93980000D03*
X132080000Y-96520000D03*
X132080000Y-99060000D03*
X132080000Y-101600000D03*
X132080000Y-104140000D03*
X134620000Y-93980000D03*
X139700000Y-101600000D03*
X139700000Y-99060000D03*
X147320000Y-93980000D03*
X147320000Y-96520000D03*
X121920000Y-83820000D03*
X119380000Y-83820000D03*
X119380000Y-81280000D03*
X127000000Y-73660000D03*
X121920000Y-127000000D03*
X119380000Y-127000000D03*
X119380000Y-129540000D03*
X124460000Y-129540000D03*
X121920000Y-129540000D03*
X165100000Y-129540000D03*
%TO.N,+5VA*%
X154178292Y-97882000D03*
%TO.N,~RST*%
X144780000Y-87884000D03*
X142075000Y-110780000D03*
%TO.N,ADC6*%
X163068000Y-93472000D03*
%TO.N,ADC7*%
X163068000Y-92456000D03*
%TO.N,PB3*%
X148590000Y-103124000D03*
%TO.N,PB5*%
X150300000Y-98992000D03*
%TO.N,PB4*%
X148538101Y-98095899D03*
%TD*%
D21*
%TO.N,+5V*%
X139790000Y-94850000D02*
X139700000Y-94760000D01*
X141800000Y-94850000D02*
X139790000Y-94850000D01*
X141800000Y-96450000D02*
X140138000Y-96450000D01*
X139700000Y-96012000D02*
X139700000Y-94760000D01*
X140138000Y-96450000D02*
X139700000Y-96012000D01*
X141800000Y-96450000D02*
X142818000Y-96450000D01*
X143142000Y-96774000D02*
X142818000Y-96450000D01*
X143256000Y-96774000D02*
X143142000Y-96774000D01*
%TO.N,GND*%
X141800000Y-94050000D02*
X143440000Y-94050000D01*
X143440000Y-94050000D02*
X143510000Y-93980000D01*
X143108000Y-95650000D02*
X143510000Y-95248000D01*
X143510000Y-95248000D02*
X143510000Y-93980000D01*
X141800000Y-95650000D02*
X143108000Y-95650000D01*
X150300000Y-94850000D02*
X152292000Y-94850000D01*
X153434000Y-93708000D02*
X154178000Y-93708000D01*
X152292000Y-94850000D02*
X153434000Y-93708000D01*
%TO.N,XTAL1*%
X134620000Y-100478000D02*
X134366000Y-100732000D01*
X134620000Y-98298000D02*
X134620000Y-100478000D01*
X141800000Y-97250000D02*
X139668000Y-97250000D01*
X139668000Y-97250000D02*
X139192000Y-96774000D01*
X139192000Y-96774000D02*
X135128000Y-96774000D01*
X134620000Y-97282000D02*
X134620000Y-98298000D01*
X135128000Y-96774000D02*
X134620000Y-97282000D01*
%TO.N,Net-(C3-Pad1)*%
X153016000Y-95650000D02*
X154070000Y-95650000D01*
X154070000Y-95650000D02*
X154178000Y-95758000D01*
X150300000Y-95650000D02*
X153016000Y-95650000D01*
%TO.N,XTAL2*%
X136670000Y-103636000D02*
X136666000Y-103632000D01*
X136670000Y-106172000D02*
X136670000Y-103636000D01*
X141800000Y-98050000D02*
X141800000Y-98874000D01*
X141800000Y-98874000D02*
X142494000Y-99568000D01*
X142494000Y-99568000D02*
X142494000Y-102870000D01*
X141732000Y-103632000D02*
X136666000Y-103632000D01*
X142494000Y-102870000D02*
X141732000Y-103632000D01*
%TO.N,+5VA*%
X150300000Y-97250000D02*
X152114000Y-97250000D01*
X153416000Y-98552000D02*
X153416000Y-98806000D01*
X152114000Y-97250000D02*
X153416000Y-98552000D01*
X154940000Y-98806000D02*
X154940000Y-98643708D01*
X154940000Y-98806000D02*
X155956000Y-98806000D01*
X154940000Y-98643708D02*
X154178292Y-97882000D01*
X153416000Y-98806000D02*
X154940000Y-98806000D01*
D22*
%TO.N,~RST*%
X145070000Y-110780000D02*
X142075000Y-110780000D01*
D21*
X138430000Y-77470000D02*
X138430000Y-84582000D01*
X139753990Y-86921990D02*
X138430000Y-85598000D01*
X138430000Y-85598000D02*
X138430000Y-84582000D01*
X143282542Y-86921990D02*
X139753990Y-86921990D01*
X145650000Y-91000000D02*
X145650000Y-89289448D01*
X145270000Y-107950000D02*
X145270000Y-110290000D01*
D22*
X150025000Y-110780000D02*
X145760000Y-110780000D01*
D21*
X145270000Y-110290000D02*
X145760000Y-110780000D01*
D22*
X145760000Y-110780000D02*
X145070000Y-110780000D01*
D21*
X144512276Y-88151724D02*
X144780000Y-87884000D01*
X144512276Y-88151724D02*
X143282542Y-86921990D01*
X145650000Y-89289448D02*
X144512276Y-88151724D01*
X139446000Y-113266000D02*
X139446000Y-113030000D01*
X141696000Y-110780000D02*
X142075000Y-110780000D01*
X139446000Y-113030000D02*
X141696000Y-110780000D01*
%TO.N,Net-(D1-Pad1)*%
X144290000Y-127000000D02*
X147935000Y-127000000D01*
%TO.N,PC0*%
X170180000Y-104140000D02*
X171450000Y-105410000D01*
X153040202Y-91601999D02*
X165335619Y-91601999D01*
X166974322Y-93240702D02*
X166974322Y-94808876D01*
X167928970Y-95763523D02*
X167928971Y-97287525D01*
X165335619Y-91601999D02*
X166974322Y-93240702D01*
X167928971Y-97287525D02*
X168729979Y-98088533D01*
X151392202Y-93250000D02*
X153040202Y-91601999D01*
X150300000Y-93250000D02*
X151392202Y-93250000D01*
X166974322Y-94808876D02*
X167928970Y-95763523D01*
X168729979Y-98088533D02*
X168729979Y-99612533D01*
X168729979Y-99612533D02*
X169437989Y-100320542D01*
X169437989Y-100320542D02*
X169437989Y-101859266D01*
X169679361Y-102100639D02*
X169679361Y-102115361D01*
X169679361Y-102115361D02*
X170145999Y-102581999D01*
X169437989Y-101859266D02*
X169679361Y-102100639D01*
X170145999Y-104105999D02*
X170180000Y-104140000D01*
X170145999Y-102581999D02*
X170145999Y-104105999D01*
%TO.N,PC1*%
X151190925Y-92450000D02*
X150300000Y-92450000D01*
X167682332Y-92947436D02*
X165628885Y-90893989D01*
X165628885Y-90893989D02*
X152746935Y-90893989D01*
X152746935Y-90893989D02*
X151190925Y-92450000D01*
X167682332Y-94276332D02*
X167682332Y-94234000D01*
X167682332Y-93768332D02*
X167682332Y-92947436D01*
X167682332Y-94276332D02*
X167682332Y-93768332D01*
X170145999Y-101565999D02*
X170307000Y-101727000D01*
X170145999Y-100027276D02*
X170145999Y-101565999D01*
X169437989Y-97795265D02*
X169437989Y-99319266D01*
X168636980Y-96994257D02*
X169437989Y-97795265D01*
X169437989Y-99319266D02*
X170145999Y-100027276D01*
X171450000Y-102870000D02*
X170307000Y-101727000D01*
X167682332Y-93768332D02*
X167682332Y-94515609D01*
X167682332Y-94515609D02*
X168636980Y-95470257D01*
X168636980Y-95470257D02*
X168636980Y-96994257D01*
%TO.N,PC2*%
X170434000Y-99314000D02*
X171450000Y-100330000D01*
X170145999Y-99025999D02*
X170434000Y-99314000D01*
X169344990Y-96700990D02*
X170145999Y-97501999D01*
X169344990Y-95176990D02*
X169344990Y-96700990D01*
X168390342Y-94222342D02*
X169344990Y-95176990D01*
X148850000Y-91000000D02*
X151639648Y-91000000D01*
X151639648Y-91000000D02*
X152469648Y-90170000D01*
X152469648Y-90170000D02*
X165906172Y-90170000D01*
X170145999Y-97501999D02*
X170145999Y-99025999D01*
X165906172Y-90170000D02*
X168390342Y-92654170D01*
X168390342Y-92654170D02*
X168390342Y-94222342D01*
%TO.N,PC3*%
X169098352Y-93899629D02*
X170053000Y-94854277D01*
X170053000Y-94854277D02*
X170053000Y-96393000D01*
X148050000Y-91000000D02*
X148050000Y-89907798D01*
X170053000Y-96393000D02*
X171450000Y-97790000D01*
X148050000Y-89907798D02*
X148495808Y-89461990D01*
X148495808Y-89461990D02*
X166199438Y-89461990D01*
X166199438Y-89461990D02*
X169098352Y-92360904D01*
X169098352Y-92360904D02*
X169098352Y-93899629D01*
%TO.N,PC4*%
X147250000Y-89706522D02*
X147250000Y-91000000D01*
X171450000Y-95250000D02*
X169806362Y-93606362D01*
X166492704Y-88753980D02*
X148202541Y-88753980D01*
X169806362Y-93606362D02*
X169806362Y-92067638D01*
X169806362Y-92067638D02*
X166492704Y-88753980D01*
X148202541Y-88753980D02*
X147250000Y-89706522D01*
%TO.N,PC5*%
X146450000Y-89505245D02*
X146450000Y-91000000D01*
X147909275Y-88045970D02*
X146450000Y-89505245D01*
X166785970Y-88045970D02*
X147909275Y-88045970D01*
X171450000Y-92710000D02*
X166785970Y-88045970D01*
%TO.N,ADC6*%
X158750000Y-93472000D02*
X163068000Y-93472000D01*
X155194000Y-97028000D02*
X158750000Y-93472000D01*
X152908000Y-97028000D02*
X155194000Y-97028000D01*
X150300000Y-96450000D02*
X152330000Y-96450000D01*
X152330000Y-96450000D02*
X152908000Y-97028000D01*
%TO.N,ADC7*%
X151593478Y-94050000D02*
X152908000Y-92735478D01*
X150300000Y-94050000D02*
X151593478Y-94050000D01*
X152908000Y-92735478D02*
X153187478Y-92456000D01*
X153187478Y-92456000D02*
X163068000Y-92456000D01*
%TO.N,PB3*%
X148050000Y-99500000D02*
X148050000Y-101030552D01*
X148050000Y-102584000D02*
X148050000Y-101030552D01*
X148590000Y-103124000D02*
X148050000Y-102584000D01*
X171196000Y-116840000D02*
X171450000Y-116840000D01*
X170145999Y-115789999D02*
X171196000Y-116840000D01*
X170145999Y-115311447D02*
X170145999Y-115789999D01*
X165969981Y-113176019D02*
X168010573Y-113176021D01*
X157667048Y-113176019D02*
X165969981Y-113176019D01*
X149606000Y-104140000D02*
X149606000Y-105114970D01*
X168010573Y-113176021D02*
X170145999Y-115311447D01*
X149606000Y-105114970D02*
X157667048Y-113176019D01*
X148590000Y-103124000D02*
X149606000Y-104140000D01*
%TO.N,Net-(J3-Pad2)*%
X143510000Y-74930000D02*
X146050000Y-74930000D01*
X148590000Y-77470000D02*
X148590000Y-82550000D01*
X146050000Y-74930000D02*
X148590000Y-77470000D01*
%TO.N,PB5*%
X150300000Y-98050000D02*
X150300000Y-98992000D01*
X150300000Y-101278000D02*
X150300000Y-98992000D01*
X150300000Y-102308724D02*
X150300000Y-101278000D01*
X150607276Y-102616000D02*
X150300000Y-102308724D01*
X158253582Y-111760000D02*
X151022020Y-104528438D01*
X171450000Y-111760000D02*
X158253582Y-111760000D01*
X151022020Y-103016020D02*
X150622000Y-102616000D01*
X151022020Y-104528438D02*
X151022020Y-103016020D01*
X150622000Y-102616000D02*
X150607276Y-102616000D01*
%TO.N,PD7*%
X124206000Y-105410000D02*
X120650000Y-105410000D01*
X128778000Y-109982000D02*
X124206000Y-105410000D01*
X138430000Y-109982000D02*
X128778000Y-109982000D01*
X144850000Y-103562000D02*
X138430000Y-109982000D01*
X144850000Y-99500000D02*
X144850000Y-103562000D01*
%TO.N,PD6*%
X138136734Y-109273990D02*
X144050000Y-103360724D01*
X129085990Y-109273990D02*
X138136734Y-109273990D01*
X144050000Y-103360724D02*
X144050000Y-99500000D01*
X124953276Y-105156000D02*
X124445276Y-104648000D01*
X124968000Y-105156000D02*
X124953276Y-105156000D01*
X124968000Y-105156000D02*
X129085990Y-109273990D01*
X124445276Y-104648000D02*
X122428000Y-104648000D01*
X122428000Y-104648000D02*
X120650000Y-102870000D01*
%TO.N,PD5*%
X121954001Y-101634001D02*
X120650000Y-100330000D01*
X121954001Y-103172725D02*
X121954001Y-101634001D01*
X122701633Y-103920357D02*
X121954001Y-103172725D01*
X143250000Y-103159448D02*
X137843468Y-108565980D01*
X143250000Y-99500000D02*
X143250000Y-103159448D01*
X137843468Y-108565980D02*
X129647980Y-108565980D01*
X129647980Y-108565980D02*
X125002357Y-103920357D01*
X125002357Y-103920357D02*
X122701633Y-103920357D01*
%TO.N,PD4*%
X140938000Y-93250000D02*
X141800000Y-93250000D01*
X139138010Y-90624010D02*
X140208000Y-91694000D01*
X140707798Y-93250000D02*
X140938000Y-93250000D01*
X124259990Y-90624010D02*
X139138010Y-90624010D01*
X140208000Y-91694000D02*
X140208000Y-92750202D01*
X123463020Y-91420980D02*
X124259990Y-90624010D01*
X123463020Y-93438257D02*
X123463020Y-91420980D01*
X122047000Y-94854277D02*
X123463020Y-93438257D01*
X122047000Y-96393000D02*
X122047000Y-94854277D01*
X140208000Y-92750202D02*
X140707798Y-93250000D01*
X120650000Y-97790000D02*
X122047000Y-96393000D01*
%TO.N,PD3*%
X122428000Y-93472000D02*
X120650000Y-95250000D01*
X122755010Y-93144990D02*
X122428000Y-93472000D01*
X122755010Y-91127713D02*
X122755010Y-93144990D01*
X123966723Y-89916000D02*
X122755010Y-91127713D01*
X140916010Y-91386010D02*
X139446000Y-89916000D01*
X140916010Y-92148010D02*
X140916010Y-91386010D01*
X141218000Y-92450000D02*
X140916010Y-92148010D01*
X141800000Y-92450000D02*
X141218000Y-92450000D01*
X139446000Y-89916000D02*
X123966723Y-89916000D01*
%TO.N,PD2*%
X122076446Y-90805000D02*
X122047000Y-90805000D01*
X122047000Y-90834446D02*
X122047000Y-92075000D01*
X122076446Y-90805000D02*
X122047000Y-90834446D01*
X121412000Y-92710000D02*
X120650000Y-92710000D01*
X122047000Y-92075000D02*
X121412000Y-92710000D01*
X123727446Y-89154000D02*
X122076446Y-90805000D01*
X142494000Y-89154000D02*
X123727446Y-89154000D01*
X143250000Y-89910000D02*
X142494000Y-89154000D01*
X143250000Y-91000000D02*
X143250000Y-89910000D01*
%TO.N,PD1*%
X121710170Y-90170000D02*
X120650000Y-90170000D01*
X123488170Y-88392000D02*
X121710170Y-90170000D01*
X142750000Y-88392000D02*
X123488170Y-88392000D01*
X144050000Y-89692000D02*
X142750000Y-88392000D01*
X144050000Y-91000000D02*
X144050000Y-89692000D01*
%TO.N,PD0*%
X119345999Y-88934001D02*
X120650000Y-87630000D01*
X119345999Y-112995999D02*
X119345999Y-88934001D01*
X120650000Y-114300000D02*
X119345999Y-112995999D01*
X142989276Y-87630000D02*
X120650000Y-87630000D01*
X144850000Y-91000000D02*
X144850000Y-89490724D01*
X144850000Y-89490724D02*
X142989276Y-87630000D01*
%TO.N,PB0*%
X169217990Y-120181266D02*
X169217990Y-121719990D01*
X168021970Y-118985246D02*
X169217990Y-120181266D01*
X145650000Y-104162798D02*
X156787251Y-115300049D01*
X145650000Y-99500000D02*
X145650000Y-104162798D01*
X156787251Y-115300049D02*
X167116049Y-115300049D01*
X167116049Y-115300049D02*
X168021969Y-116205969D01*
X169217990Y-121719990D02*
X170180000Y-122682000D01*
X168021969Y-116205969D02*
X168021970Y-118985246D01*
X170942000Y-124460000D02*
X170180000Y-123698000D01*
X171450000Y-124460000D02*
X170942000Y-124460000D01*
X170180000Y-122682000D02*
X170180000Y-123698000D01*
%TO.N,PB1*%
X170434000Y-121920000D02*
X171450000Y-121920000D01*
X169926000Y-121412000D02*
X170434000Y-121920000D01*
X169926000Y-119888000D02*
X169926000Y-121412000D01*
X168729979Y-118691979D02*
X169926000Y-119888000D01*
X168729979Y-115897979D02*
X168729979Y-118691979D01*
X146450000Y-99500000D02*
X146450000Y-103961522D01*
X156499239Y-114010764D02*
X157080514Y-114592039D01*
X167424039Y-114592039D02*
X168729979Y-115897979D01*
X146450000Y-103961522D02*
X156499239Y-114010761D01*
X156499239Y-114010761D02*
X156499239Y-114010764D01*
X157080514Y-114592039D02*
X167424039Y-114592039D01*
%TO.N,PB2*%
X169437989Y-118383989D02*
X170434000Y-119380000D01*
X170434000Y-119380000D02*
X171450000Y-119380000D01*
X169437989Y-115604713D02*
X169437989Y-118383989D01*
X167717306Y-113884030D02*
X169437989Y-115604713D01*
X157373781Y-113884029D02*
X167717306Y-113884030D01*
X147250000Y-103760246D02*
X157373781Y-113884029D01*
X147250000Y-99500000D02*
X147250000Y-103760246D01*
%TO.N,PB4*%
X148850000Y-98407798D02*
X148850000Y-99500000D01*
X170135828Y-114300000D02*
X171450000Y-114300000D01*
X167332011Y-112468011D02*
X168303840Y-112468012D01*
X167332009Y-112468009D02*
X167332011Y-112468011D01*
X148850000Y-101860000D02*
X150314010Y-103324010D01*
X168303840Y-112468012D02*
X170135828Y-114300000D01*
X150314010Y-103324010D02*
X150314010Y-104821704D01*
X150314010Y-104821704D02*
X157960315Y-112468009D01*
X148850000Y-99500000D02*
X148850000Y-101860000D01*
X157960315Y-112468009D02*
X167332009Y-112468009D01*
X148538101Y-98095899D02*
X148850000Y-98407798D01*
%TD*%
D23*
%TO.N,GND*%
G36*
X172061222Y-71843096D02*
G01*
X172649164Y-72020606D01*
X173191436Y-72308937D01*
X173667364Y-72697094D01*
X174058845Y-73170314D01*
X174350951Y-73710552D01*
X174532563Y-74297244D01*
X174600001Y-74938888D01*
X174600000Y-137127721D01*
X174536904Y-137771221D01*
X174359394Y-138359164D01*
X174071063Y-138901436D01*
X173682906Y-139377364D01*
X173209686Y-139768845D01*
X172669449Y-140060950D01*
X172082756Y-140242563D01*
X171441130Y-140310000D01*
X120682279Y-140310000D01*
X120038779Y-140246904D01*
X119450836Y-140069394D01*
X118908564Y-139781063D01*
X118432636Y-139392906D01*
X118041155Y-138919686D01*
X117749050Y-138379449D01*
X117663418Y-138102818D01*
X119886787Y-138102818D01*
X120378946Y-138705149D01*
X121229933Y-139175063D01*
X122156243Y-139469929D01*
X123122281Y-139578414D01*
X124090921Y-139496351D01*
X125024938Y-139226893D01*
X125888440Y-138780394D01*
X126001054Y-138705149D01*
X126493213Y-138102818D01*
X165606787Y-138102818D01*
X166098946Y-138705149D01*
X166949933Y-139175063D01*
X167876243Y-139469929D01*
X168842281Y-139578414D01*
X169810921Y-139496351D01*
X170744938Y-139226893D01*
X171608440Y-138780394D01*
X171721054Y-138705149D01*
X172213213Y-138102818D01*
X168910000Y-134799605D01*
X165606787Y-138102818D01*
X126493213Y-138102818D01*
X123190000Y-134799605D01*
X119886787Y-138102818D01*
X117663418Y-138102818D01*
X117567437Y-137792756D01*
X117500000Y-137151130D01*
X117500000Y-134552281D01*
X118231586Y-134552281D01*
X118313649Y-135520921D01*
X118583107Y-136454938D01*
X119029606Y-137318440D01*
X119104851Y-137431054D01*
X119707182Y-137923213D01*
X123010395Y-134620000D01*
X123369605Y-134620000D01*
X126672818Y-137923213D01*
X127275149Y-137431054D01*
X127745063Y-136580067D01*
X127955177Y-135920000D01*
X141571928Y-135920000D01*
X141584188Y-136044482D01*
X141620498Y-136164180D01*
X141679463Y-136274494D01*
X141758815Y-136371185D01*
X141855506Y-136450537D01*
X141965820Y-136509502D01*
X142085518Y-136545812D01*
X142210000Y-136558072D01*
X143224250Y-136555000D01*
X143383000Y-136396250D01*
X143383000Y-134747000D01*
X143637000Y-134747000D01*
X143637000Y-136396250D01*
X143795750Y-136555000D01*
X144810000Y-136558072D01*
X144934482Y-136545812D01*
X145054180Y-136509502D01*
X145164494Y-136450537D01*
X145261185Y-136371185D01*
X145340537Y-136274494D01*
X145399502Y-136164180D01*
X145435812Y-136044482D01*
X145448072Y-135920000D01*
X145445000Y-134905750D01*
X145286250Y-134747000D01*
X143637000Y-134747000D01*
X143383000Y-134747000D01*
X141733750Y-134747000D01*
X141575000Y-134905750D01*
X141571928Y-135920000D01*
X127955177Y-135920000D01*
X128039929Y-135653757D01*
X128148414Y-134687719D01*
X128066351Y-133719079D01*
X127951220Y-133320000D01*
X141571928Y-133320000D01*
X141575000Y-134334250D01*
X141733750Y-134493000D01*
X143383000Y-134493000D01*
X143383000Y-132843750D01*
X143637000Y-132843750D01*
X143637000Y-134493000D01*
X145286250Y-134493000D01*
X145349831Y-134429419D01*
X146655000Y-134429419D01*
X146655000Y-134810581D01*
X146729361Y-135184419D01*
X146875225Y-135536566D01*
X147086987Y-135853491D01*
X147356509Y-136123013D01*
X147673434Y-136334775D01*
X148025581Y-136480639D01*
X148399419Y-136555000D01*
X148780581Y-136555000D01*
X149154419Y-136480639D01*
X149506566Y-136334775D01*
X149823491Y-136123013D01*
X150093013Y-135853491D01*
X150304775Y-135536566D01*
X150450639Y-135184419D01*
X150525000Y-134810581D01*
X150525000Y-134429419D01*
X150473399Y-134169999D01*
X152456928Y-134169999D01*
X152456928Y-135070001D01*
X152473992Y-135243255D01*
X152524528Y-135409851D01*
X152606595Y-135563387D01*
X152717038Y-135697962D01*
X152851613Y-135808405D01*
X153005149Y-135890472D01*
X153171745Y-135941008D01*
X153344999Y-135958072D01*
X153995001Y-135958072D01*
X154168255Y-135941008D01*
X154334851Y-135890472D01*
X154488387Y-135808405D01*
X154622962Y-135697962D01*
X154628342Y-135691406D01*
X154693815Y-135771185D01*
X154790506Y-135850537D01*
X154900820Y-135909502D01*
X155020518Y-135945812D01*
X155145000Y-135958072D01*
X155434250Y-135955000D01*
X155593000Y-135796250D01*
X155593000Y-134747000D01*
X155847000Y-134747000D01*
X155847000Y-135796250D01*
X156005750Y-135955000D01*
X156295000Y-135958072D01*
X156419482Y-135945812D01*
X156539180Y-135909502D01*
X156649494Y-135850537D01*
X156746185Y-135771185D01*
X156825537Y-135674494D01*
X156884502Y-135564180D01*
X156920812Y-135444482D01*
X156933072Y-135320000D01*
X156930000Y-134905750D01*
X156771250Y-134747000D01*
X155847000Y-134747000D01*
X155593000Y-134747000D01*
X155573000Y-134747000D01*
X155573000Y-134552281D01*
X163951586Y-134552281D01*
X164033649Y-135520921D01*
X164303107Y-136454938D01*
X164749606Y-137318440D01*
X164824851Y-137431054D01*
X165427182Y-137923213D01*
X168730395Y-134620000D01*
X169089605Y-134620000D01*
X172392818Y-137923213D01*
X172995149Y-137431054D01*
X173465063Y-136580067D01*
X173759929Y-135653757D01*
X173868414Y-134687719D01*
X173786351Y-133719079D01*
X173516893Y-132785062D01*
X173070394Y-131921560D01*
X172995149Y-131808946D01*
X172392818Y-131316787D01*
X169089605Y-134620000D01*
X168730395Y-134620000D01*
X165427182Y-131316787D01*
X164824851Y-131808946D01*
X164354937Y-132659933D01*
X164060071Y-133586243D01*
X163951586Y-134552281D01*
X155573000Y-134552281D01*
X155573000Y-134493000D01*
X155593000Y-134493000D01*
X155593000Y-133443750D01*
X155847000Y-133443750D01*
X155847000Y-134493000D01*
X156771250Y-134493000D01*
X156930000Y-134334250D01*
X156933072Y-133920000D01*
X156920812Y-133795518D01*
X156884502Y-133675820D01*
X156825537Y-133565506D01*
X156746185Y-133468815D01*
X156649494Y-133389463D01*
X156539180Y-133330498D01*
X156419482Y-133294188D01*
X156295000Y-133281928D01*
X156005750Y-133285000D01*
X155847000Y-133443750D01*
X155593000Y-133443750D01*
X155434250Y-133285000D01*
X155145000Y-133281928D01*
X155020518Y-133294188D01*
X154900820Y-133330498D01*
X154790506Y-133389463D01*
X154693815Y-133468815D01*
X154628342Y-133548594D01*
X154622962Y-133542038D01*
X154488387Y-133431595D01*
X154334851Y-133349528D01*
X154168255Y-133298992D01*
X153995001Y-133281928D01*
X153344999Y-133281928D01*
X153171745Y-133298992D01*
X153005149Y-133349528D01*
X152851613Y-133431595D01*
X152717038Y-133542038D01*
X152606595Y-133676613D01*
X152524528Y-133830149D01*
X152473992Y-133996745D01*
X152456928Y-134169999D01*
X150473399Y-134169999D01*
X150450639Y-134055581D01*
X150304775Y-133703434D01*
X150093013Y-133386509D01*
X149823491Y-133116987D01*
X149506566Y-132905225D01*
X149154419Y-132759361D01*
X148780581Y-132685000D01*
X148399419Y-132685000D01*
X148025581Y-132759361D01*
X147673434Y-132905225D01*
X147356509Y-133116987D01*
X147086987Y-133386509D01*
X146875225Y-133703434D01*
X146729361Y-134055581D01*
X146655000Y-134429419D01*
X145349831Y-134429419D01*
X145445000Y-134334250D01*
X145448072Y-133320000D01*
X145435812Y-133195518D01*
X145399502Y-133075820D01*
X145340537Y-132965506D01*
X145261185Y-132868815D01*
X145164494Y-132789463D01*
X145054180Y-132730498D01*
X144934482Y-132694188D01*
X144810000Y-132681928D01*
X143795750Y-132685000D01*
X143637000Y-132843750D01*
X143383000Y-132843750D01*
X143224250Y-132685000D01*
X142210000Y-132681928D01*
X142085518Y-132694188D01*
X141965820Y-132730498D01*
X141855506Y-132789463D01*
X141758815Y-132868815D01*
X141679463Y-132965506D01*
X141620498Y-133075820D01*
X141584188Y-133195518D01*
X141571928Y-133320000D01*
X127951220Y-133320000D01*
X127796893Y-132785062D01*
X127350394Y-131921560D01*
X127275149Y-131808946D01*
X126672818Y-131316787D01*
X123369605Y-134620000D01*
X123010395Y-134620000D01*
X119707182Y-131316787D01*
X119104851Y-131808946D01*
X118634937Y-132659933D01*
X118340071Y-133586243D01*
X118231586Y-134552281D01*
X117500000Y-134552281D01*
X117500000Y-131137182D01*
X119886787Y-131137182D01*
X123190000Y-134440395D01*
X126493213Y-131137182D01*
X165606787Y-131137182D01*
X168910000Y-134440395D01*
X172213213Y-131137182D01*
X171721054Y-130534851D01*
X170870067Y-130064937D01*
X169943757Y-129770071D01*
X168977719Y-129661586D01*
X168009079Y-129743649D01*
X167075062Y-130013107D01*
X166211560Y-130459606D01*
X166098946Y-130534851D01*
X165606787Y-131137182D01*
X126493213Y-131137182D01*
X126001054Y-130534851D01*
X125150067Y-130064937D01*
X124223757Y-129770071D01*
X123257719Y-129661586D01*
X122289079Y-129743649D01*
X121355062Y-130013107D01*
X120491560Y-130459606D01*
X120378946Y-130534851D01*
X119886787Y-131137182D01*
X117500000Y-131137182D01*
X117500000Y-127700000D01*
X141026928Y-127700000D01*
X141039188Y-127824482D01*
X141075498Y-127944180D01*
X141134463Y-128054494D01*
X141213815Y-128151185D01*
X141310506Y-128230537D01*
X141420820Y-128289502D01*
X141540518Y-128325812D01*
X141665000Y-128338072D01*
X141954250Y-128335000D01*
X142113000Y-128176250D01*
X142113000Y-127127000D01*
X141188750Y-127127000D01*
X141030000Y-127285750D01*
X141026928Y-127700000D01*
X117500000Y-127700000D01*
X117500000Y-126300000D01*
X141026928Y-126300000D01*
X141030000Y-126714250D01*
X141188750Y-126873000D01*
X142113000Y-126873000D01*
X142113000Y-125823750D01*
X142367000Y-125823750D01*
X142367000Y-126873000D01*
X142387000Y-126873000D01*
X142387000Y-127127000D01*
X142367000Y-127127000D01*
X142367000Y-128176250D01*
X142525750Y-128335000D01*
X142815000Y-128338072D01*
X142939482Y-128325812D01*
X143059180Y-128289502D01*
X143169494Y-128230537D01*
X143266185Y-128151185D01*
X143331658Y-128071406D01*
X143337038Y-128077962D01*
X143471613Y-128188405D01*
X143625149Y-128270472D01*
X143791745Y-128321008D01*
X143964999Y-128338072D01*
X144615001Y-128338072D01*
X144788255Y-128321008D01*
X144954851Y-128270472D01*
X145108387Y-128188405D01*
X145242962Y-128077962D01*
X145353405Y-127943387D01*
X145382476Y-127889000D01*
X146781751Y-127889000D01*
X146784095Y-127893386D01*
X146894538Y-128027962D01*
X147029114Y-128138405D01*
X147182650Y-128220472D01*
X147349246Y-128271008D01*
X147522500Y-128288072D01*
X148347500Y-128288072D01*
X148520754Y-128271008D01*
X148687350Y-128220472D01*
X148840886Y-128138405D01*
X148897500Y-128091943D01*
X148954114Y-128138405D01*
X149107650Y-128220472D01*
X149274246Y-128271008D01*
X149447500Y-128288072D01*
X150272500Y-128288072D01*
X150445754Y-128271008D01*
X150612350Y-128220472D01*
X150765886Y-128138405D01*
X150900462Y-128027962D01*
X151010905Y-127893386D01*
X151092972Y-127739850D01*
X151143508Y-127573254D01*
X151160572Y-127400000D01*
X151160572Y-126600000D01*
X151143508Y-126426746D01*
X151092972Y-126260150D01*
X151010905Y-126106614D01*
X150900462Y-125972038D01*
X150765886Y-125861595D01*
X150612350Y-125779528D01*
X150445754Y-125728992D01*
X150272500Y-125711928D01*
X149447500Y-125711928D01*
X149274246Y-125728992D01*
X149107650Y-125779528D01*
X148954114Y-125861595D01*
X148897500Y-125908057D01*
X148840886Y-125861595D01*
X148687350Y-125779528D01*
X148520754Y-125728992D01*
X148347500Y-125711928D01*
X147522500Y-125711928D01*
X147349246Y-125728992D01*
X147182650Y-125779528D01*
X147029114Y-125861595D01*
X146894538Y-125972038D01*
X146784095Y-126106614D01*
X146781751Y-126111000D01*
X145382476Y-126111000D01*
X145353405Y-126056613D01*
X145242962Y-125922038D01*
X145108387Y-125811595D01*
X144954851Y-125729528D01*
X144788255Y-125678992D01*
X144615001Y-125661928D01*
X143964999Y-125661928D01*
X143791745Y-125678992D01*
X143625149Y-125729528D01*
X143471613Y-125811595D01*
X143337038Y-125922038D01*
X143331658Y-125928594D01*
X143266185Y-125848815D01*
X143169494Y-125769463D01*
X143059180Y-125710498D01*
X142939482Y-125674188D01*
X142815000Y-125661928D01*
X142525750Y-125665000D01*
X142367000Y-125823750D01*
X142113000Y-125823750D01*
X141954250Y-125665000D01*
X141665000Y-125661928D01*
X141540518Y-125674188D01*
X141420820Y-125710498D01*
X141310506Y-125769463D01*
X141213815Y-125848815D01*
X141134463Y-125945506D01*
X141075498Y-126055820D01*
X141039188Y-126175518D01*
X141026928Y-126300000D01*
X117500000Y-126300000D01*
X117500000Y-124816890D01*
X119208524Y-124816890D01*
X119253175Y-124964099D01*
X119378359Y-125226920D01*
X119552412Y-125460269D01*
X119768645Y-125655178D01*
X120018748Y-125804157D01*
X120293109Y-125901481D01*
X120523000Y-125780814D01*
X120523000Y-124587000D01*
X120777000Y-124587000D01*
X120777000Y-125780814D01*
X121006891Y-125901481D01*
X121281252Y-125804157D01*
X121531355Y-125655178D01*
X121747588Y-125460269D01*
X121921641Y-125226920D01*
X122046825Y-124964099D01*
X122091476Y-124816890D01*
X121970155Y-124587000D01*
X120777000Y-124587000D01*
X120523000Y-124587000D01*
X119329845Y-124587000D01*
X119208524Y-124816890D01*
X117500000Y-124816890D01*
X117500000Y-88934001D01*
X118452699Y-88934001D01*
X118457000Y-88977671D01*
X118456999Y-112952339D01*
X118452699Y-112995999D01*
X118456999Y-113039659D01*
X118456999Y-113039665D01*
X118464662Y-113117464D01*
X118469863Y-113170273D01*
X118482146Y-113210765D01*
X118520696Y-113337849D01*
X118603246Y-113492289D01*
X118714340Y-113627658D01*
X118748263Y-113655498D01*
X119178523Y-114085758D01*
X119165000Y-114153740D01*
X119165000Y-114446260D01*
X119222068Y-114733158D01*
X119334010Y-115003411D01*
X119496525Y-115246632D01*
X119703368Y-115453475D01*
X119877760Y-115570000D01*
X119703368Y-115686525D01*
X119496525Y-115893368D01*
X119334010Y-116136589D01*
X119222068Y-116406842D01*
X119165000Y-116693740D01*
X119165000Y-116986260D01*
X119222068Y-117273158D01*
X119334010Y-117543411D01*
X119496525Y-117786632D01*
X119703368Y-117993475D01*
X119877760Y-118110000D01*
X119703368Y-118226525D01*
X119496525Y-118433368D01*
X119334010Y-118676589D01*
X119222068Y-118946842D01*
X119165000Y-119233740D01*
X119165000Y-119526260D01*
X119222068Y-119813158D01*
X119334010Y-120083411D01*
X119496525Y-120326632D01*
X119703368Y-120533475D01*
X119877760Y-120650000D01*
X119703368Y-120766525D01*
X119496525Y-120973368D01*
X119334010Y-121216589D01*
X119222068Y-121486842D01*
X119165000Y-121773740D01*
X119165000Y-122066260D01*
X119222068Y-122353158D01*
X119334010Y-122623411D01*
X119496525Y-122866632D01*
X119703368Y-123073475D01*
X119885534Y-123195195D01*
X119768645Y-123264822D01*
X119552412Y-123459731D01*
X119378359Y-123693080D01*
X119253175Y-123955901D01*
X119208524Y-124103110D01*
X119329845Y-124333000D01*
X120523000Y-124333000D01*
X120523000Y-124313000D01*
X120777000Y-124313000D01*
X120777000Y-124333000D01*
X121970155Y-124333000D01*
X122091476Y-124103110D01*
X122046825Y-123955901D01*
X121921641Y-123693080D01*
X121747588Y-123459731D01*
X121531355Y-123264822D01*
X121414466Y-123195195D01*
X121596632Y-123073475D01*
X121803475Y-122866632D01*
X121965990Y-122623411D01*
X122077932Y-122353158D01*
X122135000Y-122066260D01*
X122135000Y-121773740D01*
X122077932Y-121486842D01*
X121965990Y-121216589D01*
X121803475Y-120973368D01*
X121596632Y-120766525D01*
X121422240Y-120650000D01*
X121596632Y-120533475D01*
X121803475Y-120326632D01*
X121965990Y-120083411D01*
X122077932Y-119813158D01*
X122135000Y-119526260D01*
X122135000Y-119233740D01*
X122077932Y-118946842D01*
X121965990Y-118676589D01*
X121868043Y-118530000D01*
X128051928Y-118530000D01*
X128051928Y-120230000D01*
X128064188Y-120354482D01*
X128100498Y-120474180D01*
X128159463Y-120584494D01*
X128238815Y-120681185D01*
X128335506Y-120760537D01*
X128445820Y-120819502D01*
X128565518Y-120855812D01*
X128690000Y-120868072D01*
X130390000Y-120868072D01*
X130514482Y-120855812D01*
X130634180Y-120819502D01*
X130744494Y-120760537D01*
X130841185Y-120681185D01*
X130920537Y-120584494D01*
X130979502Y-120474180D01*
X131001513Y-120401620D01*
X131133368Y-120533475D01*
X131376589Y-120695990D01*
X131646842Y-120807932D01*
X131933740Y-120865000D01*
X132226260Y-120865000D01*
X132513158Y-120807932D01*
X132783411Y-120695990D01*
X133026632Y-120533475D01*
X133233475Y-120326632D01*
X133395990Y-120083411D01*
X133507932Y-119813158D01*
X133565000Y-119526260D01*
X133565000Y-119233740D01*
X133507932Y-118946842D01*
X133395990Y-118676589D01*
X133233475Y-118433368D01*
X133026632Y-118226525D01*
X132783411Y-118064010D01*
X132513158Y-117952068D01*
X132226260Y-117895000D01*
X131933740Y-117895000D01*
X131646842Y-117952068D01*
X131376589Y-118064010D01*
X131133368Y-118226525D01*
X131001513Y-118358380D01*
X130979502Y-118285820D01*
X130920537Y-118175506D01*
X130841185Y-118078815D01*
X130744494Y-117999463D01*
X130634180Y-117940498D01*
X130514482Y-117904188D01*
X130390000Y-117891928D01*
X128690000Y-117891928D01*
X128565518Y-117904188D01*
X128445820Y-117940498D01*
X128335506Y-117999463D01*
X128238815Y-118078815D01*
X128159463Y-118175506D01*
X128100498Y-118285820D01*
X128064188Y-118405518D01*
X128051928Y-118530000D01*
X121868043Y-118530000D01*
X121803475Y-118433368D01*
X121596632Y-118226525D01*
X121422240Y-118110000D01*
X121596632Y-117993475D01*
X121803475Y-117786632D01*
X121965990Y-117543411D01*
X122077932Y-117273158D01*
X122135000Y-116986260D01*
X122135000Y-116693740D01*
X122077932Y-116406842D01*
X121965990Y-116136589D01*
X121803475Y-115893368D01*
X121801107Y-115891000D01*
X138107928Y-115891000D01*
X138120188Y-116015482D01*
X138156498Y-116135180D01*
X138215463Y-116245494D01*
X138294815Y-116342185D01*
X138391506Y-116421537D01*
X138501820Y-116480502D01*
X138621518Y-116516812D01*
X138746000Y-116529072D01*
X139160250Y-116526000D01*
X139319000Y-116367250D01*
X139319000Y-115443000D01*
X139573000Y-115443000D01*
X139573000Y-116367250D01*
X139731750Y-116526000D01*
X140146000Y-116529072D01*
X140270482Y-116516812D01*
X140390180Y-116480502D01*
X140500494Y-116421537D01*
X140597185Y-116342185D01*
X140676537Y-116245494D01*
X140712577Y-116178069D01*
X140769463Y-116284494D01*
X140848815Y-116381185D01*
X140945506Y-116460537D01*
X141055820Y-116519502D01*
X141175518Y-116555812D01*
X141300000Y-116568072D01*
X141789250Y-116565000D01*
X141948000Y-116406250D01*
X141948000Y-115407000D01*
X142202000Y-115407000D01*
X142202000Y-116406250D01*
X142360750Y-116565000D01*
X142850000Y-116568072D01*
X142974482Y-116555812D01*
X143094180Y-116519502D01*
X143204494Y-116460537D01*
X143301185Y-116381185D01*
X143380537Y-116284494D01*
X143439502Y-116174180D01*
X143475812Y-116054482D01*
X143488072Y-115930000D01*
X148611928Y-115930000D01*
X148624188Y-116054482D01*
X148660498Y-116174180D01*
X148719463Y-116284494D01*
X148798815Y-116381185D01*
X148895506Y-116460537D01*
X149005820Y-116519502D01*
X149125518Y-116555812D01*
X149250000Y-116568072D01*
X149739250Y-116565000D01*
X149898000Y-116406250D01*
X149898000Y-115407000D01*
X150152000Y-115407000D01*
X150152000Y-116406250D01*
X150310750Y-116565000D01*
X150800000Y-116568072D01*
X150924482Y-116555812D01*
X151044180Y-116519502D01*
X151154494Y-116460537D01*
X151251185Y-116381185D01*
X151330537Y-116284494D01*
X151389502Y-116174180D01*
X151425812Y-116054482D01*
X151438072Y-115930000D01*
X151435000Y-115565750D01*
X151276250Y-115407000D01*
X150152000Y-115407000D01*
X149898000Y-115407000D01*
X148773750Y-115407000D01*
X148615000Y-115565750D01*
X148611928Y-115930000D01*
X143488072Y-115930000D01*
X143485000Y-115565750D01*
X143326250Y-115407000D01*
X142202000Y-115407000D01*
X141948000Y-115407000D01*
X140823750Y-115407000D01*
X140705000Y-115525750D01*
X140622250Y-115443000D01*
X139573000Y-115443000D01*
X139319000Y-115443000D01*
X138269750Y-115443000D01*
X138111000Y-115601750D01*
X138107928Y-115891000D01*
X121801107Y-115891000D01*
X121596632Y-115686525D01*
X121422240Y-115570000D01*
X121596632Y-115453475D01*
X121803475Y-115246632D01*
X121965990Y-115003411D01*
X122077932Y-114733158D01*
X122135000Y-114446260D01*
X122135000Y-114153740D01*
X122077932Y-113866842D01*
X121965990Y-113596589D01*
X121803475Y-113353368D01*
X121671620Y-113221513D01*
X121744180Y-113199502D01*
X121854494Y-113140537D01*
X121951185Y-113061185D01*
X122030537Y-112964494D01*
X122089502Y-112854180D01*
X122125812Y-112734482D01*
X122138072Y-112610000D01*
X122138072Y-110910000D01*
X122125812Y-110785518D01*
X122089502Y-110665820D01*
X122030537Y-110555506D01*
X121951185Y-110458815D01*
X121854494Y-110379463D01*
X121744180Y-110320498D01*
X121624482Y-110284188D01*
X121500000Y-110271928D01*
X120234999Y-110271928D01*
X120234999Y-106841544D01*
X120503740Y-106895000D01*
X120796260Y-106895000D01*
X121083158Y-106837932D01*
X121353411Y-106725990D01*
X121596632Y-106563475D01*
X121803475Y-106356632D01*
X121841983Y-106299000D01*
X123837765Y-106299000D01*
X128118501Y-110579736D01*
X128146341Y-110613659D01*
X128281709Y-110724753D01*
X128436149Y-110807303D01*
X128502058Y-110827296D01*
X128603724Y-110858136D01*
X128636924Y-110861406D01*
X128734333Y-110871000D01*
X128734339Y-110871000D01*
X128777999Y-110875300D01*
X128821659Y-110871000D01*
X138386340Y-110871000D01*
X138430000Y-110875300D01*
X138473660Y-110871000D01*
X138473667Y-110871000D01*
X138604274Y-110858136D01*
X138771851Y-110807303D01*
X138926291Y-110724753D01*
X139061659Y-110613659D01*
X139089499Y-110579736D01*
X144953630Y-104715606D01*
X145018342Y-104794457D01*
X145052259Y-104822292D01*
X146855622Y-106625655D01*
X146821745Y-106628992D01*
X146655149Y-106679528D01*
X146501613Y-106761595D01*
X146367038Y-106872038D01*
X146295000Y-106959816D01*
X146222962Y-106872038D01*
X146088387Y-106761595D01*
X145934851Y-106679528D01*
X145768255Y-106628992D01*
X145595001Y-106611928D01*
X144944999Y-106611928D01*
X144771745Y-106628992D01*
X144605149Y-106679528D01*
X144451613Y-106761595D01*
X144317038Y-106872038D01*
X144206595Y-107006613D01*
X144124528Y-107160149D01*
X144073992Y-107326745D01*
X144056928Y-107499999D01*
X144056928Y-108400001D01*
X144073992Y-108573255D01*
X144124528Y-108739851D01*
X144206595Y-108893387D01*
X144317038Y-109027962D01*
X144381000Y-109080455D01*
X144381001Y-109827500D01*
X143408329Y-109827500D01*
X143380537Y-109775506D01*
X143301185Y-109678815D01*
X143204494Y-109599463D01*
X143094180Y-109540498D01*
X142974482Y-109504188D01*
X142850000Y-109491928D01*
X141300000Y-109491928D01*
X141175518Y-109504188D01*
X141055820Y-109540498D01*
X140945506Y-109599463D01*
X140848815Y-109678815D01*
X140769463Y-109775506D01*
X140710498Y-109885820D01*
X140674188Y-110005518D01*
X140661928Y-110130000D01*
X140661928Y-110556836D01*
X139165837Y-112052928D01*
X138995999Y-112052928D01*
X138822745Y-112069992D01*
X138656149Y-112120528D01*
X138502613Y-112202595D01*
X138368038Y-112313038D01*
X138257595Y-112447613D01*
X138175528Y-112601149D01*
X138124992Y-112767745D01*
X138107928Y-112940999D01*
X138107928Y-113591001D01*
X138124992Y-113764255D01*
X138175528Y-113930851D01*
X138257595Y-114084387D01*
X138368038Y-114218962D01*
X138374594Y-114224342D01*
X138294815Y-114289815D01*
X138215463Y-114386506D01*
X138156498Y-114496820D01*
X138120188Y-114616518D01*
X138107928Y-114741000D01*
X138111000Y-115030250D01*
X138269750Y-115189000D01*
X139319000Y-115189000D01*
X139319000Y-115169000D01*
X139573000Y-115169000D01*
X139573000Y-115189000D01*
X140622250Y-115189000D01*
X140741000Y-115070250D01*
X140823750Y-115153000D01*
X141948000Y-115153000D01*
X141948000Y-114153750D01*
X142202000Y-114153750D01*
X142202000Y-115153000D01*
X143326250Y-115153000D01*
X143485000Y-114994250D01*
X143488072Y-114630000D01*
X148611928Y-114630000D01*
X148615000Y-114994250D01*
X148773750Y-115153000D01*
X149898000Y-115153000D01*
X149898000Y-114153750D01*
X150152000Y-114153750D01*
X150152000Y-115153000D01*
X151276250Y-115153000D01*
X151435000Y-114994250D01*
X151438072Y-114630000D01*
X151425812Y-114505518D01*
X151389502Y-114385820D01*
X151330537Y-114275506D01*
X151251185Y-114178815D01*
X151154494Y-114099463D01*
X151044180Y-114040498D01*
X150924482Y-114004188D01*
X150800000Y-113991928D01*
X150310750Y-113995000D01*
X150152000Y-114153750D01*
X149898000Y-114153750D01*
X149739250Y-113995000D01*
X149250000Y-113991928D01*
X149125518Y-114004188D01*
X149005820Y-114040498D01*
X148895506Y-114099463D01*
X148798815Y-114178815D01*
X148719463Y-114275506D01*
X148660498Y-114385820D01*
X148624188Y-114505518D01*
X148611928Y-114630000D01*
X143488072Y-114630000D01*
X143475812Y-114505518D01*
X143439502Y-114385820D01*
X143380537Y-114275506D01*
X143301185Y-114178815D01*
X143204494Y-114099463D01*
X143094180Y-114040498D01*
X142974482Y-114004188D01*
X142850000Y-113991928D01*
X142360750Y-113995000D01*
X142202000Y-114153750D01*
X141948000Y-114153750D01*
X141789250Y-113995000D01*
X141300000Y-113991928D01*
X141175518Y-114004188D01*
X141055820Y-114040498D01*
X140945506Y-114099463D01*
X140848815Y-114178815D01*
X140769463Y-114275506D01*
X140710498Y-114385820D01*
X140698070Y-114426790D01*
X140676537Y-114386506D01*
X140597185Y-114289815D01*
X140517406Y-114224342D01*
X140523962Y-114218962D01*
X140634405Y-114084387D01*
X140716472Y-113930851D01*
X140767008Y-113764255D01*
X140784072Y-113591001D01*
X140784072Y-112949163D01*
X141665164Y-112068072D01*
X142850000Y-112068072D01*
X142974482Y-112055812D01*
X143094180Y-112019502D01*
X143204494Y-111960537D01*
X143301185Y-111881185D01*
X143380537Y-111784494D01*
X143408329Y-111732500D01*
X148691671Y-111732500D01*
X148719463Y-111784494D01*
X148798815Y-111881185D01*
X148895506Y-111960537D01*
X149005820Y-112019502D01*
X149125518Y-112055812D01*
X149250000Y-112068072D01*
X150800000Y-112068072D01*
X150924482Y-112055812D01*
X151044180Y-112019502D01*
X151154494Y-111960537D01*
X151251185Y-111881185D01*
X151330537Y-111784494D01*
X151389502Y-111674180D01*
X151425812Y-111554482D01*
X151438072Y-111430000D01*
X151438072Y-111208105D01*
X156127752Y-115897785D01*
X156155592Y-115931708D01*
X156290960Y-116042802D01*
X156445400Y-116125352D01*
X156482972Y-116136749D01*
X156612975Y-116176185D01*
X156646175Y-116179455D01*
X156743584Y-116189049D01*
X156743590Y-116189049D01*
X156787250Y-116193349D01*
X156830910Y-116189049D01*
X166747814Y-116189049D01*
X167132969Y-116574204D01*
X167132971Y-118941577D01*
X167128670Y-118985246D01*
X167145834Y-119159520D01*
X167196668Y-119327098D01*
X167279218Y-119481537D01*
X167332245Y-119546150D01*
X167390312Y-119616905D01*
X167424229Y-119644740D01*
X168328990Y-120549502D01*
X168328991Y-121676321D01*
X168324690Y-121719990D01*
X168341854Y-121894264D01*
X168392688Y-122061842D01*
X168458896Y-122185708D01*
X168475238Y-122216281D01*
X168586332Y-122351649D01*
X168620249Y-122379484D01*
X169291000Y-123050236D01*
X169291001Y-123654331D01*
X169286700Y-123698000D01*
X169303864Y-123872274D01*
X169354698Y-124039852D01*
X169396549Y-124118149D01*
X169437248Y-124194291D01*
X169548342Y-124329659D01*
X169582259Y-124357494D01*
X169961928Y-124737164D01*
X169961928Y-125310000D01*
X169974188Y-125434482D01*
X170010498Y-125554180D01*
X170069463Y-125664494D01*
X170148815Y-125761185D01*
X170245506Y-125840537D01*
X170355820Y-125899502D01*
X170475518Y-125935812D01*
X170600000Y-125948072D01*
X172300000Y-125948072D01*
X172424482Y-125935812D01*
X172544180Y-125899502D01*
X172654494Y-125840537D01*
X172751185Y-125761185D01*
X172830537Y-125664494D01*
X172889502Y-125554180D01*
X172925812Y-125434482D01*
X172938072Y-125310000D01*
X172938072Y-123610000D01*
X172925812Y-123485518D01*
X172889502Y-123365820D01*
X172830537Y-123255506D01*
X172751185Y-123158815D01*
X172654494Y-123079463D01*
X172544180Y-123020498D01*
X172471620Y-122998487D01*
X172603475Y-122866632D01*
X172765990Y-122623411D01*
X172877932Y-122353158D01*
X172935000Y-122066260D01*
X172935000Y-121773740D01*
X172877932Y-121486842D01*
X172765990Y-121216589D01*
X172603475Y-120973368D01*
X172396632Y-120766525D01*
X172222240Y-120650000D01*
X172396632Y-120533475D01*
X172603475Y-120326632D01*
X172765990Y-120083411D01*
X172877932Y-119813158D01*
X172935000Y-119526260D01*
X172935000Y-119233740D01*
X172877932Y-118946842D01*
X172765990Y-118676589D01*
X172603475Y-118433368D01*
X172396632Y-118226525D01*
X172222240Y-118110000D01*
X172396632Y-117993475D01*
X172603475Y-117786632D01*
X172765990Y-117543411D01*
X172877932Y-117273158D01*
X172935000Y-116986260D01*
X172935000Y-116693740D01*
X172877932Y-116406842D01*
X172765990Y-116136589D01*
X172603475Y-115893368D01*
X172396632Y-115686525D01*
X172222240Y-115570000D01*
X172396632Y-115453475D01*
X172603475Y-115246632D01*
X172765990Y-115003411D01*
X172877932Y-114733158D01*
X172935000Y-114446260D01*
X172935000Y-114153740D01*
X172877932Y-113866842D01*
X172765990Y-113596589D01*
X172603475Y-113353368D01*
X172396632Y-113146525D01*
X172222240Y-113030000D01*
X172396632Y-112913475D01*
X172603475Y-112706632D01*
X172765990Y-112463411D01*
X172877932Y-112193158D01*
X172935000Y-111906260D01*
X172935000Y-111613740D01*
X172877932Y-111326842D01*
X172765990Y-111056589D01*
X172603475Y-110813368D01*
X172396632Y-110606525D01*
X172153411Y-110444010D01*
X171883158Y-110332068D01*
X171596260Y-110275000D01*
X171303740Y-110275000D01*
X171016842Y-110332068D01*
X170746589Y-110444010D01*
X170503368Y-110606525D01*
X170296525Y-110813368D01*
X170258017Y-110871000D01*
X158621818Y-110871000D01*
X151911020Y-104160203D01*
X151911020Y-103059680D01*
X151915320Y-103016020D01*
X151911020Y-102972360D01*
X151911020Y-102972353D01*
X151898156Y-102841746D01*
X151893902Y-102827720D01*
X151873318Y-102759864D01*
X151847323Y-102674169D01*
X151764773Y-102519729D01*
X151653679Y-102384361D01*
X151619756Y-102356521D01*
X151281499Y-102018264D01*
X151253659Y-101984341D01*
X151189000Y-101931277D01*
X151189000Y-101431000D01*
X152077928Y-101431000D01*
X152090188Y-101555482D01*
X152126498Y-101675180D01*
X152185463Y-101785494D01*
X152264815Y-101882185D01*
X152361506Y-101961537D01*
X152471820Y-102020502D01*
X152591518Y-102056812D01*
X152716000Y-102069072D01*
X153130250Y-102066000D01*
X153289000Y-101907250D01*
X153289000Y-100983000D01*
X153543000Y-100983000D01*
X153543000Y-101907250D01*
X153701750Y-102066000D01*
X154116000Y-102069072D01*
X154240482Y-102056812D01*
X154360180Y-102020502D01*
X154470494Y-101961537D01*
X154567185Y-101882185D01*
X154646537Y-101785494D01*
X154705502Y-101675180D01*
X154741812Y-101555482D01*
X154754072Y-101431000D01*
X154751000Y-101141750D01*
X154592250Y-100983000D01*
X153543000Y-100983000D01*
X153289000Y-100983000D01*
X152239750Y-100983000D01*
X152081000Y-101141750D01*
X152077928Y-101431000D01*
X151189000Y-101431000D01*
X151189000Y-99524468D01*
X151217205Y-99482256D01*
X151295226Y-99293898D01*
X151335000Y-99093939D01*
X151335000Y-98917287D01*
X151344180Y-98914502D01*
X151454494Y-98855537D01*
X151551185Y-98776185D01*
X151630537Y-98679494D01*
X151689502Y-98569180D01*
X151725812Y-98449482D01*
X151738072Y-98325000D01*
X151738072Y-98139000D01*
X151745765Y-98139000D01*
X152078810Y-98472045D01*
X152077928Y-98480999D01*
X152077928Y-99131001D01*
X152094992Y-99304255D01*
X152145528Y-99470851D01*
X152227595Y-99624387D01*
X152338038Y-99758962D01*
X152344594Y-99764342D01*
X152264815Y-99829815D01*
X152185463Y-99926506D01*
X152126498Y-100036820D01*
X152090188Y-100156518D01*
X152077928Y-100281000D01*
X152081000Y-100570250D01*
X152239750Y-100729000D01*
X153289000Y-100729000D01*
X153289000Y-100709000D01*
X153543000Y-100709000D01*
X153543000Y-100729000D01*
X154592250Y-100729000D01*
X154751000Y-100570250D01*
X154754072Y-100281000D01*
X154741812Y-100156518D01*
X154705502Y-100036820D01*
X154646537Y-99926506D01*
X154567185Y-99829815D01*
X154487406Y-99764342D01*
X154493962Y-99758962D01*
X154546454Y-99695000D01*
X154863524Y-99695000D01*
X154892595Y-99749387D01*
X155003038Y-99883962D01*
X155137613Y-99994405D01*
X155291149Y-100076472D01*
X155457745Y-100127008D01*
X155630999Y-100144072D01*
X156281001Y-100144072D01*
X156454255Y-100127008D01*
X156620851Y-100076472D01*
X156774387Y-99994405D01*
X156908962Y-99883962D01*
X156981000Y-99796184D01*
X157053038Y-99883962D01*
X157187613Y-99994405D01*
X157341149Y-100076472D01*
X157507745Y-100127008D01*
X157680999Y-100144072D01*
X158331001Y-100144072D01*
X158504255Y-100127008D01*
X158670851Y-100076472D01*
X158824387Y-99994405D01*
X158958962Y-99883962D01*
X159069405Y-99749387D01*
X159151472Y-99595851D01*
X159202008Y-99429255D01*
X159219072Y-99256001D01*
X159219072Y-98355999D01*
X159202008Y-98182745D01*
X159151472Y-98016149D01*
X159069405Y-97862613D01*
X158958962Y-97728038D01*
X158824387Y-97617595D01*
X158670851Y-97535528D01*
X158504255Y-97484992D01*
X158331001Y-97467928D01*
X157680999Y-97467928D01*
X157507745Y-97484992D01*
X157341149Y-97535528D01*
X157187613Y-97617595D01*
X157053038Y-97728038D01*
X156981000Y-97815816D01*
X156908962Y-97728038D01*
X156774387Y-97617595D01*
X156620851Y-97535528D01*
X156454255Y-97484992D01*
X156281001Y-97467928D01*
X156011307Y-97467928D01*
X159118235Y-94361000D01*
X162535532Y-94361000D01*
X162577744Y-94389205D01*
X162766102Y-94467226D01*
X162966061Y-94507000D01*
X163169939Y-94507000D01*
X163369898Y-94467226D01*
X163558256Y-94389205D01*
X163727774Y-94275937D01*
X163871937Y-94131774D01*
X163985205Y-93962256D01*
X164063226Y-93773898D01*
X164103000Y-93573939D01*
X164103000Y-93370061D01*
X164063226Y-93170102D01*
X163985205Y-92981744D01*
X163973349Y-92964000D01*
X163985205Y-92946256D01*
X164063226Y-92757898D01*
X164103000Y-92557939D01*
X164103000Y-92490999D01*
X164967384Y-92490999D01*
X166085322Y-93608938D01*
X166085323Y-94765207D01*
X166081022Y-94808876D01*
X166098186Y-94983151D01*
X166149020Y-95150728D01*
X166159125Y-95169633D01*
X166231570Y-95305167D01*
X166342664Y-95440535D01*
X166376581Y-95468370D01*
X167039971Y-96131760D01*
X167039972Y-97243856D01*
X167035671Y-97287525D01*
X167052835Y-97461799D01*
X167103669Y-97629377D01*
X167186219Y-97783816D01*
X167266797Y-97882000D01*
X167297313Y-97919184D01*
X167331230Y-97947019D01*
X167840979Y-98456768D01*
X167840980Y-99568864D01*
X167836679Y-99612533D01*
X167853843Y-99786808D01*
X167904677Y-99954385D01*
X167922231Y-99987226D01*
X167987227Y-100108824D01*
X168024644Y-100154416D01*
X168063326Y-100201550D01*
X168098321Y-100244192D01*
X168132239Y-100272028D01*
X168548989Y-100688778D01*
X168548990Y-101815595D01*
X168544689Y-101859265D01*
X168561853Y-102033539D01*
X168612686Y-102201116D01*
X168656621Y-102283312D01*
X168695237Y-102355557D01*
X168742566Y-102413227D01*
X168771000Y-102447874D01*
X168806331Y-102490925D01*
X168840247Y-102518759D01*
X168952483Y-102630995D01*
X169047702Y-102747020D01*
X169081624Y-102774859D01*
X169256999Y-102950234D01*
X169257000Y-104062330D01*
X169252699Y-104105999D01*
X169269863Y-104280273D01*
X169320697Y-104447851D01*
X169403247Y-104602290D01*
X169485661Y-104702711D01*
X169514341Y-104737658D01*
X169548258Y-104765493D01*
X169961928Y-105179163D01*
X169961928Y-106260000D01*
X169974188Y-106384482D01*
X170010498Y-106504180D01*
X170069463Y-106614494D01*
X170148815Y-106711185D01*
X170245506Y-106790537D01*
X170355820Y-106849502D01*
X170475518Y-106885812D01*
X170600000Y-106898072D01*
X172300000Y-106898072D01*
X172424482Y-106885812D01*
X172544180Y-106849502D01*
X172654494Y-106790537D01*
X172751185Y-106711185D01*
X172830537Y-106614494D01*
X172889502Y-106504180D01*
X172925812Y-106384482D01*
X172938072Y-106260000D01*
X172938072Y-104560000D01*
X172925812Y-104435518D01*
X172889502Y-104315820D01*
X172830537Y-104205506D01*
X172751185Y-104108815D01*
X172654494Y-104029463D01*
X172544180Y-103970498D01*
X172471620Y-103948487D01*
X172603475Y-103816632D01*
X172765990Y-103573411D01*
X172877932Y-103303158D01*
X172935000Y-103016260D01*
X172935000Y-102723740D01*
X172877932Y-102436842D01*
X172765990Y-102166589D01*
X172603475Y-101923368D01*
X172396632Y-101716525D01*
X172222240Y-101600000D01*
X172396632Y-101483475D01*
X172603475Y-101276632D01*
X172765990Y-101033411D01*
X172877932Y-100763158D01*
X172935000Y-100476260D01*
X172935000Y-100183740D01*
X172877932Y-99896842D01*
X172765990Y-99626589D01*
X172603475Y-99383368D01*
X172396632Y-99176525D01*
X172222240Y-99060000D01*
X172396632Y-98943475D01*
X172603475Y-98736632D01*
X172765990Y-98493411D01*
X172877932Y-98223158D01*
X172935000Y-97936260D01*
X172935000Y-97643740D01*
X172877932Y-97356842D01*
X172765990Y-97086589D01*
X172603475Y-96843368D01*
X172396632Y-96636525D01*
X172222240Y-96520000D01*
X172396632Y-96403475D01*
X172603475Y-96196632D01*
X172765990Y-95953411D01*
X172877932Y-95683158D01*
X172935000Y-95396260D01*
X172935000Y-95103740D01*
X172877932Y-94816842D01*
X172765990Y-94546589D01*
X172603475Y-94303368D01*
X172396632Y-94096525D01*
X172222240Y-93980000D01*
X172396632Y-93863475D01*
X172603475Y-93656632D01*
X172765990Y-93413411D01*
X172877932Y-93143158D01*
X172935000Y-92856260D01*
X172935000Y-92563740D01*
X172877932Y-92276842D01*
X172765990Y-92006589D01*
X172603475Y-91763368D01*
X172396632Y-91556525D01*
X172222240Y-91440000D01*
X172396632Y-91323475D01*
X172603475Y-91116632D01*
X172765990Y-90873411D01*
X172877932Y-90603158D01*
X172935000Y-90316260D01*
X172935000Y-90023740D01*
X172877932Y-89736842D01*
X172765990Y-89466589D01*
X172603475Y-89223368D01*
X172396632Y-89016525D01*
X172222240Y-88900000D01*
X172396632Y-88783475D01*
X172603475Y-88576632D01*
X172765990Y-88333411D01*
X172877932Y-88063158D01*
X172935000Y-87776260D01*
X172935000Y-87483740D01*
X172877932Y-87196842D01*
X172765990Y-86926589D01*
X172603475Y-86683368D01*
X172396632Y-86476525D01*
X172153411Y-86314010D01*
X171883158Y-86202068D01*
X171596260Y-86145000D01*
X171303740Y-86145000D01*
X171016842Y-86202068D01*
X170746589Y-86314010D01*
X170503368Y-86476525D01*
X170296525Y-86683368D01*
X170134010Y-86926589D01*
X170022068Y-87196842D01*
X169965000Y-87483740D01*
X169965000Y-87776260D01*
X170022068Y-88063158D01*
X170134010Y-88333411D01*
X170296525Y-88576632D01*
X170503368Y-88783475D01*
X170677760Y-88900000D01*
X170503368Y-89016525D01*
X170296525Y-89223368D01*
X170134010Y-89466589D01*
X170022068Y-89736842D01*
X169974287Y-89977051D01*
X167445469Y-87448234D01*
X167417629Y-87414311D01*
X167282261Y-87303217D01*
X167127821Y-87220667D01*
X166960244Y-87169834D01*
X166829637Y-87156970D01*
X166829630Y-87156970D01*
X166785970Y-87152670D01*
X166742310Y-87156970D01*
X147952934Y-87156970D01*
X147909274Y-87152670D01*
X147865614Y-87156970D01*
X147865608Y-87156970D01*
X147768199Y-87166564D01*
X147734999Y-87169834D01*
X147645966Y-87196842D01*
X147567424Y-87220667D01*
X147412984Y-87303217D01*
X147277616Y-87414311D01*
X147249781Y-87448229D01*
X146157899Y-88540111D01*
X145779948Y-88162160D01*
X145815000Y-87985939D01*
X145815000Y-87782061D01*
X145775226Y-87582102D01*
X145697205Y-87393744D01*
X145583937Y-87224226D01*
X145439774Y-87080063D01*
X145270256Y-86966795D01*
X145081898Y-86888774D01*
X144881939Y-86849000D01*
X144678061Y-86849000D01*
X144501840Y-86884052D01*
X143942041Y-86324254D01*
X143914201Y-86290331D01*
X143778833Y-86179237D01*
X143624393Y-86096687D01*
X143456816Y-86045854D01*
X143326209Y-86032990D01*
X143326202Y-86032990D01*
X143282542Y-86028690D01*
X143238882Y-86032990D01*
X140122226Y-86032990D01*
X139319000Y-85229765D01*
X139319000Y-78661983D01*
X139376632Y-78623475D01*
X139583475Y-78416632D01*
X139700000Y-78242240D01*
X139816525Y-78416632D01*
X140023368Y-78623475D01*
X140266589Y-78785990D01*
X140536842Y-78897932D01*
X140823740Y-78955000D01*
X141116260Y-78955000D01*
X141403158Y-78897932D01*
X141673411Y-78785990D01*
X141916632Y-78623475D01*
X142048487Y-78491620D01*
X142070498Y-78564180D01*
X142129463Y-78674494D01*
X142208815Y-78771185D01*
X142305506Y-78850537D01*
X142415820Y-78909502D01*
X142535518Y-78945812D01*
X142660000Y-78958072D01*
X144360000Y-78958072D01*
X144484482Y-78945812D01*
X144604180Y-78909502D01*
X144714494Y-78850537D01*
X144811185Y-78771185D01*
X144890537Y-78674494D01*
X144949502Y-78564180D01*
X144985812Y-78444482D01*
X144998072Y-78320000D01*
X144998072Y-76620000D01*
X144985812Y-76495518D01*
X144949502Y-76375820D01*
X144890537Y-76265506D01*
X144811185Y-76168815D01*
X144714494Y-76089463D01*
X144604180Y-76030498D01*
X144531620Y-76008487D01*
X144663475Y-75876632D01*
X144701983Y-75819000D01*
X145681765Y-75819000D01*
X147701000Y-77838236D01*
X147701001Y-81065769D01*
X147615518Y-81074188D01*
X147495820Y-81110498D01*
X147385506Y-81169463D01*
X147288815Y-81248815D01*
X147209463Y-81345506D01*
X147150498Y-81455820D01*
X147114188Y-81575518D01*
X147101928Y-81700000D01*
X147101928Y-83400000D01*
X147114188Y-83524482D01*
X147150498Y-83644180D01*
X147209463Y-83754494D01*
X147288815Y-83851185D01*
X147385506Y-83930537D01*
X147495820Y-83989502D01*
X147615518Y-84025812D01*
X147740000Y-84038072D01*
X149440000Y-84038072D01*
X149564482Y-84025812D01*
X149684180Y-83989502D01*
X149794494Y-83930537D01*
X149891185Y-83851185D01*
X149970537Y-83754494D01*
X150029502Y-83644180D01*
X150051513Y-83571620D01*
X150183368Y-83703475D01*
X150426589Y-83865990D01*
X150696842Y-83977932D01*
X150983740Y-84035000D01*
X151276260Y-84035000D01*
X151563158Y-83977932D01*
X151833411Y-83865990D01*
X152076632Y-83703475D01*
X152283475Y-83496632D01*
X152445990Y-83253411D01*
X152557932Y-82983158D01*
X152615000Y-82696260D01*
X152615000Y-82403740D01*
X152557932Y-82116842D01*
X152445990Y-81846589D01*
X152283475Y-81603368D01*
X152076632Y-81396525D01*
X151833411Y-81234010D01*
X151563158Y-81122068D01*
X151276260Y-81065000D01*
X150983740Y-81065000D01*
X150696842Y-81122068D01*
X150426589Y-81234010D01*
X150183368Y-81396525D01*
X150051513Y-81528380D01*
X150029502Y-81455820D01*
X149970537Y-81345506D01*
X149891185Y-81248815D01*
X149794494Y-81169463D01*
X149684180Y-81110498D01*
X149564482Y-81074188D01*
X149479000Y-81065769D01*
X149479000Y-80952818D01*
X165606787Y-80952818D01*
X166098946Y-81555149D01*
X166949933Y-82025063D01*
X167876243Y-82319929D01*
X168842281Y-82428414D01*
X169810921Y-82346351D01*
X170744938Y-82076893D01*
X171608440Y-81630394D01*
X171721054Y-81555149D01*
X172213213Y-80952818D01*
X168910000Y-77649605D01*
X165606787Y-80952818D01*
X149479000Y-80952818D01*
X149479000Y-77513659D01*
X149483300Y-77469999D01*
X149479000Y-77426334D01*
X149479000Y-77426333D01*
X149468896Y-77323740D01*
X149645000Y-77323740D01*
X149645000Y-77616260D01*
X149702068Y-77903158D01*
X149814010Y-78173411D01*
X149976525Y-78416632D01*
X150183368Y-78623475D01*
X150426589Y-78785990D01*
X150696842Y-78897932D01*
X150983740Y-78955000D01*
X151276260Y-78955000D01*
X151563158Y-78897932D01*
X151833411Y-78785990D01*
X152076632Y-78623475D01*
X152283475Y-78416632D01*
X152400000Y-78242240D01*
X152516525Y-78416632D01*
X152723368Y-78623475D01*
X152966589Y-78785990D01*
X153236842Y-78897932D01*
X153523740Y-78955000D01*
X153816260Y-78955000D01*
X154103158Y-78897932D01*
X154373411Y-78785990D01*
X154616632Y-78623475D01*
X154823475Y-78416632D01*
X154940000Y-78242240D01*
X155056525Y-78416632D01*
X155263368Y-78623475D01*
X155506589Y-78785990D01*
X155776842Y-78897932D01*
X156063740Y-78955000D01*
X156356260Y-78955000D01*
X156643158Y-78897932D01*
X156913411Y-78785990D01*
X157156632Y-78623475D01*
X157363475Y-78416632D01*
X157480000Y-78242240D01*
X157596525Y-78416632D01*
X157803368Y-78623475D01*
X158046589Y-78785990D01*
X158316842Y-78897932D01*
X158603740Y-78955000D01*
X158896260Y-78955000D01*
X159183158Y-78897932D01*
X159453411Y-78785990D01*
X159696632Y-78623475D01*
X159903475Y-78416632D01*
X160065990Y-78173411D01*
X160177932Y-77903158D01*
X160235000Y-77616260D01*
X160235000Y-77402281D01*
X163951586Y-77402281D01*
X164033649Y-78370921D01*
X164303107Y-79304938D01*
X164749606Y-80168440D01*
X164824851Y-80281054D01*
X165427182Y-80773213D01*
X168730395Y-77470000D01*
X169089605Y-77470000D01*
X172392818Y-80773213D01*
X172995149Y-80281054D01*
X173465063Y-79430067D01*
X173759929Y-78503757D01*
X173868414Y-77537719D01*
X173786351Y-76569079D01*
X173516893Y-75635062D01*
X173070394Y-74771560D01*
X172995149Y-74658946D01*
X172392818Y-74166787D01*
X169089605Y-77470000D01*
X168730395Y-77470000D01*
X165427182Y-74166787D01*
X164824851Y-74658946D01*
X164354937Y-75509933D01*
X164060071Y-76436243D01*
X163951586Y-77402281D01*
X160235000Y-77402281D01*
X160235000Y-77323740D01*
X160177932Y-77036842D01*
X160065990Y-76766589D01*
X159903475Y-76523368D01*
X159771620Y-76391513D01*
X159844180Y-76369502D01*
X159954494Y-76310537D01*
X160051185Y-76231185D01*
X160130537Y-76134494D01*
X160189502Y-76024180D01*
X160225812Y-75904482D01*
X160238072Y-75780000D01*
X160235000Y-75215750D01*
X160076250Y-75057000D01*
X158877000Y-75057000D01*
X158877000Y-75077000D01*
X158623000Y-75077000D01*
X158623000Y-75057000D01*
X156337000Y-75057000D01*
X156337000Y-75077000D01*
X156083000Y-75077000D01*
X156083000Y-75057000D01*
X153797000Y-75057000D01*
X153797000Y-75077000D01*
X153543000Y-75077000D01*
X153543000Y-75057000D01*
X151257000Y-75057000D01*
X151257000Y-75077000D01*
X151003000Y-75077000D01*
X151003000Y-75057000D01*
X149809186Y-75057000D01*
X149688519Y-75286891D01*
X149785843Y-75561252D01*
X149934822Y-75811355D01*
X150129731Y-76027588D01*
X150359406Y-76198900D01*
X150183368Y-76316525D01*
X149976525Y-76523368D01*
X149814010Y-76766589D01*
X149702068Y-77036842D01*
X149645000Y-77323740D01*
X149468896Y-77323740D01*
X149466136Y-77295726D01*
X149466136Y-77295724D01*
X149415302Y-77128147D01*
X149411589Y-77121200D01*
X149332753Y-76973709D01*
X149221659Y-76838341D01*
X149187743Y-76810507D01*
X146950345Y-74573109D01*
X149688519Y-74573109D01*
X149809186Y-74803000D01*
X151003000Y-74803000D01*
X151003000Y-73609845D01*
X151257000Y-73609845D01*
X151257000Y-74803000D01*
X153543000Y-74803000D01*
X153543000Y-73609845D01*
X153797000Y-73609845D01*
X153797000Y-74803000D01*
X156083000Y-74803000D01*
X156083000Y-73609845D01*
X156337000Y-73609845D01*
X156337000Y-74803000D01*
X158623000Y-74803000D01*
X158623000Y-73603750D01*
X158877000Y-73603750D01*
X158877000Y-74803000D01*
X160076250Y-74803000D01*
X160235000Y-74644250D01*
X160238072Y-74080000D01*
X160228931Y-73987182D01*
X165606787Y-73987182D01*
X168910000Y-77290395D01*
X172213213Y-73987182D01*
X171721054Y-73384851D01*
X170870067Y-72914937D01*
X169943757Y-72620071D01*
X168977719Y-72511586D01*
X168009079Y-72593649D01*
X167075062Y-72863107D01*
X166211560Y-73309606D01*
X166098946Y-73384851D01*
X165606787Y-73987182D01*
X160228931Y-73987182D01*
X160225812Y-73955518D01*
X160189502Y-73835820D01*
X160130537Y-73725506D01*
X160051185Y-73628815D01*
X159954494Y-73549463D01*
X159844180Y-73490498D01*
X159724482Y-73454188D01*
X159600000Y-73441928D01*
X159035750Y-73445000D01*
X158877000Y-73603750D01*
X158623000Y-73603750D01*
X158464250Y-73445000D01*
X157900000Y-73441928D01*
X157775518Y-73454188D01*
X157655820Y-73490498D01*
X157545506Y-73549463D01*
X157448815Y-73628815D01*
X157369463Y-73725506D01*
X157310498Y-73835820D01*
X157286034Y-73916466D01*
X157210269Y-73832412D01*
X156976920Y-73658359D01*
X156714099Y-73533175D01*
X156566890Y-73488524D01*
X156337000Y-73609845D01*
X156083000Y-73609845D01*
X155853110Y-73488524D01*
X155705901Y-73533175D01*
X155443080Y-73658359D01*
X155209731Y-73832412D01*
X155014822Y-74048645D01*
X154940000Y-74174255D01*
X154865178Y-74048645D01*
X154670269Y-73832412D01*
X154436920Y-73658359D01*
X154174099Y-73533175D01*
X154026890Y-73488524D01*
X153797000Y-73609845D01*
X153543000Y-73609845D01*
X153313110Y-73488524D01*
X153165901Y-73533175D01*
X152903080Y-73658359D01*
X152669731Y-73832412D01*
X152474822Y-74048645D01*
X152400000Y-74174255D01*
X152325178Y-74048645D01*
X152130269Y-73832412D01*
X151896920Y-73658359D01*
X151634099Y-73533175D01*
X151486890Y-73488524D01*
X151257000Y-73609845D01*
X151003000Y-73609845D01*
X150773110Y-73488524D01*
X150625901Y-73533175D01*
X150363080Y-73658359D01*
X150129731Y-73832412D01*
X149934822Y-74048645D01*
X149785843Y-74298748D01*
X149688519Y-74573109D01*
X146950345Y-74573109D01*
X146709499Y-74332264D01*
X146681659Y-74298341D01*
X146546291Y-74187247D01*
X146391851Y-74104697D01*
X146224274Y-74053864D01*
X146093667Y-74041000D01*
X146093660Y-74041000D01*
X146050000Y-74036700D01*
X146006340Y-74041000D01*
X144701983Y-74041000D01*
X144663475Y-73983368D01*
X144456632Y-73776525D01*
X144213411Y-73614010D01*
X143943158Y-73502068D01*
X143656260Y-73445000D01*
X143363740Y-73445000D01*
X143076842Y-73502068D01*
X142806589Y-73614010D01*
X142563368Y-73776525D01*
X142356525Y-73983368D01*
X142234805Y-74165534D01*
X142165178Y-74048645D01*
X141970269Y-73832412D01*
X141736920Y-73658359D01*
X141474099Y-73533175D01*
X141326890Y-73488524D01*
X141097000Y-73609845D01*
X141097000Y-74803000D01*
X141117000Y-74803000D01*
X141117000Y-75057000D01*
X141097000Y-75057000D01*
X141097000Y-75077000D01*
X140843000Y-75077000D01*
X140843000Y-75057000D01*
X138557000Y-75057000D01*
X138557000Y-75077000D01*
X138303000Y-75077000D01*
X138303000Y-75057000D01*
X136017000Y-75057000D01*
X136017000Y-75077000D01*
X135763000Y-75077000D01*
X135763000Y-75057000D01*
X133477000Y-75057000D01*
X133477000Y-75077000D01*
X133223000Y-75077000D01*
X133223000Y-75057000D01*
X132029186Y-75057000D01*
X131908519Y-75286891D01*
X132005843Y-75561252D01*
X132154822Y-75811355D01*
X132349731Y-76027588D01*
X132579406Y-76198900D01*
X132403368Y-76316525D01*
X132196525Y-76523368D01*
X132034010Y-76766589D01*
X131922068Y-77036842D01*
X131865000Y-77323740D01*
X131865000Y-77616260D01*
X131922068Y-77903158D01*
X132034010Y-78173411D01*
X132196525Y-78416632D01*
X132403368Y-78623475D01*
X132646589Y-78785990D01*
X132916842Y-78897932D01*
X133203740Y-78955000D01*
X133496260Y-78955000D01*
X133783158Y-78897932D01*
X134053411Y-78785990D01*
X134296632Y-78623475D01*
X134503475Y-78416632D01*
X134620000Y-78242240D01*
X134736525Y-78416632D01*
X134943368Y-78623475D01*
X135186589Y-78785990D01*
X135456842Y-78897932D01*
X135743740Y-78955000D01*
X136036260Y-78955000D01*
X136323158Y-78897932D01*
X136593411Y-78785990D01*
X136836632Y-78623475D01*
X137043475Y-78416632D01*
X137160000Y-78242240D01*
X137276525Y-78416632D01*
X137483368Y-78623475D01*
X137541000Y-78661984D01*
X137541001Y-84538333D01*
X137541000Y-85554339D01*
X137536700Y-85598000D01*
X137541000Y-85641660D01*
X137541000Y-85641666D01*
X137553864Y-85772273D01*
X137604697Y-85939850D01*
X137687247Y-86094290D01*
X137798341Y-86229659D01*
X137832264Y-86257499D01*
X138315765Y-86741000D01*
X122134231Y-86741000D01*
X122125812Y-86655518D01*
X122089502Y-86535820D01*
X122030537Y-86425506D01*
X121951185Y-86328815D01*
X121854494Y-86249463D01*
X121744180Y-86190498D01*
X121624482Y-86154188D01*
X121500000Y-86141928D01*
X119800000Y-86141928D01*
X119675518Y-86154188D01*
X119555820Y-86190498D01*
X119445506Y-86249463D01*
X119348815Y-86328815D01*
X119269463Y-86425506D01*
X119210498Y-86535820D01*
X119174188Y-86655518D01*
X119161928Y-86780000D01*
X119161928Y-87860837D01*
X118748258Y-88274507D01*
X118714341Y-88302342D01*
X118686506Y-88336259D01*
X118686504Y-88336261D01*
X118603247Y-88437710D01*
X118520697Y-88592149D01*
X118469863Y-88759727D01*
X118452699Y-88934001D01*
X117500000Y-88934001D01*
X117500000Y-80952818D01*
X119886787Y-80952818D01*
X120378946Y-81555149D01*
X121229933Y-82025063D01*
X122156243Y-82319929D01*
X123122281Y-82428414D01*
X124090921Y-82346351D01*
X125024938Y-82076893D01*
X125888440Y-81630394D01*
X126001054Y-81555149D01*
X126493213Y-80952818D01*
X123190000Y-77649605D01*
X119886787Y-80952818D01*
X117500000Y-80952818D01*
X117500000Y-77402281D01*
X118231586Y-77402281D01*
X118313649Y-78370921D01*
X118583107Y-79304938D01*
X119029606Y-80168440D01*
X119104851Y-80281054D01*
X119707182Y-80773213D01*
X123010395Y-77470000D01*
X123369605Y-77470000D01*
X126672818Y-80773213D01*
X127275149Y-80281054D01*
X127745063Y-79430067D01*
X128039929Y-78503757D01*
X128148414Y-77537719D01*
X128066351Y-76569079D01*
X127796893Y-75635062D01*
X127350394Y-74771560D01*
X127275149Y-74658946D01*
X127170098Y-74573109D01*
X131908519Y-74573109D01*
X132029186Y-74803000D01*
X133223000Y-74803000D01*
X133223000Y-73609845D01*
X133477000Y-73609845D01*
X133477000Y-74803000D01*
X135763000Y-74803000D01*
X135763000Y-73609845D01*
X136017000Y-73609845D01*
X136017000Y-74803000D01*
X138303000Y-74803000D01*
X138303000Y-73609845D01*
X138557000Y-73609845D01*
X138557000Y-74803000D01*
X140843000Y-74803000D01*
X140843000Y-73609845D01*
X140613110Y-73488524D01*
X140465901Y-73533175D01*
X140203080Y-73658359D01*
X139969731Y-73832412D01*
X139774822Y-74048645D01*
X139700000Y-74174255D01*
X139625178Y-74048645D01*
X139430269Y-73832412D01*
X139196920Y-73658359D01*
X138934099Y-73533175D01*
X138786890Y-73488524D01*
X138557000Y-73609845D01*
X138303000Y-73609845D01*
X138073110Y-73488524D01*
X137925901Y-73533175D01*
X137663080Y-73658359D01*
X137429731Y-73832412D01*
X137234822Y-74048645D01*
X137160000Y-74174255D01*
X137085178Y-74048645D01*
X136890269Y-73832412D01*
X136656920Y-73658359D01*
X136394099Y-73533175D01*
X136246890Y-73488524D01*
X136017000Y-73609845D01*
X135763000Y-73609845D01*
X135533110Y-73488524D01*
X135385901Y-73533175D01*
X135123080Y-73658359D01*
X134889731Y-73832412D01*
X134694822Y-74048645D01*
X134620000Y-74174255D01*
X134545178Y-74048645D01*
X134350269Y-73832412D01*
X134116920Y-73658359D01*
X133854099Y-73533175D01*
X133706890Y-73488524D01*
X133477000Y-73609845D01*
X133223000Y-73609845D01*
X132993110Y-73488524D01*
X132845901Y-73533175D01*
X132583080Y-73658359D01*
X132349731Y-73832412D01*
X132154822Y-74048645D01*
X132005843Y-74298748D01*
X131908519Y-74573109D01*
X127170098Y-74573109D01*
X126672818Y-74166787D01*
X123369605Y-77470000D01*
X123010395Y-77470000D01*
X119707182Y-74166787D01*
X119104851Y-74658946D01*
X118634937Y-75509933D01*
X118340071Y-76436243D01*
X118231586Y-77402281D01*
X117500000Y-77402281D01*
X117500000Y-74962279D01*
X117563096Y-74318778D01*
X117663210Y-73987182D01*
X119886787Y-73987182D01*
X123190000Y-77290395D01*
X126493213Y-73987182D01*
X126001054Y-73384851D01*
X125150067Y-72914937D01*
X124223757Y-72620071D01*
X123257719Y-72511586D01*
X122289079Y-72593649D01*
X121355062Y-72863107D01*
X120491560Y-73309606D01*
X120378946Y-73384851D01*
X119886787Y-73987182D01*
X117663210Y-73987182D01*
X117740606Y-73730836D01*
X118028937Y-73188564D01*
X118417094Y-72712636D01*
X118890314Y-72321155D01*
X119430552Y-72029049D01*
X120017244Y-71847437D01*
X120658879Y-71780000D01*
X171417721Y-71780000D01*
X172061222Y-71843096D01*
G37*
X172061222Y-71843096D02*
X172649164Y-72020606D01*
X173191436Y-72308937D01*
X173667364Y-72697094D01*
X174058845Y-73170314D01*
X174350951Y-73710552D01*
X174532563Y-74297244D01*
X174600001Y-74938888D01*
X174600000Y-137127721D01*
X174536904Y-137771221D01*
X174359394Y-138359164D01*
X174071063Y-138901436D01*
X173682906Y-139377364D01*
X173209686Y-139768845D01*
X172669449Y-140060950D01*
X172082756Y-140242563D01*
X171441130Y-140310000D01*
X120682279Y-140310000D01*
X120038779Y-140246904D01*
X119450836Y-140069394D01*
X118908564Y-139781063D01*
X118432636Y-139392906D01*
X118041155Y-138919686D01*
X117749050Y-138379449D01*
X117663418Y-138102818D01*
X119886787Y-138102818D01*
X120378946Y-138705149D01*
X121229933Y-139175063D01*
X122156243Y-139469929D01*
X123122281Y-139578414D01*
X124090921Y-139496351D01*
X125024938Y-139226893D01*
X125888440Y-138780394D01*
X126001054Y-138705149D01*
X126493213Y-138102818D01*
X165606787Y-138102818D01*
X166098946Y-138705149D01*
X166949933Y-139175063D01*
X167876243Y-139469929D01*
X168842281Y-139578414D01*
X169810921Y-139496351D01*
X170744938Y-139226893D01*
X171608440Y-138780394D01*
X171721054Y-138705149D01*
X172213213Y-138102818D01*
X168910000Y-134799605D01*
X165606787Y-138102818D01*
X126493213Y-138102818D01*
X123190000Y-134799605D01*
X119886787Y-138102818D01*
X117663418Y-138102818D01*
X117567437Y-137792756D01*
X117500000Y-137151130D01*
X117500000Y-134552281D01*
X118231586Y-134552281D01*
X118313649Y-135520921D01*
X118583107Y-136454938D01*
X119029606Y-137318440D01*
X119104851Y-137431054D01*
X119707182Y-137923213D01*
X123010395Y-134620000D01*
X123369605Y-134620000D01*
X126672818Y-137923213D01*
X127275149Y-137431054D01*
X127745063Y-136580067D01*
X127955177Y-135920000D01*
X141571928Y-135920000D01*
X141584188Y-136044482D01*
X141620498Y-136164180D01*
X141679463Y-136274494D01*
X141758815Y-136371185D01*
X141855506Y-136450537D01*
X141965820Y-136509502D01*
X142085518Y-136545812D01*
X142210000Y-136558072D01*
X143224250Y-136555000D01*
X143383000Y-136396250D01*
X143383000Y-134747000D01*
X143637000Y-134747000D01*
X143637000Y-136396250D01*
X143795750Y-136555000D01*
X144810000Y-136558072D01*
X144934482Y-136545812D01*
X145054180Y-136509502D01*
X145164494Y-136450537D01*
X145261185Y-136371185D01*
X145340537Y-136274494D01*
X145399502Y-136164180D01*
X145435812Y-136044482D01*
X145448072Y-135920000D01*
X145445000Y-134905750D01*
X145286250Y-134747000D01*
X143637000Y-134747000D01*
X143383000Y-134747000D01*
X141733750Y-134747000D01*
X141575000Y-134905750D01*
X141571928Y-135920000D01*
X127955177Y-135920000D01*
X128039929Y-135653757D01*
X128148414Y-134687719D01*
X128066351Y-133719079D01*
X127951220Y-133320000D01*
X141571928Y-133320000D01*
X141575000Y-134334250D01*
X141733750Y-134493000D01*
X143383000Y-134493000D01*
X143383000Y-132843750D01*
X143637000Y-132843750D01*
X143637000Y-134493000D01*
X145286250Y-134493000D01*
X145349831Y-134429419D01*
X146655000Y-134429419D01*
X146655000Y-134810581D01*
X146729361Y-135184419D01*
X146875225Y-135536566D01*
X147086987Y-135853491D01*
X147356509Y-136123013D01*
X147673434Y-136334775D01*
X148025581Y-136480639D01*
X148399419Y-136555000D01*
X148780581Y-136555000D01*
X149154419Y-136480639D01*
X149506566Y-136334775D01*
X149823491Y-136123013D01*
X150093013Y-135853491D01*
X150304775Y-135536566D01*
X150450639Y-135184419D01*
X150525000Y-134810581D01*
X150525000Y-134429419D01*
X150473399Y-134169999D01*
X152456928Y-134169999D01*
X152456928Y-135070001D01*
X152473992Y-135243255D01*
X152524528Y-135409851D01*
X152606595Y-135563387D01*
X152717038Y-135697962D01*
X152851613Y-135808405D01*
X153005149Y-135890472D01*
X153171745Y-135941008D01*
X153344999Y-135958072D01*
X153995001Y-135958072D01*
X154168255Y-135941008D01*
X154334851Y-135890472D01*
X154488387Y-135808405D01*
X154622962Y-135697962D01*
X154628342Y-135691406D01*
X154693815Y-135771185D01*
X154790506Y-135850537D01*
X154900820Y-135909502D01*
X155020518Y-135945812D01*
X155145000Y-135958072D01*
X155434250Y-135955000D01*
X155593000Y-135796250D01*
X155593000Y-134747000D01*
X155847000Y-134747000D01*
X155847000Y-135796250D01*
X156005750Y-135955000D01*
X156295000Y-135958072D01*
X156419482Y-135945812D01*
X156539180Y-135909502D01*
X156649494Y-135850537D01*
X156746185Y-135771185D01*
X156825537Y-135674494D01*
X156884502Y-135564180D01*
X156920812Y-135444482D01*
X156933072Y-135320000D01*
X156930000Y-134905750D01*
X156771250Y-134747000D01*
X155847000Y-134747000D01*
X155593000Y-134747000D01*
X155573000Y-134747000D01*
X155573000Y-134552281D01*
X163951586Y-134552281D01*
X164033649Y-135520921D01*
X164303107Y-136454938D01*
X164749606Y-137318440D01*
X164824851Y-137431054D01*
X165427182Y-137923213D01*
X168730395Y-134620000D01*
X169089605Y-134620000D01*
X172392818Y-137923213D01*
X172995149Y-137431054D01*
X173465063Y-136580067D01*
X173759929Y-135653757D01*
X173868414Y-134687719D01*
X173786351Y-133719079D01*
X173516893Y-132785062D01*
X173070394Y-131921560D01*
X172995149Y-131808946D01*
X172392818Y-131316787D01*
X169089605Y-134620000D01*
X168730395Y-134620000D01*
X165427182Y-131316787D01*
X164824851Y-131808946D01*
X164354937Y-132659933D01*
X164060071Y-133586243D01*
X163951586Y-134552281D01*
X155573000Y-134552281D01*
X155573000Y-134493000D01*
X155593000Y-134493000D01*
X155593000Y-133443750D01*
X155847000Y-133443750D01*
X155847000Y-134493000D01*
X156771250Y-134493000D01*
X156930000Y-134334250D01*
X156933072Y-133920000D01*
X156920812Y-133795518D01*
X156884502Y-133675820D01*
X156825537Y-133565506D01*
X156746185Y-133468815D01*
X156649494Y-133389463D01*
X156539180Y-133330498D01*
X156419482Y-133294188D01*
X156295000Y-133281928D01*
X156005750Y-133285000D01*
X155847000Y-133443750D01*
X155593000Y-133443750D01*
X155434250Y-133285000D01*
X155145000Y-133281928D01*
X155020518Y-133294188D01*
X154900820Y-133330498D01*
X154790506Y-133389463D01*
X154693815Y-133468815D01*
X154628342Y-133548594D01*
X154622962Y-133542038D01*
X154488387Y-133431595D01*
X154334851Y-133349528D01*
X154168255Y-133298992D01*
X153995001Y-133281928D01*
X153344999Y-133281928D01*
X153171745Y-133298992D01*
X153005149Y-133349528D01*
X152851613Y-133431595D01*
X152717038Y-133542038D01*
X152606595Y-133676613D01*
X152524528Y-133830149D01*
X152473992Y-133996745D01*
X152456928Y-134169999D01*
X150473399Y-134169999D01*
X150450639Y-134055581D01*
X150304775Y-133703434D01*
X150093013Y-133386509D01*
X149823491Y-133116987D01*
X149506566Y-132905225D01*
X149154419Y-132759361D01*
X148780581Y-132685000D01*
X148399419Y-132685000D01*
X148025581Y-132759361D01*
X147673434Y-132905225D01*
X147356509Y-133116987D01*
X147086987Y-133386509D01*
X146875225Y-133703434D01*
X146729361Y-134055581D01*
X146655000Y-134429419D01*
X145349831Y-134429419D01*
X145445000Y-134334250D01*
X145448072Y-133320000D01*
X145435812Y-133195518D01*
X145399502Y-133075820D01*
X145340537Y-132965506D01*
X145261185Y-132868815D01*
X145164494Y-132789463D01*
X145054180Y-132730498D01*
X144934482Y-132694188D01*
X144810000Y-132681928D01*
X143795750Y-132685000D01*
X143637000Y-132843750D01*
X143383000Y-132843750D01*
X143224250Y-132685000D01*
X142210000Y-132681928D01*
X142085518Y-132694188D01*
X141965820Y-132730498D01*
X141855506Y-132789463D01*
X141758815Y-132868815D01*
X141679463Y-132965506D01*
X141620498Y-133075820D01*
X141584188Y-133195518D01*
X141571928Y-133320000D01*
X127951220Y-133320000D01*
X127796893Y-132785062D01*
X127350394Y-131921560D01*
X127275149Y-131808946D01*
X126672818Y-131316787D01*
X123369605Y-134620000D01*
X123010395Y-134620000D01*
X119707182Y-131316787D01*
X119104851Y-131808946D01*
X118634937Y-132659933D01*
X118340071Y-133586243D01*
X118231586Y-134552281D01*
X117500000Y-134552281D01*
X117500000Y-131137182D01*
X119886787Y-131137182D01*
X123190000Y-134440395D01*
X126493213Y-131137182D01*
X165606787Y-131137182D01*
X168910000Y-134440395D01*
X172213213Y-131137182D01*
X171721054Y-130534851D01*
X170870067Y-130064937D01*
X169943757Y-129770071D01*
X168977719Y-129661586D01*
X168009079Y-129743649D01*
X167075062Y-130013107D01*
X166211560Y-130459606D01*
X166098946Y-130534851D01*
X165606787Y-131137182D01*
X126493213Y-131137182D01*
X126001054Y-130534851D01*
X125150067Y-130064937D01*
X124223757Y-129770071D01*
X123257719Y-129661586D01*
X122289079Y-129743649D01*
X121355062Y-130013107D01*
X120491560Y-130459606D01*
X120378946Y-130534851D01*
X119886787Y-131137182D01*
X117500000Y-131137182D01*
X117500000Y-127700000D01*
X141026928Y-127700000D01*
X141039188Y-127824482D01*
X141075498Y-127944180D01*
X141134463Y-128054494D01*
X141213815Y-128151185D01*
X141310506Y-128230537D01*
X141420820Y-128289502D01*
X141540518Y-128325812D01*
X141665000Y-128338072D01*
X141954250Y-128335000D01*
X142113000Y-128176250D01*
X142113000Y-127127000D01*
X141188750Y-127127000D01*
X141030000Y-127285750D01*
X141026928Y-127700000D01*
X117500000Y-127700000D01*
X117500000Y-126300000D01*
X141026928Y-126300000D01*
X141030000Y-126714250D01*
X141188750Y-126873000D01*
X142113000Y-126873000D01*
X142113000Y-125823750D01*
X142367000Y-125823750D01*
X142367000Y-126873000D01*
X142387000Y-126873000D01*
X142387000Y-127127000D01*
X142367000Y-127127000D01*
X142367000Y-128176250D01*
X142525750Y-128335000D01*
X142815000Y-128338072D01*
X142939482Y-128325812D01*
X143059180Y-128289502D01*
X143169494Y-128230537D01*
X143266185Y-128151185D01*
X143331658Y-128071406D01*
X143337038Y-128077962D01*
X143471613Y-128188405D01*
X143625149Y-128270472D01*
X143791745Y-128321008D01*
X143964999Y-128338072D01*
X144615001Y-128338072D01*
X144788255Y-128321008D01*
X144954851Y-128270472D01*
X145108387Y-128188405D01*
X145242962Y-128077962D01*
X145353405Y-127943387D01*
X145382476Y-127889000D01*
X146781751Y-127889000D01*
X146784095Y-127893386D01*
X146894538Y-128027962D01*
X147029114Y-128138405D01*
X147182650Y-128220472D01*
X147349246Y-128271008D01*
X147522500Y-128288072D01*
X148347500Y-128288072D01*
X148520754Y-128271008D01*
X148687350Y-128220472D01*
X148840886Y-128138405D01*
X148897500Y-128091943D01*
X148954114Y-128138405D01*
X149107650Y-128220472D01*
X149274246Y-128271008D01*
X149447500Y-128288072D01*
X150272500Y-128288072D01*
X150445754Y-128271008D01*
X150612350Y-128220472D01*
X150765886Y-128138405D01*
X150900462Y-128027962D01*
X151010905Y-127893386D01*
X151092972Y-127739850D01*
X151143508Y-127573254D01*
X151160572Y-127400000D01*
X151160572Y-126600000D01*
X151143508Y-126426746D01*
X151092972Y-126260150D01*
X151010905Y-126106614D01*
X150900462Y-125972038D01*
X150765886Y-125861595D01*
X150612350Y-125779528D01*
X150445754Y-125728992D01*
X150272500Y-125711928D01*
X149447500Y-125711928D01*
X149274246Y-125728992D01*
X149107650Y-125779528D01*
X148954114Y-125861595D01*
X148897500Y-125908057D01*
X148840886Y-125861595D01*
X148687350Y-125779528D01*
X148520754Y-125728992D01*
X148347500Y-125711928D01*
X147522500Y-125711928D01*
X147349246Y-125728992D01*
X147182650Y-125779528D01*
X147029114Y-125861595D01*
X146894538Y-125972038D01*
X146784095Y-126106614D01*
X146781751Y-126111000D01*
X145382476Y-126111000D01*
X145353405Y-126056613D01*
X145242962Y-125922038D01*
X145108387Y-125811595D01*
X144954851Y-125729528D01*
X144788255Y-125678992D01*
X144615001Y-125661928D01*
X143964999Y-125661928D01*
X143791745Y-125678992D01*
X143625149Y-125729528D01*
X143471613Y-125811595D01*
X143337038Y-125922038D01*
X143331658Y-125928594D01*
X143266185Y-125848815D01*
X143169494Y-125769463D01*
X143059180Y-125710498D01*
X142939482Y-125674188D01*
X142815000Y-125661928D01*
X142525750Y-125665000D01*
X142367000Y-125823750D01*
X142113000Y-125823750D01*
X141954250Y-125665000D01*
X141665000Y-125661928D01*
X141540518Y-125674188D01*
X141420820Y-125710498D01*
X141310506Y-125769463D01*
X141213815Y-125848815D01*
X141134463Y-125945506D01*
X141075498Y-126055820D01*
X141039188Y-126175518D01*
X141026928Y-126300000D01*
X117500000Y-126300000D01*
X117500000Y-124816890D01*
X119208524Y-124816890D01*
X119253175Y-124964099D01*
X119378359Y-125226920D01*
X119552412Y-125460269D01*
X119768645Y-125655178D01*
X120018748Y-125804157D01*
X120293109Y-125901481D01*
X120523000Y-125780814D01*
X120523000Y-124587000D01*
X120777000Y-124587000D01*
X120777000Y-125780814D01*
X121006891Y-125901481D01*
X121281252Y-125804157D01*
X121531355Y-125655178D01*
X121747588Y-125460269D01*
X121921641Y-125226920D01*
X122046825Y-124964099D01*
X122091476Y-124816890D01*
X121970155Y-124587000D01*
X120777000Y-124587000D01*
X120523000Y-124587000D01*
X119329845Y-124587000D01*
X119208524Y-124816890D01*
X117500000Y-124816890D01*
X117500000Y-88934001D01*
X118452699Y-88934001D01*
X118457000Y-88977671D01*
X118456999Y-112952339D01*
X118452699Y-112995999D01*
X118456999Y-113039659D01*
X118456999Y-113039665D01*
X118464662Y-113117464D01*
X118469863Y-113170273D01*
X118482146Y-113210765D01*
X118520696Y-113337849D01*
X118603246Y-113492289D01*
X118714340Y-113627658D01*
X118748263Y-113655498D01*
X119178523Y-114085758D01*
X119165000Y-114153740D01*
X119165000Y-114446260D01*
X119222068Y-114733158D01*
X119334010Y-115003411D01*
X119496525Y-115246632D01*
X119703368Y-115453475D01*
X119877760Y-115570000D01*
X119703368Y-115686525D01*
X119496525Y-115893368D01*
X119334010Y-116136589D01*
X119222068Y-116406842D01*
X119165000Y-116693740D01*
X119165000Y-116986260D01*
X119222068Y-117273158D01*
X119334010Y-117543411D01*
X119496525Y-117786632D01*
X119703368Y-117993475D01*
X119877760Y-118110000D01*
X119703368Y-118226525D01*
X119496525Y-118433368D01*
X119334010Y-118676589D01*
X119222068Y-118946842D01*
X119165000Y-119233740D01*
X119165000Y-119526260D01*
X119222068Y-119813158D01*
X119334010Y-120083411D01*
X119496525Y-120326632D01*
X119703368Y-120533475D01*
X119877760Y-120650000D01*
X119703368Y-120766525D01*
X119496525Y-120973368D01*
X119334010Y-121216589D01*
X119222068Y-121486842D01*
X119165000Y-121773740D01*
X119165000Y-122066260D01*
X119222068Y-122353158D01*
X119334010Y-122623411D01*
X119496525Y-122866632D01*
X119703368Y-123073475D01*
X119885534Y-123195195D01*
X119768645Y-123264822D01*
X119552412Y-123459731D01*
X119378359Y-123693080D01*
X119253175Y-123955901D01*
X119208524Y-124103110D01*
X119329845Y-124333000D01*
X120523000Y-124333000D01*
X120523000Y-124313000D01*
X120777000Y-124313000D01*
X120777000Y-124333000D01*
X121970155Y-124333000D01*
X122091476Y-124103110D01*
X122046825Y-123955901D01*
X121921641Y-123693080D01*
X121747588Y-123459731D01*
X121531355Y-123264822D01*
X121414466Y-123195195D01*
X121596632Y-123073475D01*
X121803475Y-122866632D01*
X121965990Y-122623411D01*
X122077932Y-122353158D01*
X122135000Y-122066260D01*
X122135000Y-121773740D01*
X122077932Y-121486842D01*
X121965990Y-121216589D01*
X121803475Y-120973368D01*
X121596632Y-120766525D01*
X121422240Y-120650000D01*
X121596632Y-120533475D01*
X121803475Y-120326632D01*
X121965990Y-120083411D01*
X122077932Y-119813158D01*
X122135000Y-119526260D01*
X122135000Y-119233740D01*
X122077932Y-118946842D01*
X121965990Y-118676589D01*
X121868043Y-118530000D01*
X128051928Y-118530000D01*
X128051928Y-120230000D01*
X128064188Y-120354482D01*
X128100498Y-120474180D01*
X128159463Y-120584494D01*
X128238815Y-120681185D01*
X128335506Y-120760537D01*
X128445820Y-120819502D01*
X128565518Y-120855812D01*
X128690000Y-120868072D01*
X130390000Y-120868072D01*
X130514482Y-120855812D01*
X130634180Y-120819502D01*
X130744494Y-120760537D01*
X130841185Y-120681185D01*
X130920537Y-120584494D01*
X130979502Y-120474180D01*
X131001513Y-120401620D01*
X131133368Y-120533475D01*
X131376589Y-120695990D01*
X131646842Y-120807932D01*
X131933740Y-120865000D01*
X132226260Y-120865000D01*
X132513158Y-120807932D01*
X132783411Y-120695990D01*
X133026632Y-120533475D01*
X133233475Y-120326632D01*
X133395990Y-120083411D01*
X133507932Y-119813158D01*
X133565000Y-119526260D01*
X133565000Y-119233740D01*
X133507932Y-118946842D01*
X133395990Y-118676589D01*
X133233475Y-118433368D01*
X133026632Y-118226525D01*
X132783411Y-118064010D01*
X132513158Y-117952068D01*
X132226260Y-117895000D01*
X131933740Y-117895000D01*
X131646842Y-117952068D01*
X131376589Y-118064010D01*
X131133368Y-118226525D01*
X131001513Y-118358380D01*
X130979502Y-118285820D01*
X130920537Y-118175506D01*
X130841185Y-118078815D01*
X130744494Y-117999463D01*
X130634180Y-117940498D01*
X130514482Y-117904188D01*
X130390000Y-117891928D01*
X128690000Y-117891928D01*
X128565518Y-117904188D01*
X128445820Y-117940498D01*
X128335506Y-117999463D01*
X128238815Y-118078815D01*
X128159463Y-118175506D01*
X128100498Y-118285820D01*
X128064188Y-118405518D01*
X128051928Y-118530000D01*
X121868043Y-118530000D01*
X121803475Y-118433368D01*
X121596632Y-118226525D01*
X121422240Y-118110000D01*
X121596632Y-117993475D01*
X121803475Y-117786632D01*
X121965990Y-117543411D01*
X122077932Y-117273158D01*
X122135000Y-116986260D01*
X122135000Y-116693740D01*
X122077932Y-116406842D01*
X121965990Y-116136589D01*
X121803475Y-115893368D01*
X121801107Y-115891000D01*
X138107928Y-115891000D01*
X138120188Y-116015482D01*
X138156498Y-116135180D01*
X138215463Y-116245494D01*
X138294815Y-116342185D01*
X138391506Y-116421537D01*
X138501820Y-116480502D01*
X138621518Y-116516812D01*
X138746000Y-116529072D01*
X139160250Y-116526000D01*
X139319000Y-116367250D01*
X139319000Y-115443000D01*
X139573000Y-115443000D01*
X139573000Y-116367250D01*
X139731750Y-116526000D01*
X140146000Y-116529072D01*
X140270482Y-116516812D01*
X140390180Y-116480502D01*
X140500494Y-116421537D01*
X140597185Y-116342185D01*
X140676537Y-116245494D01*
X140712577Y-116178069D01*
X140769463Y-116284494D01*
X140848815Y-116381185D01*
X140945506Y-116460537D01*
X141055820Y-116519502D01*
X141175518Y-116555812D01*
X141300000Y-116568072D01*
X141789250Y-116565000D01*
X141948000Y-116406250D01*
X141948000Y-115407000D01*
X142202000Y-115407000D01*
X142202000Y-116406250D01*
X142360750Y-116565000D01*
X142850000Y-116568072D01*
X142974482Y-116555812D01*
X143094180Y-116519502D01*
X143204494Y-116460537D01*
X143301185Y-116381185D01*
X143380537Y-116284494D01*
X143439502Y-116174180D01*
X143475812Y-116054482D01*
X143488072Y-115930000D01*
X148611928Y-115930000D01*
X148624188Y-116054482D01*
X148660498Y-116174180D01*
X148719463Y-116284494D01*
X148798815Y-116381185D01*
X148895506Y-116460537D01*
X149005820Y-116519502D01*
X149125518Y-116555812D01*
X149250000Y-116568072D01*
X149739250Y-116565000D01*
X149898000Y-116406250D01*
X149898000Y-115407000D01*
X150152000Y-115407000D01*
X150152000Y-116406250D01*
X150310750Y-116565000D01*
X150800000Y-116568072D01*
X150924482Y-116555812D01*
X151044180Y-116519502D01*
X151154494Y-116460537D01*
X151251185Y-116381185D01*
X151330537Y-116284494D01*
X151389502Y-116174180D01*
X151425812Y-116054482D01*
X151438072Y-115930000D01*
X151435000Y-115565750D01*
X151276250Y-115407000D01*
X150152000Y-115407000D01*
X149898000Y-115407000D01*
X148773750Y-115407000D01*
X148615000Y-115565750D01*
X148611928Y-115930000D01*
X143488072Y-115930000D01*
X143485000Y-115565750D01*
X143326250Y-115407000D01*
X142202000Y-115407000D01*
X141948000Y-115407000D01*
X140823750Y-115407000D01*
X140705000Y-115525750D01*
X140622250Y-115443000D01*
X139573000Y-115443000D01*
X139319000Y-115443000D01*
X138269750Y-115443000D01*
X138111000Y-115601750D01*
X138107928Y-115891000D01*
X121801107Y-115891000D01*
X121596632Y-115686525D01*
X121422240Y-115570000D01*
X121596632Y-115453475D01*
X121803475Y-115246632D01*
X121965990Y-115003411D01*
X122077932Y-114733158D01*
X122135000Y-114446260D01*
X122135000Y-114153740D01*
X122077932Y-113866842D01*
X121965990Y-113596589D01*
X121803475Y-113353368D01*
X121671620Y-113221513D01*
X121744180Y-113199502D01*
X121854494Y-113140537D01*
X121951185Y-113061185D01*
X122030537Y-112964494D01*
X122089502Y-112854180D01*
X122125812Y-112734482D01*
X122138072Y-112610000D01*
X122138072Y-110910000D01*
X122125812Y-110785518D01*
X122089502Y-110665820D01*
X122030537Y-110555506D01*
X121951185Y-110458815D01*
X121854494Y-110379463D01*
X121744180Y-110320498D01*
X121624482Y-110284188D01*
X121500000Y-110271928D01*
X120234999Y-110271928D01*
X120234999Y-106841544D01*
X120503740Y-106895000D01*
X120796260Y-106895000D01*
X121083158Y-106837932D01*
X121353411Y-106725990D01*
X121596632Y-106563475D01*
X121803475Y-106356632D01*
X121841983Y-106299000D01*
X123837765Y-106299000D01*
X128118501Y-110579736D01*
X128146341Y-110613659D01*
X128281709Y-110724753D01*
X128436149Y-110807303D01*
X128502058Y-110827296D01*
X128603724Y-110858136D01*
X128636924Y-110861406D01*
X128734333Y-110871000D01*
X128734339Y-110871000D01*
X128777999Y-110875300D01*
X128821659Y-110871000D01*
X138386340Y-110871000D01*
X138430000Y-110875300D01*
X138473660Y-110871000D01*
X138473667Y-110871000D01*
X138604274Y-110858136D01*
X138771851Y-110807303D01*
X138926291Y-110724753D01*
X139061659Y-110613659D01*
X139089499Y-110579736D01*
X144953630Y-104715606D01*
X145018342Y-104794457D01*
X145052259Y-104822292D01*
X146855622Y-106625655D01*
X146821745Y-106628992D01*
X146655149Y-106679528D01*
X146501613Y-106761595D01*
X146367038Y-106872038D01*
X146295000Y-106959816D01*
X146222962Y-106872038D01*
X146088387Y-106761595D01*
X145934851Y-106679528D01*
X145768255Y-106628992D01*
X145595001Y-106611928D01*
X144944999Y-106611928D01*
X144771745Y-106628992D01*
X144605149Y-106679528D01*
X144451613Y-106761595D01*
X144317038Y-106872038D01*
X144206595Y-107006613D01*
X144124528Y-107160149D01*
X144073992Y-107326745D01*
X144056928Y-107499999D01*
X144056928Y-108400001D01*
X144073992Y-108573255D01*
X144124528Y-108739851D01*
X144206595Y-108893387D01*
X144317038Y-109027962D01*
X144381000Y-109080455D01*
X144381001Y-109827500D01*
X143408329Y-109827500D01*
X143380537Y-109775506D01*
X143301185Y-109678815D01*
X143204494Y-109599463D01*
X143094180Y-109540498D01*
X142974482Y-109504188D01*
X142850000Y-109491928D01*
X141300000Y-109491928D01*
X141175518Y-109504188D01*
X141055820Y-109540498D01*
X140945506Y-109599463D01*
X140848815Y-109678815D01*
X140769463Y-109775506D01*
X140710498Y-109885820D01*
X140674188Y-110005518D01*
X140661928Y-110130000D01*
X140661928Y-110556836D01*
X139165837Y-112052928D01*
X138995999Y-112052928D01*
X138822745Y-112069992D01*
X138656149Y-112120528D01*
X138502613Y-112202595D01*
X138368038Y-112313038D01*
X138257595Y-112447613D01*
X138175528Y-112601149D01*
X138124992Y-112767745D01*
X138107928Y-112940999D01*
X138107928Y-113591001D01*
X138124992Y-113764255D01*
X138175528Y-113930851D01*
X138257595Y-114084387D01*
X138368038Y-114218962D01*
X138374594Y-114224342D01*
X138294815Y-114289815D01*
X138215463Y-114386506D01*
X138156498Y-114496820D01*
X138120188Y-114616518D01*
X138107928Y-114741000D01*
X138111000Y-115030250D01*
X138269750Y-115189000D01*
X139319000Y-115189000D01*
X139319000Y-115169000D01*
X139573000Y-115169000D01*
X139573000Y-115189000D01*
X140622250Y-115189000D01*
X140741000Y-115070250D01*
X140823750Y-115153000D01*
X141948000Y-115153000D01*
X141948000Y-114153750D01*
X142202000Y-114153750D01*
X142202000Y-115153000D01*
X143326250Y-115153000D01*
X143485000Y-114994250D01*
X143488072Y-114630000D01*
X148611928Y-114630000D01*
X148615000Y-114994250D01*
X148773750Y-115153000D01*
X149898000Y-115153000D01*
X149898000Y-114153750D01*
X150152000Y-114153750D01*
X150152000Y-115153000D01*
X151276250Y-115153000D01*
X151435000Y-114994250D01*
X151438072Y-114630000D01*
X151425812Y-114505518D01*
X151389502Y-114385820D01*
X151330537Y-114275506D01*
X151251185Y-114178815D01*
X151154494Y-114099463D01*
X151044180Y-114040498D01*
X150924482Y-114004188D01*
X150800000Y-113991928D01*
X150310750Y-113995000D01*
X150152000Y-114153750D01*
X149898000Y-114153750D01*
X149739250Y-113995000D01*
X149250000Y-113991928D01*
X149125518Y-114004188D01*
X149005820Y-114040498D01*
X148895506Y-114099463D01*
X148798815Y-114178815D01*
X148719463Y-114275506D01*
X148660498Y-114385820D01*
X148624188Y-114505518D01*
X148611928Y-114630000D01*
X143488072Y-114630000D01*
X143475812Y-114505518D01*
X143439502Y-114385820D01*
X143380537Y-114275506D01*
X143301185Y-114178815D01*
X143204494Y-114099463D01*
X143094180Y-114040498D01*
X142974482Y-114004188D01*
X142850000Y-113991928D01*
X142360750Y-113995000D01*
X142202000Y-114153750D01*
X141948000Y-114153750D01*
X141789250Y-113995000D01*
X141300000Y-113991928D01*
X141175518Y-114004188D01*
X141055820Y-114040498D01*
X140945506Y-114099463D01*
X140848815Y-114178815D01*
X140769463Y-114275506D01*
X140710498Y-114385820D01*
X140698070Y-114426790D01*
X140676537Y-114386506D01*
X140597185Y-114289815D01*
X140517406Y-114224342D01*
X140523962Y-114218962D01*
X140634405Y-114084387D01*
X140716472Y-113930851D01*
X140767008Y-113764255D01*
X140784072Y-113591001D01*
X140784072Y-112949163D01*
X141665164Y-112068072D01*
X142850000Y-112068072D01*
X142974482Y-112055812D01*
X143094180Y-112019502D01*
X143204494Y-111960537D01*
X143301185Y-111881185D01*
X143380537Y-111784494D01*
X143408329Y-111732500D01*
X148691671Y-111732500D01*
X148719463Y-111784494D01*
X148798815Y-111881185D01*
X148895506Y-111960537D01*
X149005820Y-112019502D01*
X149125518Y-112055812D01*
X149250000Y-112068072D01*
X150800000Y-112068072D01*
X150924482Y-112055812D01*
X151044180Y-112019502D01*
X151154494Y-111960537D01*
X151251185Y-111881185D01*
X151330537Y-111784494D01*
X151389502Y-111674180D01*
X151425812Y-111554482D01*
X151438072Y-111430000D01*
X151438072Y-111208105D01*
X156127752Y-115897785D01*
X156155592Y-115931708D01*
X156290960Y-116042802D01*
X156445400Y-116125352D01*
X156482972Y-116136749D01*
X156612975Y-116176185D01*
X156646175Y-116179455D01*
X156743584Y-116189049D01*
X156743590Y-116189049D01*
X156787250Y-116193349D01*
X156830910Y-116189049D01*
X166747814Y-116189049D01*
X167132969Y-116574204D01*
X167132971Y-118941577D01*
X167128670Y-118985246D01*
X167145834Y-119159520D01*
X167196668Y-119327098D01*
X167279218Y-119481537D01*
X167332245Y-119546150D01*
X167390312Y-119616905D01*
X167424229Y-119644740D01*
X168328990Y-120549502D01*
X168328991Y-121676321D01*
X168324690Y-121719990D01*
X168341854Y-121894264D01*
X168392688Y-122061842D01*
X168458896Y-122185708D01*
X168475238Y-122216281D01*
X168586332Y-122351649D01*
X168620249Y-122379484D01*
X169291000Y-123050236D01*
X169291001Y-123654331D01*
X169286700Y-123698000D01*
X169303864Y-123872274D01*
X169354698Y-124039852D01*
X169396549Y-124118149D01*
X169437248Y-124194291D01*
X169548342Y-124329659D01*
X169582259Y-124357494D01*
X169961928Y-124737164D01*
X169961928Y-125310000D01*
X169974188Y-125434482D01*
X170010498Y-125554180D01*
X170069463Y-125664494D01*
X170148815Y-125761185D01*
X170245506Y-125840537D01*
X170355820Y-125899502D01*
X170475518Y-125935812D01*
X170600000Y-125948072D01*
X172300000Y-125948072D01*
X172424482Y-125935812D01*
X172544180Y-125899502D01*
X172654494Y-125840537D01*
X172751185Y-125761185D01*
X172830537Y-125664494D01*
X172889502Y-125554180D01*
X172925812Y-125434482D01*
X172938072Y-125310000D01*
X172938072Y-123610000D01*
X172925812Y-123485518D01*
X172889502Y-123365820D01*
X172830537Y-123255506D01*
X172751185Y-123158815D01*
X172654494Y-123079463D01*
X172544180Y-123020498D01*
X172471620Y-122998487D01*
X172603475Y-122866632D01*
X172765990Y-122623411D01*
X172877932Y-122353158D01*
X172935000Y-122066260D01*
X172935000Y-121773740D01*
X172877932Y-121486842D01*
X172765990Y-121216589D01*
X172603475Y-120973368D01*
X172396632Y-120766525D01*
X172222240Y-120650000D01*
X172396632Y-120533475D01*
X172603475Y-120326632D01*
X172765990Y-120083411D01*
X172877932Y-119813158D01*
X172935000Y-119526260D01*
X172935000Y-119233740D01*
X172877932Y-118946842D01*
X172765990Y-118676589D01*
X172603475Y-118433368D01*
X172396632Y-118226525D01*
X172222240Y-118110000D01*
X172396632Y-117993475D01*
X172603475Y-117786632D01*
X172765990Y-117543411D01*
X172877932Y-117273158D01*
X172935000Y-116986260D01*
X172935000Y-116693740D01*
X172877932Y-116406842D01*
X172765990Y-116136589D01*
X172603475Y-115893368D01*
X172396632Y-115686525D01*
X172222240Y-115570000D01*
X172396632Y-115453475D01*
X172603475Y-115246632D01*
X172765990Y-115003411D01*
X172877932Y-114733158D01*
X172935000Y-114446260D01*
X172935000Y-114153740D01*
X172877932Y-113866842D01*
X172765990Y-113596589D01*
X172603475Y-113353368D01*
X172396632Y-113146525D01*
X172222240Y-113030000D01*
X172396632Y-112913475D01*
X172603475Y-112706632D01*
X172765990Y-112463411D01*
X172877932Y-112193158D01*
X172935000Y-111906260D01*
X172935000Y-111613740D01*
X172877932Y-111326842D01*
X172765990Y-111056589D01*
X172603475Y-110813368D01*
X172396632Y-110606525D01*
X172153411Y-110444010D01*
X171883158Y-110332068D01*
X171596260Y-110275000D01*
X171303740Y-110275000D01*
X171016842Y-110332068D01*
X170746589Y-110444010D01*
X170503368Y-110606525D01*
X170296525Y-110813368D01*
X170258017Y-110871000D01*
X158621818Y-110871000D01*
X151911020Y-104160203D01*
X151911020Y-103059680D01*
X151915320Y-103016020D01*
X151911020Y-102972360D01*
X151911020Y-102972353D01*
X151898156Y-102841746D01*
X151893902Y-102827720D01*
X151873318Y-102759864D01*
X151847323Y-102674169D01*
X151764773Y-102519729D01*
X151653679Y-102384361D01*
X151619756Y-102356521D01*
X151281499Y-102018264D01*
X151253659Y-101984341D01*
X151189000Y-101931277D01*
X151189000Y-101431000D01*
X152077928Y-101431000D01*
X152090188Y-101555482D01*
X152126498Y-101675180D01*
X152185463Y-101785494D01*
X152264815Y-101882185D01*
X152361506Y-101961537D01*
X152471820Y-102020502D01*
X152591518Y-102056812D01*
X152716000Y-102069072D01*
X153130250Y-102066000D01*
X153289000Y-101907250D01*
X153289000Y-100983000D01*
X153543000Y-100983000D01*
X153543000Y-101907250D01*
X153701750Y-102066000D01*
X154116000Y-102069072D01*
X154240482Y-102056812D01*
X154360180Y-102020502D01*
X154470494Y-101961537D01*
X154567185Y-101882185D01*
X154646537Y-101785494D01*
X154705502Y-101675180D01*
X154741812Y-101555482D01*
X154754072Y-101431000D01*
X154751000Y-101141750D01*
X154592250Y-100983000D01*
X153543000Y-100983000D01*
X153289000Y-100983000D01*
X152239750Y-100983000D01*
X152081000Y-101141750D01*
X152077928Y-101431000D01*
X151189000Y-101431000D01*
X151189000Y-99524468D01*
X151217205Y-99482256D01*
X151295226Y-99293898D01*
X151335000Y-99093939D01*
X151335000Y-98917287D01*
X151344180Y-98914502D01*
X151454494Y-98855537D01*
X151551185Y-98776185D01*
X151630537Y-98679494D01*
X151689502Y-98569180D01*
X151725812Y-98449482D01*
X151738072Y-98325000D01*
X151738072Y-98139000D01*
X151745765Y-98139000D01*
X152078810Y-98472045D01*
X152077928Y-98480999D01*
X152077928Y-99131001D01*
X152094992Y-99304255D01*
X152145528Y-99470851D01*
X152227595Y-99624387D01*
X152338038Y-99758962D01*
X152344594Y-99764342D01*
X152264815Y-99829815D01*
X152185463Y-99926506D01*
X152126498Y-100036820D01*
X152090188Y-100156518D01*
X152077928Y-100281000D01*
X152081000Y-100570250D01*
X152239750Y-100729000D01*
X153289000Y-100729000D01*
X153289000Y-100709000D01*
X153543000Y-100709000D01*
X153543000Y-100729000D01*
X154592250Y-100729000D01*
X154751000Y-100570250D01*
X154754072Y-100281000D01*
X154741812Y-100156518D01*
X154705502Y-100036820D01*
X154646537Y-99926506D01*
X154567185Y-99829815D01*
X154487406Y-99764342D01*
X154493962Y-99758962D01*
X154546454Y-99695000D01*
X154863524Y-99695000D01*
X154892595Y-99749387D01*
X155003038Y-99883962D01*
X155137613Y-99994405D01*
X155291149Y-100076472D01*
X155457745Y-100127008D01*
X155630999Y-100144072D01*
X156281001Y-100144072D01*
X156454255Y-100127008D01*
X156620851Y-100076472D01*
X156774387Y-99994405D01*
X156908962Y-99883962D01*
X156981000Y-99796184D01*
X157053038Y-99883962D01*
X157187613Y-99994405D01*
X157341149Y-100076472D01*
X157507745Y-100127008D01*
X157680999Y-100144072D01*
X158331001Y-100144072D01*
X158504255Y-100127008D01*
X158670851Y-100076472D01*
X158824387Y-99994405D01*
X158958962Y-99883962D01*
X159069405Y-99749387D01*
X159151472Y-99595851D01*
X159202008Y-99429255D01*
X159219072Y-99256001D01*
X159219072Y-98355999D01*
X159202008Y-98182745D01*
X159151472Y-98016149D01*
X159069405Y-97862613D01*
X158958962Y-97728038D01*
X158824387Y-97617595D01*
X158670851Y-97535528D01*
X158504255Y-97484992D01*
X158331001Y-97467928D01*
X157680999Y-97467928D01*
X157507745Y-97484992D01*
X157341149Y-97535528D01*
X157187613Y-97617595D01*
X157053038Y-97728038D01*
X156981000Y-97815816D01*
X156908962Y-97728038D01*
X156774387Y-97617595D01*
X156620851Y-97535528D01*
X156454255Y-97484992D01*
X156281001Y-97467928D01*
X156011307Y-97467928D01*
X159118235Y-94361000D01*
X162535532Y-94361000D01*
X162577744Y-94389205D01*
X162766102Y-94467226D01*
X162966061Y-94507000D01*
X163169939Y-94507000D01*
X163369898Y-94467226D01*
X163558256Y-94389205D01*
X163727774Y-94275937D01*
X163871937Y-94131774D01*
X163985205Y-93962256D01*
X164063226Y-93773898D01*
X164103000Y-93573939D01*
X164103000Y-93370061D01*
X164063226Y-93170102D01*
X163985205Y-92981744D01*
X163973349Y-92964000D01*
X163985205Y-92946256D01*
X164063226Y-92757898D01*
X164103000Y-92557939D01*
X164103000Y-92490999D01*
X164967384Y-92490999D01*
X166085322Y-93608938D01*
X166085323Y-94765207D01*
X166081022Y-94808876D01*
X166098186Y-94983151D01*
X166149020Y-95150728D01*
X166159125Y-95169633D01*
X166231570Y-95305167D01*
X166342664Y-95440535D01*
X166376581Y-95468370D01*
X167039971Y-96131760D01*
X167039972Y-97243856D01*
X167035671Y-97287525D01*
X167052835Y-97461799D01*
X167103669Y-97629377D01*
X167186219Y-97783816D01*
X167266797Y-97882000D01*
X167297313Y-97919184D01*
X167331230Y-97947019D01*
X167840979Y-98456768D01*
X167840980Y-99568864D01*
X167836679Y-99612533D01*
X167853843Y-99786808D01*
X167904677Y-99954385D01*
X167922231Y-99987226D01*
X167987227Y-100108824D01*
X168024644Y-100154416D01*
X168063326Y-100201550D01*
X168098321Y-100244192D01*
X168132239Y-100272028D01*
X168548989Y-100688778D01*
X168548990Y-101815595D01*
X168544689Y-101859265D01*
X168561853Y-102033539D01*
X168612686Y-102201116D01*
X168656621Y-102283312D01*
X168695237Y-102355557D01*
X168742566Y-102413227D01*
X168771000Y-102447874D01*
X168806331Y-102490925D01*
X168840247Y-102518759D01*
X168952483Y-102630995D01*
X169047702Y-102747020D01*
X169081624Y-102774859D01*
X169256999Y-102950234D01*
X169257000Y-104062330D01*
X169252699Y-104105999D01*
X169269863Y-104280273D01*
X169320697Y-104447851D01*
X169403247Y-104602290D01*
X169485661Y-104702711D01*
X169514341Y-104737658D01*
X169548258Y-104765493D01*
X169961928Y-105179163D01*
X169961928Y-106260000D01*
X169974188Y-106384482D01*
X170010498Y-106504180D01*
X170069463Y-106614494D01*
X170148815Y-106711185D01*
X170245506Y-106790537D01*
X170355820Y-106849502D01*
X170475518Y-106885812D01*
X170600000Y-106898072D01*
X172300000Y-106898072D01*
X172424482Y-106885812D01*
X172544180Y-106849502D01*
X172654494Y-106790537D01*
X172751185Y-106711185D01*
X172830537Y-106614494D01*
X172889502Y-106504180D01*
X172925812Y-106384482D01*
X172938072Y-106260000D01*
X172938072Y-104560000D01*
X172925812Y-104435518D01*
X172889502Y-104315820D01*
X172830537Y-104205506D01*
X172751185Y-104108815D01*
X172654494Y-104029463D01*
X172544180Y-103970498D01*
X172471620Y-103948487D01*
X172603475Y-103816632D01*
X172765990Y-103573411D01*
X172877932Y-103303158D01*
X172935000Y-103016260D01*
X172935000Y-102723740D01*
X172877932Y-102436842D01*
X172765990Y-102166589D01*
X172603475Y-101923368D01*
X172396632Y-101716525D01*
X172222240Y-101600000D01*
X172396632Y-101483475D01*
X172603475Y-101276632D01*
X172765990Y-101033411D01*
X172877932Y-100763158D01*
X172935000Y-100476260D01*
X172935000Y-100183740D01*
X172877932Y-99896842D01*
X172765990Y-99626589D01*
X172603475Y-99383368D01*
X172396632Y-99176525D01*
X172222240Y-99060000D01*
X172396632Y-98943475D01*
X172603475Y-98736632D01*
X172765990Y-98493411D01*
X172877932Y-98223158D01*
X172935000Y-97936260D01*
X172935000Y-97643740D01*
X172877932Y-97356842D01*
X172765990Y-97086589D01*
X172603475Y-96843368D01*
X172396632Y-96636525D01*
X172222240Y-96520000D01*
X172396632Y-96403475D01*
X172603475Y-96196632D01*
X172765990Y-95953411D01*
X172877932Y-95683158D01*
X172935000Y-95396260D01*
X172935000Y-95103740D01*
X172877932Y-94816842D01*
X172765990Y-94546589D01*
X172603475Y-94303368D01*
X172396632Y-94096525D01*
X172222240Y-93980000D01*
X172396632Y-93863475D01*
X172603475Y-93656632D01*
X172765990Y-93413411D01*
X172877932Y-93143158D01*
X172935000Y-92856260D01*
X172935000Y-92563740D01*
X172877932Y-92276842D01*
X172765990Y-92006589D01*
X172603475Y-91763368D01*
X172396632Y-91556525D01*
X172222240Y-91440000D01*
X172396632Y-91323475D01*
X172603475Y-91116632D01*
X172765990Y-90873411D01*
X172877932Y-90603158D01*
X172935000Y-90316260D01*
X172935000Y-90023740D01*
X172877932Y-89736842D01*
X172765990Y-89466589D01*
X172603475Y-89223368D01*
X172396632Y-89016525D01*
X172222240Y-88900000D01*
X172396632Y-88783475D01*
X172603475Y-88576632D01*
X172765990Y-88333411D01*
X172877932Y-88063158D01*
X172935000Y-87776260D01*
X172935000Y-87483740D01*
X172877932Y-87196842D01*
X172765990Y-86926589D01*
X172603475Y-86683368D01*
X172396632Y-86476525D01*
X172153411Y-86314010D01*
X171883158Y-86202068D01*
X171596260Y-86145000D01*
X171303740Y-86145000D01*
X171016842Y-86202068D01*
X170746589Y-86314010D01*
X170503368Y-86476525D01*
X170296525Y-86683368D01*
X170134010Y-86926589D01*
X170022068Y-87196842D01*
X169965000Y-87483740D01*
X169965000Y-87776260D01*
X170022068Y-88063158D01*
X170134010Y-88333411D01*
X170296525Y-88576632D01*
X170503368Y-88783475D01*
X170677760Y-88900000D01*
X170503368Y-89016525D01*
X170296525Y-89223368D01*
X170134010Y-89466589D01*
X170022068Y-89736842D01*
X169974287Y-89977051D01*
X167445469Y-87448234D01*
X167417629Y-87414311D01*
X167282261Y-87303217D01*
X167127821Y-87220667D01*
X166960244Y-87169834D01*
X166829637Y-87156970D01*
X166829630Y-87156970D01*
X166785970Y-87152670D01*
X166742310Y-87156970D01*
X147952934Y-87156970D01*
X147909274Y-87152670D01*
X147865614Y-87156970D01*
X147865608Y-87156970D01*
X147768199Y-87166564D01*
X147734999Y-87169834D01*
X147645966Y-87196842D01*
X147567424Y-87220667D01*
X147412984Y-87303217D01*
X147277616Y-87414311D01*
X147249781Y-87448229D01*
X146157899Y-88540111D01*
X145779948Y-88162160D01*
X145815000Y-87985939D01*
X145815000Y-87782061D01*
X145775226Y-87582102D01*
X145697205Y-87393744D01*
X145583937Y-87224226D01*
X145439774Y-87080063D01*
X145270256Y-86966795D01*
X145081898Y-86888774D01*
X144881939Y-86849000D01*
X144678061Y-86849000D01*
X144501840Y-86884052D01*
X143942041Y-86324254D01*
X143914201Y-86290331D01*
X143778833Y-86179237D01*
X143624393Y-86096687D01*
X143456816Y-86045854D01*
X143326209Y-86032990D01*
X143326202Y-86032990D01*
X143282542Y-86028690D01*
X143238882Y-86032990D01*
X140122226Y-86032990D01*
X139319000Y-85229765D01*
X139319000Y-78661983D01*
X139376632Y-78623475D01*
X139583475Y-78416632D01*
X139700000Y-78242240D01*
X139816525Y-78416632D01*
X140023368Y-78623475D01*
X140266589Y-78785990D01*
X140536842Y-78897932D01*
X140823740Y-78955000D01*
X141116260Y-78955000D01*
X141403158Y-78897932D01*
X141673411Y-78785990D01*
X141916632Y-78623475D01*
X142048487Y-78491620D01*
X142070498Y-78564180D01*
X142129463Y-78674494D01*
X142208815Y-78771185D01*
X142305506Y-78850537D01*
X142415820Y-78909502D01*
X142535518Y-78945812D01*
X142660000Y-78958072D01*
X144360000Y-78958072D01*
X144484482Y-78945812D01*
X144604180Y-78909502D01*
X144714494Y-78850537D01*
X144811185Y-78771185D01*
X144890537Y-78674494D01*
X144949502Y-78564180D01*
X144985812Y-78444482D01*
X144998072Y-78320000D01*
X144998072Y-76620000D01*
X144985812Y-76495518D01*
X144949502Y-76375820D01*
X144890537Y-76265506D01*
X144811185Y-76168815D01*
X144714494Y-76089463D01*
X144604180Y-76030498D01*
X144531620Y-76008487D01*
X144663475Y-75876632D01*
X144701983Y-75819000D01*
X145681765Y-75819000D01*
X147701000Y-77838236D01*
X147701001Y-81065769D01*
X147615518Y-81074188D01*
X147495820Y-81110498D01*
X147385506Y-81169463D01*
X147288815Y-81248815D01*
X147209463Y-81345506D01*
X147150498Y-81455820D01*
X147114188Y-81575518D01*
X147101928Y-81700000D01*
X147101928Y-83400000D01*
X147114188Y-83524482D01*
X147150498Y-83644180D01*
X147209463Y-83754494D01*
X147288815Y-83851185D01*
X147385506Y-83930537D01*
X147495820Y-83989502D01*
X147615518Y-84025812D01*
X147740000Y-84038072D01*
X149440000Y-84038072D01*
X149564482Y-84025812D01*
X149684180Y-83989502D01*
X149794494Y-83930537D01*
X149891185Y-83851185D01*
X149970537Y-83754494D01*
X150029502Y-83644180D01*
X150051513Y-83571620D01*
X150183368Y-83703475D01*
X150426589Y-83865990D01*
X150696842Y-83977932D01*
X150983740Y-84035000D01*
X151276260Y-84035000D01*
X151563158Y-83977932D01*
X151833411Y-83865990D01*
X152076632Y-83703475D01*
X152283475Y-83496632D01*
X152445990Y-83253411D01*
X152557932Y-82983158D01*
X152615000Y-82696260D01*
X152615000Y-82403740D01*
X152557932Y-82116842D01*
X152445990Y-81846589D01*
X152283475Y-81603368D01*
X152076632Y-81396525D01*
X151833411Y-81234010D01*
X151563158Y-81122068D01*
X151276260Y-81065000D01*
X150983740Y-81065000D01*
X150696842Y-81122068D01*
X150426589Y-81234010D01*
X150183368Y-81396525D01*
X150051513Y-81528380D01*
X150029502Y-81455820D01*
X149970537Y-81345506D01*
X149891185Y-81248815D01*
X149794494Y-81169463D01*
X149684180Y-81110498D01*
X149564482Y-81074188D01*
X149479000Y-81065769D01*
X149479000Y-80952818D01*
X165606787Y-80952818D01*
X166098946Y-81555149D01*
X166949933Y-82025063D01*
X167876243Y-82319929D01*
X168842281Y-82428414D01*
X169810921Y-82346351D01*
X170744938Y-82076893D01*
X171608440Y-81630394D01*
X171721054Y-81555149D01*
X172213213Y-80952818D01*
X168910000Y-77649605D01*
X165606787Y-80952818D01*
X149479000Y-80952818D01*
X149479000Y-77513659D01*
X149483300Y-77469999D01*
X149479000Y-77426334D01*
X149479000Y-77426333D01*
X149468896Y-77323740D01*
X149645000Y-77323740D01*
X149645000Y-77616260D01*
X149702068Y-77903158D01*
X149814010Y-78173411D01*
X149976525Y-78416632D01*
X150183368Y-78623475D01*
X150426589Y-78785990D01*
X150696842Y-78897932D01*
X150983740Y-78955000D01*
X151276260Y-78955000D01*
X151563158Y-78897932D01*
X151833411Y-78785990D01*
X152076632Y-78623475D01*
X152283475Y-78416632D01*
X152400000Y-78242240D01*
X152516525Y-78416632D01*
X152723368Y-78623475D01*
X152966589Y-78785990D01*
X153236842Y-78897932D01*
X153523740Y-78955000D01*
X153816260Y-78955000D01*
X154103158Y-78897932D01*
X154373411Y-78785990D01*
X154616632Y-78623475D01*
X154823475Y-78416632D01*
X154940000Y-78242240D01*
X155056525Y-78416632D01*
X155263368Y-78623475D01*
X155506589Y-78785990D01*
X155776842Y-78897932D01*
X156063740Y-78955000D01*
X156356260Y-78955000D01*
X156643158Y-78897932D01*
X156913411Y-78785990D01*
X157156632Y-78623475D01*
X157363475Y-78416632D01*
X157480000Y-78242240D01*
X157596525Y-78416632D01*
X157803368Y-78623475D01*
X158046589Y-78785990D01*
X158316842Y-78897932D01*
X158603740Y-78955000D01*
X158896260Y-78955000D01*
X159183158Y-78897932D01*
X159453411Y-78785990D01*
X159696632Y-78623475D01*
X159903475Y-78416632D01*
X160065990Y-78173411D01*
X160177932Y-77903158D01*
X160235000Y-77616260D01*
X160235000Y-77402281D01*
X163951586Y-77402281D01*
X164033649Y-78370921D01*
X164303107Y-79304938D01*
X164749606Y-80168440D01*
X164824851Y-80281054D01*
X165427182Y-80773213D01*
X168730395Y-77470000D01*
X169089605Y-77470000D01*
X172392818Y-80773213D01*
X172995149Y-80281054D01*
X173465063Y-79430067D01*
X173759929Y-78503757D01*
X173868414Y-77537719D01*
X173786351Y-76569079D01*
X173516893Y-75635062D01*
X173070394Y-74771560D01*
X172995149Y-74658946D01*
X172392818Y-74166787D01*
X169089605Y-77470000D01*
X168730395Y-77470000D01*
X165427182Y-74166787D01*
X164824851Y-74658946D01*
X164354937Y-75509933D01*
X164060071Y-76436243D01*
X163951586Y-77402281D01*
X160235000Y-77402281D01*
X160235000Y-77323740D01*
X160177932Y-77036842D01*
X160065990Y-76766589D01*
X159903475Y-76523368D01*
X159771620Y-76391513D01*
X159844180Y-76369502D01*
X159954494Y-76310537D01*
X160051185Y-76231185D01*
X160130537Y-76134494D01*
X160189502Y-76024180D01*
X160225812Y-75904482D01*
X160238072Y-75780000D01*
X160235000Y-75215750D01*
X160076250Y-75057000D01*
X158877000Y-75057000D01*
X158877000Y-75077000D01*
X158623000Y-75077000D01*
X158623000Y-75057000D01*
X156337000Y-75057000D01*
X156337000Y-75077000D01*
X156083000Y-75077000D01*
X156083000Y-75057000D01*
X153797000Y-75057000D01*
X153797000Y-75077000D01*
X153543000Y-75077000D01*
X153543000Y-75057000D01*
X151257000Y-75057000D01*
X151257000Y-75077000D01*
X151003000Y-75077000D01*
X151003000Y-75057000D01*
X149809186Y-75057000D01*
X149688519Y-75286891D01*
X149785843Y-75561252D01*
X149934822Y-75811355D01*
X150129731Y-76027588D01*
X150359406Y-76198900D01*
X150183368Y-76316525D01*
X149976525Y-76523368D01*
X149814010Y-76766589D01*
X149702068Y-77036842D01*
X149645000Y-77323740D01*
X149468896Y-77323740D01*
X149466136Y-77295726D01*
X149466136Y-77295724D01*
X149415302Y-77128147D01*
X149411589Y-77121200D01*
X149332753Y-76973709D01*
X149221659Y-76838341D01*
X149187743Y-76810507D01*
X146950345Y-74573109D01*
X149688519Y-74573109D01*
X149809186Y-74803000D01*
X151003000Y-74803000D01*
X151003000Y-73609845D01*
X151257000Y-73609845D01*
X151257000Y-74803000D01*
X153543000Y-74803000D01*
X153543000Y-73609845D01*
X153797000Y-73609845D01*
X153797000Y-74803000D01*
X156083000Y-74803000D01*
X156083000Y-73609845D01*
X156337000Y-73609845D01*
X156337000Y-74803000D01*
X158623000Y-74803000D01*
X158623000Y-73603750D01*
X158877000Y-73603750D01*
X158877000Y-74803000D01*
X160076250Y-74803000D01*
X160235000Y-74644250D01*
X160238072Y-74080000D01*
X160228931Y-73987182D01*
X165606787Y-73987182D01*
X168910000Y-77290395D01*
X172213213Y-73987182D01*
X171721054Y-73384851D01*
X170870067Y-72914937D01*
X169943757Y-72620071D01*
X168977719Y-72511586D01*
X168009079Y-72593649D01*
X167075062Y-72863107D01*
X166211560Y-73309606D01*
X166098946Y-73384851D01*
X165606787Y-73987182D01*
X160228931Y-73987182D01*
X160225812Y-73955518D01*
X160189502Y-73835820D01*
X160130537Y-73725506D01*
X160051185Y-73628815D01*
X159954494Y-73549463D01*
X159844180Y-73490498D01*
X159724482Y-73454188D01*
X159600000Y-73441928D01*
X159035750Y-73445000D01*
X158877000Y-73603750D01*
X158623000Y-73603750D01*
X158464250Y-73445000D01*
X157900000Y-73441928D01*
X157775518Y-73454188D01*
X157655820Y-73490498D01*
X157545506Y-73549463D01*
X157448815Y-73628815D01*
X157369463Y-73725506D01*
X157310498Y-73835820D01*
X157286034Y-73916466D01*
X157210269Y-73832412D01*
X156976920Y-73658359D01*
X156714099Y-73533175D01*
X156566890Y-73488524D01*
X156337000Y-73609845D01*
X156083000Y-73609845D01*
X155853110Y-73488524D01*
X155705901Y-73533175D01*
X155443080Y-73658359D01*
X155209731Y-73832412D01*
X155014822Y-74048645D01*
X154940000Y-74174255D01*
X154865178Y-74048645D01*
X154670269Y-73832412D01*
X154436920Y-73658359D01*
X154174099Y-73533175D01*
X154026890Y-73488524D01*
X153797000Y-73609845D01*
X153543000Y-73609845D01*
X153313110Y-73488524D01*
X153165901Y-73533175D01*
X152903080Y-73658359D01*
X152669731Y-73832412D01*
X152474822Y-74048645D01*
X152400000Y-74174255D01*
X152325178Y-74048645D01*
X152130269Y-73832412D01*
X151896920Y-73658359D01*
X151634099Y-73533175D01*
X151486890Y-73488524D01*
X151257000Y-73609845D01*
X151003000Y-73609845D01*
X150773110Y-73488524D01*
X150625901Y-73533175D01*
X150363080Y-73658359D01*
X150129731Y-73832412D01*
X149934822Y-74048645D01*
X149785843Y-74298748D01*
X149688519Y-74573109D01*
X146950345Y-74573109D01*
X146709499Y-74332264D01*
X146681659Y-74298341D01*
X146546291Y-74187247D01*
X146391851Y-74104697D01*
X146224274Y-74053864D01*
X146093667Y-74041000D01*
X146093660Y-74041000D01*
X146050000Y-74036700D01*
X146006340Y-74041000D01*
X144701983Y-74041000D01*
X144663475Y-73983368D01*
X144456632Y-73776525D01*
X144213411Y-73614010D01*
X143943158Y-73502068D01*
X143656260Y-73445000D01*
X143363740Y-73445000D01*
X143076842Y-73502068D01*
X142806589Y-73614010D01*
X142563368Y-73776525D01*
X142356525Y-73983368D01*
X142234805Y-74165534D01*
X142165178Y-74048645D01*
X141970269Y-73832412D01*
X141736920Y-73658359D01*
X141474099Y-73533175D01*
X141326890Y-73488524D01*
X141097000Y-73609845D01*
X141097000Y-74803000D01*
X141117000Y-74803000D01*
X141117000Y-75057000D01*
X141097000Y-75057000D01*
X141097000Y-75077000D01*
X140843000Y-75077000D01*
X140843000Y-75057000D01*
X138557000Y-75057000D01*
X138557000Y-75077000D01*
X138303000Y-75077000D01*
X138303000Y-75057000D01*
X136017000Y-75057000D01*
X136017000Y-75077000D01*
X135763000Y-75077000D01*
X135763000Y-75057000D01*
X133477000Y-75057000D01*
X133477000Y-75077000D01*
X133223000Y-75077000D01*
X133223000Y-75057000D01*
X132029186Y-75057000D01*
X131908519Y-75286891D01*
X132005843Y-75561252D01*
X132154822Y-75811355D01*
X132349731Y-76027588D01*
X132579406Y-76198900D01*
X132403368Y-76316525D01*
X132196525Y-76523368D01*
X132034010Y-76766589D01*
X131922068Y-77036842D01*
X131865000Y-77323740D01*
X131865000Y-77616260D01*
X131922068Y-77903158D01*
X132034010Y-78173411D01*
X132196525Y-78416632D01*
X132403368Y-78623475D01*
X132646589Y-78785990D01*
X132916842Y-78897932D01*
X133203740Y-78955000D01*
X133496260Y-78955000D01*
X133783158Y-78897932D01*
X134053411Y-78785990D01*
X134296632Y-78623475D01*
X134503475Y-78416632D01*
X134620000Y-78242240D01*
X134736525Y-78416632D01*
X134943368Y-78623475D01*
X135186589Y-78785990D01*
X135456842Y-78897932D01*
X135743740Y-78955000D01*
X136036260Y-78955000D01*
X136323158Y-78897932D01*
X136593411Y-78785990D01*
X136836632Y-78623475D01*
X137043475Y-78416632D01*
X137160000Y-78242240D01*
X137276525Y-78416632D01*
X137483368Y-78623475D01*
X137541000Y-78661984D01*
X137541001Y-84538333D01*
X137541000Y-85554339D01*
X137536700Y-85598000D01*
X137541000Y-85641660D01*
X137541000Y-85641666D01*
X137553864Y-85772273D01*
X137604697Y-85939850D01*
X137687247Y-86094290D01*
X137798341Y-86229659D01*
X137832264Y-86257499D01*
X138315765Y-86741000D01*
X122134231Y-86741000D01*
X122125812Y-86655518D01*
X122089502Y-86535820D01*
X122030537Y-86425506D01*
X121951185Y-86328815D01*
X121854494Y-86249463D01*
X121744180Y-86190498D01*
X121624482Y-86154188D01*
X121500000Y-86141928D01*
X119800000Y-86141928D01*
X119675518Y-86154188D01*
X119555820Y-86190498D01*
X119445506Y-86249463D01*
X119348815Y-86328815D01*
X119269463Y-86425506D01*
X119210498Y-86535820D01*
X119174188Y-86655518D01*
X119161928Y-86780000D01*
X119161928Y-87860837D01*
X118748258Y-88274507D01*
X118714341Y-88302342D01*
X118686506Y-88336259D01*
X118686504Y-88336261D01*
X118603247Y-88437710D01*
X118520697Y-88592149D01*
X118469863Y-88759727D01*
X118452699Y-88934001D01*
X117500000Y-88934001D01*
X117500000Y-80952818D01*
X119886787Y-80952818D01*
X120378946Y-81555149D01*
X121229933Y-82025063D01*
X122156243Y-82319929D01*
X123122281Y-82428414D01*
X124090921Y-82346351D01*
X125024938Y-82076893D01*
X125888440Y-81630394D01*
X126001054Y-81555149D01*
X126493213Y-80952818D01*
X123190000Y-77649605D01*
X119886787Y-80952818D01*
X117500000Y-80952818D01*
X117500000Y-77402281D01*
X118231586Y-77402281D01*
X118313649Y-78370921D01*
X118583107Y-79304938D01*
X119029606Y-80168440D01*
X119104851Y-80281054D01*
X119707182Y-80773213D01*
X123010395Y-77470000D01*
X123369605Y-77470000D01*
X126672818Y-80773213D01*
X127275149Y-80281054D01*
X127745063Y-79430067D01*
X128039929Y-78503757D01*
X128148414Y-77537719D01*
X128066351Y-76569079D01*
X127796893Y-75635062D01*
X127350394Y-74771560D01*
X127275149Y-74658946D01*
X127170098Y-74573109D01*
X131908519Y-74573109D01*
X132029186Y-74803000D01*
X133223000Y-74803000D01*
X133223000Y-73609845D01*
X133477000Y-73609845D01*
X133477000Y-74803000D01*
X135763000Y-74803000D01*
X135763000Y-73609845D01*
X136017000Y-73609845D01*
X136017000Y-74803000D01*
X138303000Y-74803000D01*
X138303000Y-73609845D01*
X138557000Y-73609845D01*
X138557000Y-74803000D01*
X140843000Y-74803000D01*
X140843000Y-73609845D01*
X140613110Y-73488524D01*
X140465901Y-73533175D01*
X140203080Y-73658359D01*
X139969731Y-73832412D01*
X139774822Y-74048645D01*
X139700000Y-74174255D01*
X139625178Y-74048645D01*
X139430269Y-73832412D01*
X139196920Y-73658359D01*
X138934099Y-73533175D01*
X138786890Y-73488524D01*
X138557000Y-73609845D01*
X138303000Y-73609845D01*
X138073110Y-73488524D01*
X137925901Y-73533175D01*
X137663080Y-73658359D01*
X137429731Y-73832412D01*
X137234822Y-74048645D01*
X137160000Y-74174255D01*
X137085178Y-74048645D01*
X136890269Y-73832412D01*
X136656920Y-73658359D01*
X136394099Y-73533175D01*
X136246890Y-73488524D01*
X136017000Y-73609845D01*
X135763000Y-73609845D01*
X135533110Y-73488524D01*
X135385901Y-73533175D01*
X135123080Y-73658359D01*
X134889731Y-73832412D01*
X134694822Y-74048645D01*
X134620000Y-74174255D01*
X134545178Y-74048645D01*
X134350269Y-73832412D01*
X134116920Y-73658359D01*
X133854099Y-73533175D01*
X133706890Y-73488524D01*
X133477000Y-73609845D01*
X133223000Y-73609845D01*
X132993110Y-73488524D01*
X132845901Y-73533175D01*
X132583080Y-73658359D01*
X132349731Y-73832412D01*
X132154822Y-74048645D01*
X132005843Y-74298748D01*
X131908519Y-74573109D01*
X127170098Y-74573109D01*
X126672818Y-74166787D01*
X123369605Y-77470000D01*
X123010395Y-77470000D01*
X119707182Y-74166787D01*
X119104851Y-74658946D01*
X118634937Y-75509933D01*
X118340071Y-76436243D01*
X118231586Y-77402281D01*
X117500000Y-77402281D01*
X117500000Y-74962279D01*
X117563096Y-74318778D01*
X117663210Y-73987182D01*
X119886787Y-73987182D01*
X123190000Y-77290395D01*
X126493213Y-73987182D01*
X126001054Y-73384851D01*
X125150067Y-72914937D01*
X124223757Y-72620071D01*
X123257719Y-72511586D01*
X122289079Y-72593649D01*
X121355062Y-72863107D01*
X120491560Y-73309606D01*
X120378946Y-73384851D01*
X119886787Y-73987182D01*
X117663210Y-73987182D01*
X117740606Y-73730836D01*
X118028937Y-73188564D01*
X118417094Y-72712636D01*
X118890314Y-72321155D01*
X119430552Y-72029049D01*
X120017244Y-71847437D01*
X120658879Y-71780000D01*
X171417721Y-71780000D01*
X172061222Y-71843096D01*
G36*
X139319000Y-92062235D02*
G01*
X139319001Y-92706533D01*
X139314700Y-92750202D01*
X139331864Y-92924476D01*
X139382698Y-93092054D01*
X139465248Y-93246493D01*
X139547081Y-93346206D01*
X139576342Y-93381861D01*
X139610259Y-93409696D01*
X139858491Y-93657928D01*
X139374999Y-93657928D01*
X139201745Y-93674992D01*
X139035149Y-93725528D01*
X138881613Y-93807595D01*
X138747038Y-93918038D01*
X138741658Y-93924594D01*
X138676185Y-93844815D01*
X138579494Y-93765463D01*
X138469180Y-93706498D01*
X138349482Y-93670188D01*
X138225000Y-93657928D01*
X137935750Y-93661000D01*
X137777000Y-93819750D01*
X137777000Y-94869000D01*
X137797000Y-94869000D01*
X137797000Y-95123000D01*
X137777000Y-95123000D01*
X137777000Y-95143000D01*
X137523000Y-95143000D01*
X137523000Y-95123000D01*
X136598750Y-95123000D01*
X136440000Y-95281750D01*
X136436928Y-95696000D01*
X136449188Y-95820482D01*
X136468759Y-95885000D01*
X135171659Y-95885000D01*
X135127999Y-95880700D01*
X135084339Y-95885000D01*
X135084333Y-95885000D01*
X134986924Y-95894594D01*
X134953724Y-95897864D01*
X134864269Y-95925000D01*
X134786149Y-95948697D01*
X134631709Y-96031247D01*
X134496341Y-96142341D01*
X134468501Y-96176264D01*
X134022264Y-96622501D01*
X133988341Y-96650341D01*
X133877247Y-96785710D01*
X133794697Y-96940150D01*
X133765998Y-97034759D01*
X133746004Y-97100673D01*
X133743864Y-97107727D01*
X133738585Y-97161321D01*
X133667038Y-97220038D01*
X133556595Y-97354613D01*
X133474528Y-97508149D01*
X133423992Y-97674745D01*
X133406928Y-97847999D01*
X133406928Y-98748001D01*
X133423992Y-98921255D01*
X133461343Y-99044387D01*
X133341518Y-99056188D01*
X133221820Y-99092498D01*
X133111506Y-99151463D01*
X133014815Y-99230815D01*
X132935463Y-99327506D01*
X132876498Y-99437820D01*
X132840188Y-99557518D01*
X132827928Y-99682000D01*
X132827928Y-101782000D01*
X132840188Y-101906482D01*
X132876498Y-102026180D01*
X132935463Y-102136494D01*
X132972809Y-102182000D01*
X132935463Y-102227506D01*
X132876498Y-102337820D01*
X132840188Y-102457518D01*
X132827928Y-102582000D01*
X132831000Y-103346250D01*
X132989750Y-103505000D01*
X134239000Y-103505000D01*
X134239000Y-103485000D01*
X134493000Y-103485000D01*
X134493000Y-103505000D01*
X134513000Y-103505000D01*
X134513000Y-103759000D01*
X134493000Y-103759000D01*
X134493000Y-103779000D01*
X134239000Y-103779000D01*
X134239000Y-103759000D01*
X132989750Y-103759000D01*
X132831000Y-103917750D01*
X132827928Y-104682000D01*
X132840188Y-104806482D01*
X132876498Y-104926180D01*
X132935463Y-105036494D01*
X133014815Y-105133185D01*
X133111506Y-105212537D01*
X133221820Y-105271502D01*
X133341518Y-105307812D01*
X133428630Y-105316392D01*
X133419188Y-105347518D01*
X133406928Y-105472000D01*
X133410000Y-105886250D01*
X133568750Y-106045000D01*
X134493000Y-106045000D01*
X134493000Y-106025000D01*
X134747000Y-106025000D01*
X134747000Y-106045000D01*
X134767000Y-106045000D01*
X134767000Y-106299000D01*
X134747000Y-106299000D01*
X134747000Y-107348250D01*
X134905750Y-107507000D01*
X135195000Y-107510072D01*
X135319482Y-107497812D01*
X135439180Y-107461502D01*
X135549494Y-107402537D01*
X135646185Y-107323185D01*
X135711658Y-107243406D01*
X135717038Y-107249962D01*
X135851613Y-107360405D01*
X136005149Y-107442472D01*
X136171745Y-107493008D01*
X136344999Y-107510072D01*
X136995001Y-107510072D01*
X137168255Y-107493008D01*
X137334851Y-107442472D01*
X137488387Y-107360405D01*
X137622962Y-107249962D01*
X137733405Y-107115387D01*
X137815472Y-106961851D01*
X137866008Y-106795255D01*
X137883072Y-106622001D01*
X137883072Y-105721999D01*
X137866008Y-105548745D01*
X137815472Y-105382149D01*
X137763843Y-105285558D01*
X137810180Y-105271502D01*
X137920494Y-105212537D01*
X138017185Y-105133185D01*
X138096537Y-105036494D01*
X138155502Y-104926180D01*
X138191812Y-104806482D01*
X138204072Y-104682000D01*
X138204072Y-104521000D01*
X140631212Y-104521000D01*
X137475233Y-107676980D01*
X130016216Y-107676980D01*
X129211236Y-106872000D01*
X133406928Y-106872000D01*
X133419188Y-106996482D01*
X133455498Y-107116180D01*
X133514463Y-107226494D01*
X133593815Y-107323185D01*
X133690506Y-107402537D01*
X133800820Y-107461502D01*
X133920518Y-107497812D01*
X134045000Y-107510072D01*
X134334250Y-107507000D01*
X134493000Y-107348250D01*
X134493000Y-106299000D01*
X133568750Y-106299000D01*
X133410000Y-106457750D01*
X133406928Y-106872000D01*
X129211236Y-106872000D01*
X125661856Y-103322621D01*
X125634016Y-103288698D01*
X125498648Y-103177604D01*
X125344208Y-103095054D01*
X125176631Y-103044221D01*
X125046024Y-103031357D01*
X125046017Y-103031357D01*
X125002357Y-103027057D01*
X124958697Y-103031357D01*
X123069868Y-103031357D01*
X122843001Y-102804490D01*
X122843001Y-101677661D01*
X122847301Y-101634001D01*
X122843001Y-101590341D01*
X122843001Y-101590334D01*
X122830137Y-101459727D01*
X122824781Y-101442068D01*
X122807469Y-101385000D01*
X122779304Y-101292150D01*
X122696754Y-101137710D01*
X122585660Y-101002342D01*
X122551742Y-100974507D01*
X122121477Y-100544242D01*
X122135000Y-100476260D01*
X122135000Y-100183740D01*
X122077932Y-99896842D01*
X121965990Y-99626589D01*
X121803475Y-99383368D01*
X121596632Y-99176525D01*
X121422240Y-99060000D01*
X121596632Y-98943475D01*
X121803475Y-98736632D01*
X121965990Y-98493411D01*
X122077932Y-98223158D01*
X122135000Y-97936260D01*
X122135000Y-97643740D01*
X122121477Y-97575758D01*
X122644737Y-97052498D01*
X122678659Y-97024659D01*
X122789753Y-96889291D01*
X122872303Y-96734851D01*
X122897356Y-96652260D01*
X122923136Y-96567276D01*
X122928945Y-96508291D01*
X122936000Y-96436667D01*
X122936000Y-96436661D01*
X122940300Y-96393001D01*
X122936000Y-96349341D01*
X122936000Y-95222512D01*
X123862512Y-94296000D01*
X136436928Y-94296000D01*
X136440000Y-94710250D01*
X136598750Y-94869000D01*
X137523000Y-94869000D01*
X137523000Y-93819750D01*
X137364250Y-93661000D01*
X137075000Y-93657928D01*
X136950518Y-93670188D01*
X136830820Y-93706498D01*
X136720506Y-93765463D01*
X136623815Y-93844815D01*
X136544463Y-93941506D01*
X136485498Y-94051820D01*
X136449188Y-94171518D01*
X136436928Y-94296000D01*
X123862512Y-94296000D01*
X124060763Y-94097750D01*
X124094679Y-94069916D01*
X124137904Y-94017247D01*
X124178081Y-93968291D01*
X124205773Y-93934548D01*
X124288323Y-93780108D01*
X124327947Y-93649482D01*
X124339156Y-93612532D01*
X124341756Y-93586136D01*
X124352020Y-93481924D01*
X124352020Y-93481917D01*
X124356320Y-93438257D01*
X124352020Y-93394597D01*
X124352020Y-91789215D01*
X124628226Y-91513010D01*
X138769775Y-91513010D01*
X139319000Y-92062235D01*
G37*
X139319000Y-92062235D02*
X139319001Y-92706533D01*
X139314700Y-92750202D01*
X139331864Y-92924476D01*
X139382698Y-93092054D01*
X139465248Y-93246493D01*
X139547081Y-93346206D01*
X139576342Y-93381861D01*
X139610259Y-93409696D01*
X139858491Y-93657928D01*
X139374999Y-93657928D01*
X139201745Y-93674992D01*
X139035149Y-93725528D01*
X138881613Y-93807595D01*
X138747038Y-93918038D01*
X138741658Y-93924594D01*
X138676185Y-93844815D01*
X138579494Y-93765463D01*
X138469180Y-93706498D01*
X138349482Y-93670188D01*
X138225000Y-93657928D01*
X137935750Y-93661000D01*
X137777000Y-93819750D01*
X137777000Y-94869000D01*
X137797000Y-94869000D01*
X137797000Y-95123000D01*
X137777000Y-95123000D01*
X137777000Y-95143000D01*
X137523000Y-95143000D01*
X137523000Y-95123000D01*
X136598750Y-95123000D01*
X136440000Y-95281750D01*
X136436928Y-95696000D01*
X136449188Y-95820482D01*
X136468759Y-95885000D01*
X135171659Y-95885000D01*
X135127999Y-95880700D01*
X135084339Y-95885000D01*
X135084333Y-95885000D01*
X134986924Y-95894594D01*
X134953724Y-95897864D01*
X134864269Y-95925000D01*
X134786149Y-95948697D01*
X134631709Y-96031247D01*
X134496341Y-96142341D01*
X134468501Y-96176264D01*
X134022264Y-96622501D01*
X133988341Y-96650341D01*
X133877247Y-96785710D01*
X133794697Y-96940150D01*
X133765998Y-97034759D01*
X133746004Y-97100673D01*
X133743864Y-97107727D01*
X133738585Y-97161321D01*
X133667038Y-97220038D01*
X133556595Y-97354613D01*
X133474528Y-97508149D01*
X133423992Y-97674745D01*
X133406928Y-97847999D01*
X133406928Y-98748001D01*
X133423992Y-98921255D01*
X133461343Y-99044387D01*
X133341518Y-99056188D01*
X133221820Y-99092498D01*
X133111506Y-99151463D01*
X133014815Y-99230815D01*
X132935463Y-99327506D01*
X132876498Y-99437820D01*
X132840188Y-99557518D01*
X132827928Y-99682000D01*
X132827928Y-101782000D01*
X132840188Y-101906482D01*
X132876498Y-102026180D01*
X132935463Y-102136494D01*
X132972809Y-102182000D01*
X132935463Y-102227506D01*
X132876498Y-102337820D01*
X132840188Y-102457518D01*
X132827928Y-102582000D01*
X132831000Y-103346250D01*
X132989750Y-103505000D01*
X134239000Y-103505000D01*
X134239000Y-103485000D01*
X134493000Y-103485000D01*
X134493000Y-103505000D01*
X134513000Y-103505000D01*
X134513000Y-103759000D01*
X134493000Y-103759000D01*
X134493000Y-103779000D01*
X134239000Y-103779000D01*
X134239000Y-103759000D01*
X132989750Y-103759000D01*
X132831000Y-103917750D01*
X132827928Y-104682000D01*
X132840188Y-104806482D01*
X132876498Y-104926180D01*
X132935463Y-105036494D01*
X133014815Y-105133185D01*
X133111506Y-105212537D01*
X133221820Y-105271502D01*
X133341518Y-105307812D01*
X133428630Y-105316392D01*
X133419188Y-105347518D01*
X133406928Y-105472000D01*
X133410000Y-105886250D01*
X133568750Y-106045000D01*
X134493000Y-106045000D01*
X134493000Y-106025000D01*
X134747000Y-106025000D01*
X134747000Y-106045000D01*
X134767000Y-106045000D01*
X134767000Y-106299000D01*
X134747000Y-106299000D01*
X134747000Y-107348250D01*
X134905750Y-107507000D01*
X135195000Y-107510072D01*
X135319482Y-107497812D01*
X135439180Y-107461502D01*
X135549494Y-107402537D01*
X135646185Y-107323185D01*
X135711658Y-107243406D01*
X135717038Y-107249962D01*
X135851613Y-107360405D01*
X136005149Y-107442472D01*
X136171745Y-107493008D01*
X136344999Y-107510072D01*
X136995001Y-107510072D01*
X137168255Y-107493008D01*
X137334851Y-107442472D01*
X137488387Y-107360405D01*
X137622962Y-107249962D01*
X137733405Y-107115387D01*
X137815472Y-106961851D01*
X137866008Y-106795255D01*
X137883072Y-106622001D01*
X137883072Y-105721999D01*
X137866008Y-105548745D01*
X137815472Y-105382149D01*
X137763843Y-105285558D01*
X137810180Y-105271502D01*
X137920494Y-105212537D01*
X138017185Y-105133185D01*
X138096537Y-105036494D01*
X138155502Y-104926180D01*
X138191812Y-104806482D01*
X138204072Y-104682000D01*
X138204072Y-104521000D01*
X140631212Y-104521000D01*
X137475233Y-107676980D01*
X130016216Y-107676980D01*
X129211236Y-106872000D01*
X133406928Y-106872000D01*
X133419188Y-106996482D01*
X133455498Y-107116180D01*
X133514463Y-107226494D01*
X133593815Y-107323185D01*
X133690506Y-107402537D01*
X133800820Y-107461502D01*
X133920518Y-107497812D01*
X134045000Y-107510072D01*
X134334250Y-107507000D01*
X134493000Y-107348250D01*
X134493000Y-106299000D01*
X133568750Y-106299000D01*
X133410000Y-106457750D01*
X133406928Y-106872000D01*
X129211236Y-106872000D01*
X125661856Y-103322621D01*
X125634016Y-103288698D01*
X125498648Y-103177604D01*
X125344208Y-103095054D01*
X125176631Y-103044221D01*
X125046024Y-103031357D01*
X125046017Y-103031357D01*
X125002357Y-103027057D01*
X124958697Y-103031357D01*
X123069868Y-103031357D01*
X122843001Y-102804490D01*
X122843001Y-101677661D01*
X122847301Y-101634001D01*
X122843001Y-101590341D01*
X122843001Y-101590334D01*
X122830137Y-101459727D01*
X122824781Y-101442068D01*
X122807469Y-101385000D01*
X122779304Y-101292150D01*
X122696754Y-101137710D01*
X122585660Y-101002342D01*
X122551742Y-100974507D01*
X122121477Y-100544242D01*
X122135000Y-100476260D01*
X122135000Y-100183740D01*
X122077932Y-99896842D01*
X121965990Y-99626589D01*
X121803475Y-99383368D01*
X121596632Y-99176525D01*
X121422240Y-99060000D01*
X121596632Y-98943475D01*
X121803475Y-98736632D01*
X121965990Y-98493411D01*
X122077932Y-98223158D01*
X122135000Y-97936260D01*
X122135000Y-97643740D01*
X122121477Y-97575758D01*
X122644737Y-97052498D01*
X122678659Y-97024659D01*
X122789753Y-96889291D01*
X122872303Y-96734851D01*
X122897356Y-96652260D01*
X122923136Y-96567276D01*
X122928945Y-96508291D01*
X122936000Y-96436667D01*
X122936000Y-96436661D01*
X122940300Y-96393001D01*
X122936000Y-96349341D01*
X122936000Y-95222512D01*
X123862512Y-94296000D01*
X136436928Y-94296000D01*
X136440000Y-94710250D01*
X136598750Y-94869000D01*
X137523000Y-94869000D01*
X137523000Y-93819750D01*
X137364250Y-93661000D01*
X137075000Y-93657928D01*
X136950518Y-93670188D01*
X136830820Y-93706498D01*
X136720506Y-93765463D01*
X136623815Y-93844815D01*
X136544463Y-93941506D01*
X136485498Y-94051820D01*
X136449188Y-94171518D01*
X136436928Y-94296000D01*
X123862512Y-94296000D01*
X124060763Y-94097750D01*
X124094679Y-94069916D01*
X124137904Y-94017247D01*
X124178081Y-93968291D01*
X124205773Y-93934548D01*
X124288323Y-93780108D01*
X124327947Y-93649482D01*
X124339156Y-93612532D01*
X124341756Y-93586136D01*
X124352020Y-93481924D01*
X124352020Y-93481917D01*
X124356320Y-93438257D01*
X124352020Y-93394597D01*
X124352020Y-91789215D01*
X124628226Y-91513010D01*
X138769775Y-91513010D01*
X139319000Y-92062235D01*
G36*
X139008501Y-97847736D02*
G01*
X139036341Y-97881659D01*
X139171709Y-97992753D01*
X139326149Y-98075303D01*
X139442173Y-98110498D01*
X139493725Y-98126136D01*
X139510325Y-98127771D01*
X139624333Y-98139000D01*
X139624340Y-98139000D01*
X139668000Y-98143300D01*
X139711660Y-98139000D01*
X140361928Y-98139000D01*
X140361928Y-98325000D01*
X140374188Y-98449482D01*
X140410498Y-98569180D01*
X140469463Y-98679494D01*
X140548815Y-98776185D01*
X140645506Y-98855537D01*
X140755820Y-98914502D01*
X140875518Y-98950812D01*
X140914644Y-98954665D01*
X140915630Y-98964669D01*
X140923864Y-99048274D01*
X140974698Y-99215852D01*
X141057248Y-99370291D01*
X141139776Y-99470851D01*
X141168342Y-99505659D01*
X141202259Y-99533494D01*
X141605000Y-99936236D01*
X141605001Y-102501763D01*
X141363765Y-102743000D01*
X138204072Y-102743000D01*
X138204072Y-102582000D01*
X138191812Y-102457518D01*
X138155502Y-102337820D01*
X138096537Y-102227506D01*
X138059191Y-102182000D01*
X138096537Y-102136494D01*
X138155502Y-102026180D01*
X138191812Y-101906482D01*
X138204072Y-101782000D01*
X138201000Y-101017750D01*
X138042250Y-100859000D01*
X136793000Y-100859000D01*
X136793000Y-100879000D01*
X136539000Y-100879000D01*
X136539000Y-100859000D01*
X136519000Y-100859000D01*
X136519000Y-100605000D01*
X136539000Y-100605000D01*
X136539000Y-99478250D01*
X136543000Y-99474250D01*
X136543000Y-99205750D01*
X136793000Y-99205750D01*
X136793000Y-100605000D01*
X138042250Y-100605000D01*
X138201000Y-100446250D01*
X138204072Y-99682000D01*
X138191812Y-99557518D01*
X138155502Y-99437820D01*
X138096537Y-99327506D01*
X138017185Y-99230815D01*
X137920494Y-99151463D01*
X137870179Y-99124569D01*
X137870812Y-99122482D01*
X137883072Y-98998000D01*
X137880000Y-98583750D01*
X137721250Y-98425000D01*
X136797000Y-98425000D01*
X136797000Y-99201750D01*
X136793000Y-99205750D01*
X136543000Y-99205750D01*
X136543000Y-98425000D01*
X136523000Y-98425000D01*
X136523000Y-98171000D01*
X136543000Y-98171000D01*
X136543000Y-98151000D01*
X136797000Y-98151000D01*
X136797000Y-98171000D01*
X137721250Y-98171000D01*
X137880000Y-98012250D01*
X137882590Y-97663000D01*
X138823765Y-97663000D01*
X139008501Y-97847736D01*
G37*
X139008501Y-97847736D02*
X139036341Y-97881659D01*
X139171709Y-97992753D01*
X139326149Y-98075303D01*
X139442173Y-98110498D01*
X139493725Y-98126136D01*
X139510325Y-98127771D01*
X139624333Y-98139000D01*
X139624340Y-98139000D01*
X139668000Y-98143300D01*
X139711660Y-98139000D01*
X140361928Y-98139000D01*
X140361928Y-98325000D01*
X140374188Y-98449482D01*
X140410498Y-98569180D01*
X140469463Y-98679494D01*
X140548815Y-98776185D01*
X140645506Y-98855537D01*
X140755820Y-98914502D01*
X140875518Y-98950812D01*
X140914644Y-98954665D01*
X140915630Y-98964669D01*
X140923864Y-99048274D01*
X140974698Y-99215852D01*
X141057248Y-99370291D01*
X141139776Y-99470851D01*
X141168342Y-99505659D01*
X141202259Y-99533494D01*
X141605000Y-99936236D01*
X141605001Y-102501763D01*
X141363765Y-102743000D01*
X138204072Y-102743000D01*
X138204072Y-102582000D01*
X138191812Y-102457518D01*
X138155502Y-102337820D01*
X138096537Y-102227506D01*
X138059191Y-102182000D01*
X138096537Y-102136494D01*
X138155502Y-102026180D01*
X138191812Y-101906482D01*
X138204072Y-101782000D01*
X138201000Y-101017750D01*
X138042250Y-100859000D01*
X136793000Y-100859000D01*
X136793000Y-100879000D01*
X136539000Y-100879000D01*
X136539000Y-100859000D01*
X136519000Y-100859000D01*
X136519000Y-100605000D01*
X136539000Y-100605000D01*
X136539000Y-99478250D01*
X136543000Y-99474250D01*
X136543000Y-99205750D01*
X136793000Y-99205750D01*
X136793000Y-100605000D01*
X138042250Y-100605000D01*
X138201000Y-100446250D01*
X138204072Y-99682000D01*
X138191812Y-99557518D01*
X138155502Y-99437820D01*
X138096537Y-99327506D01*
X138017185Y-99230815D01*
X137920494Y-99151463D01*
X137870179Y-99124569D01*
X137870812Y-99122482D01*
X137883072Y-98998000D01*
X137880000Y-98583750D01*
X137721250Y-98425000D01*
X136797000Y-98425000D01*
X136797000Y-99201750D01*
X136793000Y-99205750D01*
X136543000Y-99205750D01*
X136543000Y-98425000D01*
X136523000Y-98425000D01*
X136523000Y-98171000D01*
X136543000Y-98171000D01*
X136543000Y-98151000D01*
X136797000Y-98151000D01*
X136797000Y-98171000D01*
X137721250Y-98171000D01*
X137880000Y-98012250D01*
X137882590Y-97663000D01*
X138823765Y-97663000D01*
X139008501Y-97847736D01*
G36*
X148450518Y-92425812D02*
G01*
X148575000Y-92438072D01*
X148861928Y-92438072D01*
X148861928Y-92725000D01*
X148874188Y-92849482D01*
X148874345Y-92850000D01*
X148874188Y-92850518D01*
X148861928Y-92975000D01*
X148861928Y-93525000D01*
X148874188Y-93649482D01*
X148874345Y-93650000D01*
X148874188Y-93650518D01*
X148861928Y-93775000D01*
X148861928Y-94325000D01*
X148874188Y-94449482D01*
X148874533Y-94450620D01*
X148865000Y-94564250D01*
X148957083Y-94656333D01*
X148969463Y-94679494D01*
X149048815Y-94776185D01*
X149138759Y-94850000D01*
X149048815Y-94923815D01*
X148969463Y-95020506D01*
X148957083Y-95043667D01*
X148865000Y-95135750D01*
X148874533Y-95249380D01*
X148874188Y-95250518D01*
X148861928Y-95375000D01*
X148861928Y-95925000D01*
X148874188Y-96049482D01*
X148874345Y-96050000D01*
X148874188Y-96050518D01*
X148861928Y-96175000D01*
X148861928Y-96725000D01*
X148874188Y-96849482D01*
X148874345Y-96850000D01*
X148874188Y-96850518D01*
X148861928Y-96975000D01*
X148861928Y-97109756D01*
X148839999Y-97100673D01*
X148640040Y-97060899D01*
X148436162Y-97060899D01*
X148236203Y-97100673D01*
X148047845Y-97178694D01*
X147878327Y-97291962D01*
X147734164Y-97436125D01*
X147620896Y-97605643D01*
X147542875Y-97794001D01*
X147503101Y-97993960D01*
X147503101Y-98061928D01*
X146975000Y-98061928D01*
X146850518Y-98074188D01*
X146850000Y-98074345D01*
X146849482Y-98074188D01*
X146725000Y-98061928D01*
X146175000Y-98061928D01*
X146050518Y-98074188D01*
X146050000Y-98074345D01*
X146049482Y-98074188D01*
X145925000Y-98061928D01*
X145375000Y-98061928D01*
X145250518Y-98074188D01*
X145250000Y-98074345D01*
X145249482Y-98074188D01*
X145125000Y-98061928D01*
X144575000Y-98061928D01*
X144450518Y-98074188D01*
X144450000Y-98074345D01*
X144449482Y-98074188D01*
X144325000Y-98061928D01*
X143775000Y-98061928D01*
X143650518Y-98074188D01*
X143650000Y-98074345D01*
X143649482Y-98074188D01*
X143525000Y-98061928D01*
X143238072Y-98061928D01*
X143238072Y-97809000D01*
X143357939Y-97809000D01*
X143557898Y-97769226D01*
X143746256Y-97691205D01*
X143915774Y-97577937D01*
X144059937Y-97433774D01*
X144173205Y-97264256D01*
X144251226Y-97075898D01*
X144291000Y-96875939D01*
X144291000Y-96672061D01*
X144251226Y-96472102D01*
X144173205Y-96283744D01*
X144059937Y-96114226D01*
X143915774Y-95970063D01*
X143746256Y-95856795D01*
X143557898Y-95778774D01*
X143357939Y-95739000D01*
X143352982Y-95739000D01*
X143314291Y-95707247D01*
X143159851Y-95624697D01*
X143037351Y-95587538D01*
X143051185Y-95576185D01*
X143130537Y-95479494D01*
X143142917Y-95456333D01*
X143235000Y-95364250D01*
X143225467Y-95250620D01*
X143225812Y-95249482D01*
X143238072Y-95125000D01*
X143238072Y-94575000D01*
X143225812Y-94450518D01*
X143225467Y-94449380D01*
X143235000Y-94335750D01*
X143142917Y-94243667D01*
X143130537Y-94220506D01*
X143051185Y-94123815D01*
X142961241Y-94050000D01*
X143051185Y-93976185D01*
X143130537Y-93879494D01*
X143142917Y-93856333D01*
X143235000Y-93764250D01*
X143225467Y-93650620D01*
X143225812Y-93649482D01*
X143238072Y-93525000D01*
X143238072Y-92975000D01*
X143225812Y-92850518D01*
X143225655Y-92850000D01*
X143225812Y-92849482D01*
X143238072Y-92725000D01*
X143238072Y-92438072D01*
X143525000Y-92438072D01*
X143649482Y-92425812D01*
X143650000Y-92425655D01*
X143650518Y-92425812D01*
X143775000Y-92438072D01*
X144325000Y-92438072D01*
X144449482Y-92425812D01*
X144450000Y-92425655D01*
X144450518Y-92425812D01*
X144575000Y-92438072D01*
X145125000Y-92438072D01*
X145249482Y-92425812D01*
X145250000Y-92425655D01*
X145250518Y-92425812D01*
X145375000Y-92438072D01*
X145925000Y-92438072D01*
X146049482Y-92425812D01*
X146050000Y-92425655D01*
X146050518Y-92425812D01*
X146175000Y-92438072D01*
X146725000Y-92438072D01*
X146849482Y-92425812D01*
X146850000Y-92425655D01*
X146850518Y-92425812D01*
X146975000Y-92438072D01*
X147525000Y-92438072D01*
X147649482Y-92425812D01*
X147650000Y-92425655D01*
X147650518Y-92425812D01*
X147775000Y-92438072D01*
X148325000Y-92438072D01*
X148449482Y-92425812D01*
X148450000Y-92425655D01*
X148450518Y-92425812D01*
G37*
X148450518Y-92425812D02*
X148575000Y-92438072D01*
X148861928Y-92438072D01*
X148861928Y-92725000D01*
X148874188Y-92849482D01*
X148874345Y-92850000D01*
X148874188Y-92850518D01*
X148861928Y-92975000D01*
X148861928Y-93525000D01*
X148874188Y-93649482D01*
X148874345Y-93650000D01*
X148874188Y-93650518D01*
X148861928Y-93775000D01*
X148861928Y-94325000D01*
X148874188Y-94449482D01*
X148874533Y-94450620D01*
X148865000Y-94564250D01*
X148957083Y-94656333D01*
X148969463Y-94679494D01*
X149048815Y-94776185D01*
X149138759Y-94850000D01*
X149048815Y-94923815D01*
X148969463Y-95020506D01*
X148957083Y-95043667D01*
X148865000Y-95135750D01*
X148874533Y-95249380D01*
X148874188Y-95250518D01*
X148861928Y-95375000D01*
X148861928Y-95925000D01*
X148874188Y-96049482D01*
X148874345Y-96050000D01*
X148874188Y-96050518D01*
X148861928Y-96175000D01*
X148861928Y-96725000D01*
X148874188Y-96849482D01*
X148874345Y-96850000D01*
X148874188Y-96850518D01*
X148861928Y-96975000D01*
X148861928Y-97109756D01*
X148839999Y-97100673D01*
X148640040Y-97060899D01*
X148436162Y-97060899D01*
X148236203Y-97100673D01*
X148047845Y-97178694D01*
X147878327Y-97291962D01*
X147734164Y-97436125D01*
X147620896Y-97605643D01*
X147542875Y-97794001D01*
X147503101Y-97993960D01*
X147503101Y-98061928D01*
X146975000Y-98061928D01*
X146850518Y-98074188D01*
X146850000Y-98074345D01*
X146849482Y-98074188D01*
X146725000Y-98061928D01*
X146175000Y-98061928D01*
X146050518Y-98074188D01*
X146050000Y-98074345D01*
X146049482Y-98074188D01*
X145925000Y-98061928D01*
X145375000Y-98061928D01*
X145250518Y-98074188D01*
X145250000Y-98074345D01*
X145249482Y-98074188D01*
X145125000Y-98061928D01*
X144575000Y-98061928D01*
X144450518Y-98074188D01*
X144450000Y-98074345D01*
X144449482Y-98074188D01*
X144325000Y-98061928D01*
X143775000Y-98061928D01*
X143650518Y-98074188D01*
X143650000Y-98074345D01*
X143649482Y-98074188D01*
X143525000Y-98061928D01*
X143238072Y-98061928D01*
X143238072Y-97809000D01*
X143357939Y-97809000D01*
X143557898Y-97769226D01*
X143746256Y-97691205D01*
X143915774Y-97577937D01*
X144059937Y-97433774D01*
X144173205Y-97264256D01*
X144251226Y-97075898D01*
X144291000Y-96875939D01*
X144291000Y-96672061D01*
X144251226Y-96472102D01*
X144173205Y-96283744D01*
X144059937Y-96114226D01*
X143915774Y-95970063D01*
X143746256Y-95856795D01*
X143557898Y-95778774D01*
X143357939Y-95739000D01*
X143352982Y-95739000D01*
X143314291Y-95707247D01*
X143159851Y-95624697D01*
X143037351Y-95587538D01*
X143051185Y-95576185D01*
X143130537Y-95479494D01*
X143142917Y-95456333D01*
X143235000Y-95364250D01*
X143225467Y-95250620D01*
X143225812Y-95249482D01*
X143238072Y-95125000D01*
X143238072Y-94575000D01*
X143225812Y-94450518D01*
X143225467Y-94449380D01*
X143235000Y-94335750D01*
X143142917Y-94243667D01*
X143130537Y-94220506D01*
X143051185Y-94123815D01*
X142961241Y-94050000D01*
X143051185Y-93976185D01*
X143130537Y-93879494D01*
X143142917Y-93856333D01*
X143235000Y-93764250D01*
X143225467Y-93650620D01*
X143225812Y-93649482D01*
X143238072Y-93525000D01*
X143238072Y-92975000D01*
X143225812Y-92850518D01*
X143225655Y-92850000D01*
X143225812Y-92849482D01*
X143238072Y-92725000D01*
X143238072Y-92438072D01*
X143525000Y-92438072D01*
X143649482Y-92425812D01*
X143650000Y-92425655D01*
X143650518Y-92425812D01*
X143775000Y-92438072D01*
X144325000Y-92438072D01*
X144449482Y-92425812D01*
X144450000Y-92425655D01*
X144450518Y-92425812D01*
X144575000Y-92438072D01*
X145125000Y-92438072D01*
X145249482Y-92425812D01*
X145250000Y-92425655D01*
X145250518Y-92425812D01*
X145375000Y-92438072D01*
X145925000Y-92438072D01*
X146049482Y-92425812D01*
X146050000Y-92425655D01*
X146050518Y-92425812D01*
X146175000Y-92438072D01*
X146725000Y-92438072D01*
X146849482Y-92425812D01*
X146850000Y-92425655D01*
X146850518Y-92425812D01*
X146975000Y-92438072D01*
X147525000Y-92438072D01*
X147649482Y-92425812D01*
X147650000Y-92425655D01*
X147650518Y-92425812D01*
X147775000Y-92438072D01*
X148325000Y-92438072D01*
X148449482Y-92425812D01*
X148450000Y-92425655D01*
X148450518Y-92425812D01*
G36*
X155516072Y-95448693D02*
G01*
X155516072Y-95432999D01*
X155499008Y-95259745D01*
X155448472Y-95093149D01*
X155366405Y-94939613D01*
X155255962Y-94805038D01*
X155249406Y-94799658D01*
X155329185Y-94734185D01*
X155408537Y-94637494D01*
X155467502Y-94527180D01*
X155503812Y-94407482D01*
X155516072Y-94283000D01*
X155513000Y-93993750D01*
X155354250Y-93835000D01*
X154305000Y-93835000D01*
X154305000Y-93855000D01*
X154051000Y-93855000D01*
X154051000Y-93835000D01*
X154031000Y-93835000D01*
X154031000Y-93581000D01*
X154051000Y-93581000D01*
X154051000Y-93561000D01*
X154305000Y-93561000D01*
X154305000Y-93581000D01*
X155354250Y-93581000D01*
X155513000Y-93422250D01*
X155513820Y-93345000D01*
X157619765Y-93345000D01*
X155516072Y-95448693D01*
G37*
X155516072Y-95448693D02*
X155516072Y-95432999D01*
X155499008Y-95259745D01*
X155448472Y-95093149D01*
X155366405Y-94939613D01*
X155255962Y-94805038D01*
X155249406Y-94799658D01*
X155329185Y-94734185D01*
X155408537Y-94637494D01*
X155467502Y-94527180D01*
X155503812Y-94407482D01*
X155516072Y-94283000D01*
X155513000Y-93993750D01*
X155354250Y-93835000D01*
X154305000Y-93835000D01*
X154305000Y-93855000D01*
X154051000Y-93855000D01*
X154051000Y-93835000D01*
X154031000Y-93835000D01*
X154031000Y-93581000D01*
X154051000Y-93581000D01*
X154051000Y-93561000D01*
X154305000Y-93561000D01*
X154305000Y-93581000D01*
X155354250Y-93581000D01*
X155513000Y-93422250D01*
X155513820Y-93345000D01*
X157619765Y-93345000D01*
X155516072Y-95448693D01*
%TD*%
M02*
