%TF.GenerationSoftware,KiCad,Pcbnew,(5.1.6)-1*%
%TF.CreationDate,2021-04-07T17:49:54+02:00*%
%TF.ProjectId,atmega_isp,61746d65-6761-45f6-9973-702e6b696361,rev?*%
%TF.SameCoordinates,Original*%
%TF.FileFunction,Soldermask,Bot*%
%TF.FilePolarity,Negative*%
%FSLAX46Y46*%
G04 Gerber Fmt 4.6, Leading zero omitted, Abs format (unit mm)*
G04 Created by KiCad (PCBNEW (5.1.6)-1) date 2021-04-07 17:49:54*
%MOMM*%
%LPD*%
G01*
G04 APERTURE LIST*
%ADD10C,8.700000*%
%ADD11C,1.000000*%
%ADD12R,2.700000X2.700000*%
%ADD13C,2.700000*%
%ADD14R,1.800000X1.800000*%
%ADD15O,1.800000X1.800000*%
G04 APERTURE END LIST*
D10*
%TO.C,H4*%
X168910000Y-134620000D03*
D11*
X172135000Y-134620000D03*
X171190419Y-136900419D03*
X168910000Y-137845000D03*
X166629581Y-136900419D03*
X165685000Y-134620000D03*
X166629581Y-132339581D03*
X168910000Y-131395000D03*
X171190419Y-132339581D03*
%TD*%
%TO.C,H1*%
X171190419Y-75189581D03*
X168910000Y-74245000D03*
X166629581Y-75189581D03*
X165685000Y-77470000D03*
X166629581Y-79750419D03*
X168910000Y-80695000D03*
X171190419Y-79750419D03*
X172135000Y-77470000D03*
D10*
X168910000Y-77470000D03*
%TD*%
%TO.C,H2*%
X123190000Y-134620000D03*
D11*
X126415000Y-134620000D03*
X125470419Y-136900419D03*
X123190000Y-137845000D03*
X120909581Y-136900419D03*
X119965000Y-134620000D03*
X120909581Y-132339581D03*
X123190000Y-131395000D03*
X125470419Y-132339581D03*
%TD*%
%TO.C,H3*%
X125470419Y-75189581D03*
X123190000Y-74245000D03*
X120909581Y-75189581D03*
X119965000Y-77470000D03*
X120909581Y-79750419D03*
X123190000Y-80695000D03*
X125470419Y-79750419D03*
X126415000Y-77470000D03*
D10*
X123190000Y-77470000D03*
%TD*%
D12*
%TO.C,J1*%
X143510000Y-134620000D03*
D13*
X148590000Y-134620000D03*
%TD*%
D14*
%TO.C,J2*%
X171450000Y-105410000D03*
D15*
X171450000Y-102870000D03*
X171450000Y-100330000D03*
X171450000Y-97790000D03*
X171450000Y-95250000D03*
X171450000Y-92710000D03*
X171450000Y-90170000D03*
X171450000Y-87630000D03*
%TD*%
D14*
%TO.C,J4*%
X148590000Y-82550000D03*
D15*
X151130000Y-82550000D03*
%TD*%
%TO.C,J5*%
X132080000Y-119380000D03*
D14*
X129540000Y-119380000D03*
%TD*%
D15*
%TO.C,J6*%
X120650000Y-105410000D03*
X120650000Y-102870000D03*
X120650000Y-100330000D03*
X120650000Y-97790000D03*
X120650000Y-95250000D03*
X120650000Y-92710000D03*
X120650000Y-90170000D03*
D14*
X120650000Y-87630000D03*
%TD*%
%TO.C,J7*%
X120650000Y-111760000D03*
D15*
X120650000Y-114300000D03*
X120650000Y-116840000D03*
X120650000Y-119380000D03*
X120650000Y-121920000D03*
X120650000Y-124460000D03*
%TD*%
D14*
%TO.C,J8*%
X171450000Y-124460000D03*
D15*
X171450000Y-121920000D03*
X171450000Y-119380000D03*
X171450000Y-116840000D03*
X171450000Y-114300000D03*
X171450000Y-111760000D03*
%TD*%
D14*
%TO.C,J9*%
X158750000Y-74930000D03*
D15*
X158750000Y-77470000D03*
X156210000Y-74930000D03*
X156210000Y-77470000D03*
X153670000Y-74930000D03*
X153670000Y-77470000D03*
X151130000Y-74930000D03*
X151130000Y-77470000D03*
%TD*%
D14*
%TO.C,J3*%
X143510000Y-77470000D03*
D15*
X143510000Y-74930000D03*
X140970000Y-77470000D03*
X140970000Y-74930000D03*
X138430000Y-77470000D03*
X138430000Y-74930000D03*
X135890000Y-77470000D03*
X135890000Y-74930000D03*
X133350000Y-77470000D03*
X133350000Y-74930000D03*
%TD*%
M02*
