%TF.GenerationSoftware,KiCad,Pcbnew,(5.1.6)-1*%
%TF.CreationDate,2021-04-07T17:49:54+02:00*%
%TF.ProjectId,atmega_isp,61746d65-6761-45f6-9973-702e6b696361,rev?*%
%TF.SameCoordinates,Original*%
%TF.FileFunction,Copper,L2,Bot*%
%TF.FilePolarity,Positive*%
%FSLAX46Y46*%
G04 Gerber Fmt 4.6, Leading zero omitted, Abs format (unit mm)*
G04 Created by KiCad (PCBNEW (5.1.6)-1) date 2021-04-07 17:49:54*
%MOMM*%
%LPD*%
G01*
G04 APERTURE LIST*
%TA.AperFunction,ComponentPad*%
%ADD10C,8.600000*%
%TD*%
%TA.AperFunction,ComponentPad*%
%ADD11C,0.900000*%
%TD*%
%TA.AperFunction,ComponentPad*%
%ADD12R,2.600000X2.600000*%
%TD*%
%TA.AperFunction,ComponentPad*%
%ADD13C,2.600000*%
%TD*%
%TA.AperFunction,ComponentPad*%
%ADD14R,1.700000X1.700000*%
%TD*%
%TA.AperFunction,ComponentPad*%
%ADD15O,1.700000X1.700000*%
%TD*%
%TA.AperFunction,ViaPad*%
%ADD16C,0.800000*%
%TD*%
%TA.AperFunction,Conductor*%
%ADD17C,0.508000*%
%TD*%
%TA.AperFunction,Conductor*%
%ADD18C,0.254000*%
%TD*%
G04 APERTURE END LIST*
D10*
%TO.P,H4,1*%
%TO.N,GND*%
X168910000Y-134620000D03*
D11*
X172135000Y-134620000D03*
X171190419Y-136900419D03*
X168910000Y-137845000D03*
X166629581Y-136900419D03*
X165685000Y-134620000D03*
X166629581Y-132339581D03*
X168910000Y-131395000D03*
X171190419Y-132339581D03*
%TD*%
%TO.P,H1,1*%
%TO.N,GND*%
X171190419Y-75189581D03*
X168910000Y-74245000D03*
X166629581Y-75189581D03*
X165685000Y-77470000D03*
X166629581Y-79750419D03*
X168910000Y-80695000D03*
X171190419Y-79750419D03*
X172135000Y-77470000D03*
D10*
X168910000Y-77470000D03*
%TD*%
%TO.P,H2,1*%
%TO.N,GND*%
X123190000Y-134620000D03*
D11*
X126415000Y-134620000D03*
X125470419Y-136900419D03*
X123190000Y-137845000D03*
X120909581Y-136900419D03*
X119965000Y-134620000D03*
X120909581Y-132339581D03*
X123190000Y-131395000D03*
X125470419Y-132339581D03*
%TD*%
%TO.P,H3,1*%
%TO.N,GND*%
X125470419Y-75189581D03*
X123190000Y-74245000D03*
X120909581Y-75189581D03*
X119965000Y-77470000D03*
X120909581Y-79750419D03*
X123190000Y-80695000D03*
X125470419Y-79750419D03*
X126415000Y-77470000D03*
D10*
X123190000Y-77470000D03*
%TD*%
D12*
%TO.P,J1,1*%
%TO.N,GND*%
X143510000Y-134620000D03*
D13*
%TO.P,J1,2*%
%TO.N,+5V*%
X148590000Y-134620000D03*
%TD*%
D14*
%TO.P,J2,1*%
%TO.N,PC0*%
X171450000Y-105410000D03*
D15*
%TO.P,J2,2*%
%TO.N,PC1*%
X171450000Y-102870000D03*
%TO.P,J2,3*%
%TO.N,PC2*%
X171450000Y-100330000D03*
%TO.P,J2,4*%
%TO.N,PC3*%
X171450000Y-97790000D03*
%TO.P,J2,5*%
%TO.N,PC4*%
X171450000Y-95250000D03*
%TO.P,J2,6*%
%TO.N,PC5*%
X171450000Y-92710000D03*
%TO.P,J2,7*%
%TO.N,ADC6*%
X171450000Y-90170000D03*
%TO.P,J2,8*%
%TO.N,ADC7*%
X171450000Y-87630000D03*
%TD*%
D14*
%TO.P,J4,1*%
%TO.N,Net-(J3-Pad2)*%
X148590000Y-82550000D03*
D15*
%TO.P,J4,2*%
%TO.N,+5V*%
X151130000Y-82550000D03*
%TD*%
%TO.P,J5,2*%
%TO.N,+5V*%
X132080000Y-119380000D03*
D14*
%TO.P,J5,1*%
%TO.N,Net-(J5-Pad1)*%
X129540000Y-119380000D03*
%TD*%
D15*
%TO.P,J6,8*%
%TO.N,PD7*%
X120650000Y-105410000D03*
%TO.P,J6,7*%
%TO.N,PD6*%
X120650000Y-102870000D03*
%TO.P,J6,6*%
%TO.N,PD5*%
X120650000Y-100330000D03*
%TO.P,J6,5*%
%TO.N,PD4*%
X120650000Y-97790000D03*
%TO.P,J6,4*%
%TO.N,PD3*%
X120650000Y-95250000D03*
%TO.P,J6,3*%
%TO.N,PD2*%
X120650000Y-92710000D03*
%TO.P,J6,2*%
%TO.N,PD1*%
X120650000Y-90170000D03*
D14*
%TO.P,J6,1*%
%TO.N,PD0*%
X120650000Y-87630000D03*
%TD*%
%TO.P,J7,1*%
%TO.N,Net-(J7-Pad1)*%
X120650000Y-111760000D03*
D15*
%TO.P,J7,2*%
%TO.N,PD0*%
X120650000Y-114300000D03*
%TO.P,J7,3*%
%TO.N,PD1*%
X120650000Y-116840000D03*
%TO.P,J7,4*%
%TO.N,Net-(J5-Pad1)*%
X120650000Y-119380000D03*
%TO.P,J7,5*%
%TO.N,Net-(J7-Pad5)*%
X120650000Y-121920000D03*
%TO.P,J7,6*%
%TO.N,GND*%
X120650000Y-124460000D03*
%TD*%
D14*
%TO.P,J8,1*%
%TO.N,PB0*%
X171450000Y-124460000D03*
D15*
%TO.P,J8,2*%
%TO.N,PB1*%
X171450000Y-121920000D03*
%TO.P,J8,3*%
%TO.N,PB2*%
X171450000Y-119380000D03*
%TO.P,J8,4*%
%TO.N,PB3*%
X171450000Y-116840000D03*
%TO.P,J8,5*%
%TO.N,PB4*%
X171450000Y-114300000D03*
%TO.P,J8,6*%
%TO.N,PB5*%
X171450000Y-111760000D03*
%TD*%
D14*
%TO.P,J9,1*%
%TO.N,GND*%
X158750000Y-74930000D03*
D15*
%TO.P,J9,2*%
%TO.N,+5V*%
X158750000Y-77470000D03*
%TO.P,J9,3*%
%TO.N,GND*%
X156210000Y-74930000D03*
%TO.P,J9,4*%
%TO.N,+5V*%
X156210000Y-77470000D03*
%TO.P,J9,5*%
%TO.N,GND*%
X153670000Y-74930000D03*
%TO.P,J9,6*%
%TO.N,+5V*%
X153670000Y-77470000D03*
%TO.P,J9,7*%
%TO.N,GND*%
X151130000Y-74930000D03*
%TO.P,J9,8*%
%TO.N,+5VA*%
X151130000Y-77470000D03*
%TD*%
D14*
%TO.P,J3,1*%
%TO.N,PB3*%
X143510000Y-77470000D03*
D15*
%TO.P,J3,2*%
%TO.N,Net-(J3-Pad2)*%
X143510000Y-74930000D03*
%TO.P,J3,3*%
%TO.N,Net-(J3-Pad3)*%
X140970000Y-77470000D03*
%TO.P,J3,4*%
%TO.N,GND*%
X140970000Y-74930000D03*
%TO.P,J3,5*%
%TO.N,~RST*%
X138430000Y-77470000D03*
%TO.P,J3,6*%
%TO.N,GND*%
X138430000Y-74930000D03*
%TO.P,J3,7*%
%TO.N,PB5*%
X135890000Y-77470000D03*
%TO.P,J3,8*%
%TO.N,GND*%
X135890000Y-74930000D03*
%TO.P,J3,9*%
%TO.N,PB4*%
X133350000Y-77470000D03*
%TO.P,J3,10*%
%TO.N,GND*%
X133350000Y-74930000D03*
%TD*%
D16*
%TO.N,+5V*%
X157988000Y-98806000D03*
X149860000Y-127000000D03*
X153670000Y-134620000D03*
X147320000Y-107950000D03*
X143256000Y-96774000D03*
%TO.N,GND*%
X170180000Y-129540000D03*
X167640000Y-129540000D03*
X134366000Y-103632000D03*
X136652000Y-100584000D03*
X143510000Y-93980000D03*
X143510000Y-93980000D03*
X154178000Y-93708000D03*
X129540000Y-73660000D03*
X129540000Y-76200000D03*
X129540000Y-78740000D03*
X129540000Y-81280000D03*
X129540000Y-83820000D03*
X129540000Y-86360000D03*
X127000000Y-86360000D03*
X124460000Y-86360000D03*
X124460000Y-83820000D03*
X127000000Y-83820000D03*
X127000000Y-81280000D03*
X132080000Y-81280000D03*
X132080000Y-83820000D03*
X132080000Y-86360000D03*
X134620000Y-86360000D03*
X139700000Y-81280000D03*
X142240000Y-81280000D03*
X144780000Y-81280000D03*
X147320000Y-73660000D03*
X162560000Y-73660000D03*
X162560000Y-76200000D03*
X162560000Y-78740000D03*
X162560000Y-81280000D03*
X162560000Y-83820000D03*
X162560000Y-86360000D03*
X165100000Y-86360000D03*
X165100000Y-83820000D03*
X165100000Y-81280000D03*
X167640000Y-83820000D03*
X167640000Y-86360000D03*
X170180000Y-83820000D03*
X172720000Y-83820000D03*
X172720000Y-81280000D03*
X152400000Y-86360000D03*
X162560000Y-96520000D03*
X165100000Y-96520000D03*
X165100000Y-99060000D03*
X162560000Y-99060000D03*
X162560000Y-101600000D03*
X165100000Y-101600000D03*
X167640000Y-101600000D03*
X167640000Y-104140000D03*
X167640000Y-106680000D03*
X167640000Y-109220000D03*
X165100000Y-109220000D03*
X162560000Y-109220000D03*
X162560000Y-106680000D03*
X165100000Y-106680000D03*
X165100000Y-104140000D03*
X162560000Y-104140000D03*
X162560000Y-116840000D03*
X162560000Y-119380000D03*
X162560000Y-121920000D03*
X165100000Y-121920000D03*
X165100000Y-119380000D03*
X165100000Y-116840000D03*
X167640000Y-121920000D03*
X167640000Y-124460000D03*
X165100000Y-124460000D03*
X162560000Y-124460000D03*
X160020000Y-124460000D03*
X157480000Y-124460000D03*
X154940000Y-124460000D03*
X152400000Y-124460000D03*
X152400000Y-127000000D03*
X154940000Y-127000000D03*
X154940000Y-129540000D03*
X157480000Y-129540000D03*
X157480000Y-127000000D03*
X152400000Y-129540000D03*
X152400000Y-132080000D03*
X154940000Y-132080000D03*
X157480000Y-132080000D03*
X160020000Y-132080000D03*
X162560000Y-132080000D03*
X162560000Y-129540000D03*
X160020000Y-129540000D03*
X160020000Y-127000000D03*
X162560000Y-127000000D03*
X165100000Y-127000000D03*
X167640000Y-127000000D03*
X170180000Y-127000000D03*
X172720000Y-127000000D03*
X172720000Y-129540000D03*
X162560000Y-134620000D03*
X162560000Y-137160000D03*
X160020000Y-137160000D03*
X160020000Y-134620000D03*
X157480000Y-134620000D03*
X157480000Y-137160000D03*
X154940000Y-137160000D03*
X152400000Y-137160000D03*
X144780000Y-137160000D03*
X142240000Y-137160000D03*
X139700000Y-137160000D03*
X137160000Y-137160000D03*
X134620000Y-137160000D03*
X129540000Y-137160000D03*
X132080000Y-137160000D03*
X129540000Y-134620000D03*
X132080000Y-134620000D03*
X134620000Y-134620000D03*
X137160000Y-134620000D03*
X139700000Y-134620000D03*
X139700000Y-132080000D03*
X142240000Y-132080000D03*
X144780000Y-132080000D03*
X144780000Y-129540000D03*
X142240000Y-129540000D03*
X139700000Y-129540000D03*
X137160000Y-132080000D03*
X137160000Y-129540000D03*
X134620000Y-129540000D03*
X134620000Y-132080000D03*
X132080000Y-132080000D03*
X132080000Y-129540000D03*
X129540000Y-129540000D03*
X129540000Y-132080000D03*
X127000000Y-129540000D03*
X127000000Y-127000000D03*
X124460000Y-127000000D03*
X129540000Y-127000000D03*
X132080000Y-127000000D03*
X134620000Y-127000000D03*
X137160000Y-127000000D03*
X139700000Y-127000000D03*
X139700000Y-124460000D03*
X142240000Y-124460000D03*
X144780000Y-124460000D03*
X134620000Y-124460000D03*
X137160000Y-124460000D03*
X132080000Y-124460000D03*
X129540000Y-124460000D03*
X127000000Y-124460000D03*
X124460000Y-124460000D03*
X129540000Y-121920000D03*
X127000000Y-121920000D03*
X124460000Y-121920000D03*
X124460000Y-116840000D03*
X127000000Y-116840000D03*
X129540000Y-116840000D03*
X129540000Y-114300000D03*
X127000000Y-114300000D03*
X124460000Y-114300000D03*
X124460000Y-111760000D03*
X127000000Y-111760000D03*
X129540000Y-111760000D03*
X132080000Y-111760000D03*
X134620000Y-111760000D03*
X134620000Y-114300000D03*
X132080000Y-114300000D03*
X144780000Y-114300000D03*
X152400000Y-114300000D03*
X152400000Y-104140000D03*
X124460000Y-109220000D03*
X124460000Y-101600000D03*
X124460000Y-99060000D03*
X124460000Y-96520000D03*
X124460000Y-93980000D03*
X127000000Y-93980000D03*
X127000000Y-96520000D03*
X127000000Y-99060000D03*
X127000000Y-101600000D03*
X127000000Y-104140000D03*
X129540000Y-104140000D03*
X129540000Y-106680000D03*
X132080000Y-106680000D03*
X129540000Y-101600000D03*
X129540000Y-99060000D03*
X129540000Y-96520000D03*
X129540000Y-93980000D03*
X132080000Y-93980000D03*
X132080000Y-96520000D03*
X132080000Y-99060000D03*
X132080000Y-101600000D03*
X132080000Y-104140000D03*
X134620000Y-93980000D03*
X139700000Y-101600000D03*
X139700000Y-99060000D03*
X147320000Y-93980000D03*
X147320000Y-96520000D03*
X121920000Y-83820000D03*
X119380000Y-83820000D03*
X119380000Y-81280000D03*
X127000000Y-73660000D03*
X121920000Y-127000000D03*
X119380000Y-127000000D03*
X119380000Y-129540000D03*
X124460000Y-129540000D03*
X121920000Y-129540000D03*
X165100000Y-129540000D03*
%TO.N,+5VA*%
X154178292Y-97882000D03*
%TO.N,~RST*%
X144780000Y-87884000D03*
X142075000Y-110780000D03*
%TO.N,ADC6*%
X163068000Y-93472000D03*
%TO.N,ADC7*%
X163068000Y-92456000D03*
%TO.N,PB3*%
X148590000Y-103124000D03*
%TO.N,PB5*%
X150300000Y-98992000D03*
%TO.N,PB4*%
X148538101Y-98095899D03*
%TD*%
D17*
%TO.N,+5V*%
X153670000Y-134620000D02*
X150876000Y-134620000D01*
X143256000Y-97282000D02*
X143256000Y-96774000D01*
X144018000Y-107950000D02*
X142783010Y-106715010D01*
X147320000Y-107950000D02*
X144018000Y-107950000D01*
X142783010Y-106715010D02*
X142783010Y-97754990D01*
X142783010Y-97754990D02*
X143256000Y-97282000D01*
X147320000Y-107950000D02*
X147320000Y-117602000D01*
%TO.N,GND*%
X143510000Y-93980000D02*
X144526000Y-93980000D01*
%TO.N,+5VA*%
X151130000Y-79502000D02*
X151130000Y-77470000D01*
X150114000Y-80518000D02*
X151130000Y-79502000D01*
X147066000Y-80518000D02*
X150114000Y-80518000D01*
X146304000Y-83312000D02*
X146304000Y-81280000D01*
X146304000Y-81280000D02*
X147066000Y-80518000D01*
X154178292Y-97882000D02*
X151130000Y-94833708D01*
X148629267Y-84127990D02*
X147119990Y-84127990D01*
X151130000Y-94833708D02*
X151130000Y-86628723D01*
X151130000Y-86628723D02*
X148629267Y-84127990D01*
X147119990Y-84127990D02*
X146304000Y-83312000D01*
%TO.N,~RST*%
X144780000Y-87884000D02*
X142075000Y-90589000D01*
X142075000Y-90589000D02*
X142075000Y-110780000D01*
%TO.N,ADC6*%
X169911276Y-90170000D02*
X171450000Y-90170000D01*
X169672000Y-90424000D02*
X169672000Y-90409276D01*
X169672000Y-90409276D02*
X169911276Y-90170000D01*
X163068000Y-93472000D02*
X166624000Y-93472000D01*
X166624000Y-93472000D02*
X169672000Y-90424000D01*
%TO.N,ADC7*%
X166624000Y-92456000D02*
X171450000Y-87630000D01*
X163068000Y-92456000D02*
X166624000Y-92456000D01*
%TO.N,PB3*%
X150421990Y-86921990D02*
X148336000Y-84836000D01*
X143002000Y-79756000D02*
X143510000Y-79248000D01*
X150421990Y-95126975D02*
X150421990Y-86921990D01*
X143510000Y-79248000D02*
X143510000Y-77470000D01*
X151154001Y-95858985D02*
X150421990Y-95126975D01*
X151154001Y-100559999D02*
X151154001Y-95858985D01*
X148336000Y-84836000D02*
X138068020Y-84836000D01*
X138068020Y-84836000D02*
X136598010Y-83365990D01*
X148590000Y-103124000D02*
X151154001Y-100559999D01*
X136598010Y-83365990D02*
X136598010Y-80317990D01*
X136598010Y-80317990D02*
X137160000Y-79756000D01*
X137160000Y-79756000D02*
X143002000Y-79756000D01*
%TO.N,PB5*%
X150300000Y-96006263D02*
X150300000Y-98992000D01*
X135890000Y-83659257D02*
X137774753Y-85544010D01*
X137774753Y-85544010D02*
X148042734Y-85544010D01*
X149713981Y-95420244D02*
X150300000Y-96006263D01*
X148042734Y-85544010D02*
X149713980Y-87215256D01*
X135890000Y-77470000D02*
X135890000Y-83659257D01*
X149713980Y-87215256D02*
X149713981Y-95420244D01*
%TO.N,Net-(J5-Pad1)*%
X120650000Y-119380000D02*
X129540000Y-119380000D01*
%TO.N,PD1*%
X119345999Y-91474001D02*
X120650000Y-90170000D01*
X119345999Y-115535999D02*
X119345999Y-91474001D01*
X120650000Y-116840000D02*
X119345999Y-115535999D01*
%TO.N,PB4*%
X133350000Y-77470000D02*
X135181990Y-79301990D01*
X135181990Y-83952524D02*
X135596734Y-84367267D01*
X135181990Y-79301990D02*
X135181990Y-83952524D01*
X135596734Y-84367267D02*
X137481486Y-86252020D01*
X137481486Y-86252020D02*
X147749468Y-86252020D01*
X147749468Y-86252020D02*
X149005972Y-87508524D01*
X149005972Y-97628028D02*
X148538101Y-98095899D01*
X149005972Y-87508524D02*
X149005972Y-97628028D01*
%TD*%
D18*
%TO.N,+5V*%
G36*
X153797000Y-77343000D02*
G01*
X156083000Y-77343000D01*
X156083000Y-77323000D01*
X156337000Y-77323000D01*
X156337000Y-77343000D01*
X158623000Y-77343000D01*
X158623000Y-77323000D01*
X158877000Y-77323000D01*
X158877000Y-77343000D01*
X158897000Y-77343000D01*
X158897000Y-77597000D01*
X158877000Y-77597000D01*
X158877000Y-78790155D01*
X159106890Y-78911476D01*
X159254099Y-78866825D01*
X159516920Y-78741641D01*
X159750269Y-78567588D01*
X159893000Y-78409242D01*
X159893000Y-120913766D01*
X159875624Y-121090189D01*
X159825978Y-121253850D01*
X159745362Y-121404672D01*
X159636870Y-121536870D01*
X159504672Y-121645362D01*
X159353850Y-121725978D01*
X159190189Y-121775624D01*
X159013766Y-121793000D01*
X152130000Y-121793000D01*
X152117552Y-121793612D01*
X151922462Y-121812827D01*
X151898044Y-121817683D01*
X151710451Y-121874588D01*
X151687450Y-121884116D01*
X151514563Y-121976526D01*
X151493862Y-121990358D01*
X151342325Y-122114721D01*
X151324721Y-122132325D01*
X151200358Y-122283862D01*
X151186526Y-122304563D01*
X151094116Y-122477450D01*
X151084588Y-122500451D01*
X151027683Y-122688044D01*
X151022827Y-122712462D01*
X151003612Y-122907552D01*
X151003000Y-122920000D01*
X151003000Y-137423766D01*
X150985624Y-137600189D01*
X150935978Y-137763850D01*
X150855362Y-137914672D01*
X150746870Y-138046870D01*
X150614672Y-138155362D01*
X150463850Y-138235978D01*
X150300189Y-138285624D01*
X150123766Y-138303000D01*
X147056234Y-138303000D01*
X146879811Y-138285624D01*
X146716150Y-138235978D01*
X146565328Y-138155362D01*
X146433130Y-138046870D01*
X146324638Y-137914672D01*
X146244022Y-137763850D01*
X146194376Y-137600189D01*
X146177000Y-137423766D01*
X146177000Y-135969224D01*
X147420381Y-135969224D01*
X147552317Y-136264312D01*
X147893045Y-136435159D01*
X148260557Y-136536250D01*
X148640729Y-136563701D01*
X149018951Y-136516457D01*
X149380690Y-136396333D01*
X149627683Y-136264312D01*
X149759619Y-135969224D01*
X148590000Y-134799605D01*
X147420381Y-135969224D01*
X146177000Y-135969224D01*
X146177000Y-134670729D01*
X146646299Y-134670729D01*
X146693543Y-135048951D01*
X146813667Y-135410690D01*
X146945688Y-135657683D01*
X147240776Y-135789619D01*
X148410395Y-134620000D01*
X148769605Y-134620000D01*
X149939224Y-135789619D01*
X150234312Y-135657683D01*
X150405159Y-135316955D01*
X150506250Y-134949443D01*
X150533701Y-134569271D01*
X150486457Y-134191049D01*
X150366333Y-133829310D01*
X150234312Y-133582317D01*
X149939224Y-133450381D01*
X148769605Y-134620000D01*
X148410395Y-134620000D01*
X147240776Y-133450381D01*
X146945688Y-133582317D01*
X146774841Y-133923045D01*
X146673750Y-134290557D01*
X146646299Y-134670729D01*
X146177000Y-134670729D01*
X146177000Y-133270776D01*
X147420381Y-133270776D01*
X148590000Y-134440395D01*
X149759619Y-133270776D01*
X149627683Y-132975688D01*
X149286955Y-132804841D01*
X148919443Y-132703750D01*
X148539271Y-132676299D01*
X148161049Y-132723543D01*
X147799310Y-132843667D01*
X147552317Y-132975688D01*
X147420381Y-133270776D01*
X146177000Y-133270776D01*
X146177000Y-122920000D01*
X146176388Y-122907552D01*
X146157173Y-122712462D01*
X146152317Y-122688044D01*
X146095412Y-122500451D01*
X146085884Y-122477450D01*
X145993474Y-122304563D01*
X145979642Y-122283862D01*
X145855279Y-122132325D01*
X145837675Y-122114721D01*
X145686138Y-121990358D01*
X145665437Y-121976526D01*
X145492550Y-121884116D01*
X145469549Y-121874588D01*
X145281956Y-121817683D01*
X145257538Y-121812827D01*
X145062448Y-121793612D01*
X145050000Y-121793000D01*
X131816234Y-121793000D01*
X131639811Y-121775624D01*
X131476150Y-121725978D01*
X131325328Y-121645362D01*
X131193130Y-121536870D01*
X131084638Y-121404672D01*
X131004022Y-121253850D01*
X130954376Y-121090189D01*
X130937000Y-120913766D01*
X130937000Y-120553694D01*
X130979502Y-120474180D01*
X131003966Y-120393534D01*
X131079731Y-120477588D01*
X131313080Y-120651641D01*
X131575901Y-120776825D01*
X131723110Y-120821476D01*
X131953000Y-120700155D01*
X131953000Y-119507000D01*
X132207000Y-119507000D01*
X132207000Y-120700155D01*
X132436890Y-120821476D01*
X132584099Y-120776825D01*
X132846920Y-120651641D01*
X133080269Y-120477588D01*
X133275178Y-120261355D01*
X133424157Y-120011252D01*
X133521481Y-119736891D01*
X133400814Y-119507000D01*
X132207000Y-119507000D01*
X131953000Y-119507000D01*
X131933000Y-119507000D01*
X131933000Y-119253000D01*
X131953000Y-119253000D01*
X131953000Y-118059845D01*
X132207000Y-118059845D01*
X132207000Y-119253000D01*
X133400814Y-119253000D01*
X133521481Y-119023109D01*
X133424157Y-118748748D01*
X133275178Y-118498645D01*
X133080269Y-118282412D01*
X132846920Y-118108359D01*
X132584099Y-117983175D01*
X132436890Y-117938524D01*
X132207000Y-118059845D01*
X131953000Y-118059845D01*
X131723110Y-117938524D01*
X131575901Y-117983175D01*
X131313080Y-118108359D01*
X131079731Y-118282412D01*
X131003966Y-118366466D01*
X130979502Y-118285820D01*
X130937000Y-118206306D01*
X130937000Y-117846234D01*
X130954376Y-117669811D01*
X131004022Y-117506150D01*
X131084638Y-117355328D01*
X131193130Y-117223130D01*
X131325328Y-117114638D01*
X131476150Y-117034022D01*
X131639811Y-116984376D01*
X131816234Y-116967000D01*
X153940000Y-116967000D01*
X153952448Y-116966388D01*
X154147538Y-116947173D01*
X154171956Y-116942317D01*
X154359549Y-116885412D01*
X154382550Y-116875884D01*
X154555437Y-116783474D01*
X154576138Y-116769642D01*
X154727675Y-116645279D01*
X154745279Y-116627675D01*
X154869642Y-116476138D01*
X154883474Y-116455437D01*
X154975884Y-116282550D01*
X154985412Y-116259549D01*
X155042317Y-116071956D01*
X155047173Y-116047538D01*
X155066388Y-115852448D01*
X155067000Y-115840000D01*
X155067000Y-98414905D01*
X155095497Y-98372256D01*
X155173518Y-98183898D01*
X155213292Y-97983939D01*
X155213292Y-97780061D01*
X155173518Y-97580102D01*
X155095497Y-97391744D01*
X155067000Y-97349095D01*
X155067000Y-94240468D01*
X155095205Y-94198256D01*
X155173226Y-94009898D01*
X155213000Y-93809939D01*
X155213000Y-93606061D01*
X155173226Y-93406102D01*
X155095205Y-93217744D01*
X155067000Y-93175532D01*
X155067000Y-84820000D01*
X155066388Y-84807552D01*
X155047173Y-84612462D01*
X155042317Y-84588044D01*
X154985412Y-84400451D01*
X154975884Y-84377450D01*
X154883474Y-84204563D01*
X154869642Y-84183862D01*
X154745279Y-84032325D01*
X154727675Y-84014721D01*
X154576138Y-83890358D01*
X154555437Y-83876526D01*
X154382550Y-83784116D01*
X154359549Y-83774588D01*
X154171956Y-83717683D01*
X154147538Y-83712827D01*
X153952448Y-83693612D01*
X153940000Y-83693000D01*
X152069386Y-83693000D01*
X152130269Y-83647588D01*
X152325178Y-83431355D01*
X152474157Y-83181252D01*
X152571481Y-82906891D01*
X152450814Y-82677000D01*
X151257000Y-82677000D01*
X151257000Y-82697000D01*
X151003000Y-82697000D01*
X151003000Y-82677000D01*
X150983000Y-82677000D01*
X150983000Y-82423000D01*
X151003000Y-82423000D01*
X151003000Y-81229845D01*
X151257000Y-81229845D01*
X151257000Y-82423000D01*
X152450814Y-82423000D01*
X152571481Y-82193109D01*
X152474157Y-81918748D01*
X152325178Y-81668645D01*
X152130269Y-81452412D01*
X151896920Y-81278359D01*
X151634099Y-81153175D01*
X151486890Y-81108524D01*
X151257000Y-81229845D01*
X151003000Y-81229845D01*
X150778085Y-81111150D01*
X151727743Y-80161493D01*
X151761659Y-80133659D01*
X151872753Y-79998291D01*
X151955303Y-79843851D01*
X152001154Y-79692697D01*
X152006136Y-79676275D01*
X152015448Y-79581726D01*
X152019000Y-79545667D01*
X152019000Y-79545660D01*
X152023300Y-79502000D01*
X152019000Y-79458340D01*
X152019000Y-79300606D01*
X152196910Y-79122696D01*
X152205279Y-79113461D01*
X152329642Y-78961925D01*
X152343474Y-78941224D01*
X152435884Y-78768337D01*
X152445412Y-78745336D01*
X152502317Y-78557743D01*
X152507173Y-78533325D01*
X152520143Y-78401635D01*
X152669731Y-78567588D01*
X152903080Y-78741641D01*
X153165901Y-78866825D01*
X153313110Y-78911476D01*
X153543000Y-78790155D01*
X153543000Y-77597000D01*
X153797000Y-77597000D01*
X153797000Y-78790155D01*
X154026890Y-78911476D01*
X154174099Y-78866825D01*
X154436920Y-78741641D01*
X154670269Y-78567588D01*
X154865178Y-78351355D01*
X154940000Y-78225745D01*
X155014822Y-78351355D01*
X155209731Y-78567588D01*
X155443080Y-78741641D01*
X155705901Y-78866825D01*
X155853110Y-78911476D01*
X156083000Y-78790155D01*
X156083000Y-77597000D01*
X156337000Y-77597000D01*
X156337000Y-78790155D01*
X156566890Y-78911476D01*
X156714099Y-78866825D01*
X156976920Y-78741641D01*
X157210269Y-78567588D01*
X157405178Y-78351355D01*
X157480000Y-78225745D01*
X157554822Y-78351355D01*
X157749731Y-78567588D01*
X157983080Y-78741641D01*
X158245901Y-78866825D01*
X158393110Y-78911476D01*
X158623000Y-78790155D01*
X158623000Y-77597000D01*
X156337000Y-77597000D01*
X156083000Y-77597000D01*
X153797000Y-77597000D01*
X153543000Y-77597000D01*
X153523000Y-77597000D01*
X153523000Y-77343000D01*
X153543000Y-77343000D01*
X153543000Y-77323000D01*
X153797000Y-77323000D01*
X153797000Y-77343000D01*
G37*
X153797000Y-77343000D02*
X156083000Y-77343000D01*
X156083000Y-77323000D01*
X156337000Y-77323000D01*
X156337000Y-77343000D01*
X158623000Y-77343000D01*
X158623000Y-77323000D01*
X158877000Y-77323000D01*
X158877000Y-77343000D01*
X158897000Y-77343000D01*
X158897000Y-77597000D01*
X158877000Y-77597000D01*
X158877000Y-78790155D01*
X159106890Y-78911476D01*
X159254099Y-78866825D01*
X159516920Y-78741641D01*
X159750269Y-78567588D01*
X159893000Y-78409242D01*
X159893000Y-120913766D01*
X159875624Y-121090189D01*
X159825978Y-121253850D01*
X159745362Y-121404672D01*
X159636870Y-121536870D01*
X159504672Y-121645362D01*
X159353850Y-121725978D01*
X159190189Y-121775624D01*
X159013766Y-121793000D01*
X152130000Y-121793000D01*
X152117552Y-121793612D01*
X151922462Y-121812827D01*
X151898044Y-121817683D01*
X151710451Y-121874588D01*
X151687450Y-121884116D01*
X151514563Y-121976526D01*
X151493862Y-121990358D01*
X151342325Y-122114721D01*
X151324721Y-122132325D01*
X151200358Y-122283862D01*
X151186526Y-122304563D01*
X151094116Y-122477450D01*
X151084588Y-122500451D01*
X151027683Y-122688044D01*
X151022827Y-122712462D01*
X151003612Y-122907552D01*
X151003000Y-122920000D01*
X151003000Y-137423766D01*
X150985624Y-137600189D01*
X150935978Y-137763850D01*
X150855362Y-137914672D01*
X150746870Y-138046870D01*
X150614672Y-138155362D01*
X150463850Y-138235978D01*
X150300189Y-138285624D01*
X150123766Y-138303000D01*
X147056234Y-138303000D01*
X146879811Y-138285624D01*
X146716150Y-138235978D01*
X146565328Y-138155362D01*
X146433130Y-138046870D01*
X146324638Y-137914672D01*
X146244022Y-137763850D01*
X146194376Y-137600189D01*
X146177000Y-137423766D01*
X146177000Y-135969224D01*
X147420381Y-135969224D01*
X147552317Y-136264312D01*
X147893045Y-136435159D01*
X148260557Y-136536250D01*
X148640729Y-136563701D01*
X149018951Y-136516457D01*
X149380690Y-136396333D01*
X149627683Y-136264312D01*
X149759619Y-135969224D01*
X148590000Y-134799605D01*
X147420381Y-135969224D01*
X146177000Y-135969224D01*
X146177000Y-134670729D01*
X146646299Y-134670729D01*
X146693543Y-135048951D01*
X146813667Y-135410690D01*
X146945688Y-135657683D01*
X147240776Y-135789619D01*
X148410395Y-134620000D01*
X148769605Y-134620000D01*
X149939224Y-135789619D01*
X150234312Y-135657683D01*
X150405159Y-135316955D01*
X150506250Y-134949443D01*
X150533701Y-134569271D01*
X150486457Y-134191049D01*
X150366333Y-133829310D01*
X150234312Y-133582317D01*
X149939224Y-133450381D01*
X148769605Y-134620000D01*
X148410395Y-134620000D01*
X147240776Y-133450381D01*
X146945688Y-133582317D01*
X146774841Y-133923045D01*
X146673750Y-134290557D01*
X146646299Y-134670729D01*
X146177000Y-134670729D01*
X146177000Y-133270776D01*
X147420381Y-133270776D01*
X148590000Y-134440395D01*
X149759619Y-133270776D01*
X149627683Y-132975688D01*
X149286955Y-132804841D01*
X148919443Y-132703750D01*
X148539271Y-132676299D01*
X148161049Y-132723543D01*
X147799310Y-132843667D01*
X147552317Y-132975688D01*
X147420381Y-133270776D01*
X146177000Y-133270776D01*
X146177000Y-122920000D01*
X146176388Y-122907552D01*
X146157173Y-122712462D01*
X146152317Y-122688044D01*
X146095412Y-122500451D01*
X146085884Y-122477450D01*
X145993474Y-122304563D01*
X145979642Y-122283862D01*
X145855279Y-122132325D01*
X145837675Y-122114721D01*
X145686138Y-121990358D01*
X145665437Y-121976526D01*
X145492550Y-121884116D01*
X145469549Y-121874588D01*
X145281956Y-121817683D01*
X145257538Y-121812827D01*
X145062448Y-121793612D01*
X145050000Y-121793000D01*
X131816234Y-121793000D01*
X131639811Y-121775624D01*
X131476150Y-121725978D01*
X131325328Y-121645362D01*
X131193130Y-121536870D01*
X131084638Y-121404672D01*
X131004022Y-121253850D01*
X130954376Y-121090189D01*
X130937000Y-120913766D01*
X130937000Y-120553694D01*
X130979502Y-120474180D01*
X131003966Y-120393534D01*
X131079731Y-120477588D01*
X131313080Y-120651641D01*
X131575901Y-120776825D01*
X131723110Y-120821476D01*
X131953000Y-120700155D01*
X131953000Y-119507000D01*
X132207000Y-119507000D01*
X132207000Y-120700155D01*
X132436890Y-120821476D01*
X132584099Y-120776825D01*
X132846920Y-120651641D01*
X133080269Y-120477588D01*
X133275178Y-120261355D01*
X133424157Y-120011252D01*
X133521481Y-119736891D01*
X133400814Y-119507000D01*
X132207000Y-119507000D01*
X131953000Y-119507000D01*
X131933000Y-119507000D01*
X131933000Y-119253000D01*
X131953000Y-119253000D01*
X131953000Y-118059845D01*
X132207000Y-118059845D01*
X132207000Y-119253000D01*
X133400814Y-119253000D01*
X133521481Y-119023109D01*
X133424157Y-118748748D01*
X133275178Y-118498645D01*
X133080269Y-118282412D01*
X132846920Y-118108359D01*
X132584099Y-117983175D01*
X132436890Y-117938524D01*
X132207000Y-118059845D01*
X131953000Y-118059845D01*
X131723110Y-117938524D01*
X131575901Y-117983175D01*
X131313080Y-118108359D01*
X131079731Y-118282412D01*
X131003966Y-118366466D01*
X130979502Y-118285820D01*
X130937000Y-118206306D01*
X130937000Y-117846234D01*
X130954376Y-117669811D01*
X131004022Y-117506150D01*
X131084638Y-117355328D01*
X131193130Y-117223130D01*
X131325328Y-117114638D01*
X131476150Y-117034022D01*
X131639811Y-116984376D01*
X131816234Y-116967000D01*
X153940000Y-116967000D01*
X153952448Y-116966388D01*
X154147538Y-116947173D01*
X154171956Y-116942317D01*
X154359549Y-116885412D01*
X154382550Y-116875884D01*
X154555437Y-116783474D01*
X154576138Y-116769642D01*
X154727675Y-116645279D01*
X154745279Y-116627675D01*
X154869642Y-116476138D01*
X154883474Y-116455437D01*
X154975884Y-116282550D01*
X154985412Y-116259549D01*
X155042317Y-116071956D01*
X155047173Y-116047538D01*
X155066388Y-115852448D01*
X155067000Y-115840000D01*
X155067000Y-98414905D01*
X155095497Y-98372256D01*
X155173518Y-98183898D01*
X155213292Y-97983939D01*
X155213292Y-97780061D01*
X155173518Y-97580102D01*
X155095497Y-97391744D01*
X155067000Y-97349095D01*
X155067000Y-94240468D01*
X155095205Y-94198256D01*
X155173226Y-94009898D01*
X155213000Y-93809939D01*
X155213000Y-93606061D01*
X155173226Y-93406102D01*
X155095205Y-93217744D01*
X155067000Y-93175532D01*
X155067000Y-84820000D01*
X155066388Y-84807552D01*
X155047173Y-84612462D01*
X155042317Y-84588044D01*
X154985412Y-84400451D01*
X154975884Y-84377450D01*
X154883474Y-84204563D01*
X154869642Y-84183862D01*
X154745279Y-84032325D01*
X154727675Y-84014721D01*
X154576138Y-83890358D01*
X154555437Y-83876526D01*
X154382550Y-83784116D01*
X154359549Y-83774588D01*
X154171956Y-83717683D01*
X154147538Y-83712827D01*
X153952448Y-83693612D01*
X153940000Y-83693000D01*
X152069386Y-83693000D01*
X152130269Y-83647588D01*
X152325178Y-83431355D01*
X152474157Y-83181252D01*
X152571481Y-82906891D01*
X152450814Y-82677000D01*
X151257000Y-82677000D01*
X151257000Y-82697000D01*
X151003000Y-82697000D01*
X151003000Y-82677000D01*
X150983000Y-82677000D01*
X150983000Y-82423000D01*
X151003000Y-82423000D01*
X151003000Y-81229845D01*
X151257000Y-81229845D01*
X151257000Y-82423000D01*
X152450814Y-82423000D01*
X152571481Y-82193109D01*
X152474157Y-81918748D01*
X152325178Y-81668645D01*
X152130269Y-81452412D01*
X151896920Y-81278359D01*
X151634099Y-81153175D01*
X151486890Y-81108524D01*
X151257000Y-81229845D01*
X151003000Y-81229845D01*
X150778085Y-81111150D01*
X151727743Y-80161493D01*
X151761659Y-80133659D01*
X151872753Y-79998291D01*
X151955303Y-79843851D01*
X152001154Y-79692697D01*
X152006136Y-79676275D01*
X152015448Y-79581726D01*
X152019000Y-79545667D01*
X152019000Y-79545660D01*
X152023300Y-79502000D01*
X152019000Y-79458340D01*
X152019000Y-79300606D01*
X152196910Y-79122696D01*
X152205279Y-79113461D01*
X152329642Y-78961925D01*
X152343474Y-78941224D01*
X152435884Y-78768337D01*
X152445412Y-78745336D01*
X152502317Y-78557743D01*
X152507173Y-78533325D01*
X152520143Y-78401635D01*
X152669731Y-78567588D01*
X152903080Y-78741641D01*
X153165901Y-78866825D01*
X153313110Y-78911476D01*
X153543000Y-78790155D01*
X153543000Y-77597000D01*
X153797000Y-77597000D01*
X153797000Y-78790155D01*
X154026890Y-78911476D01*
X154174099Y-78866825D01*
X154436920Y-78741641D01*
X154670269Y-78567588D01*
X154865178Y-78351355D01*
X154940000Y-78225745D01*
X155014822Y-78351355D01*
X155209731Y-78567588D01*
X155443080Y-78741641D01*
X155705901Y-78866825D01*
X155853110Y-78911476D01*
X156083000Y-78790155D01*
X156083000Y-77597000D01*
X156337000Y-77597000D01*
X156337000Y-78790155D01*
X156566890Y-78911476D01*
X156714099Y-78866825D01*
X156976920Y-78741641D01*
X157210269Y-78567588D01*
X157405178Y-78351355D01*
X157480000Y-78225745D01*
X157554822Y-78351355D01*
X157749731Y-78567588D01*
X157983080Y-78741641D01*
X158245901Y-78866825D01*
X158393110Y-78911476D01*
X158623000Y-78790155D01*
X158623000Y-77597000D01*
X156337000Y-77597000D01*
X156083000Y-77597000D01*
X153797000Y-77597000D01*
X153543000Y-77597000D01*
X153523000Y-77597000D01*
X153523000Y-77343000D01*
X153543000Y-77343000D01*
X153543000Y-77323000D01*
X153797000Y-77323000D01*
X153797000Y-77343000D01*
%TO.N,GND*%
G36*
X172061222Y-71843096D02*
G01*
X172649164Y-72020606D01*
X173191436Y-72308937D01*
X173667364Y-72697094D01*
X174058845Y-73170314D01*
X174350951Y-73710552D01*
X174532563Y-74297244D01*
X174600001Y-74938888D01*
X174600000Y-137127721D01*
X174536904Y-137771221D01*
X174359394Y-138359164D01*
X174071063Y-138901436D01*
X173682906Y-139377364D01*
X173209686Y-139768845D01*
X172669449Y-140060950D01*
X172082756Y-140242563D01*
X171441130Y-140310000D01*
X120682279Y-140310000D01*
X120038779Y-140246904D01*
X119450836Y-140069394D01*
X118908564Y-139781063D01*
X118432636Y-139392906D01*
X118041155Y-138919686D01*
X117749050Y-138379449D01*
X117663418Y-138102818D01*
X119886787Y-138102818D01*
X120378946Y-138705149D01*
X121229933Y-139175063D01*
X122156243Y-139469929D01*
X123122281Y-139578414D01*
X124090921Y-139496351D01*
X125024938Y-139226893D01*
X125888440Y-138780394D01*
X126001054Y-138705149D01*
X126493213Y-138102818D01*
X123190000Y-134799605D01*
X119886787Y-138102818D01*
X117663418Y-138102818D01*
X117567437Y-137792756D01*
X117500000Y-137151130D01*
X117500000Y-134552281D01*
X118231586Y-134552281D01*
X118313649Y-135520921D01*
X118583107Y-136454938D01*
X119029606Y-137318440D01*
X119104851Y-137431054D01*
X119707182Y-137923213D01*
X123010395Y-134620000D01*
X123369605Y-134620000D01*
X126672818Y-137923213D01*
X127275149Y-137431054D01*
X127745063Y-136580067D01*
X127955177Y-135920000D01*
X141571928Y-135920000D01*
X141584188Y-136044482D01*
X141620498Y-136164180D01*
X141679463Y-136274494D01*
X141758815Y-136371185D01*
X141855506Y-136450537D01*
X141965820Y-136509502D01*
X142085518Y-136545812D01*
X142210000Y-136558072D01*
X143224250Y-136555000D01*
X143383000Y-136396250D01*
X143383000Y-134747000D01*
X141733750Y-134747000D01*
X141575000Y-134905750D01*
X141571928Y-135920000D01*
X127955177Y-135920000D01*
X128039929Y-135653757D01*
X128148414Y-134687719D01*
X128066351Y-133719079D01*
X127951220Y-133320000D01*
X141571928Y-133320000D01*
X141575000Y-134334250D01*
X141733750Y-134493000D01*
X143383000Y-134493000D01*
X143383000Y-132843750D01*
X143224250Y-132685000D01*
X142210000Y-132681928D01*
X142085518Y-132694188D01*
X141965820Y-132730498D01*
X141855506Y-132789463D01*
X141758815Y-132868815D01*
X141679463Y-132965506D01*
X141620498Y-133075820D01*
X141584188Y-133195518D01*
X141571928Y-133320000D01*
X127951220Y-133320000D01*
X127796893Y-132785062D01*
X127350394Y-131921560D01*
X127275149Y-131808946D01*
X126672818Y-131316787D01*
X123369605Y-134620000D01*
X123010395Y-134620000D01*
X119707182Y-131316787D01*
X119104851Y-131808946D01*
X118634937Y-132659933D01*
X118340071Y-133586243D01*
X118231586Y-134552281D01*
X117500000Y-134552281D01*
X117500000Y-131137182D01*
X119886787Y-131137182D01*
X123190000Y-134440395D01*
X126493213Y-131137182D01*
X126001054Y-130534851D01*
X125150067Y-130064937D01*
X124223757Y-129770071D01*
X123257719Y-129661586D01*
X122289079Y-129743649D01*
X121355062Y-130013107D01*
X120491560Y-130459606D01*
X120378946Y-130534851D01*
X119886787Y-131137182D01*
X117500000Y-131137182D01*
X117500000Y-124816890D01*
X119208524Y-124816890D01*
X119253175Y-124964099D01*
X119378359Y-125226920D01*
X119552412Y-125460269D01*
X119768645Y-125655178D01*
X120018748Y-125804157D01*
X120293109Y-125901481D01*
X120523000Y-125780814D01*
X120523000Y-124587000D01*
X120777000Y-124587000D01*
X120777000Y-125780814D01*
X121006891Y-125901481D01*
X121281252Y-125804157D01*
X121531355Y-125655178D01*
X121747588Y-125460269D01*
X121921641Y-125226920D01*
X122046825Y-124964099D01*
X122091476Y-124816890D01*
X121970155Y-124587000D01*
X120777000Y-124587000D01*
X120523000Y-124587000D01*
X119329845Y-124587000D01*
X119208524Y-124816890D01*
X117500000Y-124816890D01*
X117500000Y-91474001D01*
X118452699Y-91474001D01*
X118457000Y-91517671D01*
X118456999Y-115492339D01*
X118452699Y-115535999D01*
X118456999Y-115579659D01*
X118456999Y-115579665D01*
X118469863Y-115710272D01*
X118520696Y-115877849D01*
X118603246Y-116032289D01*
X118714340Y-116167658D01*
X118748263Y-116195498D01*
X119178523Y-116625758D01*
X119165000Y-116693740D01*
X119165000Y-116986260D01*
X119222068Y-117273158D01*
X119334010Y-117543411D01*
X119496525Y-117786632D01*
X119703368Y-117993475D01*
X119877760Y-118110000D01*
X119703368Y-118226525D01*
X119496525Y-118433368D01*
X119334010Y-118676589D01*
X119222068Y-118946842D01*
X119165000Y-119233740D01*
X119165000Y-119526260D01*
X119222068Y-119813158D01*
X119334010Y-120083411D01*
X119496525Y-120326632D01*
X119703368Y-120533475D01*
X119877760Y-120650000D01*
X119703368Y-120766525D01*
X119496525Y-120973368D01*
X119334010Y-121216589D01*
X119222068Y-121486842D01*
X119165000Y-121773740D01*
X119165000Y-122066260D01*
X119222068Y-122353158D01*
X119334010Y-122623411D01*
X119496525Y-122866632D01*
X119703368Y-123073475D01*
X119885534Y-123195195D01*
X119768645Y-123264822D01*
X119552412Y-123459731D01*
X119378359Y-123693080D01*
X119253175Y-123955901D01*
X119208524Y-124103110D01*
X119329845Y-124333000D01*
X120523000Y-124333000D01*
X120523000Y-124313000D01*
X120777000Y-124313000D01*
X120777000Y-124333000D01*
X121970155Y-124333000D01*
X122091476Y-124103110D01*
X122046825Y-123955901D01*
X121921641Y-123693080D01*
X121747588Y-123459731D01*
X121531355Y-123264822D01*
X121414466Y-123195195D01*
X121596632Y-123073475D01*
X121803475Y-122866632D01*
X121965990Y-122623411D01*
X122077932Y-122353158D01*
X122135000Y-122066260D01*
X122135000Y-121773740D01*
X122077932Y-121486842D01*
X121965990Y-121216589D01*
X121803475Y-120973368D01*
X121596632Y-120766525D01*
X121422240Y-120650000D01*
X121596632Y-120533475D01*
X121803475Y-120326632D01*
X121841983Y-120269000D01*
X128055769Y-120269000D01*
X128064188Y-120354482D01*
X128100498Y-120474180D01*
X128159463Y-120584494D01*
X128238815Y-120681185D01*
X128335506Y-120760537D01*
X128445820Y-120819502D01*
X128565518Y-120855812D01*
X128690000Y-120868072D01*
X130175000Y-120868072D01*
X130175000Y-120920000D01*
X130178058Y-120982242D01*
X130197273Y-121177332D01*
X130221557Y-121299419D01*
X130278462Y-121487012D01*
X130326100Y-121602020D01*
X130418510Y-121774907D01*
X130487668Y-121878409D01*
X130612031Y-122029946D01*
X130700054Y-122117969D01*
X130851591Y-122242332D01*
X130955093Y-122311490D01*
X131127980Y-122403900D01*
X131242988Y-122451538D01*
X131430581Y-122508443D01*
X131552668Y-122532727D01*
X131747758Y-122551942D01*
X131810000Y-122555000D01*
X145018806Y-122555000D01*
X145120606Y-122565027D01*
X145188506Y-122585623D01*
X145251077Y-122619069D01*
X145305922Y-122664078D01*
X145350931Y-122718923D01*
X145384377Y-122781494D01*
X145404973Y-122849394D01*
X145415000Y-122951194D01*
X145415000Y-133126910D01*
X145399502Y-133075820D01*
X145340537Y-132965506D01*
X145261185Y-132868815D01*
X145164494Y-132789463D01*
X145054180Y-132730498D01*
X144934482Y-132694188D01*
X144810000Y-132681928D01*
X143795750Y-132685000D01*
X143637000Y-132843750D01*
X143637000Y-134493000D01*
X143657000Y-134493000D01*
X143657000Y-134747000D01*
X143637000Y-134747000D01*
X143637000Y-136396250D01*
X143795750Y-136555000D01*
X144810000Y-136558072D01*
X144934482Y-136545812D01*
X145054180Y-136509502D01*
X145164494Y-136450537D01*
X145261185Y-136371185D01*
X145340537Y-136274494D01*
X145399502Y-136164180D01*
X145415000Y-136113090D01*
X145415000Y-137430000D01*
X145418058Y-137492242D01*
X145437273Y-137687332D01*
X145461557Y-137809419D01*
X145518462Y-137997012D01*
X145566100Y-138112020D01*
X145658510Y-138284907D01*
X145727668Y-138388409D01*
X145852031Y-138539946D01*
X145940054Y-138627969D01*
X146091591Y-138752332D01*
X146195093Y-138821490D01*
X146367980Y-138913900D01*
X146482988Y-138961538D01*
X146670581Y-139018443D01*
X146792668Y-139042727D01*
X146987758Y-139061942D01*
X147050000Y-139065000D01*
X150130000Y-139065000D01*
X150192242Y-139061942D01*
X150387332Y-139042727D01*
X150509419Y-139018443D01*
X150697012Y-138961538D01*
X150812020Y-138913900D01*
X150984907Y-138821490D01*
X151088409Y-138752332D01*
X151239946Y-138627969D01*
X151327969Y-138539946D01*
X151452332Y-138388409D01*
X151521490Y-138284907D01*
X151613900Y-138112020D01*
X151617711Y-138102818D01*
X165606787Y-138102818D01*
X166098946Y-138705149D01*
X166949933Y-139175063D01*
X167876243Y-139469929D01*
X168842281Y-139578414D01*
X169810921Y-139496351D01*
X170744938Y-139226893D01*
X171608440Y-138780394D01*
X171721054Y-138705149D01*
X172213213Y-138102818D01*
X168910000Y-134799605D01*
X165606787Y-138102818D01*
X151617711Y-138102818D01*
X151661538Y-137997012D01*
X151718443Y-137809419D01*
X151742727Y-137687332D01*
X151761942Y-137492242D01*
X151765000Y-137430000D01*
X151765000Y-135509000D01*
X153137532Y-135509000D01*
X153179744Y-135537205D01*
X153368102Y-135615226D01*
X153568061Y-135655000D01*
X153771939Y-135655000D01*
X153971898Y-135615226D01*
X154160256Y-135537205D01*
X154329774Y-135423937D01*
X154473937Y-135279774D01*
X154587205Y-135110256D01*
X154665226Y-134921898D01*
X154705000Y-134721939D01*
X154705000Y-134552281D01*
X163951586Y-134552281D01*
X164033649Y-135520921D01*
X164303107Y-136454938D01*
X164749606Y-137318440D01*
X164824851Y-137431054D01*
X165427182Y-137923213D01*
X168730395Y-134620000D01*
X169089605Y-134620000D01*
X172392818Y-137923213D01*
X172995149Y-137431054D01*
X173465063Y-136580067D01*
X173759929Y-135653757D01*
X173868414Y-134687719D01*
X173786351Y-133719079D01*
X173516893Y-132785062D01*
X173070394Y-131921560D01*
X172995149Y-131808946D01*
X172392818Y-131316787D01*
X169089605Y-134620000D01*
X168730395Y-134620000D01*
X165427182Y-131316787D01*
X164824851Y-131808946D01*
X164354937Y-132659933D01*
X164060071Y-133586243D01*
X163951586Y-134552281D01*
X154705000Y-134552281D01*
X154705000Y-134518061D01*
X154665226Y-134318102D01*
X154587205Y-134129744D01*
X154473937Y-133960226D01*
X154329774Y-133816063D01*
X154160256Y-133702795D01*
X153971898Y-133624774D01*
X153771939Y-133585000D01*
X153568061Y-133585000D01*
X153368102Y-133624774D01*
X153179744Y-133702795D01*
X153137532Y-133731000D01*
X151765000Y-133731000D01*
X151765000Y-131137182D01*
X165606787Y-131137182D01*
X168910000Y-134440395D01*
X172213213Y-131137182D01*
X171721054Y-130534851D01*
X170870067Y-130064937D01*
X169943757Y-129770071D01*
X168977719Y-129661586D01*
X168009079Y-129743649D01*
X167075062Y-130013107D01*
X166211560Y-130459606D01*
X166098946Y-130534851D01*
X165606787Y-131137182D01*
X151765000Y-131137182D01*
X151765000Y-123610000D01*
X169961928Y-123610000D01*
X169961928Y-125310000D01*
X169974188Y-125434482D01*
X170010498Y-125554180D01*
X170069463Y-125664494D01*
X170148815Y-125761185D01*
X170245506Y-125840537D01*
X170355820Y-125899502D01*
X170475518Y-125935812D01*
X170600000Y-125948072D01*
X172300000Y-125948072D01*
X172424482Y-125935812D01*
X172544180Y-125899502D01*
X172654494Y-125840537D01*
X172751185Y-125761185D01*
X172830537Y-125664494D01*
X172889502Y-125554180D01*
X172925812Y-125434482D01*
X172938072Y-125310000D01*
X172938072Y-123610000D01*
X172925812Y-123485518D01*
X172889502Y-123365820D01*
X172830537Y-123255506D01*
X172751185Y-123158815D01*
X172654494Y-123079463D01*
X172544180Y-123020498D01*
X172471620Y-122998487D01*
X172603475Y-122866632D01*
X172765990Y-122623411D01*
X172877932Y-122353158D01*
X172935000Y-122066260D01*
X172935000Y-121773740D01*
X172877932Y-121486842D01*
X172765990Y-121216589D01*
X172603475Y-120973368D01*
X172396632Y-120766525D01*
X172222240Y-120650000D01*
X172396632Y-120533475D01*
X172603475Y-120326632D01*
X172765990Y-120083411D01*
X172877932Y-119813158D01*
X172935000Y-119526260D01*
X172935000Y-119233740D01*
X172877932Y-118946842D01*
X172765990Y-118676589D01*
X172603475Y-118433368D01*
X172396632Y-118226525D01*
X172222240Y-118110000D01*
X172396632Y-117993475D01*
X172603475Y-117786632D01*
X172765990Y-117543411D01*
X172877932Y-117273158D01*
X172935000Y-116986260D01*
X172935000Y-116693740D01*
X172877932Y-116406842D01*
X172765990Y-116136589D01*
X172603475Y-115893368D01*
X172396632Y-115686525D01*
X172222240Y-115570000D01*
X172396632Y-115453475D01*
X172603475Y-115246632D01*
X172765990Y-115003411D01*
X172877932Y-114733158D01*
X172935000Y-114446260D01*
X172935000Y-114153740D01*
X172877932Y-113866842D01*
X172765990Y-113596589D01*
X172603475Y-113353368D01*
X172396632Y-113146525D01*
X172222240Y-113030000D01*
X172396632Y-112913475D01*
X172603475Y-112706632D01*
X172765990Y-112463411D01*
X172877932Y-112193158D01*
X172935000Y-111906260D01*
X172935000Y-111613740D01*
X172877932Y-111326842D01*
X172765990Y-111056589D01*
X172603475Y-110813368D01*
X172396632Y-110606525D01*
X172153411Y-110444010D01*
X171883158Y-110332068D01*
X171596260Y-110275000D01*
X171303740Y-110275000D01*
X171016842Y-110332068D01*
X170746589Y-110444010D01*
X170503368Y-110606525D01*
X170296525Y-110813368D01*
X170134010Y-111056589D01*
X170022068Y-111326842D01*
X169965000Y-111613740D01*
X169965000Y-111906260D01*
X170022068Y-112193158D01*
X170134010Y-112463411D01*
X170296525Y-112706632D01*
X170503368Y-112913475D01*
X170677760Y-113030000D01*
X170503368Y-113146525D01*
X170296525Y-113353368D01*
X170134010Y-113596589D01*
X170022068Y-113866842D01*
X169965000Y-114153740D01*
X169965000Y-114446260D01*
X170022068Y-114733158D01*
X170134010Y-115003411D01*
X170296525Y-115246632D01*
X170503368Y-115453475D01*
X170677760Y-115570000D01*
X170503368Y-115686525D01*
X170296525Y-115893368D01*
X170134010Y-116136589D01*
X170022068Y-116406842D01*
X169965000Y-116693740D01*
X169965000Y-116986260D01*
X170022068Y-117273158D01*
X170134010Y-117543411D01*
X170296525Y-117786632D01*
X170503368Y-117993475D01*
X170677760Y-118110000D01*
X170503368Y-118226525D01*
X170296525Y-118433368D01*
X170134010Y-118676589D01*
X170022068Y-118946842D01*
X169965000Y-119233740D01*
X169965000Y-119526260D01*
X170022068Y-119813158D01*
X170134010Y-120083411D01*
X170296525Y-120326632D01*
X170503368Y-120533475D01*
X170677760Y-120650000D01*
X170503368Y-120766525D01*
X170296525Y-120973368D01*
X170134010Y-121216589D01*
X170022068Y-121486842D01*
X169965000Y-121773740D01*
X169965000Y-122066260D01*
X170022068Y-122353158D01*
X170134010Y-122623411D01*
X170296525Y-122866632D01*
X170428380Y-122998487D01*
X170355820Y-123020498D01*
X170245506Y-123079463D01*
X170148815Y-123158815D01*
X170069463Y-123255506D01*
X170010498Y-123365820D01*
X169974188Y-123485518D01*
X169961928Y-123610000D01*
X151765000Y-123610000D01*
X151765000Y-122951194D01*
X151775027Y-122849394D01*
X151795623Y-122781494D01*
X151829069Y-122718923D01*
X151874078Y-122664078D01*
X151928923Y-122619069D01*
X151991494Y-122585623D01*
X152059394Y-122565027D01*
X152161194Y-122555000D01*
X159020000Y-122555000D01*
X159082242Y-122551942D01*
X159277332Y-122532727D01*
X159399419Y-122508443D01*
X159587012Y-122451538D01*
X159702020Y-122403900D01*
X159874907Y-122311490D01*
X159978409Y-122242332D01*
X160129946Y-122117969D01*
X160217969Y-122029946D01*
X160342332Y-121878409D01*
X160411490Y-121774907D01*
X160503900Y-121602020D01*
X160551538Y-121487012D01*
X160608443Y-121299419D01*
X160632727Y-121177332D01*
X160651942Y-120982242D01*
X160655000Y-120920000D01*
X160655000Y-92354061D01*
X162033000Y-92354061D01*
X162033000Y-92557939D01*
X162072774Y-92757898D01*
X162150795Y-92946256D01*
X162162651Y-92964000D01*
X162150795Y-92981744D01*
X162072774Y-93170102D01*
X162033000Y-93370061D01*
X162033000Y-93573939D01*
X162072774Y-93773898D01*
X162150795Y-93962256D01*
X162264063Y-94131774D01*
X162408226Y-94275937D01*
X162577744Y-94389205D01*
X162766102Y-94467226D01*
X162966061Y-94507000D01*
X163169939Y-94507000D01*
X163369898Y-94467226D01*
X163558256Y-94389205D01*
X163600468Y-94361000D01*
X166580340Y-94361000D01*
X166624000Y-94365300D01*
X166667660Y-94361000D01*
X166667667Y-94361000D01*
X166798274Y-94348136D01*
X166965851Y-94297303D01*
X167120291Y-94214753D01*
X167255659Y-94103659D01*
X167283499Y-94069736D01*
X170269743Y-91083493D01*
X170272739Y-91081034D01*
X170296525Y-91116632D01*
X170503368Y-91323475D01*
X170677760Y-91440000D01*
X170503368Y-91556525D01*
X170296525Y-91763368D01*
X170134010Y-92006589D01*
X170022068Y-92276842D01*
X169965000Y-92563740D01*
X169965000Y-92856260D01*
X170022068Y-93143158D01*
X170134010Y-93413411D01*
X170296525Y-93656632D01*
X170503368Y-93863475D01*
X170677760Y-93980000D01*
X170503368Y-94096525D01*
X170296525Y-94303368D01*
X170134010Y-94546589D01*
X170022068Y-94816842D01*
X169965000Y-95103740D01*
X169965000Y-95396260D01*
X170022068Y-95683158D01*
X170134010Y-95953411D01*
X170296525Y-96196632D01*
X170503368Y-96403475D01*
X170677760Y-96520000D01*
X170503368Y-96636525D01*
X170296525Y-96843368D01*
X170134010Y-97086589D01*
X170022068Y-97356842D01*
X169965000Y-97643740D01*
X169965000Y-97936260D01*
X170022068Y-98223158D01*
X170134010Y-98493411D01*
X170296525Y-98736632D01*
X170503368Y-98943475D01*
X170677760Y-99060000D01*
X170503368Y-99176525D01*
X170296525Y-99383368D01*
X170134010Y-99626589D01*
X170022068Y-99896842D01*
X169965000Y-100183740D01*
X169965000Y-100476260D01*
X170022068Y-100763158D01*
X170134010Y-101033411D01*
X170296525Y-101276632D01*
X170503368Y-101483475D01*
X170677760Y-101600000D01*
X170503368Y-101716525D01*
X170296525Y-101923368D01*
X170134010Y-102166589D01*
X170022068Y-102436842D01*
X169965000Y-102723740D01*
X169965000Y-103016260D01*
X170022068Y-103303158D01*
X170134010Y-103573411D01*
X170296525Y-103816632D01*
X170428380Y-103948487D01*
X170355820Y-103970498D01*
X170245506Y-104029463D01*
X170148815Y-104108815D01*
X170069463Y-104205506D01*
X170010498Y-104315820D01*
X169974188Y-104435518D01*
X169961928Y-104560000D01*
X169961928Y-106260000D01*
X169974188Y-106384482D01*
X170010498Y-106504180D01*
X170069463Y-106614494D01*
X170148815Y-106711185D01*
X170245506Y-106790537D01*
X170355820Y-106849502D01*
X170475518Y-106885812D01*
X170600000Y-106898072D01*
X172300000Y-106898072D01*
X172424482Y-106885812D01*
X172544180Y-106849502D01*
X172654494Y-106790537D01*
X172751185Y-106711185D01*
X172830537Y-106614494D01*
X172889502Y-106504180D01*
X172925812Y-106384482D01*
X172938072Y-106260000D01*
X172938072Y-104560000D01*
X172925812Y-104435518D01*
X172889502Y-104315820D01*
X172830537Y-104205506D01*
X172751185Y-104108815D01*
X172654494Y-104029463D01*
X172544180Y-103970498D01*
X172471620Y-103948487D01*
X172603475Y-103816632D01*
X172765990Y-103573411D01*
X172877932Y-103303158D01*
X172935000Y-103016260D01*
X172935000Y-102723740D01*
X172877932Y-102436842D01*
X172765990Y-102166589D01*
X172603475Y-101923368D01*
X172396632Y-101716525D01*
X172222240Y-101600000D01*
X172396632Y-101483475D01*
X172603475Y-101276632D01*
X172765990Y-101033411D01*
X172877932Y-100763158D01*
X172935000Y-100476260D01*
X172935000Y-100183740D01*
X172877932Y-99896842D01*
X172765990Y-99626589D01*
X172603475Y-99383368D01*
X172396632Y-99176525D01*
X172222240Y-99060000D01*
X172396632Y-98943475D01*
X172603475Y-98736632D01*
X172765990Y-98493411D01*
X172877932Y-98223158D01*
X172935000Y-97936260D01*
X172935000Y-97643740D01*
X172877932Y-97356842D01*
X172765990Y-97086589D01*
X172603475Y-96843368D01*
X172396632Y-96636525D01*
X172222240Y-96520000D01*
X172396632Y-96403475D01*
X172603475Y-96196632D01*
X172765990Y-95953411D01*
X172877932Y-95683158D01*
X172935000Y-95396260D01*
X172935000Y-95103740D01*
X172877932Y-94816842D01*
X172765990Y-94546589D01*
X172603475Y-94303368D01*
X172396632Y-94096525D01*
X172222240Y-93980000D01*
X172396632Y-93863475D01*
X172603475Y-93656632D01*
X172765990Y-93413411D01*
X172877932Y-93143158D01*
X172935000Y-92856260D01*
X172935000Y-92563740D01*
X172877932Y-92276842D01*
X172765990Y-92006589D01*
X172603475Y-91763368D01*
X172396632Y-91556525D01*
X172222240Y-91440000D01*
X172396632Y-91323475D01*
X172603475Y-91116632D01*
X172765990Y-90873411D01*
X172877932Y-90603158D01*
X172935000Y-90316260D01*
X172935000Y-90023740D01*
X172877932Y-89736842D01*
X172765990Y-89466589D01*
X172603475Y-89223368D01*
X172396632Y-89016525D01*
X172222240Y-88900000D01*
X172396632Y-88783475D01*
X172603475Y-88576632D01*
X172765990Y-88333411D01*
X172877932Y-88063158D01*
X172935000Y-87776260D01*
X172935000Y-87483740D01*
X172877932Y-87196842D01*
X172765990Y-86926589D01*
X172603475Y-86683368D01*
X172396632Y-86476525D01*
X172153411Y-86314010D01*
X171883158Y-86202068D01*
X171596260Y-86145000D01*
X171303740Y-86145000D01*
X171016842Y-86202068D01*
X170746589Y-86314010D01*
X170503368Y-86476525D01*
X170296525Y-86683368D01*
X170134010Y-86926589D01*
X170022068Y-87196842D01*
X169965000Y-87483740D01*
X169965000Y-87776260D01*
X169978523Y-87844242D01*
X166255765Y-91567000D01*
X163600468Y-91567000D01*
X163558256Y-91538795D01*
X163369898Y-91460774D01*
X163169939Y-91421000D01*
X162966061Y-91421000D01*
X162766102Y-91460774D01*
X162577744Y-91538795D01*
X162408226Y-91652063D01*
X162264063Y-91796226D01*
X162150795Y-91965744D01*
X162072774Y-92154102D01*
X162033000Y-92354061D01*
X160655000Y-92354061D01*
X160655000Y-80952818D01*
X165606787Y-80952818D01*
X166098946Y-81555149D01*
X166949933Y-82025063D01*
X167876243Y-82319929D01*
X168842281Y-82428414D01*
X169810921Y-82346351D01*
X170744938Y-82076893D01*
X171608440Y-81630394D01*
X171721054Y-81555149D01*
X172213213Y-80952818D01*
X168910000Y-77649605D01*
X165606787Y-80952818D01*
X160655000Y-80952818D01*
X160655000Y-77402281D01*
X163951586Y-77402281D01*
X164033649Y-78370921D01*
X164303107Y-79304938D01*
X164749606Y-80168440D01*
X164824851Y-80281054D01*
X165427182Y-80773213D01*
X168730395Y-77470000D01*
X169089605Y-77470000D01*
X172392818Y-80773213D01*
X172995149Y-80281054D01*
X173465063Y-79430067D01*
X173759929Y-78503757D01*
X173868414Y-77537719D01*
X173786351Y-76569079D01*
X173516893Y-75635062D01*
X173070394Y-74771560D01*
X172995149Y-74658946D01*
X172392818Y-74166787D01*
X169089605Y-77470000D01*
X168730395Y-77470000D01*
X165427182Y-74166787D01*
X164824851Y-74658946D01*
X164354937Y-75509933D01*
X164060071Y-76436243D01*
X163951586Y-77402281D01*
X160655000Y-77402281D01*
X160655000Y-77200000D01*
X160651942Y-77137758D01*
X160632727Y-76942668D01*
X160608443Y-76820581D01*
X160551538Y-76632988D01*
X160503900Y-76517980D01*
X160411490Y-76345093D01*
X160342332Y-76241591D01*
X160217969Y-76090054D01*
X160176472Y-76048557D01*
X160189502Y-76024180D01*
X160225812Y-75904482D01*
X160238072Y-75780000D01*
X160235000Y-75215750D01*
X160076250Y-75057000D01*
X158877000Y-75057000D01*
X158877000Y-75077000D01*
X158623000Y-75077000D01*
X158623000Y-75057000D01*
X156337000Y-75057000D01*
X156337000Y-75077000D01*
X156083000Y-75077000D01*
X156083000Y-75057000D01*
X153797000Y-75057000D01*
X153797000Y-75077000D01*
X153543000Y-75077000D01*
X153543000Y-75057000D01*
X151257000Y-75057000D01*
X151257000Y-75077000D01*
X151003000Y-75077000D01*
X151003000Y-75057000D01*
X149809186Y-75057000D01*
X149688519Y-75286891D01*
X149785843Y-75561252D01*
X149934822Y-75811355D01*
X150129731Y-76027588D01*
X150359406Y-76198900D01*
X150183368Y-76316525D01*
X149976525Y-76523368D01*
X149814010Y-76766589D01*
X149702068Y-77036842D01*
X149645000Y-77323740D01*
X149645000Y-77616260D01*
X149702068Y-77903158D01*
X149814010Y-78173411D01*
X149976525Y-78416632D01*
X150183368Y-78623475D01*
X150241000Y-78661984D01*
X150241000Y-79133764D01*
X149745765Y-79629000D01*
X147109660Y-79629000D01*
X147066000Y-79624700D01*
X147022340Y-79629000D01*
X147022333Y-79629000D01*
X146908325Y-79640229D01*
X146891725Y-79641864D01*
X146840892Y-79657284D01*
X146724149Y-79692697D01*
X146569709Y-79775247D01*
X146434341Y-79886341D01*
X146406505Y-79920259D01*
X145706259Y-80620506D01*
X145672342Y-80648341D01*
X145644507Y-80682258D01*
X145644505Y-80682260D01*
X145561248Y-80783709D01*
X145478698Y-80938148D01*
X145427864Y-81105726D01*
X145410700Y-81280000D01*
X145415001Y-81323670D01*
X145415000Y-83268340D01*
X145410700Y-83312000D01*
X145415000Y-83355660D01*
X145415000Y-83355666D01*
X145419367Y-83400000D01*
X145427864Y-83486274D01*
X145439454Y-83524482D01*
X145478697Y-83653850D01*
X145561247Y-83808290D01*
X145672341Y-83943659D01*
X145676412Y-83947000D01*
X138436256Y-83947000D01*
X137487010Y-82997755D01*
X137487010Y-80686225D01*
X137528235Y-80645000D01*
X142958340Y-80645000D01*
X143002000Y-80649300D01*
X143045660Y-80645000D01*
X143045667Y-80645000D01*
X143176274Y-80632136D01*
X143343851Y-80581303D01*
X143498291Y-80498753D01*
X143633659Y-80387659D01*
X143661499Y-80353736D01*
X144107737Y-79907498D01*
X144141659Y-79879659D01*
X144252753Y-79744291D01*
X144335303Y-79589851D01*
X144380197Y-79441854D01*
X144386136Y-79422276D01*
X144395448Y-79327726D01*
X144399000Y-79291667D01*
X144399000Y-79291661D01*
X144403300Y-79248001D01*
X144399000Y-79204341D01*
X144399000Y-78954231D01*
X144484482Y-78945812D01*
X144604180Y-78909502D01*
X144714494Y-78850537D01*
X144811185Y-78771185D01*
X144890537Y-78674494D01*
X144949502Y-78564180D01*
X144985812Y-78444482D01*
X144998072Y-78320000D01*
X144998072Y-76620000D01*
X144985812Y-76495518D01*
X144949502Y-76375820D01*
X144890537Y-76265506D01*
X144811185Y-76168815D01*
X144714494Y-76089463D01*
X144604180Y-76030498D01*
X144531620Y-76008487D01*
X144663475Y-75876632D01*
X144825990Y-75633411D01*
X144937932Y-75363158D01*
X144995000Y-75076260D01*
X144995000Y-74783740D01*
X144953103Y-74573109D01*
X149688519Y-74573109D01*
X149809186Y-74803000D01*
X151003000Y-74803000D01*
X151003000Y-73609845D01*
X151257000Y-73609845D01*
X151257000Y-74803000D01*
X153543000Y-74803000D01*
X153543000Y-73609845D01*
X153797000Y-73609845D01*
X153797000Y-74803000D01*
X156083000Y-74803000D01*
X156083000Y-73609845D01*
X156337000Y-73609845D01*
X156337000Y-74803000D01*
X158623000Y-74803000D01*
X158623000Y-73603750D01*
X158877000Y-73603750D01*
X158877000Y-74803000D01*
X160076250Y-74803000D01*
X160235000Y-74644250D01*
X160238072Y-74080000D01*
X160228931Y-73987182D01*
X165606787Y-73987182D01*
X168910000Y-77290395D01*
X172213213Y-73987182D01*
X171721054Y-73384851D01*
X170870067Y-72914937D01*
X169943757Y-72620071D01*
X168977719Y-72511586D01*
X168009079Y-72593649D01*
X167075062Y-72863107D01*
X166211560Y-73309606D01*
X166098946Y-73384851D01*
X165606787Y-73987182D01*
X160228931Y-73987182D01*
X160225812Y-73955518D01*
X160189502Y-73835820D01*
X160130537Y-73725506D01*
X160051185Y-73628815D01*
X159954494Y-73549463D01*
X159844180Y-73490498D01*
X159724482Y-73454188D01*
X159600000Y-73441928D01*
X159035750Y-73445000D01*
X158877000Y-73603750D01*
X158623000Y-73603750D01*
X158464250Y-73445000D01*
X157900000Y-73441928D01*
X157775518Y-73454188D01*
X157655820Y-73490498D01*
X157545506Y-73549463D01*
X157448815Y-73628815D01*
X157369463Y-73725506D01*
X157310498Y-73835820D01*
X157286034Y-73916466D01*
X157210269Y-73832412D01*
X156976920Y-73658359D01*
X156714099Y-73533175D01*
X156566890Y-73488524D01*
X156337000Y-73609845D01*
X156083000Y-73609845D01*
X155853110Y-73488524D01*
X155705901Y-73533175D01*
X155443080Y-73658359D01*
X155209731Y-73832412D01*
X155014822Y-74048645D01*
X154940000Y-74174255D01*
X154865178Y-74048645D01*
X154670269Y-73832412D01*
X154436920Y-73658359D01*
X154174099Y-73533175D01*
X154026890Y-73488524D01*
X153797000Y-73609845D01*
X153543000Y-73609845D01*
X153313110Y-73488524D01*
X153165901Y-73533175D01*
X152903080Y-73658359D01*
X152669731Y-73832412D01*
X152474822Y-74048645D01*
X152400000Y-74174255D01*
X152325178Y-74048645D01*
X152130269Y-73832412D01*
X151896920Y-73658359D01*
X151634099Y-73533175D01*
X151486890Y-73488524D01*
X151257000Y-73609845D01*
X151003000Y-73609845D01*
X150773110Y-73488524D01*
X150625901Y-73533175D01*
X150363080Y-73658359D01*
X150129731Y-73832412D01*
X149934822Y-74048645D01*
X149785843Y-74298748D01*
X149688519Y-74573109D01*
X144953103Y-74573109D01*
X144937932Y-74496842D01*
X144825990Y-74226589D01*
X144663475Y-73983368D01*
X144456632Y-73776525D01*
X144213411Y-73614010D01*
X143943158Y-73502068D01*
X143656260Y-73445000D01*
X143363740Y-73445000D01*
X143076842Y-73502068D01*
X142806589Y-73614010D01*
X142563368Y-73776525D01*
X142356525Y-73983368D01*
X142234805Y-74165534D01*
X142165178Y-74048645D01*
X141970269Y-73832412D01*
X141736920Y-73658359D01*
X141474099Y-73533175D01*
X141326890Y-73488524D01*
X141097000Y-73609845D01*
X141097000Y-74803000D01*
X141117000Y-74803000D01*
X141117000Y-75057000D01*
X141097000Y-75057000D01*
X141097000Y-75077000D01*
X140843000Y-75077000D01*
X140843000Y-75057000D01*
X138557000Y-75057000D01*
X138557000Y-75077000D01*
X138303000Y-75077000D01*
X138303000Y-75057000D01*
X136017000Y-75057000D01*
X136017000Y-75077000D01*
X135763000Y-75077000D01*
X135763000Y-75057000D01*
X133477000Y-75057000D01*
X133477000Y-75077000D01*
X133223000Y-75077000D01*
X133223000Y-75057000D01*
X132029186Y-75057000D01*
X131908519Y-75286891D01*
X132005843Y-75561252D01*
X132154822Y-75811355D01*
X132349731Y-76027588D01*
X132579406Y-76198900D01*
X132403368Y-76316525D01*
X132196525Y-76523368D01*
X132034010Y-76766589D01*
X131922068Y-77036842D01*
X131865000Y-77323740D01*
X131865000Y-77616260D01*
X131922068Y-77903158D01*
X132034010Y-78173411D01*
X132196525Y-78416632D01*
X132403368Y-78623475D01*
X132646589Y-78785990D01*
X132916842Y-78897932D01*
X133203740Y-78955000D01*
X133496260Y-78955000D01*
X133564242Y-78941477D01*
X134292990Y-79670226D01*
X134292991Y-83908855D01*
X134288690Y-83952525D01*
X134305854Y-84126800D01*
X134356688Y-84294377D01*
X134414197Y-84401968D01*
X134439238Y-84448815D01*
X134468573Y-84484560D01*
X134515337Y-84541541D01*
X134550332Y-84584183D01*
X134584251Y-84612019D01*
X134937236Y-84965003D01*
X134937239Y-84965007D01*
X136821990Y-86849760D01*
X136849827Y-86883679D01*
X136985195Y-86994773D01*
X137139635Y-87077323D01*
X137234244Y-87106022D01*
X137307211Y-87128156D01*
X137481486Y-87145321D01*
X137525154Y-87141020D01*
X144059269Y-87141020D01*
X143976063Y-87224226D01*
X143862795Y-87393744D01*
X143784774Y-87582102D01*
X143774870Y-87631894D01*
X141477264Y-89929501D01*
X141443341Y-89957341D01*
X141388849Y-90023740D01*
X141332248Y-90092709D01*
X141249698Y-90247148D01*
X141200518Y-90409276D01*
X141198864Y-90414727D01*
X141186000Y-90545334D01*
X141186000Y-90545340D01*
X141181700Y-90589000D01*
X141186000Y-90632660D01*
X141186001Y-110247531D01*
X141157795Y-110289744D01*
X141079774Y-110478102D01*
X141040000Y-110678061D01*
X141040000Y-110881939D01*
X141079774Y-111081898D01*
X141157795Y-111270256D01*
X141271063Y-111439774D01*
X141415226Y-111583937D01*
X141584744Y-111697205D01*
X141773102Y-111775226D01*
X141973061Y-111815000D01*
X142176939Y-111815000D01*
X142376898Y-111775226D01*
X142565256Y-111697205D01*
X142734774Y-111583937D01*
X142878937Y-111439774D01*
X142992205Y-111270256D01*
X143070226Y-111081898D01*
X143110000Y-110881939D01*
X143110000Y-110678061D01*
X143070226Y-110478102D01*
X142992205Y-110289744D01*
X142964000Y-110247532D01*
X142964000Y-108153236D01*
X143358505Y-108547741D01*
X143386341Y-108581659D01*
X143521709Y-108692753D01*
X143676149Y-108775303D01*
X143792892Y-108810716D01*
X143843725Y-108826136D01*
X144018000Y-108843301D01*
X144061668Y-108839000D01*
X146431000Y-108839000D01*
X146431001Y-116205000D01*
X131810000Y-116205000D01*
X131747758Y-116208058D01*
X131552668Y-116227273D01*
X131430581Y-116251557D01*
X131242988Y-116308462D01*
X131127980Y-116356100D01*
X130955093Y-116448510D01*
X130851591Y-116517668D01*
X130700054Y-116642031D01*
X130612031Y-116730054D01*
X130487668Y-116881591D01*
X130418510Y-116985093D01*
X130326100Y-117157980D01*
X130278462Y-117272988D01*
X130221557Y-117460581D01*
X130197273Y-117582668D01*
X130178058Y-117777758D01*
X130175000Y-117840000D01*
X130175000Y-117891928D01*
X128690000Y-117891928D01*
X128565518Y-117904188D01*
X128445820Y-117940498D01*
X128335506Y-117999463D01*
X128238815Y-118078815D01*
X128159463Y-118175506D01*
X128100498Y-118285820D01*
X128064188Y-118405518D01*
X128055769Y-118491000D01*
X121841983Y-118491000D01*
X121803475Y-118433368D01*
X121596632Y-118226525D01*
X121422240Y-118110000D01*
X121596632Y-117993475D01*
X121803475Y-117786632D01*
X121965990Y-117543411D01*
X122077932Y-117273158D01*
X122135000Y-116986260D01*
X122135000Y-116693740D01*
X122077932Y-116406842D01*
X121965990Y-116136589D01*
X121803475Y-115893368D01*
X121596632Y-115686525D01*
X121422240Y-115570000D01*
X121596632Y-115453475D01*
X121803475Y-115246632D01*
X121965990Y-115003411D01*
X122077932Y-114733158D01*
X122135000Y-114446260D01*
X122135000Y-114153740D01*
X122077932Y-113866842D01*
X121965990Y-113596589D01*
X121803475Y-113353368D01*
X121671620Y-113221513D01*
X121744180Y-113199502D01*
X121854494Y-113140537D01*
X121951185Y-113061185D01*
X122030537Y-112964494D01*
X122089502Y-112854180D01*
X122125812Y-112734482D01*
X122138072Y-112610000D01*
X122138072Y-110910000D01*
X122125812Y-110785518D01*
X122089502Y-110665820D01*
X122030537Y-110555506D01*
X121951185Y-110458815D01*
X121854494Y-110379463D01*
X121744180Y-110320498D01*
X121624482Y-110284188D01*
X121500000Y-110271928D01*
X120234999Y-110271928D01*
X120234999Y-106841544D01*
X120503740Y-106895000D01*
X120796260Y-106895000D01*
X121083158Y-106837932D01*
X121353411Y-106725990D01*
X121596632Y-106563475D01*
X121803475Y-106356632D01*
X121965990Y-106113411D01*
X122077932Y-105843158D01*
X122135000Y-105556260D01*
X122135000Y-105263740D01*
X122077932Y-104976842D01*
X121965990Y-104706589D01*
X121803475Y-104463368D01*
X121596632Y-104256525D01*
X121422240Y-104140000D01*
X121596632Y-104023475D01*
X121803475Y-103816632D01*
X121965990Y-103573411D01*
X122077932Y-103303158D01*
X122135000Y-103016260D01*
X122135000Y-102723740D01*
X122077932Y-102436842D01*
X121965990Y-102166589D01*
X121803475Y-101923368D01*
X121596632Y-101716525D01*
X121422240Y-101600000D01*
X121596632Y-101483475D01*
X121803475Y-101276632D01*
X121965990Y-101033411D01*
X122077932Y-100763158D01*
X122135000Y-100476260D01*
X122135000Y-100183740D01*
X122077932Y-99896842D01*
X121965990Y-99626589D01*
X121803475Y-99383368D01*
X121596632Y-99176525D01*
X121422240Y-99060000D01*
X121596632Y-98943475D01*
X121803475Y-98736632D01*
X121965990Y-98493411D01*
X122077932Y-98223158D01*
X122135000Y-97936260D01*
X122135000Y-97643740D01*
X122077932Y-97356842D01*
X121965990Y-97086589D01*
X121803475Y-96843368D01*
X121596632Y-96636525D01*
X121422240Y-96520000D01*
X121596632Y-96403475D01*
X121803475Y-96196632D01*
X121965990Y-95953411D01*
X122077932Y-95683158D01*
X122135000Y-95396260D01*
X122135000Y-95103740D01*
X122077932Y-94816842D01*
X121965990Y-94546589D01*
X121803475Y-94303368D01*
X121596632Y-94096525D01*
X121422240Y-93980000D01*
X121596632Y-93863475D01*
X121803475Y-93656632D01*
X121965990Y-93413411D01*
X122077932Y-93143158D01*
X122135000Y-92856260D01*
X122135000Y-92563740D01*
X122077932Y-92276842D01*
X121965990Y-92006589D01*
X121803475Y-91763368D01*
X121596632Y-91556525D01*
X121422240Y-91440000D01*
X121596632Y-91323475D01*
X121803475Y-91116632D01*
X121965990Y-90873411D01*
X122077932Y-90603158D01*
X122135000Y-90316260D01*
X122135000Y-90023740D01*
X122077932Y-89736842D01*
X121965990Y-89466589D01*
X121803475Y-89223368D01*
X121671620Y-89091513D01*
X121744180Y-89069502D01*
X121854494Y-89010537D01*
X121951185Y-88931185D01*
X122030537Y-88834494D01*
X122089502Y-88724180D01*
X122125812Y-88604482D01*
X122138072Y-88480000D01*
X122138072Y-86780000D01*
X122125812Y-86655518D01*
X122089502Y-86535820D01*
X122030537Y-86425506D01*
X121951185Y-86328815D01*
X121854494Y-86249463D01*
X121744180Y-86190498D01*
X121624482Y-86154188D01*
X121500000Y-86141928D01*
X119800000Y-86141928D01*
X119675518Y-86154188D01*
X119555820Y-86190498D01*
X119445506Y-86249463D01*
X119348815Y-86328815D01*
X119269463Y-86425506D01*
X119210498Y-86535820D01*
X119174188Y-86655518D01*
X119161928Y-86780000D01*
X119161928Y-88480000D01*
X119174188Y-88604482D01*
X119210498Y-88724180D01*
X119269463Y-88834494D01*
X119348815Y-88931185D01*
X119445506Y-89010537D01*
X119555820Y-89069502D01*
X119628380Y-89091513D01*
X119496525Y-89223368D01*
X119334010Y-89466589D01*
X119222068Y-89736842D01*
X119165000Y-90023740D01*
X119165000Y-90316260D01*
X119178523Y-90384242D01*
X118748258Y-90814507D01*
X118714341Y-90842342D01*
X118686506Y-90876259D01*
X118686504Y-90876261D01*
X118603247Y-90977710D01*
X118520697Y-91132149D01*
X118469863Y-91299727D01*
X118452699Y-91474001D01*
X117500000Y-91474001D01*
X117500000Y-80952818D01*
X119886787Y-80952818D01*
X120378946Y-81555149D01*
X121229933Y-82025063D01*
X122156243Y-82319929D01*
X123122281Y-82428414D01*
X124090921Y-82346351D01*
X125024938Y-82076893D01*
X125888440Y-81630394D01*
X126001054Y-81555149D01*
X126493213Y-80952818D01*
X123190000Y-77649605D01*
X119886787Y-80952818D01*
X117500000Y-80952818D01*
X117500000Y-77402281D01*
X118231586Y-77402281D01*
X118313649Y-78370921D01*
X118583107Y-79304938D01*
X119029606Y-80168440D01*
X119104851Y-80281054D01*
X119707182Y-80773213D01*
X123010395Y-77470000D01*
X123369605Y-77470000D01*
X126672818Y-80773213D01*
X127275149Y-80281054D01*
X127745063Y-79430067D01*
X128039929Y-78503757D01*
X128148414Y-77537719D01*
X128066351Y-76569079D01*
X127796893Y-75635062D01*
X127350394Y-74771560D01*
X127275149Y-74658946D01*
X127170098Y-74573109D01*
X131908519Y-74573109D01*
X132029186Y-74803000D01*
X133223000Y-74803000D01*
X133223000Y-73609845D01*
X133477000Y-73609845D01*
X133477000Y-74803000D01*
X135763000Y-74803000D01*
X135763000Y-73609845D01*
X136017000Y-73609845D01*
X136017000Y-74803000D01*
X138303000Y-74803000D01*
X138303000Y-73609845D01*
X138557000Y-73609845D01*
X138557000Y-74803000D01*
X140843000Y-74803000D01*
X140843000Y-73609845D01*
X140613110Y-73488524D01*
X140465901Y-73533175D01*
X140203080Y-73658359D01*
X139969731Y-73832412D01*
X139774822Y-74048645D01*
X139700000Y-74174255D01*
X139625178Y-74048645D01*
X139430269Y-73832412D01*
X139196920Y-73658359D01*
X138934099Y-73533175D01*
X138786890Y-73488524D01*
X138557000Y-73609845D01*
X138303000Y-73609845D01*
X138073110Y-73488524D01*
X137925901Y-73533175D01*
X137663080Y-73658359D01*
X137429731Y-73832412D01*
X137234822Y-74048645D01*
X137160000Y-74174255D01*
X137085178Y-74048645D01*
X136890269Y-73832412D01*
X136656920Y-73658359D01*
X136394099Y-73533175D01*
X136246890Y-73488524D01*
X136017000Y-73609845D01*
X135763000Y-73609845D01*
X135533110Y-73488524D01*
X135385901Y-73533175D01*
X135123080Y-73658359D01*
X134889731Y-73832412D01*
X134694822Y-74048645D01*
X134620000Y-74174255D01*
X134545178Y-74048645D01*
X134350269Y-73832412D01*
X134116920Y-73658359D01*
X133854099Y-73533175D01*
X133706890Y-73488524D01*
X133477000Y-73609845D01*
X133223000Y-73609845D01*
X132993110Y-73488524D01*
X132845901Y-73533175D01*
X132583080Y-73658359D01*
X132349731Y-73832412D01*
X132154822Y-74048645D01*
X132005843Y-74298748D01*
X131908519Y-74573109D01*
X127170098Y-74573109D01*
X126672818Y-74166787D01*
X123369605Y-77470000D01*
X123010395Y-77470000D01*
X119707182Y-74166787D01*
X119104851Y-74658946D01*
X118634937Y-75509933D01*
X118340071Y-76436243D01*
X118231586Y-77402281D01*
X117500000Y-77402281D01*
X117500000Y-74962279D01*
X117563096Y-74318778D01*
X117663210Y-73987182D01*
X119886787Y-73987182D01*
X123190000Y-77290395D01*
X126493213Y-73987182D01*
X126001054Y-73384851D01*
X125150067Y-72914937D01*
X124223757Y-72620071D01*
X123257719Y-72511586D01*
X122289079Y-72593649D01*
X121355062Y-72863107D01*
X120491560Y-73309606D01*
X120378946Y-73384851D01*
X119886787Y-73987182D01*
X117663210Y-73987182D01*
X117740606Y-73730836D01*
X118028937Y-73188564D01*
X118417094Y-72712636D01*
X118890314Y-72321155D01*
X119430552Y-72029049D01*
X120017244Y-71847437D01*
X120658879Y-71780000D01*
X171417721Y-71780000D01*
X172061222Y-71843096D01*
G37*
X172061222Y-71843096D02*
X172649164Y-72020606D01*
X173191436Y-72308937D01*
X173667364Y-72697094D01*
X174058845Y-73170314D01*
X174350951Y-73710552D01*
X174532563Y-74297244D01*
X174600001Y-74938888D01*
X174600000Y-137127721D01*
X174536904Y-137771221D01*
X174359394Y-138359164D01*
X174071063Y-138901436D01*
X173682906Y-139377364D01*
X173209686Y-139768845D01*
X172669449Y-140060950D01*
X172082756Y-140242563D01*
X171441130Y-140310000D01*
X120682279Y-140310000D01*
X120038779Y-140246904D01*
X119450836Y-140069394D01*
X118908564Y-139781063D01*
X118432636Y-139392906D01*
X118041155Y-138919686D01*
X117749050Y-138379449D01*
X117663418Y-138102818D01*
X119886787Y-138102818D01*
X120378946Y-138705149D01*
X121229933Y-139175063D01*
X122156243Y-139469929D01*
X123122281Y-139578414D01*
X124090921Y-139496351D01*
X125024938Y-139226893D01*
X125888440Y-138780394D01*
X126001054Y-138705149D01*
X126493213Y-138102818D01*
X123190000Y-134799605D01*
X119886787Y-138102818D01*
X117663418Y-138102818D01*
X117567437Y-137792756D01*
X117500000Y-137151130D01*
X117500000Y-134552281D01*
X118231586Y-134552281D01*
X118313649Y-135520921D01*
X118583107Y-136454938D01*
X119029606Y-137318440D01*
X119104851Y-137431054D01*
X119707182Y-137923213D01*
X123010395Y-134620000D01*
X123369605Y-134620000D01*
X126672818Y-137923213D01*
X127275149Y-137431054D01*
X127745063Y-136580067D01*
X127955177Y-135920000D01*
X141571928Y-135920000D01*
X141584188Y-136044482D01*
X141620498Y-136164180D01*
X141679463Y-136274494D01*
X141758815Y-136371185D01*
X141855506Y-136450537D01*
X141965820Y-136509502D01*
X142085518Y-136545812D01*
X142210000Y-136558072D01*
X143224250Y-136555000D01*
X143383000Y-136396250D01*
X143383000Y-134747000D01*
X141733750Y-134747000D01*
X141575000Y-134905750D01*
X141571928Y-135920000D01*
X127955177Y-135920000D01*
X128039929Y-135653757D01*
X128148414Y-134687719D01*
X128066351Y-133719079D01*
X127951220Y-133320000D01*
X141571928Y-133320000D01*
X141575000Y-134334250D01*
X141733750Y-134493000D01*
X143383000Y-134493000D01*
X143383000Y-132843750D01*
X143224250Y-132685000D01*
X142210000Y-132681928D01*
X142085518Y-132694188D01*
X141965820Y-132730498D01*
X141855506Y-132789463D01*
X141758815Y-132868815D01*
X141679463Y-132965506D01*
X141620498Y-133075820D01*
X141584188Y-133195518D01*
X141571928Y-133320000D01*
X127951220Y-133320000D01*
X127796893Y-132785062D01*
X127350394Y-131921560D01*
X127275149Y-131808946D01*
X126672818Y-131316787D01*
X123369605Y-134620000D01*
X123010395Y-134620000D01*
X119707182Y-131316787D01*
X119104851Y-131808946D01*
X118634937Y-132659933D01*
X118340071Y-133586243D01*
X118231586Y-134552281D01*
X117500000Y-134552281D01*
X117500000Y-131137182D01*
X119886787Y-131137182D01*
X123190000Y-134440395D01*
X126493213Y-131137182D01*
X126001054Y-130534851D01*
X125150067Y-130064937D01*
X124223757Y-129770071D01*
X123257719Y-129661586D01*
X122289079Y-129743649D01*
X121355062Y-130013107D01*
X120491560Y-130459606D01*
X120378946Y-130534851D01*
X119886787Y-131137182D01*
X117500000Y-131137182D01*
X117500000Y-124816890D01*
X119208524Y-124816890D01*
X119253175Y-124964099D01*
X119378359Y-125226920D01*
X119552412Y-125460269D01*
X119768645Y-125655178D01*
X120018748Y-125804157D01*
X120293109Y-125901481D01*
X120523000Y-125780814D01*
X120523000Y-124587000D01*
X120777000Y-124587000D01*
X120777000Y-125780814D01*
X121006891Y-125901481D01*
X121281252Y-125804157D01*
X121531355Y-125655178D01*
X121747588Y-125460269D01*
X121921641Y-125226920D01*
X122046825Y-124964099D01*
X122091476Y-124816890D01*
X121970155Y-124587000D01*
X120777000Y-124587000D01*
X120523000Y-124587000D01*
X119329845Y-124587000D01*
X119208524Y-124816890D01*
X117500000Y-124816890D01*
X117500000Y-91474001D01*
X118452699Y-91474001D01*
X118457000Y-91517671D01*
X118456999Y-115492339D01*
X118452699Y-115535999D01*
X118456999Y-115579659D01*
X118456999Y-115579665D01*
X118469863Y-115710272D01*
X118520696Y-115877849D01*
X118603246Y-116032289D01*
X118714340Y-116167658D01*
X118748263Y-116195498D01*
X119178523Y-116625758D01*
X119165000Y-116693740D01*
X119165000Y-116986260D01*
X119222068Y-117273158D01*
X119334010Y-117543411D01*
X119496525Y-117786632D01*
X119703368Y-117993475D01*
X119877760Y-118110000D01*
X119703368Y-118226525D01*
X119496525Y-118433368D01*
X119334010Y-118676589D01*
X119222068Y-118946842D01*
X119165000Y-119233740D01*
X119165000Y-119526260D01*
X119222068Y-119813158D01*
X119334010Y-120083411D01*
X119496525Y-120326632D01*
X119703368Y-120533475D01*
X119877760Y-120650000D01*
X119703368Y-120766525D01*
X119496525Y-120973368D01*
X119334010Y-121216589D01*
X119222068Y-121486842D01*
X119165000Y-121773740D01*
X119165000Y-122066260D01*
X119222068Y-122353158D01*
X119334010Y-122623411D01*
X119496525Y-122866632D01*
X119703368Y-123073475D01*
X119885534Y-123195195D01*
X119768645Y-123264822D01*
X119552412Y-123459731D01*
X119378359Y-123693080D01*
X119253175Y-123955901D01*
X119208524Y-124103110D01*
X119329845Y-124333000D01*
X120523000Y-124333000D01*
X120523000Y-124313000D01*
X120777000Y-124313000D01*
X120777000Y-124333000D01*
X121970155Y-124333000D01*
X122091476Y-124103110D01*
X122046825Y-123955901D01*
X121921641Y-123693080D01*
X121747588Y-123459731D01*
X121531355Y-123264822D01*
X121414466Y-123195195D01*
X121596632Y-123073475D01*
X121803475Y-122866632D01*
X121965990Y-122623411D01*
X122077932Y-122353158D01*
X122135000Y-122066260D01*
X122135000Y-121773740D01*
X122077932Y-121486842D01*
X121965990Y-121216589D01*
X121803475Y-120973368D01*
X121596632Y-120766525D01*
X121422240Y-120650000D01*
X121596632Y-120533475D01*
X121803475Y-120326632D01*
X121841983Y-120269000D01*
X128055769Y-120269000D01*
X128064188Y-120354482D01*
X128100498Y-120474180D01*
X128159463Y-120584494D01*
X128238815Y-120681185D01*
X128335506Y-120760537D01*
X128445820Y-120819502D01*
X128565518Y-120855812D01*
X128690000Y-120868072D01*
X130175000Y-120868072D01*
X130175000Y-120920000D01*
X130178058Y-120982242D01*
X130197273Y-121177332D01*
X130221557Y-121299419D01*
X130278462Y-121487012D01*
X130326100Y-121602020D01*
X130418510Y-121774907D01*
X130487668Y-121878409D01*
X130612031Y-122029946D01*
X130700054Y-122117969D01*
X130851591Y-122242332D01*
X130955093Y-122311490D01*
X131127980Y-122403900D01*
X131242988Y-122451538D01*
X131430581Y-122508443D01*
X131552668Y-122532727D01*
X131747758Y-122551942D01*
X131810000Y-122555000D01*
X145018806Y-122555000D01*
X145120606Y-122565027D01*
X145188506Y-122585623D01*
X145251077Y-122619069D01*
X145305922Y-122664078D01*
X145350931Y-122718923D01*
X145384377Y-122781494D01*
X145404973Y-122849394D01*
X145415000Y-122951194D01*
X145415000Y-133126910D01*
X145399502Y-133075820D01*
X145340537Y-132965506D01*
X145261185Y-132868815D01*
X145164494Y-132789463D01*
X145054180Y-132730498D01*
X144934482Y-132694188D01*
X144810000Y-132681928D01*
X143795750Y-132685000D01*
X143637000Y-132843750D01*
X143637000Y-134493000D01*
X143657000Y-134493000D01*
X143657000Y-134747000D01*
X143637000Y-134747000D01*
X143637000Y-136396250D01*
X143795750Y-136555000D01*
X144810000Y-136558072D01*
X144934482Y-136545812D01*
X145054180Y-136509502D01*
X145164494Y-136450537D01*
X145261185Y-136371185D01*
X145340537Y-136274494D01*
X145399502Y-136164180D01*
X145415000Y-136113090D01*
X145415000Y-137430000D01*
X145418058Y-137492242D01*
X145437273Y-137687332D01*
X145461557Y-137809419D01*
X145518462Y-137997012D01*
X145566100Y-138112020D01*
X145658510Y-138284907D01*
X145727668Y-138388409D01*
X145852031Y-138539946D01*
X145940054Y-138627969D01*
X146091591Y-138752332D01*
X146195093Y-138821490D01*
X146367980Y-138913900D01*
X146482988Y-138961538D01*
X146670581Y-139018443D01*
X146792668Y-139042727D01*
X146987758Y-139061942D01*
X147050000Y-139065000D01*
X150130000Y-139065000D01*
X150192242Y-139061942D01*
X150387332Y-139042727D01*
X150509419Y-139018443D01*
X150697012Y-138961538D01*
X150812020Y-138913900D01*
X150984907Y-138821490D01*
X151088409Y-138752332D01*
X151239946Y-138627969D01*
X151327969Y-138539946D01*
X151452332Y-138388409D01*
X151521490Y-138284907D01*
X151613900Y-138112020D01*
X151617711Y-138102818D01*
X165606787Y-138102818D01*
X166098946Y-138705149D01*
X166949933Y-139175063D01*
X167876243Y-139469929D01*
X168842281Y-139578414D01*
X169810921Y-139496351D01*
X170744938Y-139226893D01*
X171608440Y-138780394D01*
X171721054Y-138705149D01*
X172213213Y-138102818D01*
X168910000Y-134799605D01*
X165606787Y-138102818D01*
X151617711Y-138102818D01*
X151661538Y-137997012D01*
X151718443Y-137809419D01*
X151742727Y-137687332D01*
X151761942Y-137492242D01*
X151765000Y-137430000D01*
X151765000Y-135509000D01*
X153137532Y-135509000D01*
X153179744Y-135537205D01*
X153368102Y-135615226D01*
X153568061Y-135655000D01*
X153771939Y-135655000D01*
X153971898Y-135615226D01*
X154160256Y-135537205D01*
X154329774Y-135423937D01*
X154473937Y-135279774D01*
X154587205Y-135110256D01*
X154665226Y-134921898D01*
X154705000Y-134721939D01*
X154705000Y-134552281D01*
X163951586Y-134552281D01*
X164033649Y-135520921D01*
X164303107Y-136454938D01*
X164749606Y-137318440D01*
X164824851Y-137431054D01*
X165427182Y-137923213D01*
X168730395Y-134620000D01*
X169089605Y-134620000D01*
X172392818Y-137923213D01*
X172995149Y-137431054D01*
X173465063Y-136580067D01*
X173759929Y-135653757D01*
X173868414Y-134687719D01*
X173786351Y-133719079D01*
X173516893Y-132785062D01*
X173070394Y-131921560D01*
X172995149Y-131808946D01*
X172392818Y-131316787D01*
X169089605Y-134620000D01*
X168730395Y-134620000D01*
X165427182Y-131316787D01*
X164824851Y-131808946D01*
X164354937Y-132659933D01*
X164060071Y-133586243D01*
X163951586Y-134552281D01*
X154705000Y-134552281D01*
X154705000Y-134518061D01*
X154665226Y-134318102D01*
X154587205Y-134129744D01*
X154473937Y-133960226D01*
X154329774Y-133816063D01*
X154160256Y-133702795D01*
X153971898Y-133624774D01*
X153771939Y-133585000D01*
X153568061Y-133585000D01*
X153368102Y-133624774D01*
X153179744Y-133702795D01*
X153137532Y-133731000D01*
X151765000Y-133731000D01*
X151765000Y-131137182D01*
X165606787Y-131137182D01*
X168910000Y-134440395D01*
X172213213Y-131137182D01*
X171721054Y-130534851D01*
X170870067Y-130064937D01*
X169943757Y-129770071D01*
X168977719Y-129661586D01*
X168009079Y-129743649D01*
X167075062Y-130013107D01*
X166211560Y-130459606D01*
X166098946Y-130534851D01*
X165606787Y-131137182D01*
X151765000Y-131137182D01*
X151765000Y-123610000D01*
X169961928Y-123610000D01*
X169961928Y-125310000D01*
X169974188Y-125434482D01*
X170010498Y-125554180D01*
X170069463Y-125664494D01*
X170148815Y-125761185D01*
X170245506Y-125840537D01*
X170355820Y-125899502D01*
X170475518Y-125935812D01*
X170600000Y-125948072D01*
X172300000Y-125948072D01*
X172424482Y-125935812D01*
X172544180Y-125899502D01*
X172654494Y-125840537D01*
X172751185Y-125761185D01*
X172830537Y-125664494D01*
X172889502Y-125554180D01*
X172925812Y-125434482D01*
X172938072Y-125310000D01*
X172938072Y-123610000D01*
X172925812Y-123485518D01*
X172889502Y-123365820D01*
X172830537Y-123255506D01*
X172751185Y-123158815D01*
X172654494Y-123079463D01*
X172544180Y-123020498D01*
X172471620Y-122998487D01*
X172603475Y-122866632D01*
X172765990Y-122623411D01*
X172877932Y-122353158D01*
X172935000Y-122066260D01*
X172935000Y-121773740D01*
X172877932Y-121486842D01*
X172765990Y-121216589D01*
X172603475Y-120973368D01*
X172396632Y-120766525D01*
X172222240Y-120650000D01*
X172396632Y-120533475D01*
X172603475Y-120326632D01*
X172765990Y-120083411D01*
X172877932Y-119813158D01*
X172935000Y-119526260D01*
X172935000Y-119233740D01*
X172877932Y-118946842D01*
X172765990Y-118676589D01*
X172603475Y-118433368D01*
X172396632Y-118226525D01*
X172222240Y-118110000D01*
X172396632Y-117993475D01*
X172603475Y-117786632D01*
X172765990Y-117543411D01*
X172877932Y-117273158D01*
X172935000Y-116986260D01*
X172935000Y-116693740D01*
X172877932Y-116406842D01*
X172765990Y-116136589D01*
X172603475Y-115893368D01*
X172396632Y-115686525D01*
X172222240Y-115570000D01*
X172396632Y-115453475D01*
X172603475Y-115246632D01*
X172765990Y-115003411D01*
X172877932Y-114733158D01*
X172935000Y-114446260D01*
X172935000Y-114153740D01*
X172877932Y-113866842D01*
X172765990Y-113596589D01*
X172603475Y-113353368D01*
X172396632Y-113146525D01*
X172222240Y-113030000D01*
X172396632Y-112913475D01*
X172603475Y-112706632D01*
X172765990Y-112463411D01*
X172877932Y-112193158D01*
X172935000Y-111906260D01*
X172935000Y-111613740D01*
X172877932Y-111326842D01*
X172765990Y-111056589D01*
X172603475Y-110813368D01*
X172396632Y-110606525D01*
X172153411Y-110444010D01*
X171883158Y-110332068D01*
X171596260Y-110275000D01*
X171303740Y-110275000D01*
X171016842Y-110332068D01*
X170746589Y-110444010D01*
X170503368Y-110606525D01*
X170296525Y-110813368D01*
X170134010Y-111056589D01*
X170022068Y-111326842D01*
X169965000Y-111613740D01*
X169965000Y-111906260D01*
X170022068Y-112193158D01*
X170134010Y-112463411D01*
X170296525Y-112706632D01*
X170503368Y-112913475D01*
X170677760Y-113030000D01*
X170503368Y-113146525D01*
X170296525Y-113353368D01*
X170134010Y-113596589D01*
X170022068Y-113866842D01*
X169965000Y-114153740D01*
X169965000Y-114446260D01*
X170022068Y-114733158D01*
X170134010Y-115003411D01*
X170296525Y-115246632D01*
X170503368Y-115453475D01*
X170677760Y-115570000D01*
X170503368Y-115686525D01*
X170296525Y-115893368D01*
X170134010Y-116136589D01*
X170022068Y-116406842D01*
X169965000Y-116693740D01*
X169965000Y-116986260D01*
X170022068Y-117273158D01*
X170134010Y-117543411D01*
X170296525Y-117786632D01*
X170503368Y-117993475D01*
X170677760Y-118110000D01*
X170503368Y-118226525D01*
X170296525Y-118433368D01*
X170134010Y-118676589D01*
X170022068Y-118946842D01*
X169965000Y-119233740D01*
X169965000Y-119526260D01*
X170022068Y-119813158D01*
X170134010Y-120083411D01*
X170296525Y-120326632D01*
X170503368Y-120533475D01*
X170677760Y-120650000D01*
X170503368Y-120766525D01*
X170296525Y-120973368D01*
X170134010Y-121216589D01*
X170022068Y-121486842D01*
X169965000Y-121773740D01*
X169965000Y-122066260D01*
X170022068Y-122353158D01*
X170134010Y-122623411D01*
X170296525Y-122866632D01*
X170428380Y-122998487D01*
X170355820Y-123020498D01*
X170245506Y-123079463D01*
X170148815Y-123158815D01*
X170069463Y-123255506D01*
X170010498Y-123365820D01*
X169974188Y-123485518D01*
X169961928Y-123610000D01*
X151765000Y-123610000D01*
X151765000Y-122951194D01*
X151775027Y-122849394D01*
X151795623Y-122781494D01*
X151829069Y-122718923D01*
X151874078Y-122664078D01*
X151928923Y-122619069D01*
X151991494Y-122585623D01*
X152059394Y-122565027D01*
X152161194Y-122555000D01*
X159020000Y-122555000D01*
X159082242Y-122551942D01*
X159277332Y-122532727D01*
X159399419Y-122508443D01*
X159587012Y-122451538D01*
X159702020Y-122403900D01*
X159874907Y-122311490D01*
X159978409Y-122242332D01*
X160129946Y-122117969D01*
X160217969Y-122029946D01*
X160342332Y-121878409D01*
X160411490Y-121774907D01*
X160503900Y-121602020D01*
X160551538Y-121487012D01*
X160608443Y-121299419D01*
X160632727Y-121177332D01*
X160651942Y-120982242D01*
X160655000Y-120920000D01*
X160655000Y-92354061D01*
X162033000Y-92354061D01*
X162033000Y-92557939D01*
X162072774Y-92757898D01*
X162150795Y-92946256D01*
X162162651Y-92964000D01*
X162150795Y-92981744D01*
X162072774Y-93170102D01*
X162033000Y-93370061D01*
X162033000Y-93573939D01*
X162072774Y-93773898D01*
X162150795Y-93962256D01*
X162264063Y-94131774D01*
X162408226Y-94275937D01*
X162577744Y-94389205D01*
X162766102Y-94467226D01*
X162966061Y-94507000D01*
X163169939Y-94507000D01*
X163369898Y-94467226D01*
X163558256Y-94389205D01*
X163600468Y-94361000D01*
X166580340Y-94361000D01*
X166624000Y-94365300D01*
X166667660Y-94361000D01*
X166667667Y-94361000D01*
X166798274Y-94348136D01*
X166965851Y-94297303D01*
X167120291Y-94214753D01*
X167255659Y-94103659D01*
X167283499Y-94069736D01*
X170269743Y-91083493D01*
X170272739Y-91081034D01*
X170296525Y-91116632D01*
X170503368Y-91323475D01*
X170677760Y-91440000D01*
X170503368Y-91556525D01*
X170296525Y-91763368D01*
X170134010Y-92006589D01*
X170022068Y-92276842D01*
X169965000Y-92563740D01*
X169965000Y-92856260D01*
X170022068Y-93143158D01*
X170134010Y-93413411D01*
X170296525Y-93656632D01*
X170503368Y-93863475D01*
X170677760Y-93980000D01*
X170503368Y-94096525D01*
X170296525Y-94303368D01*
X170134010Y-94546589D01*
X170022068Y-94816842D01*
X169965000Y-95103740D01*
X169965000Y-95396260D01*
X170022068Y-95683158D01*
X170134010Y-95953411D01*
X170296525Y-96196632D01*
X170503368Y-96403475D01*
X170677760Y-96520000D01*
X170503368Y-96636525D01*
X170296525Y-96843368D01*
X170134010Y-97086589D01*
X170022068Y-97356842D01*
X169965000Y-97643740D01*
X169965000Y-97936260D01*
X170022068Y-98223158D01*
X170134010Y-98493411D01*
X170296525Y-98736632D01*
X170503368Y-98943475D01*
X170677760Y-99060000D01*
X170503368Y-99176525D01*
X170296525Y-99383368D01*
X170134010Y-99626589D01*
X170022068Y-99896842D01*
X169965000Y-100183740D01*
X169965000Y-100476260D01*
X170022068Y-100763158D01*
X170134010Y-101033411D01*
X170296525Y-101276632D01*
X170503368Y-101483475D01*
X170677760Y-101600000D01*
X170503368Y-101716525D01*
X170296525Y-101923368D01*
X170134010Y-102166589D01*
X170022068Y-102436842D01*
X169965000Y-102723740D01*
X169965000Y-103016260D01*
X170022068Y-103303158D01*
X170134010Y-103573411D01*
X170296525Y-103816632D01*
X170428380Y-103948487D01*
X170355820Y-103970498D01*
X170245506Y-104029463D01*
X170148815Y-104108815D01*
X170069463Y-104205506D01*
X170010498Y-104315820D01*
X169974188Y-104435518D01*
X169961928Y-104560000D01*
X169961928Y-106260000D01*
X169974188Y-106384482D01*
X170010498Y-106504180D01*
X170069463Y-106614494D01*
X170148815Y-106711185D01*
X170245506Y-106790537D01*
X170355820Y-106849502D01*
X170475518Y-106885812D01*
X170600000Y-106898072D01*
X172300000Y-106898072D01*
X172424482Y-106885812D01*
X172544180Y-106849502D01*
X172654494Y-106790537D01*
X172751185Y-106711185D01*
X172830537Y-106614494D01*
X172889502Y-106504180D01*
X172925812Y-106384482D01*
X172938072Y-106260000D01*
X172938072Y-104560000D01*
X172925812Y-104435518D01*
X172889502Y-104315820D01*
X172830537Y-104205506D01*
X172751185Y-104108815D01*
X172654494Y-104029463D01*
X172544180Y-103970498D01*
X172471620Y-103948487D01*
X172603475Y-103816632D01*
X172765990Y-103573411D01*
X172877932Y-103303158D01*
X172935000Y-103016260D01*
X172935000Y-102723740D01*
X172877932Y-102436842D01*
X172765990Y-102166589D01*
X172603475Y-101923368D01*
X172396632Y-101716525D01*
X172222240Y-101600000D01*
X172396632Y-101483475D01*
X172603475Y-101276632D01*
X172765990Y-101033411D01*
X172877932Y-100763158D01*
X172935000Y-100476260D01*
X172935000Y-100183740D01*
X172877932Y-99896842D01*
X172765990Y-99626589D01*
X172603475Y-99383368D01*
X172396632Y-99176525D01*
X172222240Y-99060000D01*
X172396632Y-98943475D01*
X172603475Y-98736632D01*
X172765990Y-98493411D01*
X172877932Y-98223158D01*
X172935000Y-97936260D01*
X172935000Y-97643740D01*
X172877932Y-97356842D01*
X172765990Y-97086589D01*
X172603475Y-96843368D01*
X172396632Y-96636525D01*
X172222240Y-96520000D01*
X172396632Y-96403475D01*
X172603475Y-96196632D01*
X172765990Y-95953411D01*
X172877932Y-95683158D01*
X172935000Y-95396260D01*
X172935000Y-95103740D01*
X172877932Y-94816842D01*
X172765990Y-94546589D01*
X172603475Y-94303368D01*
X172396632Y-94096525D01*
X172222240Y-93980000D01*
X172396632Y-93863475D01*
X172603475Y-93656632D01*
X172765990Y-93413411D01*
X172877932Y-93143158D01*
X172935000Y-92856260D01*
X172935000Y-92563740D01*
X172877932Y-92276842D01*
X172765990Y-92006589D01*
X172603475Y-91763368D01*
X172396632Y-91556525D01*
X172222240Y-91440000D01*
X172396632Y-91323475D01*
X172603475Y-91116632D01*
X172765990Y-90873411D01*
X172877932Y-90603158D01*
X172935000Y-90316260D01*
X172935000Y-90023740D01*
X172877932Y-89736842D01*
X172765990Y-89466589D01*
X172603475Y-89223368D01*
X172396632Y-89016525D01*
X172222240Y-88900000D01*
X172396632Y-88783475D01*
X172603475Y-88576632D01*
X172765990Y-88333411D01*
X172877932Y-88063158D01*
X172935000Y-87776260D01*
X172935000Y-87483740D01*
X172877932Y-87196842D01*
X172765990Y-86926589D01*
X172603475Y-86683368D01*
X172396632Y-86476525D01*
X172153411Y-86314010D01*
X171883158Y-86202068D01*
X171596260Y-86145000D01*
X171303740Y-86145000D01*
X171016842Y-86202068D01*
X170746589Y-86314010D01*
X170503368Y-86476525D01*
X170296525Y-86683368D01*
X170134010Y-86926589D01*
X170022068Y-87196842D01*
X169965000Y-87483740D01*
X169965000Y-87776260D01*
X169978523Y-87844242D01*
X166255765Y-91567000D01*
X163600468Y-91567000D01*
X163558256Y-91538795D01*
X163369898Y-91460774D01*
X163169939Y-91421000D01*
X162966061Y-91421000D01*
X162766102Y-91460774D01*
X162577744Y-91538795D01*
X162408226Y-91652063D01*
X162264063Y-91796226D01*
X162150795Y-91965744D01*
X162072774Y-92154102D01*
X162033000Y-92354061D01*
X160655000Y-92354061D01*
X160655000Y-80952818D01*
X165606787Y-80952818D01*
X166098946Y-81555149D01*
X166949933Y-82025063D01*
X167876243Y-82319929D01*
X168842281Y-82428414D01*
X169810921Y-82346351D01*
X170744938Y-82076893D01*
X171608440Y-81630394D01*
X171721054Y-81555149D01*
X172213213Y-80952818D01*
X168910000Y-77649605D01*
X165606787Y-80952818D01*
X160655000Y-80952818D01*
X160655000Y-77402281D01*
X163951586Y-77402281D01*
X164033649Y-78370921D01*
X164303107Y-79304938D01*
X164749606Y-80168440D01*
X164824851Y-80281054D01*
X165427182Y-80773213D01*
X168730395Y-77470000D01*
X169089605Y-77470000D01*
X172392818Y-80773213D01*
X172995149Y-80281054D01*
X173465063Y-79430067D01*
X173759929Y-78503757D01*
X173868414Y-77537719D01*
X173786351Y-76569079D01*
X173516893Y-75635062D01*
X173070394Y-74771560D01*
X172995149Y-74658946D01*
X172392818Y-74166787D01*
X169089605Y-77470000D01*
X168730395Y-77470000D01*
X165427182Y-74166787D01*
X164824851Y-74658946D01*
X164354937Y-75509933D01*
X164060071Y-76436243D01*
X163951586Y-77402281D01*
X160655000Y-77402281D01*
X160655000Y-77200000D01*
X160651942Y-77137758D01*
X160632727Y-76942668D01*
X160608443Y-76820581D01*
X160551538Y-76632988D01*
X160503900Y-76517980D01*
X160411490Y-76345093D01*
X160342332Y-76241591D01*
X160217969Y-76090054D01*
X160176472Y-76048557D01*
X160189502Y-76024180D01*
X160225812Y-75904482D01*
X160238072Y-75780000D01*
X160235000Y-75215750D01*
X160076250Y-75057000D01*
X158877000Y-75057000D01*
X158877000Y-75077000D01*
X158623000Y-75077000D01*
X158623000Y-75057000D01*
X156337000Y-75057000D01*
X156337000Y-75077000D01*
X156083000Y-75077000D01*
X156083000Y-75057000D01*
X153797000Y-75057000D01*
X153797000Y-75077000D01*
X153543000Y-75077000D01*
X153543000Y-75057000D01*
X151257000Y-75057000D01*
X151257000Y-75077000D01*
X151003000Y-75077000D01*
X151003000Y-75057000D01*
X149809186Y-75057000D01*
X149688519Y-75286891D01*
X149785843Y-75561252D01*
X149934822Y-75811355D01*
X150129731Y-76027588D01*
X150359406Y-76198900D01*
X150183368Y-76316525D01*
X149976525Y-76523368D01*
X149814010Y-76766589D01*
X149702068Y-77036842D01*
X149645000Y-77323740D01*
X149645000Y-77616260D01*
X149702068Y-77903158D01*
X149814010Y-78173411D01*
X149976525Y-78416632D01*
X150183368Y-78623475D01*
X150241000Y-78661984D01*
X150241000Y-79133764D01*
X149745765Y-79629000D01*
X147109660Y-79629000D01*
X147066000Y-79624700D01*
X147022340Y-79629000D01*
X147022333Y-79629000D01*
X146908325Y-79640229D01*
X146891725Y-79641864D01*
X146840892Y-79657284D01*
X146724149Y-79692697D01*
X146569709Y-79775247D01*
X146434341Y-79886341D01*
X146406505Y-79920259D01*
X145706259Y-80620506D01*
X145672342Y-80648341D01*
X145644507Y-80682258D01*
X145644505Y-80682260D01*
X145561248Y-80783709D01*
X145478698Y-80938148D01*
X145427864Y-81105726D01*
X145410700Y-81280000D01*
X145415001Y-81323670D01*
X145415000Y-83268340D01*
X145410700Y-83312000D01*
X145415000Y-83355660D01*
X145415000Y-83355666D01*
X145419367Y-83400000D01*
X145427864Y-83486274D01*
X145439454Y-83524482D01*
X145478697Y-83653850D01*
X145561247Y-83808290D01*
X145672341Y-83943659D01*
X145676412Y-83947000D01*
X138436256Y-83947000D01*
X137487010Y-82997755D01*
X137487010Y-80686225D01*
X137528235Y-80645000D01*
X142958340Y-80645000D01*
X143002000Y-80649300D01*
X143045660Y-80645000D01*
X143045667Y-80645000D01*
X143176274Y-80632136D01*
X143343851Y-80581303D01*
X143498291Y-80498753D01*
X143633659Y-80387659D01*
X143661499Y-80353736D01*
X144107737Y-79907498D01*
X144141659Y-79879659D01*
X144252753Y-79744291D01*
X144335303Y-79589851D01*
X144380197Y-79441854D01*
X144386136Y-79422276D01*
X144395448Y-79327726D01*
X144399000Y-79291667D01*
X144399000Y-79291661D01*
X144403300Y-79248001D01*
X144399000Y-79204341D01*
X144399000Y-78954231D01*
X144484482Y-78945812D01*
X144604180Y-78909502D01*
X144714494Y-78850537D01*
X144811185Y-78771185D01*
X144890537Y-78674494D01*
X144949502Y-78564180D01*
X144985812Y-78444482D01*
X144998072Y-78320000D01*
X144998072Y-76620000D01*
X144985812Y-76495518D01*
X144949502Y-76375820D01*
X144890537Y-76265506D01*
X144811185Y-76168815D01*
X144714494Y-76089463D01*
X144604180Y-76030498D01*
X144531620Y-76008487D01*
X144663475Y-75876632D01*
X144825990Y-75633411D01*
X144937932Y-75363158D01*
X144995000Y-75076260D01*
X144995000Y-74783740D01*
X144953103Y-74573109D01*
X149688519Y-74573109D01*
X149809186Y-74803000D01*
X151003000Y-74803000D01*
X151003000Y-73609845D01*
X151257000Y-73609845D01*
X151257000Y-74803000D01*
X153543000Y-74803000D01*
X153543000Y-73609845D01*
X153797000Y-73609845D01*
X153797000Y-74803000D01*
X156083000Y-74803000D01*
X156083000Y-73609845D01*
X156337000Y-73609845D01*
X156337000Y-74803000D01*
X158623000Y-74803000D01*
X158623000Y-73603750D01*
X158877000Y-73603750D01*
X158877000Y-74803000D01*
X160076250Y-74803000D01*
X160235000Y-74644250D01*
X160238072Y-74080000D01*
X160228931Y-73987182D01*
X165606787Y-73987182D01*
X168910000Y-77290395D01*
X172213213Y-73987182D01*
X171721054Y-73384851D01*
X170870067Y-72914937D01*
X169943757Y-72620071D01*
X168977719Y-72511586D01*
X168009079Y-72593649D01*
X167075062Y-72863107D01*
X166211560Y-73309606D01*
X166098946Y-73384851D01*
X165606787Y-73987182D01*
X160228931Y-73987182D01*
X160225812Y-73955518D01*
X160189502Y-73835820D01*
X160130537Y-73725506D01*
X160051185Y-73628815D01*
X159954494Y-73549463D01*
X159844180Y-73490498D01*
X159724482Y-73454188D01*
X159600000Y-73441928D01*
X159035750Y-73445000D01*
X158877000Y-73603750D01*
X158623000Y-73603750D01*
X158464250Y-73445000D01*
X157900000Y-73441928D01*
X157775518Y-73454188D01*
X157655820Y-73490498D01*
X157545506Y-73549463D01*
X157448815Y-73628815D01*
X157369463Y-73725506D01*
X157310498Y-73835820D01*
X157286034Y-73916466D01*
X157210269Y-73832412D01*
X156976920Y-73658359D01*
X156714099Y-73533175D01*
X156566890Y-73488524D01*
X156337000Y-73609845D01*
X156083000Y-73609845D01*
X155853110Y-73488524D01*
X155705901Y-73533175D01*
X155443080Y-73658359D01*
X155209731Y-73832412D01*
X155014822Y-74048645D01*
X154940000Y-74174255D01*
X154865178Y-74048645D01*
X154670269Y-73832412D01*
X154436920Y-73658359D01*
X154174099Y-73533175D01*
X154026890Y-73488524D01*
X153797000Y-73609845D01*
X153543000Y-73609845D01*
X153313110Y-73488524D01*
X153165901Y-73533175D01*
X152903080Y-73658359D01*
X152669731Y-73832412D01*
X152474822Y-74048645D01*
X152400000Y-74174255D01*
X152325178Y-74048645D01*
X152130269Y-73832412D01*
X151896920Y-73658359D01*
X151634099Y-73533175D01*
X151486890Y-73488524D01*
X151257000Y-73609845D01*
X151003000Y-73609845D01*
X150773110Y-73488524D01*
X150625901Y-73533175D01*
X150363080Y-73658359D01*
X150129731Y-73832412D01*
X149934822Y-74048645D01*
X149785843Y-74298748D01*
X149688519Y-74573109D01*
X144953103Y-74573109D01*
X144937932Y-74496842D01*
X144825990Y-74226589D01*
X144663475Y-73983368D01*
X144456632Y-73776525D01*
X144213411Y-73614010D01*
X143943158Y-73502068D01*
X143656260Y-73445000D01*
X143363740Y-73445000D01*
X143076842Y-73502068D01*
X142806589Y-73614010D01*
X142563368Y-73776525D01*
X142356525Y-73983368D01*
X142234805Y-74165534D01*
X142165178Y-74048645D01*
X141970269Y-73832412D01*
X141736920Y-73658359D01*
X141474099Y-73533175D01*
X141326890Y-73488524D01*
X141097000Y-73609845D01*
X141097000Y-74803000D01*
X141117000Y-74803000D01*
X141117000Y-75057000D01*
X141097000Y-75057000D01*
X141097000Y-75077000D01*
X140843000Y-75077000D01*
X140843000Y-75057000D01*
X138557000Y-75057000D01*
X138557000Y-75077000D01*
X138303000Y-75077000D01*
X138303000Y-75057000D01*
X136017000Y-75057000D01*
X136017000Y-75077000D01*
X135763000Y-75077000D01*
X135763000Y-75057000D01*
X133477000Y-75057000D01*
X133477000Y-75077000D01*
X133223000Y-75077000D01*
X133223000Y-75057000D01*
X132029186Y-75057000D01*
X131908519Y-75286891D01*
X132005843Y-75561252D01*
X132154822Y-75811355D01*
X132349731Y-76027588D01*
X132579406Y-76198900D01*
X132403368Y-76316525D01*
X132196525Y-76523368D01*
X132034010Y-76766589D01*
X131922068Y-77036842D01*
X131865000Y-77323740D01*
X131865000Y-77616260D01*
X131922068Y-77903158D01*
X132034010Y-78173411D01*
X132196525Y-78416632D01*
X132403368Y-78623475D01*
X132646589Y-78785990D01*
X132916842Y-78897932D01*
X133203740Y-78955000D01*
X133496260Y-78955000D01*
X133564242Y-78941477D01*
X134292990Y-79670226D01*
X134292991Y-83908855D01*
X134288690Y-83952525D01*
X134305854Y-84126800D01*
X134356688Y-84294377D01*
X134414197Y-84401968D01*
X134439238Y-84448815D01*
X134468573Y-84484560D01*
X134515337Y-84541541D01*
X134550332Y-84584183D01*
X134584251Y-84612019D01*
X134937236Y-84965003D01*
X134937239Y-84965007D01*
X136821990Y-86849760D01*
X136849827Y-86883679D01*
X136985195Y-86994773D01*
X137139635Y-87077323D01*
X137234244Y-87106022D01*
X137307211Y-87128156D01*
X137481486Y-87145321D01*
X137525154Y-87141020D01*
X144059269Y-87141020D01*
X143976063Y-87224226D01*
X143862795Y-87393744D01*
X143784774Y-87582102D01*
X143774870Y-87631894D01*
X141477264Y-89929501D01*
X141443341Y-89957341D01*
X141388849Y-90023740D01*
X141332248Y-90092709D01*
X141249698Y-90247148D01*
X141200518Y-90409276D01*
X141198864Y-90414727D01*
X141186000Y-90545334D01*
X141186000Y-90545340D01*
X141181700Y-90589000D01*
X141186000Y-90632660D01*
X141186001Y-110247531D01*
X141157795Y-110289744D01*
X141079774Y-110478102D01*
X141040000Y-110678061D01*
X141040000Y-110881939D01*
X141079774Y-111081898D01*
X141157795Y-111270256D01*
X141271063Y-111439774D01*
X141415226Y-111583937D01*
X141584744Y-111697205D01*
X141773102Y-111775226D01*
X141973061Y-111815000D01*
X142176939Y-111815000D01*
X142376898Y-111775226D01*
X142565256Y-111697205D01*
X142734774Y-111583937D01*
X142878937Y-111439774D01*
X142992205Y-111270256D01*
X143070226Y-111081898D01*
X143110000Y-110881939D01*
X143110000Y-110678061D01*
X143070226Y-110478102D01*
X142992205Y-110289744D01*
X142964000Y-110247532D01*
X142964000Y-108153236D01*
X143358505Y-108547741D01*
X143386341Y-108581659D01*
X143521709Y-108692753D01*
X143676149Y-108775303D01*
X143792892Y-108810716D01*
X143843725Y-108826136D01*
X144018000Y-108843301D01*
X144061668Y-108839000D01*
X146431000Y-108839000D01*
X146431001Y-116205000D01*
X131810000Y-116205000D01*
X131747758Y-116208058D01*
X131552668Y-116227273D01*
X131430581Y-116251557D01*
X131242988Y-116308462D01*
X131127980Y-116356100D01*
X130955093Y-116448510D01*
X130851591Y-116517668D01*
X130700054Y-116642031D01*
X130612031Y-116730054D01*
X130487668Y-116881591D01*
X130418510Y-116985093D01*
X130326100Y-117157980D01*
X130278462Y-117272988D01*
X130221557Y-117460581D01*
X130197273Y-117582668D01*
X130178058Y-117777758D01*
X130175000Y-117840000D01*
X130175000Y-117891928D01*
X128690000Y-117891928D01*
X128565518Y-117904188D01*
X128445820Y-117940498D01*
X128335506Y-117999463D01*
X128238815Y-118078815D01*
X128159463Y-118175506D01*
X128100498Y-118285820D01*
X128064188Y-118405518D01*
X128055769Y-118491000D01*
X121841983Y-118491000D01*
X121803475Y-118433368D01*
X121596632Y-118226525D01*
X121422240Y-118110000D01*
X121596632Y-117993475D01*
X121803475Y-117786632D01*
X121965990Y-117543411D01*
X122077932Y-117273158D01*
X122135000Y-116986260D01*
X122135000Y-116693740D01*
X122077932Y-116406842D01*
X121965990Y-116136589D01*
X121803475Y-115893368D01*
X121596632Y-115686525D01*
X121422240Y-115570000D01*
X121596632Y-115453475D01*
X121803475Y-115246632D01*
X121965990Y-115003411D01*
X122077932Y-114733158D01*
X122135000Y-114446260D01*
X122135000Y-114153740D01*
X122077932Y-113866842D01*
X121965990Y-113596589D01*
X121803475Y-113353368D01*
X121671620Y-113221513D01*
X121744180Y-113199502D01*
X121854494Y-113140537D01*
X121951185Y-113061185D01*
X122030537Y-112964494D01*
X122089502Y-112854180D01*
X122125812Y-112734482D01*
X122138072Y-112610000D01*
X122138072Y-110910000D01*
X122125812Y-110785518D01*
X122089502Y-110665820D01*
X122030537Y-110555506D01*
X121951185Y-110458815D01*
X121854494Y-110379463D01*
X121744180Y-110320498D01*
X121624482Y-110284188D01*
X121500000Y-110271928D01*
X120234999Y-110271928D01*
X120234999Y-106841544D01*
X120503740Y-106895000D01*
X120796260Y-106895000D01*
X121083158Y-106837932D01*
X121353411Y-106725990D01*
X121596632Y-106563475D01*
X121803475Y-106356632D01*
X121965990Y-106113411D01*
X122077932Y-105843158D01*
X122135000Y-105556260D01*
X122135000Y-105263740D01*
X122077932Y-104976842D01*
X121965990Y-104706589D01*
X121803475Y-104463368D01*
X121596632Y-104256525D01*
X121422240Y-104140000D01*
X121596632Y-104023475D01*
X121803475Y-103816632D01*
X121965990Y-103573411D01*
X122077932Y-103303158D01*
X122135000Y-103016260D01*
X122135000Y-102723740D01*
X122077932Y-102436842D01*
X121965990Y-102166589D01*
X121803475Y-101923368D01*
X121596632Y-101716525D01*
X121422240Y-101600000D01*
X121596632Y-101483475D01*
X121803475Y-101276632D01*
X121965990Y-101033411D01*
X122077932Y-100763158D01*
X122135000Y-100476260D01*
X122135000Y-100183740D01*
X122077932Y-99896842D01*
X121965990Y-99626589D01*
X121803475Y-99383368D01*
X121596632Y-99176525D01*
X121422240Y-99060000D01*
X121596632Y-98943475D01*
X121803475Y-98736632D01*
X121965990Y-98493411D01*
X122077932Y-98223158D01*
X122135000Y-97936260D01*
X122135000Y-97643740D01*
X122077932Y-97356842D01*
X121965990Y-97086589D01*
X121803475Y-96843368D01*
X121596632Y-96636525D01*
X121422240Y-96520000D01*
X121596632Y-96403475D01*
X121803475Y-96196632D01*
X121965990Y-95953411D01*
X122077932Y-95683158D01*
X122135000Y-95396260D01*
X122135000Y-95103740D01*
X122077932Y-94816842D01*
X121965990Y-94546589D01*
X121803475Y-94303368D01*
X121596632Y-94096525D01*
X121422240Y-93980000D01*
X121596632Y-93863475D01*
X121803475Y-93656632D01*
X121965990Y-93413411D01*
X122077932Y-93143158D01*
X122135000Y-92856260D01*
X122135000Y-92563740D01*
X122077932Y-92276842D01*
X121965990Y-92006589D01*
X121803475Y-91763368D01*
X121596632Y-91556525D01*
X121422240Y-91440000D01*
X121596632Y-91323475D01*
X121803475Y-91116632D01*
X121965990Y-90873411D01*
X122077932Y-90603158D01*
X122135000Y-90316260D01*
X122135000Y-90023740D01*
X122077932Y-89736842D01*
X121965990Y-89466589D01*
X121803475Y-89223368D01*
X121671620Y-89091513D01*
X121744180Y-89069502D01*
X121854494Y-89010537D01*
X121951185Y-88931185D01*
X122030537Y-88834494D01*
X122089502Y-88724180D01*
X122125812Y-88604482D01*
X122138072Y-88480000D01*
X122138072Y-86780000D01*
X122125812Y-86655518D01*
X122089502Y-86535820D01*
X122030537Y-86425506D01*
X121951185Y-86328815D01*
X121854494Y-86249463D01*
X121744180Y-86190498D01*
X121624482Y-86154188D01*
X121500000Y-86141928D01*
X119800000Y-86141928D01*
X119675518Y-86154188D01*
X119555820Y-86190498D01*
X119445506Y-86249463D01*
X119348815Y-86328815D01*
X119269463Y-86425506D01*
X119210498Y-86535820D01*
X119174188Y-86655518D01*
X119161928Y-86780000D01*
X119161928Y-88480000D01*
X119174188Y-88604482D01*
X119210498Y-88724180D01*
X119269463Y-88834494D01*
X119348815Y-88931185D01*
X119445506Y-89010537D01*
X119555820Y-89069502D01*
X119628380Y-89091513D01*
X119496525Y-89223368D01*
X119334010Y-89466589D01*
X119222068Y-89736842D01*
X119165000Y-90023740D01*
X119165000Y-90316260D01*
X119178523Y-90384242D01*
X118748258Y-90814507D01*
X118714341Y-90842342D01*
X118686506Y-90876259D01*
X118686504Y-90876261D01*
X118603247Y-90977710D01*
X118520697Y-91132149D01*
X118469863Y-91299727D01*
X118452699Y-91474001D01*
X117500000Y-91474001D01*
X117500000Y-80952818D01*
X119886787Y-80952818D01*
X120378946Y-81555149D01*
X121229933Y-82025063D01*
X122156243Y-82319929D01*
X123122281Y-82428414D01*
X124090921Y-82346351D01*
X125024938Y-82076893D01*
X125888440Y-81630394D01*
X126001054Y-81555149D01*
X126493213Y-80952818D01*
X123190000Y-77649605D01*
X119886787Y-80952818D01*
X117500000Y-80952818D01*
X117500000Y-77402281D01*
X118231586Y-77402281D01*
X118313649Y-78370921D01*
X118583107Y-79304938D01*
X119029606Y-80168440D01*
X119104851Y-80281054D01*
X119707182Y-80773213D01*
X123010395Y-77470000D01*
X123369605Y-77470000D01*
X126672818Y-80773213D01*
X127275149Y-80281054D01*
X127745063Y-79430067D01*
X128039929Y-78503757D01*
X128148414Y-77537719D01*
X128066351Y-76569079D01*
X127796893Y-75635062D01*
X127350394Y-74771560D01*
X127275149Y-74658946D01*
X127170098Y-74573109D01*
X131908519Y-74573109D01*
X132029186Y-74803000D01*
X133223000Y-74803000D01*
X133223000Y-73609845D01*
X133477000Y-73609845D01*
X133477000Y-74803000D01*
X135763000Y-74803000D01*
X135763000Y-73609845D01*
X136017000Y-73609845D01*
X136017000Y-74803000D01*
X138303000Y-74803000D01*
X138303000Y-73609845D01*
X138557000Y-73609845D01*
X138557000Y-74803000D01*
X140843000Y-74803000D01*
X140843000Y-73609845D01*
X140613110Y-73488524D01*
X140465901Y-73533175D01*
X140203080Y-73658359D01*
X139969731Y-73832412D01*
X139774822Y-74048645D01*
X139700000Y-74174255D01*
X139625178Y-74048645D01*
X139430269Y-73832412D01*
X139196920Y-73658359D01*
X138934099Y-73533175D01*
X138786890Y-73488524D01*
X138557000Y-73609845D01*
X138303000Y-73609845D01*
X138073110Y-73488524D01*
X137925901Y-73533175D01*
X137663080Y-73658359D01*
X137429731Y-73832412D01*
X137234822Y-74048645D01*
X137160000Y-74174255D01*
X137085178Y-74048645D01*
X136890269Y-73832412D01*
X136656920Y-73658359D01*
X136394099Y-73533175D01*
X136246890Y-73488524D01*
X136017000Y-73609845D01*
X135763000Y-73609845D01*
X135533110Y-73488524D01*
X135385901Y-73533175D01*
X135123080Y-73658359D01*
X134889731Y-73832412D01*
X134694822Y-74048645D01*
X134620000Y-74174255D01*
X134545178Y-74048645D01*
X134350269Y-73832412D01*
X134116920Y-73658359D01*
X133854099Y-73533175D01*
X133706890Y-73488524D01*
X133477000Y-73609845D01*
X133223000Y-73609845D01*
X132993110Y-73488524D01*
X132845901Y-73533175D01*
X132583080Y-73658359D01*
X132349731Y-73832412D01*
X132154822Y-74048645D01*
X132005843Y-74298748D01*
X131908519Y-74573109D01*
X127170098Y-74573109D01*
X126672818Y-74166787D01*
X123369605Y-77470000D01*
X123010395Y-77470000D01*
X119707182Y-74166787D01*
X119104851Y-74658946D01*
X118634937Y-75509933D01*
X118340071Y-76436243D01*
X118231586Y-77402281D01*
X117500000Y-77402281D01*
X117500000Y-74962279D01*
X117563096Y-74318778D01*
X117663210Y-73987182D01*
X119886787Y-73987182D01*
X123190000Y-77290395D01*
X126493213Y-73987182D01*
X126001054Y-73384851D01*
X125150067Y-72914937D01*
X124223757Y-72620071D01*
X123257719Y-72511586D01*
X122289079Y-72593649D01*
X121355062Y-72863107D01*
X120491560Y-73309606D01*
X120378946Y-73384851D01*
X119886787Y-73987182D01*
X117663210Y-73987182D01*
X117740606Y-73730836D01*
X118028937Y-73188564D01*
X118417094Y-72712636D01*
X118890314Y-72321155D01*
X119430552Y-72029049D01*
X120017244Y-71847437D01*
X120658879Y-71780000D01*
X171417721Y-71780000D01*
X172061222Y-71843096D01*
G36*
X148116972Y-87876760D02*
G01*
X148116973Y-97150060D01*
X148047845Y-97178694D01*
X147878327Y-97291962D01*
X147734164Y-97436125D01*
X147620896Y-97605643D01*
X147542875Y-97794001D01*
X147503101Y-97993960D01*
X147503101Y-98197838D01*
X147542875Y-98397797D01*
X147620896Y-98586155D01*
X147734164Y-98755673D01*
X147878327Y-98899836D01*
X148047845Y-99013104D01*
X148236203Y-99091125D01*
X148436162Y-99130899D01*
X148640040Y-99130899D01*
X148839999Y-99091125D01*
X149028357Y-99013104D01*
X149197875Y-98899836D01*
X149279240Y-98818471D01*
X149265000Y-98890061D01*
X149265000Y-99093939D01*
X149304774Y-99293898D01*
X149382795Y-99482256D01*
X149496063Y-99651774D01*
X149640226Y-99795937D01*
X149809744Y-99909205D01*
X149998102Y-99987226D01*
X150198061Y-100027000D01*
X150265001Y-100027000D01*
X150265001Y-100191763D01*
X148337895Y-102118870D01*
X148288102Y-102128774D01*
X148099744Y-102206795D01*
X147930226Y-102320063D01*
X147786063Y-102464226D01*
X147672795Y-102633744D01*
X147594774Y-102822102D01*
X147555000Y-103022061D01*
X147555000Y-103225939D01*
X147594774Y-103425898D01*
X147672795Y-103614256D01*
X147786063Y-103783774D01*
X147930226Y-103927937D01*
X148099744Y-104041205D01*
X148288102Y-104119226D01*
X148488061Y-104159000D01*
X148691939Y-104159000D01*
X148891898Y-104119226D01*
X149080256Y-104041205D01*
X149249774Y-103927937D01*
X149393937Y-103783774D01*
X149507205Y-103614256D01*
X149585226Y-103425898D01*
X149595130Y-103376105D01*
X151751744Y-101219492D01*
X151785660Y-101191658D01*
X151896754Y-101056290D01*
X151979304Y-100901850D01*
X152030137Y-100734273D01*
X152043001Y-100603666D01*
X152043001Y-100603659D01*
X152047301Y-100559999D01*
X152043001Y-100516339D01*
X152043001Y-97003945D01*
X153173162Y-98134106D01*
X153183066Y-98183898D01*
X153261087Y-98372256D01*
X153374355Y-98541774D01*
X153518518Y-98685937D01*
X153688036Y-98799205D01*
X153876394Y-98877226D01*
X154076353Y-98917000D01*
X154280231Y-98917000D01*
X154305000Y-98912073D01*
X154305000Y-115808806D01*
X154294973Y-115910606D01*
X154274377Y-115978506D01*
X154240931Y-116041077D01*
X154195922Y-116095922D01*
X154141077Y-116140931D01*
X154078506Y-116174377D01*
X154010606Y-116194973D01*
X153908806Y-116205000D01*
X148209000Y-116205000D01*
X148209000Y-108482468D01*
X148237205Y-108440256D01*
X148315226Y-108251898D01*
X148355000Y-108051939D01*
X148355000Y-107848061D01*
X148315226Y-107648102D01*
X148237205Y-107459744D01*
X148123937Y-107290226D01*
X147979774Y-107146063D01*
X147810256Y-107032795D01*
X147621898Y-106954774D01*
X147421939Y-106915000D01*
X147218061Y-106915000D01*
X147018102Y-106954774D01*
X146829744Y-107032795D01*
X146787532Y-107061000D01*
X144386236Y-107061000D01*
X143672010Y-106346775D01*
X143672010Y-98123225D01*
X143853737Y-97941498D01*
X143887659Y-97913659D01*
X143998753Y-97778291D01*
X144081303Y-97623851D01*
X144132136Y-97456274D01*
X144145000Y-97325667D01*
X144145000Y-97325660D01*
X144147217Y-97303150D01*
X144173205Y-97264256D01*
X144251226Y-97075898D01*
X144291000Y-96875939D01*
X144291000Y-96672061D01*
X144251226Y-96472102D01*
X144173205Y-96283744D01*
X144059937Y-96114226D01*
X143915774Y-95970063D01*
X143746256Y-95856795D01*
X143557898Y-95778774D01*
X143357939Y-95739000D01*
X143154061Y-95739000D01*
X142964000Y-95776805D01*
X142964000Y-90957235D01*
X145032106Y-88889130D01*
X145081898Y-88879226D01*
X145270256Y-88801205D01*
X145439774Y-88687937D01*
X145583937Y-88543774D01*
X145697205Y-88374256D01*
X145775226Y-88185898D01*
X145815000Y-87985939D01*
X145815000Y-87782061D01*
X145775226Y-87582102D01*
X145697205Y-87393744D01*
X145583937Y-87224226D01*
X145500731Y-87141020D01*
X147381233Y-87141020D01*
X148116972Y-87876760D01*
G37*
X148116972Y-87876760D02*
X148116973Y-97150060D01*
X148047845Y-97178694D01*
X147878327Y-97291962D01*
X147734164Y-97436125D01*
X147620896Y-97605643D01*
X147542875Y-97794001D01*
X147503101Y-97993960D01*
X147503101Y-98197838D01*
X147542875Y-98397797D01*
X147620896Y-98586155D01*
X147734164Y-98755673D01*
X147878327Y-98899836D01*
X148047845Y-99013104D01*
X148236203Y-99091125D01*
X148436162Y-99130899D01*
X148640040Y-99130899D01*
X148839999Y-99091125D01*
X149028357Y-99013104D01*
X149197875Y-98899836D01*
X149279240Y-98818471D01*
X149265000Y-98890061D01*
X149265000Y-99093939D01*
X149304774Y-99293898D01*
X149382795Y-99482256D01*
X149496063Y-99651774D01*
X149640226Y-99795937D01*
X149809744Y-99909205D01*
X149998102Y-99987226D01*
X150198061Y-100027000D01*
X150265001Y-100027000D01*
X150265001Y-100191763D01*
X148337895Y-102118870D01*
X148288102Y-102128774D01*
X148099744Y-102206795D01*
X147930226Y-102320063D01*
X147786063Y-102464226D01*
X147672795Y-102633744D01*
X147594774Y-102822102D01*
X147555000Y-103022061D01*
X147555000Y-103225939D01*
X147594774Y-103425898D01*
X147672795Y-103614256D01*
X147786063Y-103783774D01*
X147930226Y-103927937D01*
X148099744Y-104041205D01*
X148288102Y-104119226D01*
X148488061Y-104159000D01*
X148691939Y-104159000D01*
X148891898Y-104119226D01*
X149080256Y-104041205D01*
X149249774Y-103927937D01*
X149393937Y-103783774D01*
X149507205Y-103614256D01*
X149585226Y-103425898D01*
X149595130Y-103376105D01*
X151751744Y-101219492D01*
X151785660Y-101191658D01*
X151896754Y-101056290D01*
X151979304Y-100901850D01*
X152030137Y-100734273D01*
X152043001Y-100603666D01*
X152043001Y-100603659D01*
X152047301Y-100559999D01*
X152043001Y-100516339D01*
X152043001Y-97003945D01*
X153173162Y-98134106D01*
X153183066Y-98183898D01*
X153261087Y-98372256D01*
X153374355Y-98541774D01*
X153518518Y-98685937D01*
X153688036Y-98799205D01*
X153876394Y-98877226D01*
X154076353Y-98917000D01*
X154280231Y-98917000D01*
X154305000Y-98912073D01*
X154305000Y-115808806D01*
X154294973Y-115910606D01*
X154274377Y-115978506D01*
X154240931Y-116041077D01*
X154195922Y-116095922D01*
X154141077Y-116140931D01*
X154078506Y-116174377D01*
X154010606Y-116194973D01*
X153908806Y-116205000D01*
X148209000Y-116205000D01*
X148209000Y-108482468D01*
X148237205Y-108440256D01*
X148315226Y-108251898D01*
X148355000Y-108051939D01*
X148355000Y-107848061D01*
X148315226Y-107648102D01*
X148237205Y-107459744D01*
X148123937Y-107290226D01*
X147979774Y-107146063D01*
X147810256Y-107032795D01*
X147621898Y-106954774D01*
X147421939Y-106915000D01*
X147218061Y-106915000D01*
X147018102Y-106954774D01*
X146829744Y-107032795D01*
X146787532Y-107061000D01*
X144386236Y-107061000D01*
X143672010Y-106346775D01*
X143672010Y-98123225D01*
X143853737Y-97941498D01*
X143887659Y-97913659D01*
X143998753Y-97778291D01*
X144081303Y-97623851D01*
X144132136Y-97456274D01*
X144145000Y-97325667D01*
X144145000Y-97325660D01*
X144147217Y-97303150D01*
X144173205Y-97264256D01*
X144251226Y-97075898D01*
X144291000Y-96875939D01*
X144291000Y-96672061D01*
X144251226Y-96472102D01*
X144173205Y-96283744D01*
X144059937Y-96114226D01*
X143915774Y-95970063D01*
X143746256Y-95856795D01*
X143557898Y-95778774D01*
X143357939Y-95739000D01*
X143154061Y-95739000D01*
X142964000Y-95776805D01*
X142964000Y-90957235D01*
X145032106Y-88889130D01*
X145081898Y-88879226D01*
X145270256Y-88801205D01*
X145439774Y-88687937D01*
X145583937Y-88543774D01*
X145697205Y-88374256D01*
X145775226Y-88185898D01*
X145815000Y-87985939D01*
X145815000Y-87782061D01*
X145775226Y-87582102D01*
X145697205Y-87393744D01*
X145583937Y-87224226D01*
X145500731Y-87141020D01*
X147381233Y-87141020D01*
X148116972Y-87876760D01*
G36*
X149901591Y-84142332D02*
G01*
X150005093Y-84211490D01*
X150177980Y-84303900D01*
X150292988Y-84351538D01*
X150480581Y-84408443D01*
X150602668Y-84432727D01*
X150797758Y-84451942D01*
X150860000Y-84455000D01*
X153908806Y-84455000D01*
X154010606Y-84465027D01*
X154078506Y-84485623D01*
X154141077Y-84519069D01*
X154195922Y-84564078D01*
X154240931Y-84618923D01*
X154274377Y-84681494D01*
X154294973Y-84749394D01*
X154305000Y-84851194D01*
X154305000Y-96751472D01*
X152019000Y-94465473D01*
X152019000Y-86672391D01*
X152023301Y-86628723D01*
X152006136Y-86454448D01*
X151956352Y-86290331D01*
X151955303Y-86286872D01*
X151872753Y-86132432D01*
X151761659Y-85997064D01*
X151727742Y-85969229D01*
X149897427Y-84138915D01*
X149901591Y-84142332D01*
G37*
X149901591Y-84142332D02*
X150005093Y-84211490D01*
X150177980Y-84303900D01*
X150292988Y-84351538D01*
X150480581Y-84408443D01*
X150602668Y-84432727D01*
X150797758Y-84451942D01*
X150860000Y-84455000D01*
X153908806Y-84455000D01*
X154010606Y-84465027D01*
X154078506Y-84485623D01*
X154141077Y-84519069D01*
X154195922Y-84564078D01*
X154240931Y-84618923D01*
X154274377Y-84681494D01*
X154294973Y-84749394D01*
X154305000Y-84851194D01*
X154305000Y-96751472D01*
X152019000Y-94465473D01*
X152019000Y-86672391D01*
X152023301Y-86628723D01*
X152006136Y-86454448D01*
X151956352Y-86290331D01*
X151955303Y-86286872D01*
X151872753Y-86132432D01*
X151761659Y-85997064D01*
X151727742Y-85969229D01*
X149897427Y-84138915D01*
X149901591Y-84142332D01*
%TD*%
M02*
